G04 #@! TF.FileFunction,Soldermask,Top*
%FSLAX46Y46*%
G04 Gerber Fmt 4.6, Leading zero omitted, Abs format (unit mm)*
G04 Created by KiCad (PCBNEW (2014-12-08 BZR 5317)-product) date sam. 06 juin 2015 11:44:28 CEST*
%MOMM*%
G01*
G04 APERTURE LIST*
%ADD10C,0.100000*%
%ADD11R,1.500000X0.900000*%
%ADD12O,1.998980X1.501140*%
%ADD13C,3.500120*%
%ADD14R,1.727200X1.727200*%
%ADD15O,1.727200X1.727200*%
%ADD16R,1.905000X1.905000*%
%ADD17C,1.905000*%
%ADD18R,2.032000X1.727200*%
%ADD19O,2.032000X1.727200*%
%ADD20R,1.397000X1.397000*%
%ADD21C,1.397000*%
%ADD22O,1.524000X1.524000*%
%ADD23R,1.727200X2.032000*%
%ADD24O,1.727200X2.032000*%
%ADD25O,1.524000X2.540000*%
%ADD26C,3.175000*%
%ADD27C,1.524000*%
%ADD28R,1.699260X1.699260*%
%ADD29C,1.998980*%
%ADD30R,2.032000X2.032000*%
%ADD31O,2.032000X2.032000*%
%ADD32R,2.235200X2.235200*%
%ADD33O,3.000000X2.000000*%
%ADD34O,2.000000X3.000000*%
%ADD35C,1.302000*%
G04 APERTURE END LIST*
D10*
D11*
X195363000Y-120522000D03*
X195363000Y-117222000D03*
X190463000Y-117222000D03*
X190463000Y-120522000D03*
X190590000Y-82932000D03*
X190590000Y-86232000D03*
X195490000Y-86232000D03*
X195490000Y-82932000D03*
D12*
X181221380Y-128056640D03*
X181221380Y-130556000D03*
X181221380Y-133055360D03*
D13*
X188722000Y-124355860D03*
X188722000Y-136756140D03*
D12*
X195722240Y-128056640D03*
X195722240Y-133055360D03*
D14*
X177800000Y-83058000D03*
D15*
X177800000Y-85598000D03*
X175260000Y-83058000D03*
X175260000Y-85598000D03*
X172720000Y-83058000D03*
X172720000Y-85598000D03*
X170180000Y-83058000D03*
X170180000Y-85598000D03*
X167640000Y-83058000D03*
X167640000Y-85598000D03*
D14*
X177800000Y-90678000D03*
D15*
X177800000Y-93218000D03*
X175260000Y-90678000D03*
X175260000Y-93218000D03*
X172720000Y-90678000D03*
X172720000Y-93218000D03*
X170180000Y-90678000D03*
X170180000Y-93218000D03*
X167640000Y-90678000D03*
X167640000Y-93218000D03*
D14*
X177800000Y-98552000D03*
D15*
X177800000Y-101092000D03*
X175260000Y-98552000D03*
X175260000Y-101092000D03*
X172720000Y-98552000D03*
X172720000Y-101092000D03*
X170180000Y-98552000D03*
X170180000Y-101092000D03*
X167640000Y-98552000D03*
X167640000Y-101092000D03*
D16*
X174244000Y-130048000D03*
D17*
X169164000Y-130048000D03*
D14*
X131318000Y-104648000D03*
D15*
X131318000Y-102108000D03*
X133858000Y-104648000D03*
X133858000Y-102108000D03*
X136398000Y-104648000D03*
X136398000Y-102108000D03*
X138938000Y-104648000D03*
X138938000Y-102108000D03*
X141478000Y-104648000D03*
X141478000Y-102108000D03*
D18*
X108458000Y-73279000D03*
D19*
X108458000Y-75819000D03*
X108458000Y-78359000D03*
X108458000Y-80899000D03*
D18*
X102235000Y-73279000D03*
D19*
X102235000Y-75819000D03*
X102235000Y-78359000D03*
X102235000Y-80899000D03*
D18*
X114808000Y-73279000D03*
D19*
X114808000Y-75819000D03*
X114808000Y-78359000D03*
X114808000Y-80899000D03*
D18*
X186182000Y-88392000D03*
D19*
X186182000Y-85852000D03*
X186182000Y-83312000D03*
D20*
X161544000Y-83312000D03*
D21*
X161544000Y-85852000D03*
X161544000Y-88392000D03*
X161544000Y-90932000D03*
X161544000Y-93472000D03*
X161544000Y-96012000D03*
X161544000Y-98552000D03*
X161544000Y-101092000D03*
X161544000Y-103632000D03*
D22*
X106883200Y-134594600D03*
X100380800Y-134594600D03*
X106883200Y-130073400D03*
X100380800Y-130073400D03*
D20*
X169926000Y-79502000D03*
D21*
X172466000Y-79502000D03*
X175006000Y-79502000D03*
X177546000Y-79502000D03*
X180086000Y-79502000D03*
X182626000Y-79502000D03*
X185166000Y-79502000D03*
X187706000Y-79502000D03*
X187706000Y-71882000D03*
X185166000Y-71882000D03*
X182626000Y-71882000D03*
X180086000Y-71882000D03*
X177546000Y-71882000D03*
X175006000Y-71882000D03*
X172466000Y-71882000D03*
X169926000Y-71882000D03*
D20*
X126746000Y-116586000D03*
D21*
X129286000Y-116586000D03*
X131826000Y-116586000D03*
X134366000Y-116586000D03*
X136906000Y-116586000D03*
X139446000Y-116586000D03*
X141986000Y-116586000D03*
X144526000Y-116586000D03*
X147066000Y-116586000D03*
X147066000Y-108966000D03*
X144526000Y-108966000D03*
X141986000Y-108966000D03*
X139446000Y-108966000D03*
X136906000Y-108966000D03*
X134366000Y-108966000D03*
X131826000Y-108966000D03*
X129286000Y-108966000D03*
X126746000Y-108966000D03*
D23*
X107696000Y-126238000D03*
D24*
X110236000Y-126238000D03*
X112776000Y-126238000D03*
X115316000Y-126238000D03*
X117856000Y-126238000D03*
X120396000Y-126238000D03*
D14*
X177800000Y-106172000D03*
D15*
X177800000Y-108712000D03*
X175260000Y-106172000D03*
X175260000Y-108712000D03*
X172720000Y-106172000D03*
X172720000Y-108712000D03*
X170180000Y-106172000D03*
X170180000Y-108712000D03*
X167640000Y-106172000D03*
X167640000Y-108712000D03*
D25*
X151384000Y-138176000D03*
X148844000Y-138176000D03*
X146304000Y-138176000D03*
X138684000Y-138176000D03*
X141224000Y-138176000D03*
X143764000Y-138176000D03*
X133604000Y-138176000D03*
X131064000Y-138176000D03*
X128524000Y-138176000D03*
X123444000Y-138176000D03*
X120904000Y-138176000D03*
X151384000Y-89916000D03*
X148844000Y-89916000D03*
X146304000Y-89916000D03*
X143764000Y-89916000D03*
X141224000Y-89916000D03*
X138684000Y-89916000D03*
X136144000Y-89916000D03*
X133604000Y-89916000D03*
X129540000Y-89916000D03*
X127000000Y-89916000D03*
X124460000Y-89916000D03*
X121920000Y-89916000D03*
X119380000Y-89916000D03*
X116840000Y-89916000D03*
X114300000Y-89916000D03*
X111760000Y-89916000D03*
X125984000Y-138176000D03*
D26*
X153924000Y-133096000D03*
X153924000Y-105156000D03*
X103124000Y-89916000D03*
X101854000Y-138176000D03*
D25*
X109220000Y-89916000D03*
X106680000Y-89916000D03*
X118364000Y-138176000D03*
X115824000Y-138176000D03*
D27*
X151384000Y-110236000D03*
X153924000Y-110236000D03*
X151384000Y-112776000D03*
X153924000Y-112776000D03*
X151384000Y-115316000D03*
X153924000Y-115316000D03*
D28*
X100711000Y-120650000D03*
D29*
X100711000Y-118110000D03*
D28*
X106680000Y-142748000D03*
D29*
X106680000Y-145288000D03*
D28*
X117856000Y-142748000D03*
D29*
X117856000Y-145288000D03*
D28*
X129286000Y-142748000D03*
D29*
X129286000Y-145288000D03*
D28*
X140716000Y-142748000D03*
D29*
X140716000Y-145288000D03*
D28*
X152400000Y-142748000D03*
D29*
X152400000Y-145288000D03*
D28*
X163576000Y-142748000D03*
D29*
X163576000Y-145288000D03*
D28*
X175006000Y-142748000D03*
D29*
X175006000Y-145288000D03*
D28*
X186436000Y-142748000D03*
D29*
X186436000Y-145288000D03*
D28*
X100330000Y-68580000D03*
D29*
X102870000Y-68580000D03*
D28*
X111760000Y-68580000D03*
D29*
X114300000Y-68580000D03*
D28*
X123190000Y-68580000D03*
D29*
X125730000Y-68580000D03*
D28*
X134620000Y-68580000D03*
D29*
X137160000Y-68580000D03*
D28*
X146050000Y-68580000D03*
D29*
X148590000Y-68580000D03*
D28*
X157480000Y-68580000D03*
D29*
X160020000Y-68580000D03*
D28*
X168910000Y-68580000D03*
D29*
X171450000Y-68580000D03*
D28*
X180340000Y-68580000D03*
D29*
X182880000Y-68580000D03*
D28*
X194945000Y-69215000D03*
D29*
X192405000Y-69215000D03*
D28*
X193040000Y-139700000D03*
D29*
X190500000Y-139700000D03*
D30*
X191262000Y-112141000D03*
D31*
X188722000Y-112141000D03*
D20*
X136144000Y-129032000D03*
D21*
X138684000Y-129032000D03*
X141224000Y-129032000D03*
X143764000Y-129032000D03*
X146304000Y-129032000D03*
X148844000Y-129032000D03*
X151384000Y-129032000D03*
X153924000Y-129032000D03*
X156464000Y-129032000D03*
D32*
X100330000Y-124968000D03*
D30*
X171602400Y-115925600D03*
D31*
X174142400Y-115925600D03*
D33*
X101600000Y-56130000D03*
D34*
X103600000Y-59530000D03*
X99250000Y-66530000D03*
D29*
X101500000Y-62530000D03*
D34*
X103950000Y-66530000D03*
X99600000Y-56830000D03*
X99850000Y-60430000D03*
D35*
X101600000Y-58130000D03*
X101600000Y-64130000D03*
D33*
X113030000Y-56130000D03*
D34*
X115030000Y-59530000D03*
X110680000Y-66530000D03*
D29*
X112930000Y-62530000D03*
D34*
X115380000Y-66530000D03*
X111030000Y-56830000D03*
X111280000Y-60430000D03*
D35*
X113030000Y-58130000D03*
X113030000Y-64130000D03*
D33*
X124460000Y-56130000D03*
D34*
X126460000Y-59530000D03*
X122110000Y-66530000D03*
D29*
X124360000Y-62530000D03*
D34*
X126810000Y-66530000D03*
X122460000Y-56830000D03*
X122710000Y-60430000D03*
D35*
X124460000Y-58130000D03*
X124460000Y-64130000D03*
D33*
X135890000Y-56130000D03*
D34*
X137890000Y-59530000D03*
X133540000Y-66530000D03*
D29*
X135790000Y-62530000D03*
D34*
X138240000Y-66530000D03*
X133890000Y-56830000D03*
X134140000Y-60430000D03*
D35*
X135890000Y-58130000D03*
X135890000Y-64130000D03*
D33*
X147320000Y-56130000D03*
D34*
X149320000Y-59530000D03*
X144970000Y-66530000D03*
D29*
X147220000Y-62530000D03*
D34*
X149670000Y-66530000D03*
X145320000Y-56830000D03*
X145570000Y-60430000D03*
D35*
X147320000Y-58130000D03*
X147320000Y-64130000D03*
D33*
X158750000Y-56130000D03*
D34*
X160750000Y-59530000D03*
X156400000Y-66530000D03*
D29*
X158650000Y-62530000D03*
D34*
X161100000Y-66530000D03*
X156750000Y-56830000D03*
X157000000Y-60430000D03*
D35*
X158750000Y-58130000D03*
X158750000Y-64130000D03*
D33*
X170180000Y-56130000D03*
D34*
X172180000Y-59530000D03*
X167830000Y-66530000D03*
D29*
X170080000Y-62530000D03*
D34*
X172530000Y-66530000D03*
X168180000Y-56830000D03*
X168430000Y-60430000D03*
D35*
X170180000Y-58130000D03*
X170180000Y-64130000D03*
D33*
X181610000Y-56130000D03*
D34*
X183610000Y-59530000D03*
X179260000Y-66530000D03*
D29*
X181510000Y-62530000D03*
D34*
X183960000Y-66530000D03*
X179610000Y-56830000D03*
X179860000Y-60430000D03*
D35*
X181610000Y-58130000D03*
X181610000Y-64130000D03*
D33*
X192405000Y-56130000D03*
D34*
X194405000Y-59530000D03*
X190055000Y-66530000D03*
D29*
X192305000Y-62530000D03*
D34*
X194755000Y-66530000D03*
X190405000Y-56830000D03*
X190655000Y-60430000D03*
D35*
X192405000Y-58130000D03*
X192405000Y-64130000D03*
D33*
X192405000Y-152785000D03*
D34*
X190405000Y-149385000D03*
X194755000Y-142385000D03*
D29*
X192505000Y-146385000D03*
D34*
X190055000Y-142385000D03*
X194405000Y-152085000D03*
X194155000Y-148485000D03*
D35*
X192405000Y-150785000D03*
X192405000Y-144785000D03*
D33*
X181610000Y-152785000D03*
D34*
X179610000Y-149385000D03*
X183960000Y-142385000D03*
D29*
X181710000Y-146385000D03*
D34*
X179260000Y-142385000D03*
X183610000Y-152085000D03*
X183360000Y-148485000D03*
D35*
X181610000Y-150785000D03*
X181610000Y-144785000D03*
D33*
X170180000Y-152785000D03*
D34*
X168180000Y-149385000D03*
X172530000Y-142385000D03*
D29*
X170280000Y-146385000D03*
D34*
X167830000Y-142385000D03*
X172180000Y-152085000D03*
X171930000Y-148485000D03*
D35*
X170180000Y-150785000D03*
X170180000Y-144785000D03*
D33*
X158750000Y-152785000D03*
D34*
X156750000Y-149385000D03*
X161100000Y-142385000D03*
D29*
X158850000Y-146385000D03*
D34*
X156400000Y-142385000D03*
X160750000Y-152085000D03*
X160500000Y-148485000D03*
D35*
X158750000Y-150785000D03*
X158750000Y-144785000D03*
D33*
X147320000Y-152785000D03*
D34*
X145320000Y-149385000D03*
X149670000Y-142385000D03*
D29*
X147420000Y-146385000D03*
D34*
X144970000Y-142385000D03*
X149320000Y-152085000D03*
X149070000Y-148485000D03*
D35*
X147320000Y-150785000D03*
X147320000Y-144785000D03*
D33*
X135890000Y-152785000D03*
D34*
X133890000Y-149385000D03*
X138240000Y-142385000D03*
D29*
X135990000Y-146385000D03*
D34*
X133540000Y-142385000D03*
X137890000Y-152085000D03*
X137640000Y-148485000D03*
D35*
X135890000Y-150785000D03*
X135890000Y-144785000D03*
D33*
X124460000Y-152785000D03*
D34*
X122460000Y-149385000D03*
X126810000Y-142385000D03*
D29*
X124560000Y-146385000D03*
D34*
X122110000Y-142385000D03*
X126460000Y-152085000D03*
X126210000Y-148485000D03*
D35*
X124460000Y-150785000D03*
X124460000Y-144785000D03*
D33*
X113030000Y-152785000D03*
D34*
X111030000Y-149385000D03*
X115380000Y-142385000D03*
D29*
X113130000Y-146385000D03*
D34*
X110680000Y-142385000D03*
X115030000Y-152085000D03*
X114780000Y-148485000D03*
D35*
X113030000Y-150785000D03*
X113030000Y-144785000D03*
D33*
X101600000Y-152785000D03*
D34*
X99600000Y-149385000D03*
X103950000Y-142385000D03*
D29*
X101700000Y-146385000D03*
D34*
X99250000Y-142385000D03*
X103600000Y-152085000D03*
X103350000Y-148485000D03*
D35*
X101600000Y-150785000D03*
X101600000Y-144785000D03*
M02*
