<?xml version="1.0" standalone="no"?>
 <!DOCTYPE svg PUBLIC "-//W3C//DTD SVG 1.1//EN" 
 "http://www.w3.org/Graphics/SVG/1.1/DTD/svg11.dtd"> 
<svg xmlns="http://www.w3.org/2000/svg" version="1.1" 
    width="29.7002cm" height="21.0007cm" viewBox="0 0 116930 82680 ">
<title>SVG Picture created as Autoduino-rev2-F_SilkS.svg date 2015/06/29 22:41:01 </title>
  <desc>Picture generated by PCBNEW </desc>
<g style="fill:#000000; fill-opacity:1;stroke:#000000; stroke-opacity:1;
stroke-linecap:round; stroke-linejoin:round; "
 transform="translate(0 0) scale(1 1)">
</g>
<g style="fill:#000000; fill-opacity:0.0; 
stroke:#000000; stroke-width:78.7402; stroke-opacity:1; 
stroke-linecap:round; stroke-linejoin:round;">
<path d="M38700 34400
L38700 55400
" />
<path d="M60100 34400
L38700 34400
" />
<path d="M60200 34500
L60100 34400
" />
<path d="M60600 34900
L60200 34500
" />
<path d="M60600 39400
L60600 34900
" />
<path d="M61600 40400
L60600 39400
" />
<path d="M61600 53400
L61600 40400
" />
<path d="M60600 54400
L61600 53400
" />
<path d="M60600 55400
L60600 54400
" />
<path d="M38700 55400
L60600 55400
" />
<path d="M48400 36100
L48400 48100
" />
<path d="M41400 36100
L48400 36100
" />
</g>
<g style="fill:#000000; fill-opacity:0.0; 
stroke:#000000; stroke-width:118.11; stroke-opacity:1; 
stroke-linecap:round; stroke-linejoin:round;">
<path d="M41957 43999
L41985 43915
L42014 43887
L42070 43858
L42154 43858
L42210 43887
L42239 43915
L42267 43971
L42267 44196
L41676 44196
L41676 43999
L41704 43943
L41732 43915
L41789 43887
L41845 43887
L41901 43915
L41929 43943
L41957 43999
L41957 44196
" />
<path d="M42267 43521
L42239 43577
L42182 43605
L41676 43605
" />
<path d="M41873 43043
L42267 43043
" />
<path d="M41873 43296
L42182 43296
L42239 43268
L42267 43212
L42267 43127
L42239 43071
L42210 43043
" />
<path d="M42239 42537
L42267 42593
L42267 42705
L42239 42762
L42182 42790
L41957 42790
L41901 42762
L41873 42705
L41873 42593
L41901 42537
L41957 42509
L42014 42509
L42070 42790
" />
<path d="M41676 42340
L41676 42002
" />
<path d="M42267 42171
L41676 42171
" />
<path d="M42267 41721
L42239 41777
L42210 41806
L42154 41834
L41985 41834
L41929 41806
L41901 41777
L41873 41721
L41873 41637
L41901 41581
L41929 41552
L41985 41524
L42154 41524
L42210 41552
L42239 41581
L42267 41637
L42267 41721
" />
<path d="M42267 41187
L42239 41243
L42210 41271
L42154 41299
L41985 41299
L41929 41271
L41901 41243
L41873 41187
L41873 41103
L41901 41046
L41929 41018
L41985 40990
L42154 40990
L42210 41018
L42239 41046
L42267 41103
L42267 41187
" />
<path d="M41873 40821
L41873 40596
" />
<path d="M41676 40737
L42182 40737
L42239 40709
L42267 40653
L42267 40596
" />
<path d="M42267 40400
L41676 40400
" />
<path d="M42267 40146
L41957 40146
L41901 40175
L41873 40231
L41873 40315
L41901 40371
L41929 40400
" />
<path d="M42267 39415
L41676 39415
L42098 39218
L41676 39022
L42267 39022
" />
<path d="M42267 38656
L42239 38712
L42210 38740
L42154 38768
L41985 38768
L41929 38740
L41901 38712
L41873 38656
L41873 38572
L41901 38515
L41929 38487
L41985 38459
L42154 38459
L42210 38487
L42239 38515
L42267 38572
L42267 38656
" />
<path d="M42267 37953
L41676 37953
" />
<path d="M42239 37953
L42267 38009
L42267 38122
L42239 38178
L42210 38206
L42154 38234
L41985 38234
L41929 38206
L41901 38178
L41873 38122
L41873 38009
L41901 37953
" />
<path d="M41873 37419
L42267 37419
" />
<path d="M41873 37672
L42182 37672
L42239 37644
L42267 37587
L42267 37503
L42239 37447
L42210 37419
" />
<path d="M42267 37053
L42239 37109
L42182 37137
L41676 37137
" />
<path d="M42239 36603
L42267 36659
L42267 36772
L42239 36828
L42182 36856
L41957 36856
L41901 36828
L41873 36772
L41873 36659
L41901 36603
L41957 36575
L42014 36575
L42070 36856
" />
</g>
<g style="fill:#000000; fill-opacity:0.0; 
stroke:#000000; stroke-width:78.7402; stroke-opacity:1; 
stroke-linecap:round; stroke-linejoin:round;">
<path d="M41400 48100
L41400 36100
" />
<path d="M40300 31900
L45200 31900
" />
<path d="M40300 30900
L45200 30900
" />
<path d="M40300 29900
L45200 29900
" />
<path d="M45200 28800
L40300 28800
" />
<path d="M40200 28800
L45200 28800
" />
<path d="M42978 52771
L42790 52903
" />
<path d="M42978 52996
L42584 52996
L42584 52846
L42603 52809
L42621 52790
L42659 52771
L42715 52771
L42753 52790
L42771 52809
L42790 52846
L42790 52996
" />
<path d="M42771 52603
L42771 52471
" />
<path d="M42978 52415
L42978 52603
L42584 52603
L42584 52415
" />
<path d="M42959 52265
L42978 52209
L42978 52115
L42959 52078
L42940 52059
L42903 52040
L42865 52040
L42828 52059
L42809 52078
L42790 52115
L42771 52190
L42753 52228
L42734 52246
L42696 52265
L42659 52265
L42621 52246
L42603 52228
L42584 52190
L42584 52096
L42603 52040
" />
<path d="M42771 51871
L42771 51740
" />
<path d="M42978 51684
L42978 51871
L42584 51871
L42584 51684
" />
<path d="M42584 51571
L42584 51346
" />
<path d="M42978 51459
L42584 51459
" />
<path d="M43184 45171
L43184 44946
" />
<path d="M43578 45059
L43184 45059
" />
<path d="M43578 44853
L43315 44646
" />
<path d="M43315 44853
L43578 44646
" />
<path d="M44578 44937
L44390 45068
" />
<path d="M44578 45162
L44184 45162
L44184 45012
L44203 44974
L44221 44956
L44259 44937
L44315 44937
L44353 44956
L44371 44974
L44390 45012
L44390 45162
" />
<path d="M44578 44806
L44315 44600
" />
<path d="M44315 44806
L44578 44600
" />
<path d="M46428 45593
L46428 45293
" />
<path d="M46578 45443
L46278 45443
" />
<path d="M46184 45143
L46184 44900
L46334 45031
L46334 44974
L46353 44937
L46371 44918
L46409 44900
L46503 44900
L46540 44918
L46559 44937
L46578 44974
L46578 45087
L46559 45124
L46540 45143
" />
<path d="M46184 44787
L46578 44656
L46184 44525
" />
<path d="M46184 44431
L46184 44187
L46334 44318
L46334 44262
L46353 44225
L46371 44206
L46409 44187
L46503 44187
L46540 44206
L46559 44225
L46578 44262
L46578 44375
L46559 44412
L46540 44431
" />
<path d="M45203 45199
L45184 45237
L45184 45293
L45203 45349
L45240 45387
L45278 45406
L45353 45424
L45409 45424
L45484 45406
L45521 45387
L45559 45349
L45578 45293
L45578 45256
L45559 45199
L45540 45181
L45409 45181
L45409 45256
" />
<path d="M45578 45012
L45184 45012
L45578 44787
L45184 44787
" />
<path d="M45578 44600
L45184 44600
L45184 44506
L45203 44450
L45240 44412
L45278 44393
L45353 44375
L45409 44375
L45484 44393
L45521 44412
L45559 44450
L45578 44506
L45578 44600
" />
<path d="M74378 34371
L73984 34371
L73984 34278
L74003 34221
L74040 34184
L74078 34165
L74153 34146
L74209 34146
L74284 34165
L74321 34184
L74359 34221
L74378 34278
L74378 34371
" />
<path d="M74378 33809
L74171 33809
L74134 33828
L74115 33865
L74115 33940
L74134 33978
" />
<path d="M74359 33809
L74378 33846
L74378 33940
L74359 33978
L74321 33996
L74284 33996
L74246 33978
L74228 33940
L74228 33846
L74209 33809
" />
<path d="M74115 33678
L74115 33528
" />
<path d="M73984 33621
L74321 33621
L74359 33603
L74378 33565
L74378 33528
" />
<path d="M74378 33228
L74171 33228
L74134 33246
L74115 33284
L74115 33359
L74134 33396
" />
<path d="M74359 33228
L74378 33265
L74378 33359
L74359 33396
L74321 33415
L74284 33415
L74246 33396
L74228 33359
L74228 33265
L74209 33228
" />
<path d="M73793 32228
L74093 32228
" />
<path d="M73943 32378
L73943 32078
" />
<path d="M74468 31984
L74281 31984
L74262 32171
L74281 32153
L74318 32134
L74412 32134
L74449 32153
L74468 32171
L74487 32209
L74487 32303
L74468 32340
L74449 32359
L74412 32378
L74318 32378
L74281 32359
L74262 32340
" />
<path d="M74599 31984
L74731 32378
L74862 31984
" />
<path d="M74200 35103
L74162 35084
L74106 35084
L74050 35103
L74012 35140
L73993 35178
L73975 35253
L73975 35309
L73993 35384
L74012 35421
L74050 35459
L74106 35478
L74143 35478
L74200 35459
L74218 35440
L74218 35309
L74143 35309
" />
<path d="M74387 35478
L74387 35084
L74612 35478
L74612 35084
" />
<path d="M74799 35478
L74799 35084
L74893 35084
L74949 35103
L74987 35140
L75006 35178
L75024 35253
L75024 35309
L75006 35384
L74987 35421
L74949 35459
L74893 35478
L74799 35478
" />
<path d="M69650 41128
L69949 41128
" />
<path d="M69800 41278
L69800 40978
" />
<path d="M69650 38028
L69949 38028
" />
<path d="M69800 38178
L69800 37878
" />
<path d="M69650 34928
L69949 34928
" />
<path d="M69800 35078
L69800 34778
" />
<path d="M69106 31928
L69406 31928
" />
<path d="M69256 32078
L69256 31778
" />
<path d="M69556 31684
L69800 31684
L69668 31834
L69725 31834
L69762 31853
L69781 31871
L69800 31909
L69800 32003
L69781 32040
L69762 32059
L69725 32078
L69612 32078
L69575 32059
L69556 32040
" />
<path d="M69912 31684
L70043 32078
L70174 31684
" />
<path d="M70268 31684
L70512 31684
L70381 31834
L70437 31834
L70474 31853
L70493 31871
L70512 31909
L70512 32003
L70493 32040
L70474 32059
L70437 32078
L70324 32078
L70287 32059
L70268 32040
" />
<path d="M69800 43403
L69762 43384
L69706 43384
L69650 43403
L69612 43440
L69593 43478
L69575 43553
L69575 43609
L69593 43684
L69612 43721
L69650 43759
L69706 43778
L69743 43778
L69800 43759
L69818 43740
L69818 43609
L69743 43609
" />
<path d="M69987 43778
L69987 43384
L70212 43778
L70212 43384
" />
<path d="M70399 43778
L70399 43384
L70493 43384
L70549 43403
L70587 43440
L70606 43478
L70624 43553
L70624 43609
L70606 43684
L70587 43721
L70549 43759
L70493 43778
L70399 43778
" />
<path d="M69900 40403
L69862 40384
L69806 40384
L69750 40403
L69712 40440
L69693 40478
L69675 40553
L69675 40609
L69693 40684
L69712 40721
L69750 40759
L69806 40778
L69843 40778
L69900 40759
L69918 40740
L69918 40609
L69843 40609
" />
<path d="M70087 40778
L70087 40384
L70312 40778
L70312 40384
" />
<path d="M70499 40778
L70499 40384
L70593 40384
L70649 40403
L70687 40440
L70706 40478
L70724 40553
L70724 40609
L70706 40684
L70687 40721
L70649 40759
L70593 40778
L70499 40778
" />
<path d="M69900 37303
L69862 37284
L69806 37284
L69750 37303
L69712 37340
L69693 37378
L69675 37453
L69675 37509
L69693 37584
L69712 37621
L69750 37659
L69806 37678
L69843 37678
L69900 37659
L69918 37640
L69918 37509
L69843 37509
" />
<path d="M70087 37678
L70087 37284
L70312 37678
L70312 37284
" />
<path d="M70499 37678
L70499 37284
L70593 37284
L70649 37303
L70687 37340
L70706 37378
L70724 37453
L70724 37509
L70706 37584
L70687 37621
L70649 37659
L70593 37678
L70499 37678
" />
<path d="M69900 34303
L69862 34284
L69806 34284
L69750 34303
L69712 34340
L69693 34378
L69675 34453
L69675 34509
L69693 34584
L69712 34621
L69750 34659
L69806 34678
L69843 34678
L69900 34659
L69918 34640
L69918 34509
L69843 34509
" />
<path d="M70087 34678
L70087 34284
L70312 34678
L70312 34284
" />
<path d="M70499 34678
L70499 34284
L70593 34284
L70649 34303
L70687 34340
L70706 34378
L70724 34453
L70724 34509
L70706 34584
L70687 34621
L70649 34659
L70593 34678
L70499 34678
" />
<path d="M46031 32059
L46087 32078
L46181 32078
L46218 32059
L46237 32040
L46256 32003
L46256 31965
L46237 31928
L46218 31909
L46181 31890
L46106 31871
L46068 31853
L46050 31834
L46031 31796
L46031 31759
L46050 31721
L46068 31703
L46106 31684
L46200 31684
L46256 31703
" />
<path d="M46649 32040
L46631 32059
L46574 32078
L46537 32078
L46481 32059
L46443 32021
L46425 31984
L46406 31909
L46406 31853
L46425 31778
L46443 31740
L46481 31703
L46537 31684
L46574 31684
L46631 31703
L46649 31721
" />
<path d="M47006 32078
L46818 32078
L46818 31684
" />
<path d="M46021 31059
L46078 31078
L46171 31078
L46209 31059
L46228 31040
L46246 31003
L46246 30965
L46228 30928
L46209 30909
L46171 30890
L46096 30871
L46059 30853
L46040 30834
L46021 30796
L46021 30759
L46040 30721
L46059 30703
L46096 30684
L46190 30684
L46246 30703
" />
<path d="M46415 31078
L46415 30684
L46509 30684
L46565 30703
L46603 30740
L46621 30778
L46640 30853
L46640 30909
L46621 30984
L46603 31021
L46565 31059
L46509 31078
L46415 31078
" />
<path d="M46790 30965
L46978 30965
" />
<path d="M46753 31078
L46884 30684
L47015 31078
" />
<path d="M45950 29828
L46249 29828
" />
<path d="M46100 29978
L46100 29678
" />
<path d="M46200 28703
L46162 28684
L46106 28684
L46050 28703
L46012 28740
L45993 28778
L45975 28853
L45975 28909
L45993 28984
L46012 29021
L46050 29059
L46106 29078
L46143 29078
L46200 29059
L46218 29040
L46218 28909
L46143 28909
" />
<path d="M46387 29078
L46387 28684
L46612 29078
L46612 28684
" />
<path d="M46799 29078
L46799 28684
L46893 28684
L46949 28703
L46987 28740
L47006 28778
L47024 28853
L47024 28909
L47006 28984
L46987 29021
L46949 29059
L46893 29078
L46799 29078
" />
</g>
<g style="fill:#000000; fill-opacity:0.0; 
stroke:#000000; stroke-width:118.11; stroke-opacity:1; 
stroke-linecap:round; stroke-linejoin:round;">
<path d="M76175 44142
L76624 44142
" />
<path d="M73075 44142
L73524 44142
" />
<path d="M73300 44367
L73300 43917
" />
<path d="M66215 45582
L66664 45582
" />
<path d="M69435 45602
L69884 45602
" />
<path d="M69660 45827
L69660 45377
" />
</g>
<g style="fill:#000000; fill-opacity:0.0; 
stroke:#000000; stroke-width:59.0551; stroke-opacity:1; 
stroke-linecap:round; stroke-linejoin:round;">
<path d="M75950 45815
L74965 46800
" />
<path d="M76934 47784
L76934 47705
" />
<path d="M76324 47784
L76934 47784
" />
<path d="M76934 46918
L76934 47193
" />
<path d="M74965 47784
L76343 47784
" />
<path d="M76934 46918
L76934 45894
" />
<circle cx="77111.4" cy="47863" r="55.6776" /> 
<path d="M74965 47193
L74965 46406
" />
<path d="M74965 45894
L74965 45815
" />
<path d="M74965 45815
L76934 45815
" />
<path d="M76934 45815
L76934 45894
" />
<path d="M74965 47784
L74965 47725
" />
<path d="M76000 34284
L76984 33300
" />
<path d="M75015 32315
L75015 32394
" />
<path d="M75625 32315
L75015 32315
" />
<path d="M75015 33181
L75015 32906
" />
<path d="M76984 32315
L75606 32315
" />
<path d="M75015 33181
L75015 34205
" />
<circle cx="74838.6" cy="32237" r="55.6776" /> 
<path d="M76984 32906
L76984 33693
" />
<path d="M76984 34205
L76984 34284
" />
<path d="M76984 34284
L75015 34284
" />
<path d="M75015 34284
L75015 34205
" />
<path d="M76984 32315
L76984 32374
" />
</g>
<g style="fill:#000000; fill-opacity:0.0; 
stroke:#000000; stroke-width:150; stroke-opacity:1; 
stroke-linecap:round; stroke-linejoin:round;">
<circle cx="72292" cy="53014" r="158" /> 
<circle cx="72292" cy="49786" r="158" /> 
<circle cx="76308" cy="53014" r="157" /> 
<circle cx="76308" cy="49786" r="158" /> 
<path d="M74891 50376
L74891 52424
" />
<circle cx="74300" cy="51400" r="1181" /> 
<circle cx="74300" cy="51400" r="1339" /> 
<path d="M71702 48959
L71702 53841
" />
<path d="M71702 53841
L76898 53841
" />
<path d="M76898 53841
L76898 48959
" />
<path d="M76898 48959
L71702 48959
" />
</g>
<g style="fill:#000000; fill-opacity:0.0; 
stroke:#000000; stroke-width:59.0551; stroke-opacity:1; 
stroke-linecap:round; stroke-linejoin:round;">
<path d="M70500 34200
L65500 34200
" />
<path d="M65500 34200
L65500 32200
" />
<path d="M65500 32200
L69500 32200
" />
<path d="M70500 34200
L70500 33200
" />
<path d="M70610 32700
L70610 32089
" />
<path d="M70500 33200
L69500 33200
" />
<path d="M69500 33200
L69500 32200
" />
<path d="M70610 32089
L70000 32089
" />
<path d="M70500 37200
L65500 37200
" />
<path d="M65500 37200
L65500 35200
" />
<path d="M65500 35200
L69500 35200
" />
<path d="M70500 37200
L70500 36200
" />
<path d="M70610 35700
L70610 35089
" />
<path d="M70500 36200
L69500 36200
" />
<path d="M69500 36200
L69500 35200
" />
<path d="M70610 35089
L70000 35089
" />
<path d="M70500 40300
L65500 40300
" />
<path d="M65500 40300
L65500 38300
" />
<path d="M65500 38300
L69500 38300
" />
<path d="M70500 40300
L70500 39300
" />
<path d="M70610 38800
L70610 38189
" />
<path d="M70500 39300
L69500 39300
" />
<path d="M69500 39300
L69500 38300
" />
<path d="M70610 38189
L70000 38189
" />
<circle cx="67600" cy="51200" r="1500" /> 
<path d="M51200 39700
L56200 39700
" />
<path d="M56200 39700
L56200 41700
" />
<path d="M56200 41700
L52200 41700
" />
<path d="M51200 39700
L51200 40700
" />
<path d="M51089 41200
L51089 41810
" />
<path d="M51200 40700
L52200 40700
" />
<path d="M52200 40700
L52200 41700
" />
<path d="M51089 41810
L51700 41810
" />
<path d="M42200 29350
L42200 32350
" />
<path d="M43200 29350
L43200 32350
" />
<path d="M43310 28239
L43310 28850
" />
<path d="M42200 32350
L43200 32350
" />
<path d="M43200 29350
L42200 29350
" />
<path d="M42089 28850
L42089 28239
" />
<path d="M42089 28239
L43310 28239
" />
<path d="M39750 29350
L39750 32350
" />
<path d="M40750 29350
L40750 32350
" />
<path d="M40860 28239
L40860 28850
" />
<path d="M39750 32350
L40750 32350
" />
<path d="M40750 29350
L39750 29350
" />
<path d="M39639 28850
L39639 28239
" />
<path d="M39639 28239
L40860 28239
" />
<path d="M44700 29350
L44700 32350
" />
<path d="M45700 29350
L45700 32350
" />
<path d="M45810 28239
L45810 28850
" />
<path d="M44700 32350
L45700 32350
" />
<path d="M45700 29350
L44700 29350
" />
<path d="M44589 28850
L44589 28239
" />
<path d="M44589 28239
L45810 28239
" />
<path d="M73800 34300
L73800 32300
" />
<path d="M73800 32300
L72800 32300
" />
<path d="M72800 32300
L72800 34300
" />
<path d="M72689 35410
L72689 34800
" />
<path d="M72800 34300
L73800 34300
" />
<path d="M73910 34800
L73910 35410
" />
<path d="M73910 35410
L72689 35410
" />
<path d="M64100 41300
L63100 41300
" />
<path d="M63100 41300
L63100 32300
" />
<path d="M63100 32300
L64100 32300
" />
<path d="M64100 41300
L64100 32300
" />
<path d="M64100 33300
L63100 33300
" />
</g>
<g style="fill:#000000; fill-opacity:0.0; 
stroke:#000000; stroke-width:80; stroke-opacity:1; 
stroke-linecap:round; stroke-linejoin:round;">
<path d="M39950 53300
L41650 53300
" />
<path d="M41650 50900
L39950 50900
" />
<path d="M39600 52492
L39600 51700
" />
<path d="M42000 52504
L42000 51700
" />
<circle cx="40800" cy="52100" r="700" /> 
</g>
<g style="fill:#000000; fill-opacity:0.0; 
stroke:#000000; stroke-width:59.0551; stroke-opacity:1; 
stroke-linecap:round; stroke-linejoin:round;">
<path d="M65900 29300
L65900 29300
" />
<path d="M65900 29300
L66400 29300
" />
<path d="M66400 29300
L66400 30300
" />
<path d="M66400 30300
L65900 30300
" />
<path d="M65900 28800
L74900 28800
" />
<path d="M74900 28800
L74900 30800
" />
<path d="M74900 30800
L65900 30800
" />
<path d="M65900 30800
L65900 28800
" />
<path d="M48900 43900
L49400 43900
" />
<path d="M49400 43900
L49400 44900
" />
<path d="M49400 44900
L48900 44900
" />
<path d="M48900 43400
L58900 43400
" />
<path d="M58900 43400
L58900 45400
" />
<path d="M58900 45400
L48900 45400
" />
<path d="M48900 45400
L48900 43400
" />
<path d="M41789 50211
L42400 50211
" />
<path d="M41789 49700
L41789 50211
" />
<path d="M42350 48050
L42350 45750
" />
<path d="M42350 45750
L42450 45750
" />
<path d="M42450 45750
L42450 48050
" />
<path d="M42450 48050
L42400 48050
" />
<path d="M42400 48050
L42400 45750
" />
<path d="M42300 49100
L42300 49250
" />
<path d="M42500 49100
L42500 49250
" />
<path d="M43300 49100
L43300 49250
" />
<path d="M43500 49100
L43500 49250
" />
<path d="M44300 49100
L44300 49250
" />
<path d="M44500 49100
L44500 49250
" />
<path d="M47500 49100
L47500 49250
" />
<path d="M47300 49100
L47300 49250
" />
<path d="M46500 49100
L46500 49250
" />
<path d="M46300 49100
L46300 49250
" />
<path d="M45500 49100
L45500 49250
" />
<path d="M45300 49100
L45300 49250
" />
<path d="M41900 49100
L41900 48100
" />
<path d="M42900 49100
L42900 48100
" />
<path d="M42900 49100
L43900 49100
" />
<path d="M43900 49100
L43900 48100
" />
<path d="M43300 48100
L43300 45700
" />
<path d="M43300 45700
L43500 45700
" />
<path d="M43500 45700
L43500 48100
" />
<path d="M43900 48100
L42900 48100
" />
<path d="M42900 48100
L41900 48100
" />
<path d="M42500 45700
L42500 48100
" />
<path d="M42300 45700
L42500 45700
" />
<path d="M42300 48100
L42300 45700
" />
<path d="M42900 49100
L42900 48100
" />
<path d="M41900 49100
L42900 49100
" />
<path d="M45900 49100
L45900 48100
" />
<path d="M45900 49100
L46900 49100
" />
<path d="M46900 49100
L46900 48100
" />
<path d="M46300 48100
L46300 45700
" />
<path d="M46300 45700
L46500 45700
" />
<path d="M46500 45700
L46500 48100
" />
<path d="M46900 48100
L45900 48100
" />
<path d="M47900 48100
L46900 48100
" />
<path d="M47500 45700
L47500 48100
" />
<path d="M47300 45700
L47500 45700
" />
<path d="M47300 48100
L47300 45700
" />
<path d="M47900 49100
L47900 48100
" />
<path d="M46900 49100
L47900 49100
" />
<path d="M46900 49100
L46900 48100
" />
<path d="M44900 49100
L44900 48100
" />
<path d="M44900 49100
L45900 49100
" />
<path d="M45900 49100
L45900 48100
" />
<path d="M45300 48100
L45300 45700
" />
<path d="M45300 45700
L45500 45700
" />
<path d="M45500 45700
L45500 48100
" />
<path d="M45900 48100
L44900 48100
" />
<path d="M44900 48100
L43900 48100
" />
<path d="M44500 45700
L44500 48100
" />
<path d="M44300 45700
L44500 45700
" />
<path d="M44300 48100
L44300 45700
" />
<path d="M44900 49100
L44900 48100
" />
<path d="M43900 49100
L44900 49100
" />
<path d="M43900 49100
L43900 48100
" />
<path d="M70500 43300
L65500 43300
" />
<path d="M65500 43300
L65500 41300
" />
<path d="M65500 41300
L69500 41300
" />
<path d="M70500 43300
L70500 42300
" />
<path d="M70610 41800
L70610 41189
" />
<path d="M70500 42300
L69500 42300
" />
<path d="M69500 42300
L69500 41300
" />
<path d="M70610 41189
L70000 41189
" />
<path d="M40153 47590
L40067 47590
" />
<path d="M39130 47590
L39228 47590
" />
<path d="M39272.8 46309.7 A786.653 786.653 0.0 0 0 39130.3 47590.6 " />
<path d="M39263.6 46550 A593.131 593.131 0.0 0 0 39220.9 47409.4 " />
<path d="M40164.5 47585.5 A782.385 782.385 0.0 0 0 40028 46311 " />
<path d="M40073 47412.5 A590.879 590.879 0.0 0 0 40020.1 46539.4 " />
<path d="M41496 56109
L41582 56109
" />
<path d="M42519 56109
L42421 56109
" />
<path d="M42377.2 57390.3 A786.653 786.653 0.0 0 0 42519.7 56109.4 " />
<path d="M42386.4 57150 A593.131 593.131 0.0 0 0 42429.1 56290.6 " />
<path d="M41485.5 56114.5 A782.385 782.385 0.0 0 0 41622 57389 " />
<path d="M41577 56287.5 A590.879 590.879 0.0 0 0 41629.9 57160.6 " />
<path d="M45896 56109
L45982 56109
" />
<path d="M46919 56109
L46821 56109
" />
<path d="M46777.2 57390.3 A786.653 786.653 0.0 0 0 46919.7 56109.4 " />
<path d="M46786.4 57150 A593.131 593.131 0.0 0 0 46829.1 56290.6 " />
<path d="M45885.5 56114.5 A782.385 782.385 0.0 0 0 46022 57389 " />
<path d="M45977 56287.5 A590.879 590.879 0.0 0 0 46029.9 57160.6 " />
<path d="M50396 56109
L50482 56109
" />
<path d="M51419 56109
L51321 56109
" />
<path d="M51277.2 57390.3 A786.653 786.653 0.0 0 0 51419.7 56109.4 " />
<path d="M51286.4 57150 A593.131 593.131 0.0 0 0 51329.1 56290.6 " />
<path d="M50385.5 56114.5 A782.385 782.385 0.0 0 0 50522 57389 " />
<path d="M50477 56287.5 A590.879 590.879 0.0 0 0 50529.9 57160.6 " />
<path d="M54896 56109
L54982 56109
" />
<path d="M55919 56109
L55821 56109
" />
<path d="M55777.2 57390.3 A786.653 786.653 0.0 0 0 55919.7 56109.4 " />
<path d="M55786.4 57150 A593.131 593.131 0.0 0 0 55829.1 56290.6 " />
<path d="M54885.5 56114.5 A782.385 782.385 0.0 0 0 55022 57389 " />
<path d="M54977 56287.5 A590.879 590.879 0.0 0 0 55029.9 57160.6 " />
<path d="M59496 56109
L59582 56109
" />
<path d="M60519 56109
L60421 56109
" />
<path d="M60377.2 57390.3 A786.653 786.653 0.0 0 0 60519.7 56109.4 " />
<path d="M60386.4 57150 A593.131 593.131 0.0 0 0 60429.1 56290.6 " />
<path d="M59485.5 56114.5 A782.385 782.385 0.0 0 0 59622 57389 " />
<path d="M59577 56287.5 A590.879 590.879 0.0 0 0 59629.9 57160.6 " />
<path d="M63896 56109
L63982 56109
" />
<path d="M64919 56109
L64821 56109
" />
<path d="M64777.2 57390.3 A786.653 786.653 0.0 0 0 64919.7 56109.4 " />
<path d="M64786.4 57150 A593.131 593.131 0.0 0 0 64829.1 56290.6 " />
<path d="M63885.5 56114.5 A782.385 782.385 0.0 0 0 64022 57389 " />
<path d="M63977 56287.5 A590.879 590.879 0.0 0 0 64029.9 57160.6 " />
<path d="M68396 56109
L68482 56109
" />
<path d="M69419 56109
L69321 56109
" />
<path d="M69277.2 57390.3 A786.653 786.653 0.0 0 0 69419.7 56109.4 " />
<path d="M69286.4 57150 A593.131 593.131 0.0 0 0 69329.1 56290.6 " />
<path d="M68385.5 56114.5 A782.385 782.385 0.0 0 0 68522 57389 " />
<path d="M68477 56287.5 A590.879 590.879 0.0 0 0 68529.9 57160.6 " />
<path d="M72896 56109
L72982 56109
" />
<path d="M73919 56109
L73821 56109
" />
<path d="M73777.2 57390.3 A786.653 786.653 0.0 0 0 73919.7 56109.4 " />
<path d="M73786.4 57150 A593.131 593.131 0.0 0 0 73829.1 56290.6 " />
<path d="M72885.5 56114.5 A782.385 782.385 0.0 0 0 73022 57389 " />
<path d="M72977 56287.5 A590.879 590.879 0.0 0 0 73029.9 57160.6 " />
<path d="M39409 27503
L39409 27417
" />
<path d="M39409 26480
L39409 26578
" />
<path d="M40690.3 26622.8 A786.653 786.653 0.0 0 0 39409.4 26480.3 " />
<path d="M40450 26613.6 A593.131 593.131 0.0 0 0 39590.6 26570.9 " />
<path d="M39414.5 27514.5 A782.385 782.385 0.0 0 0 40689 27378 " />
<path d="M39587.5 27423 A590.879 590.879 0.0 0 0 40460.6 27370.1 " />
<path d="M43909 27503
L43909 27417
" />
<path d="M43909 26480
L43909 26578
" />
<path d="M45190.3 26622.8 A786.653 786.653 0.0 0 0 43909.4 26480.3 " />
<path d="M44950 26613.6 A593.131 593.131 0.0 0 0 44090.6 26570.9 " />
<path d="M43914.5 27514.5 A782.385 782.385 0.0 0 0 45189 27378 " />
<path d="M44087.5 27423 A590.879 590.879 0.0 0 0 44960.6 27370.1 " />
<path d="M48409 27503
L48409 27417
" />
<path d="M48409 26480
L48409 26578
" />
<path d="M49690.3 26622.8 A786.653 786.653 0.0 0 0 48409.4 26480.3 " />
<path d="M49450 26613.6 A593.131 593.131 0.0 0 0 48590.6 26570.9 " />
<path d="M48414.5 27514.5 A782.385 782.385 0.0 0 0 49689 27378 " />
<path d="M48587.5 27423 A590.879 590.879 0.0 0 0 49460.6 27370.1 " />
<path d="M52909 27503
L52909 27417
" />
<path d="M52909 26480
L52909 26578
" />
<path d="M54190.3 26622.8 A786.653 786.653 0.0 0 0 52909.4 26480.3 " />
<path d="M53950 26613.6 A593.131 593.131 0.0 0 0 53090.6 26570.9 " />
<path d="M52914.5 27514.5 A782.385 782.385 0.0 0 0 54189 27378 " />
<path d="M53087.5 27423 A590.879 590.879 0.0 0 0 53960.6 27370.1 " />
<path d="M57409 27503
L57409 27417
" />
<path d="M57409 26480
L57409 26578
" />
<path d="M58690.3 26622.8 A786.653 786.653 0.0 0 0 57409.4 26480.3 " />
<path d="M58450 26613.6 A593.131 593.131 0.0 0 0 57590.6 26570.9 " />
<path d="M57414.5 27514.5 A782.385 782.385 0.0 0 0 58689 27378 " />
<path d="M57587.5 27423 A590.879 590.879 0.0 0 0 58460.6 27370.1 " />
<path d="M61909 27503
L61909 27417
" />
<path d="M61909 26480
L61909 26578
" />
<path d="M63190.3 26622.8 A786.653 786.653 0.0 0 0 61909.4 26480.3 " />
<path d="M62950 26613.6 A593.131 593.131 0.0 0 0 62090.6 26570.9 " />
<path d="M61914.5 27514.5 A782.385 782.385 0.0 0 0 63189 27378 " />
<path d="M62087.5 27423 A590.879 590.879 0.0 0 0 62960.6 27370.1 " />
<path d="M66409 27503
L66409 27417
" />
<path d="M66409 26480
L66409 26578
" />
<path d="M67690.3 26622.8 A786.653 786.653 0.0 0 0 66409.4 26480.3 " />
<path d="M67450 26613.6 A593.131 593.131 0.0 0 0 66590.6 26570.9 " />
<path d="M66414.5 27514.5 A782.385 782.385 0.0 0 0 67689 27378 " />
<path d="M66587.5 27423 A590.879 590.879 0.0 0 0 67460.6 27370.1 " />
<path d="M70909 27503
L70909 27417
" />
<path d="M70909 26480
L70909 26578
" />
<path d="M72190.3 26622.8 A786.653 786.653 0.0 0 0 70909.4 26480.3 " />
<path d="M71950 26613.6 A593.131 593.131 0.0 0 0 71090.6 26570.9 " />
<path d="M70914.5 27514.5 A782.385 782.385 0.0 0 0 72189 27378 " />
<path d="M71087.5 27423 A590.879 590.879 0.0 0 0 71960.6 27370.1 " />
<path d="M76840 26746
L76840 26832
" />
<path d="M76840 27769
L76840 27671
" />
<path d="M75559.7 27627.2 A786.653 786.653 0.0 0 0 76840.6 27769.7 " />
<path d="M75800 27636.4 A593.131 593.131 0.0 0 0 76659.4 27679.1 " />
<path d="M76835.5 26735.5 A782.385 782.385 0.0 0 0 75561 26872 " />
<path d="M76662.5 26827 A590.879 590.879 0.0 0 0 75789.4 26879.9 " />
<path d="M76090 54496
L76090 54582
" />
<path d="M76090 55519
L76090 55421
" />
<path d="M74809.7 55377.2 A786.653 786.653 0.0 0 0 76090.6 55519.7 " />
<path d="M75050 55386.4 A593.131 593.131 0.0 0 0 75909.4 55429.1 " />
<path d="M76085.5 54485.5 A782.385 782.385 0.0 0 0 74811 54622 " />
<path d="M75912.5 54577 A590.879 590.879 0.0 0 0 75039.4 54629.9 " />
<path d="M74800 44650
L73800 44650
" />
<path d="M75910 44760
L75300 44760
" />
<path d="M74800 44650
L74800 43650
" />
<path d="M75300 43539
L75910 43539
" />
<path d="M75910 43539
L75910 44760
" />
<path d="M74800 43650
L73800 43650
" />
<path d="M73800 43650
L73800 44650
" />
<path d="M62100 50300
L62100 51300
" />
<path d="M62100 51300
L53100 51300
" />
<path d="M53100 51300
L53100 50300
" />
<path d="M62100 50300
L53100 50300
" />
<path d="M54100 50300
L54100 51300
" />
<path d="M40110 48589
L40110 49200
" />
<path d="M38889 49200
L38889 48589
" />
<path d="M38889 48589
L40110 48589
" />
<path d="M39000 49700
L40000 49700
" />
<path d="M68060 45140
L69060 45140
" />
<path d="M66949 45029
L67560 45029
" />
<path d="M68060 45140
L68060 46140
" />
<path d="M67560 46250
L66949 46250
" />
<path d="M66949 46250
L66949 45029
" />
<path d="M68060 46140
L69060 46140
" />
<path d="M69060 46140
L69060 45140
" />
</g>
<g style="fill:#000000; fill-opacity:0.0; 
stroke:#000000; stroke-width:110.236; stroke-opacity:1; 
stroke-linecap:round; stroke-linejoin:round;">
<circle cx="39750" cy="37500" r="501.969" /> 
</g>
<g style="fill:#000000; fill-opacity:0.0; 
stroke:#000000; stroke-width:19.685; stroke-opacity:1; 
stroke-linecap:round; stroke-linejoin:round;">
<path d="M40984 24814
L39015 24814
" />
</g>
<g style="fill:#000000; fill-opacity:0.0; 
stroke:#000000; stroke-width:59.0551; stroke-opacity:1; 
stroke-linecap:round; stroke-linejoin:round;">
<path d="M40787 21704
L40787 21114
" />
<path d="M40787 21114
L39212 21114
" />
<path d="M39212 21114
L39212 21704
" />
<path d="M39212 21704
L40787 21704
" />
<path d="M39960 21704
L40984 21704
" />
<path d="M40984 21704
L40984 26429
" />
<path d="M40984 26429
L39015 26429
" />
<path d="M39015 26429
L39015 21704
" />
<path d="M39015 21704
L39960 21704
" />
</g>
<g style="fill:#000000; fill-opacity:0.0; 
stroke:#000000; stroke-width:19.685; stroke-opacity:1; 
stroke-linecap:round; stroke-linejoin:round;">
<path d="M45484 24814
L43515 24814
" />
</g>
<g style="fill:#000000; fill-opacity:0.0; 
stroke:#000000; stroke-width:59.0551; stroke-opacity:1; 
stroke-linecap:round; stroke-linejoin:round;">
<path d="M45287 21704
L45287 21114
" />
<path d="M45287 21114
L43712 21114
" />
<path d="M43712 21114
L43712 21704
" />
<path d="M43712 21704
L45287 21704
" />
<path d="M44460 21704
L45484 21704
" />
<path d="M45484 21704
L45484 26429
" />
<path d="M45484 26429
L43515 26429
" />
<path d="M43515 26429
L43515 21704
" />
<path d="M43515 21704
L44460 21704
" />
</g>
<g style="fill:#000000; fill-opacity:0.0; 
stroke:#000000; stroke-width:19.685; stroke-opacity:1; 
stroke-linecap:round; stroke-linejoin:round;">
<path d="M49984 24814
L48015 24814
" />
</g>
<g style="fill:#000000; fill-opacity:0.0; 
stroke:#000000; stroke-width:59.0551; stroke-opacity:1; 
stroke-linecap:round; stroke-linejoin:round;">
<path d="M49787 21704
L49787 21114
" />
<path d="M49787 21114
L48212 21114
" />
<path d="M48212 21114
L48212 21704
" />
<path d="M48212 21704
L49787 21704
" />
<path d="M48960 21704
L49984 21704
" />
<path d="M49984 21704
L49984 26429
" />
<path d="M49984 26429
L48015 26429
" />
<path d="M48015 26429
L48015 21704
" />
<path d="M48015 21704
L48960 21704
" />
</g>
<g style="fill:#000000; fill-opacity:0.0; 
stroke:#000000; stroke-width:19.685; stroke-opacity:1; 
stroke-linecap:round; stroke-linejoin:round;">
<path d="M54484 24814
L52515 24814
" />
</g>
<g style="fill:#000000; fill-opacity:0.0; 
stroke:#000000; stroke-width:59.0551; stroke-opacity:1; 
stroke-linecap:round; stroke-linejoin:round;">
<path d="M54287 21704
L54287 21114
" />
<path d="M54287 21114
L52712 21114
" />
<path d="M52712 21114
L52712 21704
" />
<path d="M52712 21704
L54287 21704
" />
<path d="M53460 21704
L54484 21704
" />
<path d="M54484 21704
L54484 26429
" />
<path d="M54484 26429
L52515 26429
" />
<path d="M52515 26429
L52515 21704
" />
<path d="M52515 21704
L53460 21704
" />
</g>
<g style="fill:#000000; fill-opacity:0.0; 
stroke:#000000; stroke-width:19.685; stroke-opacity:1; 
stroke-linecap:round; stroke-linejoin:round;">
<path d="M58984 24814
L57015 24814
" />
</g>
<g style="fill:#000000; fill-opacity:0.0; 
stroke:#000000; stroke-width:59.0551; stroke-opacity:1; 
stroke-linecap:round; stroke-linejoin:round;">
<path d="M58787 21704
L58787 21114
" />
<path d="M58787 21114
L57212 21114
" />
<path d="M57212 21114
L57212 21704
" />
<path d="M57212 21704
L58787 21704
" />
<path d="M57960 21704
L58984 21704
" />
<path d="M58984 21704
L58984 26429
" />
<path d="M58984 26429
L57015 26429
" />
<path d="M57015 26429
L57015 21704
" />
<path d="M57015 21704
L57960 21704
" />
</g>
<g style="fill:#000000; fill-opacity:0.0; 
stroke:#000000; stroke-width:19.685; stroke-opacity:1; 
stroke-linecap:round; stroke-linejoin:round;">
<path d="M63484 24814
L61515 24814
" />
</g>
<g style="fill:#000000; fill-opacity:0.0; 
stroke:#000000; stroke-width:59.0551; stroke-opacity:1; 
stroke-linecap:round; stroke-linejoin:round;">
<path d="M63287 21704
L63287 21114
" />
<path d="M63287 21114
L61712 21114
" />
<path d="M61712 21114
L61712 21704
" />
<path d="M61712 21704
L63287 21704
" />
<path d="M62460 21704
L63484 21704
" />
<path d="M63484 21704
L63484 26429
" />
<path d="M63484 26429
L61515 26429
" />
<path d="M61515 26429
L61515 21704
" />
<path d="M61515 21704
L62460 21704
" />
</g>
<g style="fill:#000000; fill-opacity:0.0; 
stroke:#000000; stroke-width:19.685; stroke-opacity:1; 
stroke-linecap:round; stroke-linejoin:round;">
<path d="M67984 24814
L66015 24814
" />
</g>
<g style="fill:#000000; fill-opacity:0.0; 
stroke:#000000; stroke-width:59.0551; stroke-opacity:1; 
stroke-linecap:round; stroke-linejoin:round;">
<path d="M67787 21704
L67787 21114
" />
<path d="M67787 21114
L66212 21114
" />
<path d="M66212 21114
L66212 21704
" />
<path d="M66212 21704
L67787 21704
" />
<path d="M66960 21704
L67984 21704
" />
<path d="M67984 21704
L67984 26429
" />
<path d="M67984 26429
L66015 26429
" />
<path d="M66015 26429
L66015 21704
" />
<path d="M66015 21704
L66960 21704
" />
</g>
<g style="fill:#000000; fill-opacity:0.0; 
stroke:#000000; stroke-width:19.685; stroke-opacity:1; 
stroke-linecap:round; stroke-linejoin:round;">
<path d="M72484 24814
L70515 24814
" />
</g>
<g style="fill:#000000; fill-opacity:0.0; 
stroke:#000000; stroke-width:59.0551; stroke-opacity:1; 
stroke-linecap:round; stroke-linejoin:round;">
<path d="M72287 21704
L72287 21114
" />
<path d="M72287 21114
L70712 21114
" />
<path d="M70712 21114
L70712 21704
" />
<path d="M70712 21704
L72287 21704
" />
<path d="M71460 21704
L72484 21704
" />
<path d="M72484 21704
L72484 26429
" />
<path d="M72484 26429
L70515 26429
" />
<path d="M70515 26429
L70515 21704
" />
<path d="M70515 21704
L71460 21704
" />
</g>
<g style="fill:#000000; fill-opacity:0.0; 
stroke:#000000; stroke-width:19.685; stroke-opacity:1; 
stroke-linecap:round; stroke-linejoin:round;">
<path d="M76734 24814
L74765 24814
" />
</g>
<g style="fill:#000000; fill-opacity:0.0; 
stroke:#000000; stroke-width:59.0551; stroke-opacity:1; 
stroke-linecap:round; stroke-linejoin:round;">
<path d="M76537 21704
L76537 21114
" />
<path d="M76537 21114
L74962 21114
" />
<path d="M74962 21114
L74962 21704
" />
<path d="M74962 21704
L76537 21704
" />
<path d="M75710 21704
L76734 21704
" />
<path d="M76734 21704
L76734 26429
" />
<path d="M76734 26429
L74765 26429
" />
<path d="M74765 26429
L74765 21704
" />
<path d="M74765 21704
L75710 21704
" />
</g>
<g style="fill:#000000; fill-opacity:0.0; 
stroke:#000000; stroke-width:19.685; stroke-opacity:1; 
stroke-linecap:round; stroke-linejoin:round;">
<path d="M74765 57435
L76734 57435
" />
</g>
<g style="fill:#000000; fill-opacity:0.0; 
stroke:#000000; stroke-width:59.0551; stroke-opacity:1; 
stroke-linecap:round; stroke-linejoin:round;">
<path d="M74962 60545
L74962 61135
" />
<path d="M74962 61135
L76537 61135
" />
<path d="M76537 61135
L76537 60545
" />
<path d="M76537 60545
L74962 60545
" />
<path d="M75789 60545
L74765 60545
" />
<path d="M74765 60545
L74765 55820
" />
<path d="M74765 55820
L76734 55820
" />
<path d="M76734 55820
L76734 60545
" />
<path d="M76734 60545
L75789 60545
" />
</g>
<g style="fill:#000000; fill-opacity:0.0; 
stroke:#000000; stroke-width:19.685; stroke-opacity:1; 
stroke-linecap:round; stroke-linejoin:round;">
<path d="M70515 57435
L72484 57435
" />
</g>
<g style="fill:#000000; fill-opacity:0.0; 
stroke:#000000; stroke-width:59.0551; stroke-opacity:1; 
stroke-linecap:round; stroke-linejoin:round;">
<path d="M70712 60545
L70712 61135
" />
<path d="M70712 61135
L72287 61135
" />
<path d="M72287 61135
L72287 60545
" />
<path d="M72287 60545
L70712 60545
" />
<path d="M71539 60545
L70515 60545
" />
<path d="M70515 60545
L70515 55820
" />
<path d="M70515 55820
L72484 55820
" />
<path d="M72484 55820
L72484 60545
" />
<path d="M72484 60545
L71539 60545
" />
</g>
<g style="fill:#000000; fill-opacity:0.0; 
stroke:#000000; stroke-width:19.685; stroke-opacity:1; 
stroke-linecap:round; stroke-linejoin:round;">
<path d="M66015 57435
L67984 57435
" />
</g>
<g style="fill:#000000; fill-opacity:0.0; 
stroke:#000000; stroke-width:59.0551; stroke-opacity:1; 
stroke-linecap:round; stroke-linejoin:round;">
<path d="M66212 60545
L66212 61135
" />
<path d="M66212 61135
L67787 61135
" />
<path d="M67787 61135
L67787 60545
" />
<path d="M67787 60545
L66212 60545
" />
<path d="M67039 60545
L66015 60545
" />
<path d="M66015 60545
L66015 55820
" />
<path d="M66015 55820
L67984 55820
" />
<path d="M67984 55820
L67984 60545
" />
<path d="M67984 60545
L67039 60545
" />
</g>
<g style="fill:#000000; fill-opacity:0.0; 
stroke:#000000; stroke-width:19.685; stroke-opacity:1; 
stroke-linecap:round; stroke-linejoin:round;">
<path d="M61515 57435
L63484 57435
" />
</g>
<g style="fill:#000000; fill-opacity:0.0; 
stroke:#000000; stroke-width:59.0551; stroke-opacity:1; 
stroke-linecap:round; stroke-linejoin:round;">
<path d="M61712 60545
L61712 61135
" />
<path d="M61712 61135
L63287 61135
" />
<path d="M63287 61135
L63287 60545
" />
<path d="M63287 60545
L61712 60545
" />
<path d="M62539 60545
L61515 60545
" />
<path d="M61515 60545
L61515 55820
" />
<path d="M61515 55820
L63484 55820
" />
<path d="M63484 55820
L63484 60545
" />
<path d="M63484 60545
L62539 60545
" />
</g>
<g style="fill:#000000; fill-opacity:0.0; 
stroke:#000000; stroke-width:19.685; stroke-opacity:1; 
stroke-linecap:round; stroke-linejoin:round;">
<path d="M57015 57435
L58984 57435
" />
</g>
<g style="fill:#000000; fill-opacity:0.0; 
stroke:#000000; stroke-width:59.0551; stroke-opacity:1; 
stroke-linecap:round; stroke-linejoin:round;">
<path d="M57212 60545
L57212 61135
" />
<path d="M57212 61135
L58787 61135
" />
<path d="M58787 61135
L58787 60545
" />
<path d="M58787 60545
L57212 60545
" />
<path d="M58039 60545
L57015 60545
" />
<path d="M57015 60545
L57015 55820
" />
<path d="M57015 55820
L58984 55820
" />
<path d="M58984 55820
L58984 60545
" />
<path d="M58984 60545
L58039 60545
" />
</g>
<g style="fill:#000000; fill-opacity:0.0; 
stroke:#000000; stroke-width:19.685; stroke-opacity:1; 
stroke-linecap:round; stroke-linejoin:round;">
<path d="M52515 57435
L54484 57435
" />
</g>
<g style="fill:#000000; fill-opacity:0.0; 
stroke:#000000; stroke-width:59.0551; stroke-opacity:1; 
stroke-linecap:round; stroke-linejoin:round;">
<path d="M52712 60545
L52712 61135
" />
<path d="M52712 61135
L54287 61135
" />
<path d="M54287 61135
L54287 60545
" />
<path d="M54287 60545
L52712 60545
" />
<path d="M53539 60545
L52515 60545
" />
<path d="M52515 60545
L52515 55820
" />
<path d="M52515 55820
L54484 55820
" />
<path d="M54484 55820
L54484 60545
" />
<path d="M54484 60545
L53539 60545
" />
</g>
<g style="fill:#000000; fill-opacity:0.0; 
stroke:#000000; stroke-width:19.685; stroke-opacity:1; 
stroke-linecap:round; stroke-linejoin:round;">
<path d="M48015 57435
L49984 57435
" />
</g>
<g style="fill:#000000; fill-opacity:0.0; 
stroke:#000000; stroke-width:59.0551; stroke-opacity:1; 
stroke-linecap:round; stroke-linejoin:round;">
<path d="M48212 60545
L48212 61135
" />
<path d="M48212 61135
L49787 61135
" />
<path d="M49787 61135
L49787 60545
" />
<path d="M49787 60545
L48212 60545
" />
<path d="M49039 60545
L48015 60545
" />
<path d="M48015 60545
L48015 55820
" />
<path d="M48015 55820
L49984 55820
" />
<path d="M49984 55820
L49984 60545
" />
<path d="M49984 60545
L49039 60545
" />
</g>
<g style="fill:#000000; fill-opacity:0.0; 
stroke:#000000; stroke-width:19.685; stroke-opacity:1; 
stroke-linecap:round; stroke-linejoin:round;">
<path d="M43515 57435
L45484 57435
" />
</g>
<g style="fill:#000000; fill-opacity:0.0; 
stroke:#000000; stroke-width:59.0551; stroke-opacity:1; 
stroke-linecap:round; stroke-linejoin:round;">
<path d="M43712 60545
L43712 61135
" />
<path d="M43712 61135
L45287 61135
" />
<path d="M45287 61135
L45287 60545
" />
<path d="M45287 60545
L43712 60545
" />
<path d="M44539 60545
L43515 60545
" />
<path d="M43515 60545
L43515 55820
" />
<path d="M43515 55820
L45484 55820
" />
<path d="M45484 55820
L45484 60545
" />
<path d="M45484 60545
L44539 60545
" />
</g>
<g style="fill:#000000; fill-opacity:0.0; 
stroke:#000000; stroke-width:19.685; stroke-opacity:1; 
stroke-linecap:round; stroke-linejoin:round;">
<path d="M39015 57435
L40984 57435
" />
</g>
<g style="fill:#000000; fill-opacity:0.0; 
stroke:#000000; stroke-width:59.0551; stroke-opacity:1; 
stroke-linecap:round; stroke-linejoin:round;">
<path d="M39212 60545
L39212 61135
" />
<path d="M39212 61135
L40787 61135
" />
<path d="M40787 61135
L40787 60545
" />
<path d="M40787 60545
L39212 60545
" />
<path d="M40039 60545
L39015 60545
" />
<path d="M39015 60545
L39015 55820
" />
<path d="M39015 55820
L40984 55820
" />
<path d="M40984 55820
L40984 60545
" />
<path d="M40984 60545
L40039 60545
" />
</g>
<g style="fill:#000000; fill-opacity:0.0; 
stroke:#000000; stroke-width:39.3701; stroke-opacity:1; 
stroke-linecap:round; stroke-linejoin:round;">
<path d="M75035 48126
L75035 47890
L75091 47890
L75125 47901
L75148 47924
L75159 47946
L75170 47991
L75170 48025
L75159 48070
L75148 48093
L75125 48115
L75091 48126
L75035 48126
" />
<path d="M75260 47913
L75271 47901
L75294 47890
L75350 47890
L75373 47901
L75384 47913
L75395 47935
L75395 47958
L75384 47991
L75249 48126
L75395 48126
" />
<path d="M75243 45495
L75299 45731
L75344 45563
L75389 45731
L75445 45495
" />
<path d="M75524 45720
L75558 45731
L75614 45731
L75636 45720
L75648 45709
L75659 45686
L75659 45664
L75648 45641
L75636 45630
L75614 45619
L75569 45608
L75546 45596
L75535 45585
L75524 45563
L75524 45540
L75535 45518
L75546 45506
L75569 45495
L75625 45495
L75659 45506
" />
<path d="M75749 45518
L75760 45506
L75783 45495
L75839 45495
L75861 45506
L75873 45518
L75884 45540
L75884 45563
L75873 45596
L75738 45731
L75884 45731
" />
<path d="M76019 45596
L75996 45585
L75985 45574
L75974 45551
L75974 45540
L75985 45518
L75996 45506
L76019 45495
L76064 45495
L76086 45506
L76098 45518
L76109 45540
L76109 45551
L76098 45574
L76086 45585
L76064 45596
L76019 45596
L75996 45608
L75985 45619
L75974 45641
L75974 45686
L75985 45709
L75996 45720
L76019 45731
L76064 45731
L76086 45720
L76098 45709
L76109 45686
L76109 45641
L76098 45619
L76086 45608
L76064 45596
" />
<path d="M76334 45731
L76199 45731
" />
<path d="M76266 45731
L76266 45495
L76244 45529
L76221 45551
L76199 45563
" />
<path d="M76424 45518
L76435 45506
L76458 45495
L76514 45495
L76536 45506
L76548 45518
L76559 45540
L76559 45563
L76548 45596
L76413 45731
L76559 45731
" />
<path d="M76739 45608
L76773 45619
L76784 45630
L76795 45653
L76795 45686
L76784 45709
L76773 45720
L76750 45731
L76660 45731
L76660 45495
L76739 45495
L76761 45506
L76773 45518
L76784 45540
L76784 45563
L76773 45585
L76761 45596
L76739 45608
L76660 45608
" />
<path d="M75325 34606
L75325 34370
L75381 34370
L75415 34381
L75438 34404
L75449 34426
L75460 34471
L75460 34505
L75449 34550
L75438 34573
L75415 34595
L75381 34606
L75325 34606
" />
<path d="M75539 34370
L75685 34370
L75606 34460
L75640 34460
L75663 34471
L75674 34483
L75685 34505
L75685 34561
L75674 34584
L75663 34595
L75640 34606
L75573 34606
L75550 34595
L75539 34584
" />
<path d="M75268 31995
L75324 32231
L75369 32063
L75414 32231
L75470 31995
" />
<path d="M75549 32220
L75583 32231
L75639 32231
L75661 32220
L75673 32209
L75684 32186
L75684 32164
L75673 32141
L75661 32130
L75639 32119
L75594 32108
L75571 32096
L75560 32085
L75549 32063
L75549 32040
L75560 32018
L75571 32006
L75594 31995
L75650 31995
L75684 32006
" />
<path d="M75774 32018
L75785 32006
L75808 31995
L75864 31995
L75886 32006
L75898 32018
L75909 32040
L75909 32063
L75898 32096
L75763 32231
L75909 32231
" />
<path d="M76044 32096
L76021 32085
L76010 32074
L75999 32051
L75999 32040
L76010 32018
L76021 32006
L76044 31995
L76089 31995
L76111 32006
L76123 32018
L76134 32040
L76134 32051
L76123 32074
L76111 32085
L76089 32096
L76044 32096
L76021 32108
L76010 32119
L75999 32141
L75999 32186
L76010 32209
L76021 32220
L76044 32231
L76089 32231
L76111 32220
L76123 32209
L76134 32186
L76134 32141
L76123 32119
L76111 32108
L76089 32096
" />
<path d="M76359 32231
L76224 32231
" />
<path d="M76291 32231
L76291 31995
L76269 32029
L76246 32051
L76224 32063
" />
<path d="M76449 32018
L76460 32006
L76483 31995
L76539 31995
L76561 32006
L76573 32018
L76584 32040
L76584 32063
L76573 32096
L76438 32231
L76584 32231
" />
<path d="M76764 32108
L76798 32119
L76809 32130
L76820 32153
L76820 32186
L76809 32209
L76798 32220
L76775 32231
L76685 32231
L76685 31995
L76764 31995
L76786 32006
L76798 32018
L76809 32040
L76809 32063
L76798 32085
L76786 32096
L76764 32108
L76685 32108
" />
</g>
<g style="fill:#000000; fill-opacity:0.0; 
stroke:#000000; stroke-width:79; stroke-opacity:1; 
stroke-linecap:round; stroke-linejoin:round;">
<path d="M72591 48357
L72788 48357
" />
<path d="M72873 48667
L72591 48667
L72591 48076
L72873 48076
" />
<path d="M73436 48667
L73098 48667
" />
<path d="M73267 48667
L73267 48076
L73211 48160
L73154 48217
L73098 48245
" />
<path d="M70357 54122
L70357 53925
" />
<path d="M70667 53840
L70667 54122
L70076 54122
L70076 53840
" />
<path d="M70273 53587
L70667 53587
" />
<path d="M70329 53587
L70301 53559
L70273 53503
L70273 53418
L70301 53362
L70357 53334
L70667 53334
" />
<path d="M70639 52799
L70667 52855
L70667 52968
L70639 53024
L70611 53052
L70554 53081
L70385 53081
L70329 53052
L70301 53024
L70273 52968
L70273 52855
L70301 52799
" />
<path d="M70667 52461
L70639 52518
L70611 52546
L70554 52574
L70385 52574
L70329 52546
L70301 52518
L70273 52461
L70273 52377
L70301 52321
L70329 52293
L70385 52264
L70554 52264
L70611 52293
L70639 52321
L70667 52377
L70667 52461
" />
<path d="M70667 51758
L70076 51758
" />
<path d="M70639 51758
L70667 51814
L70667 51927
L70639 51983
L70611 52011
L70554 52039
L70385 52039
L70329 52011
L70301 51983
L70273 51927
L70273 51814
L70301 51758
" />
<path d="M70639 51251
L70667 51308
L70667 51420
L70639 51476
L70582 51505
L70357 51505
L70301 51476
L70273 51420
L70273 51308
L70301 51251
L70357 51223
L70414 51223
L70470 51505
" />
<path d="M70667 50970
L70273 50970
" />
<path d="M70385 50970
L70329 50942
L70301 50914
L70273 50857
L70273 50801
" />
<path d="M70723 50745
L70723 50294
" />
<path d="M70639 50182
L70667 50126
L70667 50013
L70639 49957
L70582 49929
L70554 49929
L70498 49957
L70470 50013
L70470 50097
L70442 50154
L70385 50182
L70357 50182
L70301 50154
L70273 50097
L70273 50013
L70301 49957
" />
<path d="M70273 49732
L70667 49619
L70385 49506
L70667 49394
L70273 49281
" />
<path d="M70667 49056
L70273 49056
" />
<path d="M70076 49056
L70104 49084
L70132 49056
L70104 49028
L70076 49056
L70132 49056
" />
<path d="M70273 48859
L70273 48634
" />
<path d="M70076 48775
L70582 48775
L70639 48747
L70667 48690
L70667 48634
" />
<path d="M70639 48184
L70667 48240
L70667 48353
L70639 48409
L70611 48437
L70554 48465
L70385 48465
L70329 48437
L70301 48409
L70273 48353
L70273 48240
L70301 48184
" />
<path d="M70667 47930
L70076 47930
" />
<path d="M70667 47677
L70357 47677
L70301 47705
L70273 47762
L70273 47846
L70301 47902
L70329 47930
" />
</g>
<g style="fill:#000000; fill-opacity:0.0; 
stroke:#000000; stroke-width:59.0551; stroke-opacity:1; 
stroke-linecap:round; stroke-linejoin:round;">
<path d="M70804 32771
L71085 32771
L71141 32789
L71179 32827
L71198 32883
L71198 32921
" />
<path d="M70804 32621
L70804 32377
L70954 32508
L70954 32452
L70973 32415
L70991 32396
L71029 32377
L71123 32377
L71160 32396
L71179 32415
L71198 32452
L71198 32565
L71179 32602
L71160 32621
" />
<path d="M64824 33788
L65143 33788
L65180 33769
L65199 33750
L65218 33713
L65218 33638
L65199 33600
L65180 33581
L65143 33563
L64824 33563
" />
<path d="M65011 33375
L65011 33244
" />
<path d="M65218 33188
L65218 33375
L64824 33375
L64824 33188
" />
<path d="M64824 33056
L65218 32794
" />
<path d="M64824 32794
L65218 33056
" />
<path d="M64824 32700
L64824 32475
" />
<path d="M65218 32588
L64824 32588
" />
<path d="M70804 35831
L71085 35831
L71141 35849
L71179 35887
L71198 35943
L71198 35981
" />
<path d="M70804 35456
L70804 35643
L70991 35662
L70973 35643
L70954 35606
L70954 35512
L70973 35475
L70991 35456
L71029 35437
L71123 35437
L71160 35456
L71179 35475
L71198 35512
L71198 35606
L71179 35643
L71160 35662
" />
<path d="M64844 36848
L65163 36848
L65200 36829
L65219 36810
L65238 36773
L65238 36698
L65219 36660
L65200 36641
L65163 36623
L64844 36623
" />
<path d="M65031 36435
L65031 36304
" />
<path d="M65238 36248
L65238 36435
L64844 36435
L64844 36248
" />
<path d="M64844 36116
L65238 35854
" />
<path d="M64844 35854
L65238 36116
" />
<path d="M64844 35760
L64844 35535
" />
<path d="M65238 35648
L64844 35648
" />
<path d="M70804 38791
L71085 38791
L71141 38809
L71179 38847
L71198 38903
L71198 38941
" />
<path d="M70973 38547
L70954 38585
L70935 38603
L70898 38622
L70879 38622
L70841 38603
L70823 38585
L70804 38547
L70804 38472
L70823 38435
L70841 38416
L70879 38397
L70898 38397
L70935 38416
L70954 38435
L70973 38472
L70973 38547
L70991 38585
L71010 38603
L71048 38622
L71123 38622
L71160 38603
L71179 38585
L71198 38547
L71198 38472
L71179 38435
L71160 38416
L71123 38397
L71048 38397
L71010 38416
L70991 38435
L70973 38472
" />
<path d="M64884 39828
L65203 39828
L65240 39809
L65259 39790
L65278 39753
L65278 39678
L65259 39640
L65240 39621
L65203 39603
L64884 39603
" />
<path d="M65071 39415
L65071 39284
" />
<path d="M65278 39228
L65278 39415
L64884 39415
L64884 39228
" />
<path d="M64884 39096
L65278 38834
" />
<path d="M64884 38834
L65278 39096
" />
<path d="M64884 38740
L64884 38515
" />
<path d="M65278 38628
L64884 38628
" />
<path d="M67594 49538
L67406 49538
L67406 49144
" />
<path d="M67931 49538
L67706 49538
" />
<path d="M67819 49538
L67819 49144
L67781 49200
L67744 49238
L67706 49256
" />
<path d="M67009 50215
L67009 50478
" />
<path d="M66915 50065
L66821 50346
L67065 50346
" />
<path d="M67215 50440
L67234 50459
L67215 50478
L67196 50459
L67215 50440
L67215 50478
" />
<path d="M67365 50084
L67628 50084
L67459 50478
" />
<path d="M67946 50215
L67946 50478
" />
<path d="M67778 50215
L67778 50421
L67796 50459
L67834 50478
L67890 50478
L67928 50459
L67946 50440
" />
<path d="M68134 50478
L68134 50084
" />
<path d="M68134 50271
L68359 50271
" />
<path d="M68359 50478
L68359 50084
" />
<path d="M50878 41278
L50484 41278
L50484 41128
L50503 41090
L50521 41071
L50559 41053
L50615 41053
L50653 41071
L50671 41090
L50690 41128
L50690 41278
" />
<path d="M50521 40903
L50503 40884
L50484 40846
L50484 40753
L50503 40715
L50521 40696
L50559 40678
L50596 40678
L50653 40696
L50878 40921
L50878 40678
" />
<path d="M50484 40434
L50484 40396
L50503 40359
L50521 40340
L50559 40321
L50634 40303
L50728 40303
L50803 40321
L50840 40340
L50859 40359
L50878 40396
L50878 40434
L50859 40471
L50840 40490
L50803 40509
L50728 40528
L50634 40528
L50559 40509
L50521 40490
L50503 40471
L50484 40434
" />
<path d="M52743 39084
L52818 39084
L52856 39103
L52893 39140
L52912 39215
L52912 39346
L52893 39421
L52856 39459
L52818 39478
L52743 39478
L52706 39459
L52668 39421
L52650 39346
L52650 39215
L52668 39140
L52706 39103
L52743 39084
" />
<path d="M53250 39215
L53250 39478
" />
<path d="M53081 39215
L53081 39421
L53100 39459
L53137 39478
L53193 39478
L53231 39459
L53250 39440
" />
<path d="M53381 39215
L53531 39215
" />
<path d="M53437 39084
L53437 39421
L53456 39459
L53493 39478
L53531 39478
" />
<path d="M53662 39215
L53662 39609
" />
<path d="M53662 39234
L53700 39215
L53774 39215
L53812 39234
L53831 39253
L53849 39290
L53849 39403
L53831 39440
L53812 39459
L53774 39478
L53700 39478
L53662 39459
" />
<path d="M54187 39215
L54187 39478
" />
<path d="M54018 39215
L54018 39421
L54037 39459
L54074 39478
L54131 39478
L54168 39459
L54187 39440
" />
<path d="M54318 39215
L54468 39215
" />
<path d="M54374 39084
L54374 39421
L54393 39459
L54431 39478
L54468 39478
" />
<path d="M54581 39459
L54618 39478
L54693 39478
L54731 39459
L54749 39421
L54749 39403
L54731 39365
L54693 39346
L54637 39346
L54599 39328
L54581 39290
L54581 39271
L54599 39234
L54637 39215
L54693 39215
L54731 39234
" />
<path d="M41858 29198
L41464 29198
L41464 29048
L41483 29010
L41501 28991
L41539 28973
L41595 28973
L41633 28991
L41651 29010
L41670 29048
L41670 29198
" />
<path d="M41501 28823
L41483 28804
L41464 28766
L41464 28673
L41483 28635
L41501 28616
L41539 28598
L41576 28598
L41633 28616
L41858 28841
L41858 28598
" />
<path d="M41858 28223
L41858 28448
" />
<path d="M41858 28335
L41464 28335
L41520 28373
L41558 28410
L41576 28448
" />
<path d="M42275 33078
L42275 32684
" />
<path d="M42444 32721
L42463 32703
L42500 32684
L42594 32684
L42631 32703
L42650 32721
L42669 32759
L42669 32796
L42650 32853
L42425 33078
L42669 33078
" />
<path d="M43063 33040
L43044 33059
L42988 33078
L42950 33078
L42894 33059
L42856 33021
L42838 32984
L42819 32909
L42819 32853
L42838 32778
L42856 32740
L42894 32703
L42950 32684
L42988 32684
L43044 32703
L43063 32721
" />
<path d="M39438 29258
L39044 29258
L39044 29108
L39063 29070
L39081 29051
L39119 29033
L39175 29033
L39213 29051
L39231 29070
L39250 29108
L39250 29258
" />
<path d="M39081 28883
L39063 28864
L39044 28826
L39044 28733
L39063 28695
L39081 28676
L39119 28658
L39156 28658
L39213 28676
L39438 28901
L39438 28658
" />
<path d="M39081 28508
L39063 28489
L39044 28451
L39044 28358
L39063 28320
L39081 28301
L39119 28283
L39156 28283
L39213 28301
L39438 28526
L39438 28283
" />
<path d="M39895 33078
L39895 32684
" />
<path d="M40064 32721
L40083 32703
L40120 32684
L40214 32684
L40251 32703
L40270 32721
L40289 32759
L40289 32796
L40270 32853
L40045 33078
L40289 33078
" />
<path d="M40683 33040
L40664 33059
L40608 33078
L40570 33078
L40514 33059
L40476 33021
L40458 32984
L40439 32909
L40439 32853
L40458 32778
L40476 32740
L40514 32703
L40570 32684
L40608 32684
L40664 32703
L40683 32721
" />
<path d="M44438 29318
L44044 29318
L44044 29168
L44063 29130
L44081 29111
L44119 29093
L44175 29093
L44213 29111
L44231 29130
L44250 29168
L44250 29318
" />
<path d="M44081 28943
L44063 28924
L44044 28886
L44044 28793
L44063 28755
L44081 28736
L44119 28718
L44156 28718
L44213 28736
L44438 28961
L44438 28718
" />
<path d="M44044 28586
L44044 28343
L44194 28474
L44194 28418
L44213 28380
L44231 28361
L44269 28343
L44363 28343
L44400 28361
L44419 28380
L44438 28418
L44438 28530
L44419 28568
L44400 28586
" />
<path d="M44908 33098
L44720 33098
L44720 32704
" />
<path d="M45264 33060
L45245 33079
L45189 33098
L45151 33098
L45095 33079
L45058 33041
L45039 33004
L45020 32929
L45020 32873
L45039 32798
L45058 32760
L45095 32723
L45151 32704
L45189 32704
L45245 32723
L45264 32741
" />
<path d="M45433 33098
L45433 32704
L45526 32704
L45583 32723
L45620 32760
L45639 32798
L45658 32873
L45658 32929
L45639 33004
L45620 33041
L45583 33079
L45526 33098
L45433 33098
" />
<path d="M72941 36078
L72941 35684
L73091 35684
L73129 35703
L73148 35721
L73166 35759
L73166 35815
L73148 35853
L73129 35871
L73091 35890
L72941 35890
" />
<path d="M73316 35721
L73335 35703
L73373 35684
L73466 35684
L73504 35703
L73523 35721
L73541 35759
L73541 35796
L73523 35853
L73298 36078
L73541 36078
" />
<path d="M73879 35815
L73879 36078
" />
<path d="M73785 35665
L73691 35946
L73935 35946
" />
<path d="M72518 35022
L72518 35209
L72124 35209
" />
<path d="M72311 34891
L72311 34759
" />
<path d="M72518 34703
L72518 34891
L72124 34891
L72124 34703
" />
<path d="M72518 34534
L72124 34534
L72124 34441
L72143 34384
L72180 34347
L72218 34328
L72293 34309
L72349 34309
L72424 34328
L72461 34347
L72499 34384
L72518 34441
L72518 34534
" />
<path d="M72368 34141
L72368 33841
" />
<path d="M72499 33672
L72518 33635
L72518 33560
L72499 33522
L72461 33503
L72443 33503
L72405 33522
L72386 33560
L72386 33616
L72368 33653
L72330 33672
L72311 33672
L72274 33653
L72255 33616
L72255 33560
L72274 33522
" />
<path d="M72255 33391
L72255 33241
" />
<path d="M72124 33335
L72461 33335
L72499 33316
L72518 33278
L72518 33241
" />
<path d="M72518 33110
L72255 33110
" />
<path d="M72330 33110
L72293 33091
L72274 33072
L72255 33035
L72255 32997
" />
<path d="M72518 32866
L72255 32866
" />
<path d="M72124 32866
L72143 32885
L72161 32866
L72143 32847
L72124 32866
L72161 32866
" />
<path d="M72255 32678
L72649 32678
" />
<path d="M72274 32678
L72255 32641
L72255 32566
L72274 32528
L72293 32510
L72330 32491
L72443 32491
L72480 32510
L72499 32528
L72518 32566
L72518 32641
L72499 32678
" />
<path d="M62938 33033
L62750 33164
" />
<path d="M62938 33258
L62544 33258
L62544 33108
L62563 33070
L62581 33051
L62619 33033
L62675 33033
L62713 33051
L62731 33070
L62750 33108
L62750 33258
" />
<path d="M62544 32901
L62544 32658
L62694 32789
L62694 32733
L62713 32695
L62731 32676
L62769 32658
L62863 32658
L62900 32676
L62919 32695
L62938 32733
L62938 32845
L62919 32883
L62900 32901
" />
<path d="M62713 32433
L62694 32470
L62675 32489
L62638 32508
L62619 32508
L62581 32489
L62563 32470
L62544 32433
L62544 32358
L62563 32320
L62581 32301
L62619 32283
L62638 32283
L62675 32301
L62694 32320
L62713 32358
L62713 32433
L62731 32470
L62750 32489
L62788 32508
L62863 32508
L62900 32489
L62919 32470
L62938 32433
L62938 32358
L62919 32320
L62900 32301
L62863 32283
L62788 32283
L62750 32301
L62731 32320
L62713 32358
" />
<path d="M62903 37846
L62715 37977
" />
<path d="M62903 38071
L62509 38071
L62509 37921
L62528 37884
L62546 37865
L62584 37846
L62640 37846
L62678 37865
L62696 37884
L62715 37921
L62715 38071
" />
<path d="M62753 37678
L62753 37378
" />
<path d="M62884 37209
L62903 37153
L62903 37059
L62884 37021
L62865 37003
L62828 36984
L62790 36984
L62753 37003
L62734 37021
L62715 37059
L62696 37134
L62678 37171
L62659 37190
L62621 37209
L62584 37209
L62546 37190
L62528 37171
L62509 37134
L62509 37040
L62528 36984
" />
<path d="M62903 36815
L62509 36815
" />
<path d="M62903 36440
L62903 36628
L62509 36628
" />
<path d="M62546 36028
L62528 36009
L62509 35971
L62509 35878
L62528 35840
L62546 35821
L62584 35803
L62621 35803
L62678 35821
L62903 36046
L62903 35803
" />
<path d="M62903 35634
L62509 35634
" />
<path d="M62903 35409
L62678 35578
" />
<path d="M62509 35409
L62734 35634
" />
</g>
<g style="fill:#000000; fill-opacity:0.0; 
stroke:#000000; stroke-width:39.3701; stroke-opacity:1; 
stroke-linecap:round; stroke-linejoin:round;">
<path d="M39785 50695
L39818 50706
L39875 50706
L39897 50695
L39908 50684
L39920 50661
L39920 50639
L39908 50616
L39897 50605
L39875 50594
L39830 50583
L39807 50571
L39796 50560
L39785 50538
L39785 50515
L39796 50493
L39807 50481
L39830 50470
L39886 50470
L39920 50481
" />
<path d="M39998 50470
L40055 50706
L40100 50538
L40144 50706
L40201 50470
" />
<path d="M40414 50706
L40279 50706
" />
<path d="M40347 50706
L40347 50470
L40324 50504
L40302 50526
L40279 50538
" />
</g>
<g style="fill:#000000; fill-opacity:0.0; 
stroke:#000000; stroke-width:59.0551; stroke-opacity:1; 
stroke-linecap:round; stroke-linejoin:round;">
<path d="M65344 30139
L65663 30139
L65700 30121
L65719 30102
L65738 30064
L65738 29989
L65719 29952
L65700 29933
L65663 29914
L65344 29914
" />
<path d="M65344 29765
L65344 29521
L65494 29652
L65494 29596
L65513 29558
L65531 29540
L65569 29521
L65663 29521
L65700 29540
L65719 29558
L65738 29596
L65738 29708
L65719 29746
L65700 29765
" />
<path d="M75703 30437
L75703 30624
L75309 30624
" />
<path d="M75346 30324
L75328 30306
L75309 30268
L75309 30174
L75328 30137
L75346 30118
L75384 30099
L75421 30099
L75478 30118
L75703 30343
L75703 30099
" />
<path d="M75703 29912
L75703 29837
L75684 29799
L75665 29781
L75609 29743
L75534 29725
L75384 29725
L75346 29743
L75328 29762
L75309 29799
L75309 29874
L75328 29912
L75346 29931
L75384 29949
L75478 29949
L75515 29931
L75534 29912
L75553 29874
L75553 29799
L75534 29762
L75515 29743
L75478 29725
" />
<path d="M75309 29593
L75309 29350
L75459 29481
L75459 29425
L75478 29387
L75496 29368
L75534 29350
L75628 29350
L75665 29368
L75684 29387
L75703 29425
L75703 29537
L75684 29575
L75665 29593
" />
<path d="M75703 29181
L75309 29181
L75309 29087
L75328 29031
L75365 28993
L75403 28975
L75478 28956
L75534 28956
L75609 28975
L75646 28993
L75684 29031
L75703 29087
L75703 29181
" />
<path d="M48859 46249
L49178 46249
L49215 46231
L49234 46212
L49253 46174
L49253 46099
L49234 46062
L49215 46043
L49178 46024
L48859 46024
" />
<path d="M48859 45650
L48859 45837
L49046 45856
L49028 45837
L49009 45800
L49009 45706
L49028 45668
L49046 45650
L49084 45631
L49178 45631
L49215 45650
L49234 45668
L49253 45706
L49253 45800
L49234 45837
L49215 45856
" />
<path d="M52672 42059
L52672 42378
L52690 42415
L52709 42434
L52747 42453
L52822 42453
L52859 42434
L52878 42415
L52897 42378
L52897 42059
" />
<path d="M53271 42453
L53084 42453
L53084 42059
" />
<path d="M53403 42453
L53403 42059
L53628 42453
L53628 42059
" />
<path d="M53796 42096
L53815 42078
L53853 42059
L53946 42059
L53984 42078
L54003 42096
L54021 42134
L54021 42171
L54003 42228
L53778 42453
L54021 42453
" />
<path d="M54246 42228
L54209 42209
L54190 42190
L54171 42153
L54171 42134
L54190 42096
L54209 42078
L54246 42059
L54321 42059
L54359 42078
L54378 42096
L54396 42134
L54396 42153
L54378 42190
L54359 42209
L54321 42228
L54246 42228
L54209 42246
L54190 42265
L54171 42303
L54171 42378
L54190 42415
L54209 42434
L54246 42453
L54321 42453
L54359 42434
L54378 42415
L54396 42378
L54396 42303
L54378 42265
L54359 42246
L54321 42228
" />
<path d="M54640 42059
L54678 42059
L54715 42078
L54734 42096
L54753 42134
L54771 42209
L54771 42303
L54753 42378
L54734 42415
L54715 42434
L54678 42453
L54640 42453
L54603 42434
L54584 42415
L54565 42378
L54546 42303
L54546 42209
L54565 42134
L54584 42096
L54603 42078
L54640 42059
" />
<path d="M54902 42059
L55146 42059
L55015 42209
L55071 42209
L55109 42228
L55127 42246
L55146 42284
L55146 42378
L55127 42415
L55109 42434
L55071 42453
L54959 42453
L54921 42434
L54902 42415
" />
<path d="M42609 42049
L42928 42049
L42965 42031
L42984 42012
L43003 41974
L43003 41899
L42984 41862
L42965 41843
L42928 41824
L42609 41824
" />
<path d="M42609 41675
L42609 41412
L43003 41581
" />
<path d="M44678 42928
L44284 42928
" />
<path d="M44471 42928
L44471 42703
" />
<path d="M44678 42703
L44284 42703
" />
<path d="M44640 42290
L44659 42309
L44678 42365
L44678 42403
L44659 42459
L44621 42496
L44584 42515
L44509 42534
L44453 42534
L44378 42515
L44340 42496
L44303 42459
L44284 42403
L44284 42365
L44303 42309
L44321 42290
" />
<path d="M44528 42121
L44528 41821
" />
<path d="M44284 41559
L44284 41521
L44303 41484
L44321 41465
L44359 41446
L44434 41428
L44528 41428
L44603 41446
L44640 41465
L44659 41484
L44678 41521
L44678 41559
L44659 41596
L44640 41615
L44603 41634
L44528 41653
L44434 41653
L44359 41634
L44321 41615
L44303 41596
L44284 41559
" />
<path d="M44284 41071
L44284 41259
L44471 41278
L44453 41259
L44434 41221
L44434 41128
L44453 41090
L44471 41071
L44509 41053
L44603 41053
L44640 41071
L44659 41090
L44678 41128
L44678 41221
L44659 41259
L44640 41278
" />
<path d="M70784 42078
L71065 42078
L71121 42097
L71159 42134
L71178 42191
L71178 42228
" />
<path d="M71178 41685
L71178 41909
" />
<path d="M71178 41797
L70784 41797
L70840 41834
L70878 41872
L70896 41909
" />
<path d="M71178 41310
L71178 41535
" />
<path d="M71178 41422
L70784 41422
L70840 41460
L70878 41497
L70896 41535
" />
<path d="M64864 42828
L65183 42828
L65220 42809
L65239 42790
L65258 42753
L65258 42678
L65239 42640
L65220 42621
L65183 42603
L64864 42603
" />
<path d="M65051 42415
L65051 42284
" />
<path d="M65258 42228
L65258 42415
L64864 42415
L64864 42228
" />
<path d="M64864 42096
L65258 41834
" />
<path d="M64864 41834
L65258 42096
" />
<path d="M64864 41740
L64864 41515
" />
<path d="M65258 41628
L64864 41628
" />
</g>
<g style="fill:#000000; fill-opacity:0.0; 
stroke:#000000; stroke-width:120; stroke-opacity:1; 
stroke-linecap:round; stroke-linejoin:round;">
<path d="M59771 37385
L60200 37385
L60285 37414
L60342 37471
L60371 37557
L60371 37614
" />
<path d="M60371 36785
L60371 37128
" />
<path d="M60371 36957
L59771 36957
L59857 37014
L59914 37071
L59942 37128
" />
<path d="M59828 36557
L59800 36528
L59771 36471
L59771 36328
L59800 36271
L59828 36242
L59885 36214
L59942 36214
L60028 36242
L60371 36585
L60371 36214
" />
</g>
<g style="fill:#000000; fill-opacity:0.0; 
stroke:#000000; stroke-width:59.0551; stroke-opacity:1; 
stroke-linecap:round; stroke-linejoin:round;">
<path d="M41009 47211
L41009 47398
L40615 47398
" />
<path d="M41009 47080
L40615 47080
L40615 46986
L40634 46930
L40671 46892
L40709 46873
L40784 46855
L40840 46855
L40915 46873
L40952 46892
L40990 46930
L41009 46986
L41009 47080
" />
<path d="M41009 46480
L41009 46705
" />
<path d="M41009 46592
L40615 46592
L40671 46630
L40709 46667
L40727 46705
" />
<path d="M40497 47957
L40103 47957
" />
<path d="M40497 47732
L40272 47901
" />
<path d="M40103 47732
L40328 47957
" />
<path d="M41737 58178
L41550 58178
L41550 57784
" />
<path d="M41868 58178
L41868 57784
L41962 57784
L42018 57803
L42056 57840
L42074 57878
L42093 57953
L42093 58009
L42074 58084
L42056 58121
L42018 58159
L41962 58178
L41868 58178
" />
<path d="M42243 57821
L42262 57803
L42299 57784
L42393 57784
L42431 57803
L42449 57821
L42468 57859
L42468 57896
L42449 57953
L42224 58178
L42468 58178
" />
<path d="M42596 55978
L42596 55584
" />
<path d="M42821 55978
L42653 55753
" />
<path d="M42821 55584
L42596 55809
" />
<path d="M46137 58178
L45950 58178
L45950 57784
" />
<path d="M46268 58178
L46268 57784
L46362 57784
L46418 57803
L46456 57840
L46474 57878
L46493 57953
L46493 58009
L46474 58084
L46456 58121
L46418 58159
L46362 58178
L46268 58178
" />
<path d="M46624 57784
L46868 57784
L46737 57934
L46793 57934
L46831 57953
L46849 57971
L46868 58009
L46868 58103
L46849 58140
L46831 58159
L46793 58178
L46681 58178
L46643 58159
L46624 58140
" />
<path d="M46996 55978
L46996 55584
" />
<path d="M47221 55978
L47053 55753
" />
<path d="M47221 55584
L46996 55809
" />
<path d="M50637 58178
L50450 58178
L50450 57784
" />
<path d="M50768 58178
L50768 57784
L50862 57784
L50918 57803
L50956 57840
L50974 57878
L50993 57953
L50993 58009
L50974 58084
L50956 58121
L50918 58159
L50862 58178
L50768 58178
" />
<path d="M51331 57915
L51331 58178
" />
<path d="M51237 57765
L51143 58046
L51387 58046
" />
<path d="M51496 55978
L51496 55584
" />
<path d="M51721 55978
L51553 55753
" />
<path d="M51721 55584
L51496 55809
" />
<path d="M55137 58178
L54950 58178
L54950 57784
" />
<path d="M55268 58178
L55268 57784
L55362 57784
L55418 57803
L55456 57840
L55474 57878
L55493 57953
L55493 58009
L55474 58084
L55456 58121
L55418 58159
L55362 58178
L55268 58178
" />
<path d="M55849 57784
L55662 57784
L55643 57971
L55662 57953
L55699 57934
L55793 57934
L55831 57953
L55849 57971
L55868 58009
L55868 58103
L55849 58140
L55831 58159
L55793 58178
L55699 58178
L55662 58159
L55643 58140
" />
<path d="M55996 55978
L55996 55584
" />
<path d="M56221 55978
L56053 55753
" />
<path d="M56221 55584
L55996 55809
" />
<path d="M59737 58178
L59550 58178
L59550 57784
" />
<path d="M59868 58178
L59868 57784
L59962 57784
L60018 57803
L60056 57840
L60074 57878
L60093 57953
L60093 58009
L60074 58084
L60056 58121
L60018 58159
L59962 58178
L59868 58178
" />
<path d="M60431 57784
L60356 57784
L60318 57803
L60299 57821
L60262 57878
L60243 57953
L60243 58103
L60262 58140
L60281 58159
L60318 58178
L60393 58178
L60431 58159
L60449 58140
L60468 58103
L60468 58009
L60449 57971
L60431 57953
L60393 57934
L60318 57934
L60281 57953
L60262 57971
L60243 58009
" />
<path d="M60596 55978
L60596 55584
" />
<path d="M60821 55978
L60653 55753
" />
<path d="M60821 55584
L60596 55809
" />
<path d="M64137 58178
L63950 58178
L63950 57784
" />
<path d="M64268 58178
L64268 57784
L64362 57784
L64418 57803
L64456 57840
L64474 57878
L64493 57953
L64493 58009
L64474 58084
L64456 58121
L64418 58159
L64362 58178
L64268 58178
" />
<path d="M64624 57784
L64887 57784
L64718 58178
" />
<path d="M64996 55978
L64996 55584
" />
<path d="M65221 55978
L65053 55753
" />
<path d="M65221 55584
L64996 55809
" />
<path d="M68637 58178
L68450 58178
L68450 57784
" />
<path d="M68768 58178
L68768 57784
L68862 57784
L68918 57803
L68956 57840
L68974 57878
L68993 57953
L68993 58009
L68974 58084
L68956 58121
L68918 58159
L68862 58178
L68768 58178
" />
<path d="M69218 57953
L69181 57934
L69162 57915
L69143 57878
L69143 57859
L69162 57821
L69181 57803
L69218 57784
L69293 57784
L69331 57803
L69349 57821
L69368 57859
L69368 57878
L69349 57915
L69331 57934
L69293 57953
L69218 57953
L69181 57971
L69162 57990
L69143 58028
L69143 58103
L69162 58140
L69181 58159
L69218 58178
L69293 58178
L69331 58159
L69349 58140
L69368 58103
L69368 58028
L69349 57990
L69331 57971
L69293 57953
" />
<path d="M69496 55978
L69496 55584
" />
<path d="M69721 55978
L69553 55753
" />
<path d="M69721 55584
L69496 55809
" />
<path d="M73137 58178
L72950 58178
L72950 57784
" />
<path d="M73268 58178
L73268 57784
L73362 57784
L73418 57803
L73456 57840
L73474 57878
L73493 57953
L73493 58009
L73474 58084
L73456 58121
L73418 58159
L73362 58178
L73268 58178
" />
<path d="M73681 58178
L73756 58178
L73793 58159
L73812 58140
L73849 58084
L73868 58009
L73868 57859
L73849 57821
L73831 57803
L73793 57784
L73718 57784
L73681 57803
L73662 57821
L73643 57859
L73643 57953
L73662 57990
L73681 58009
L73718 58028
L73793 58028
L73831 58009
L73849 57990
L73868 57953
" />
<path d="M73996 55978
L73996 55584
" />
<path d="M74221 55978
L74053 55753
" />
<path d="M74221 55584
L73996 55809
" />
<path d="M39650 25878
L39462 25878
L39462 25484
" />
<path d="M39781 25878
L39781 25484
L39875 25484
L39931 25503
L39968 25540
L39987 25578
L40006 25653
L40006 25709
L39987 25784
L39968 25821
L39931 25859
L39875 25878
L39781 25878
" />
<path d="M40381 25878
L40156 25878
" />
<path d="M40268 25878
L40268 25484
L40231 25540
L40193 25578
L40156 25596
" />
<path d="M40624 25484
L40662 25484
L40699 25503
L40718 25521
L40737 25559
L40756 25634
L40756 25728
L40737 25803
L40718 25840
L40699 25859
L40662 25878
L40624 25878
L40587 25859
L40568 25840
L40549 25803
L40531 25728
L40531 25634
L40549 25559
L40568 25521
L40587 25503
L40624 25484
" />
<path d="M39042 27847
L39042 27453
" />
<path d="M39267 27847
L39098 27622
" />
<path d="M39267 27453
L39042 27678
" />
<path d="M44050 25878
L43862 25878
L43862 25484
" />
<path d="M44181 25878
L44181 25484
L44275 25484
L44331 25503
L44368 25540
L44387 25578
L44406 25653
L44406 25709
L44387 25784
L44368 25821
L44331 25859
L44275 25878
L44181 25878
" />
<path d="M44781 25878
L44556 25878
" />
<path d="M44668 25878
L44668 25484
L44631 25540
L44593 25578
L44556 25596
" />
<path d="M45156 25878
L44931 25878
" />
<path d="M45043 25878
L45043 25484
L45006 25540
L44968 25578
L44931 25596
" />
<path d="M43542 27847
L43542 27453
" />
<path d="M43767 27847
L43598 27622
" />
<path d="M43767 27453
L43542 27678
" />
<path d="M48601 28359
L48413 28359
L48413 27965
" />
<path d="M48732 28359
L48732 27965
L48826 27965
L48882 27984
L48919 28021
L48938 28059
L48957 28134
L48957 28190
L48938 28265
L48919 28302
L48882 28340
L48826 28359
L48732 28359
" />
<path d="M49332 28359
L49107 28359
" />
<path d="M49219 28359
L49219 27965
L49182 28021
L49144 28059
L49107 28077
" />
<path d="M49482 28002
L49501 27984
L49538 27965
L49632 27965
L49669 27984
L49688 28002
L49707 28040
L49707 28077
L49688 28134
L49463 28359
L49707 28359
" />
<path d="M48042 27847
L48042 27453
" />
<path d="M48267 27847
L48098 27622
" />
<path d="M48267 27453
L48042 27678
" />
<path d="M53101 28359
L52913 28359
L52913 27965
" />
<path d="M53232 28359
L53232 27965
L53326 27965
L53382 27984
L53419 28021
L53438 28059
L53457 28134
L53457 28190
L53438 28265
L53419 28302
L53382 28340
L53326 28359
L53232 28359
" />
<path d="M53832 28359
L53607 28359
" />
<path d="M53719 28359
L53719 27965
L53682 28021
L53644 28059
L53607 28077
" />
<path d="M53963 27965
L54207 27965
L54076 28115
L54132 28115
L54169 28134
L54188 28152
L54207 28190
L54207 28284
L54188 28321
L54169 28340
L54132 28359
L54019 28359
L53982 28340
L53963 28321
" />
<path d="M52542 27847
L52542 27453
" />
<path d="M52767 27847
L52598 27622
" />
<path d="M52767 27453
L52542 27678
" />
<path d="M57601 28359
L57413 28359
L57413 27965
" />
<path d="M57732 28359
L57732 27965
L57826 27965
L57882 27984
L57919 28021
L57938 28059
L57957 28134
L57957 28190
L57938 28265
L57919 28302
L57882 28340
L57826 28359
L57732 28359
" />
<path d="M58332 28359
L58107 28359
" />
<path d="M58219 28359
L58219 27965
L58182 28021
L58144 28059
L58107 28077
" />
<path d="M58669 28096
L58669 28359
" />
<path d="M58576 27946
L58482 28227
L58726 28227
" />
<path d="M57042 27847
L57042 27453
" />
<path d="M57267 27847
L57098 27622
" />
<path d="M57267 27453
L57042 27678
" />
<path d="M62101 28359
L61913 28359
L61913 27965
" />
<path d="M62232 28359
L62232 27965
L62326 27965
L62382 27984
L62419 28021
L62438 28059
L62457 28134
L62457 28190
L62438 28265
L62419 28302
L62382 28340
L62326 28359
L62232 28359
" />
<path d="M62832 28359
L62607 28359
" />
<path d="M62719 28359
L62719 27965
L62682 28021
L62644 28059
L62607 28077
" />
<path d="M63188 27965
L63001 27965
L62982 28152
L63001 28134
L63038 28115
L63132 28115
L63169 28134
L63188 28152
L63207 28190
L63207 28284
L63188 28321
L63169 28340
L63132 28359
L63038 28359
L63001 28340
L62982 28321
" />
<path d="M61542 27847
L61542 27453
" />
<path d="M61767 27847
L61598 27622
" />
<path d="M61767 27453
L61542 27678
" />
<path d="M66550 25878
L66362 25878
L66362 25484
" />
<path d="M66681 25878
L66681 25484
L66775 25484
L66831 25503
L66868 25540
L66887 25578
L66906 25653
L66906 25709
L66887 25784
L66868 25821
L66831 25859
L66775 25878
L66681 25878
" />
<path d="M67281 25878
L67056 25878
" />
<path d="M67168 25878
L67168 25484
L67131 25540
L67093 25578
L67056 25596
" />
<path d="M67618 25484
L67543 25484
L67506 25503
L67487 25521
L67449 25578
L67431 25653
L67431 25803
L67449 25840
L67468 25859
L67506 25878
L67581 25878
L67618 25859
L67637 25840
L67656 25803
L67656 25709
L67637 25671
L67618 25653
L67581 25634
L67506 25634
L67468 25653
L67449 25671
L67431 25709
" />
<path d="M66042 27847
L66042 27453
" />
<path d="M66267 27847
L66098 27622
" />
<path d="M66267 27453
L66042 27678
" />
<path d="M71050 25878
L70862 25878
L70862 25484
" />
<path d="M71181 25878
L71181 25484
L71275 25484
L71331 25503
L71368 25540
L71387 25578
L71406 25653
L71406 25709
L71387 25784
L71368 25821
L71331 25859
L71275 25878
L71181 25878
" />
<path d="M71781 25878
L71556 25878
" />
<path d="M71668 25878
L71668 25484
L71631 25540
L71593 25578
L71556 25596
" />
<path d="M71912 25484
L72174 25484
L72006 25878
" />
<path d="M70542 27847
L70542 27453
" />
<path d="M70767 27847
L70598 27622
" />
<path d="M70767 27453
L70542 27678
" />
<path d="M75350 25878
L75162 25878
L75162 25484
" />
<path d="M75481 25878
L75481 25484
L75575 25484
L75631 25503
L75668 25540
L75687 25578
L75706 25653
L75706 25709
L75687 25784
L75668 25821
L75631 25859
L75575 25878
L75481 25878
" />
<path d="M76081 25878
L75856 25878
" />
<path d="M75968 25878
L75968 25484
L75931 25540
L75893 25578
L75856 25596
" />
<path d="M76306 25653
L76268 25634
L76249 25615
L76231 25578
L76231 25559
L76249 25521
L76268 25503
L76306 25484
L76381 25484
L76418 25503
L76437 25521
L76456 25559
L76456 25578
L76437 25615
L76418 25634
L76381 25653
L76306 25653
L76268 25671
L76249 25690
L76231 25728
L76231 25803
L76249 25840
L76268 25859
L76306 25878
L76381 25878
L76418 25859
L76437 25840
L76456 25803
L76456 25728
L76437 25690
L76418 25671
L76381 25653
" />
<path d="M77296 27278
L77296 26884
" />
<path d="M77521 27278
L77353 27053
" />
<path d="M77521 26884
L77296 27109
" />
<path d="M75350 56778
L75162 56778
L75162 56384
" />
<path d="M75481 56778
L75481 56384
L75575 56384
L75631 56403
L75668 56440
L75687 56478
L75706 56553
L75706 56609
L75687 56684
L75668 56721
L75631 56759
L75575 56778
L75481 56778
" />
<path d="M76081 56778
L75856 56778
" />
<path d="M75968 56778
L75968 56384
L75931 56440
L75893 56478
L75856 56496
" />
<path d="M76268 56778
L76343 56778
L76381 56759
L76399 56740
L76437 56684
L76456 56609
L76456 56459
L76437 56421
L76418 56403
L76381 56384
L76306 56384
L76268 56403
L76249 56421
L76231 56459
L76231 56553
L76249 56590
L76268 56609
L76306 56628
L76381 56628
L76418 56609
L76437 56590
L76456 56553
" />
<path d="M76196 54478
L76196 54084
" />
<path d="M76421 54478
L76253 54253
" />
<path d="M76421 54084
L76196 54309
" />
<path d="M73709 43378
L73709 42984
L73859 42984
L73896 43003
L73915 43021
L73934 43059
L73934 43115
L73915 43153
L73896 43171
L73859 43190
L73709 43190
" />
<path d="M74309 43378
L74084 43378
" />
<path d="M74196 43378
L74196 42984
L74159 43040
L74121 43078
L74084 43096
" />
<path d="M72545 45148
L72545 44754
L72695 44754
L72732 44773
L72751 44791
L72770 44829
L72770 44885
L72751 44923
L72732 44941
L72695 44960
L72545 44960
" />
<path d="M72995 45148
L72957 45129
L72938 45110
L72920 45073
L72920 44960
L72938 44923
L72957 44904
L72995 44885
L73051 44885
L73088 44904
L73107 44923
L73126 44960
L73126 45073
L73107 45110
L73088 45129
L73051 45148
L72995 45148
" />
<path d="M73257 44885
L73332 45148
L73407 44960
L73482 45148
L73557 44885
" />
<path d="M73857 45129
L73820 45148
L73745 45148
L73707 45129
L73688 45091
L73688 44941
L73707 44904
L73745 44885
L73820 44885
L73857 44904
L73876 44941
L73876 44979
L73688 45016
" />
<path d="M74045 45148
L74045 44885
" />
<path d="M74045 44960
L74063 44923
L74082 44904
L74120 44885
L74157 44885
" />
<path d="M74588 45148
L74588 44754
" />
<path d="M74776 44885
L74776 45148
" />
<path d="M74776 44923
L74794 44904
L74832 44885
L74888 44885
L74926 44904
L74944 44941
L74944 45148
" />
<path d="M75132 44885
L75132 45279
" />
<path d="M75132 44904
L75169 44885
L75244 44885
L75282 44904
L75301 44923
L75319 44960
L75319 45073
L75301 45110
L75282 45129
L75244 45148
L75169 45148
L75132 45129
" />
<path d="M75657 44885
L75657 45148
" />
<path d="M75488 44885
L75488 45091
L75507 45129
L75544 45148
L75601 45148
L75638 45129
L75657 45110
" />
<path d="M75788 44885
L75938 44885
" />
<path d="M75844 44754
L75844 45091
L75863 45129
L75901 45148
L75938 45148
" />
<path d="M76332 44754
L76576 44754
L76444 44904
L76501 44904
L76538 44923
L76557 44941
L76576 44979
L76576 45073
L76557 45110
L76538 45129
L76501 45148
L76388 45148
L76351 45129
L76332 45110
" />
<path d="M76688 44754
L76819 45148
L76950 44754
" />
<path d="M53346 50078
L53215 49890
" />
<path d="M53121 50078
L53121 49684
L53271 49684
L53309 49703
L53328 49721
L53346 49759
L53346 49815
L53328 49853
L53309 49871
L53271 49890
L53121 49890
" />
<path d="M53703 49684
L53515 49684
L53496 49871
L53515 49853
L53553 49834
L53646 49834
L53684 49853
L53703 49871
L53721 49909
L53721 50003
L53703 50040
L53684 50059
L53646 50078
L53553 50078
L53515 50059
L53496 50040
" />
<path d="M53871 49721
L53890 49703
L53928 49684
L54021 49684
L54059 49703
L54078 49721
L54096 49759
L54096 49796
L54078 49853
L53853 50078
L54096 50078
" />
<path d="M56315 51878
L56184 51690
" />
<path d="M56090 51878
L56090 51484
L56240 51484
L56278 51503
L56297 51521
L56315 51559
L56315 51615
L56297 51653
L56278 51671
L56240 51690
L56090 51690
" />
<path d="M56484 51728
L56784 51728
" />
<path d="M56953 51859
L57009 51878
L57103 51878
L57140 51859
L57159 51840
L57178 51803
L57178 51765
L57159 51728
L57140 51709
L57103 51690
L57028 51671
L56990 51653
L56971 51634
L56953 51596
L56953 51559
L56971 51521
L56990 51503
L57028 51484
L57121 51484
L57178 51503
" />
<path d="M57346 51878
L57346 51484
" />
<path d="M57721 51878
L57534 51878
L57534 51484
" />
<path d="M58359 51878
L58134 51878
" />
<path d="M58246 51878
L58246 51484
L58209 51540
L58171 51578
L58134 51596
" />
<path d="M58602 51484
L58640 51484
L58677 51503
L58696 51521
L58715 51559
L58734 51634
L58734 51728
L58715 51803
L58696 51840
L58677 51859
L58640 51878
L58602 51878
L58565 51859
L58546 51840
L58528 51803
L58509 51728
L58509 51634
L58528 51559
L58546 51521
L58565 51503
L58602 51484
" />
<path d="M58902 51878
L58902 51484
" />
<path d="M59127 51878
L58959 51653
" />
<path d="M59127 51484
L58902 51709
" />
<path d="M67021 44878
L67021 44484
L67171 44484
L67209 44503
L67228 44521
L67246 44559
L67246 44615
L67228 44653
L67209 44671
L67171 44690
L67021 44690
" />
<path d="M67396 44521
L67415 44503
L67453 44484
L67546 44484
L67584 44503
L67603 44521
L67621 44559
L67621 44596
L67603 44653
L67378 44878
L67621 44878
" />
<path d="M67978 44484
L67790 44484
L67771 44671
L67790 44653
L67828 44634
L67921 44634
L67959 44653
L67978 44671
L67996 44709
L67996 44803
L67978 44840
L67959 44859
L67921 44878
L67828 44878
L67790 44859
L67771 44840
" />
<path d="M64837 46778
L64837 46384
L64987 46384
L65025 46403
L65044 46421
L65062 46459
L65062 46515
L65044 46553
L65025 46571
L64987 46590
L64837 46590
" />
<path d="M65287 46778
L65250 46759
L65231 46740
L65212 46703
L65212 46590
L65231 46553
L65250 46534
L65287 46515
L65344 46515
L65381 46534
L65400 46553
L65419 46590
L65419 46703
L65400 46740
L65381 46759
L65344 46778
L65287 46778
" />
<path d="M65550 46515
L65625 46778
L65700 46590
L65775 46778
L65850 46515
" />
<path d="M66150 46759
L66112 46778
L66037 46778
L66000 46759
L65981 46721
L65981 46571
L66000 46534
L66037 46515
L66112 46515
L66150 46534
L66168 46571
L66168 46609
L65981 46646
" />
<path d="M66337 46778
L66337 46515
" />
<path d="M66337 46590
L66356 46553
L66375 46534
L66412 46515
L66450 46515
" />
<path d="M66881 46778
L66881 46384
" />
<path d="M67068 46515
L67068 46778
" />
<path d="M67068 46553
L67087 46534
L67125 46515
L67181 46515
L67218 46534
L67237 46571
L67237 46778
" />
<path d="M67425 46515
L67425 46909
" />
<path d="M67425 46534
L67462 46515
L67537 46515
L67575 46534
L67593 46553
L67612 46590
L67612 46703
L67593 46740
L67575 46759
L67537 46778
L67462 46778
L67425 46759
" />
<path d="M67950 46515
L67950 46778
" />
<path d="M67781 46515
L67781 46721
L67800 46759
L67837 46778
L67893 46778
L67931 46759
L67950 46740
" />
<path d="M68081 46515
L68231 46515
" />
<path d="M68137 46384
L68137 46721
L68156 46759
L68193 46778
L68231 46778
" />
<path d="M68624 46384
L68887 46384
L68718 46778
" />
<path d="M68981 46384
L69112 46778
L69243 46384
" />
<path d="M69674 46628
L69974 46628
" />
<path d="M70668 46778
L70443 46778
" />
<path d="M70555 46778
L70555 46384
L70518 46440
L70480 46478
L70443 46496
" />
<path d="M70818 46421
L70837 46403
L70874 46384
L70968 46384
L71005 46403
L71024 46421
L71043 46459
L71043 46496
L71024 46553
L70799 46778
L71043 46778
" />
<path d="M71155 46384
L71287 46778
L71418 46384
" />
</g>
<g style="fill:#000000; fill-opacity:0.0; 
stroke:#000000; stroke-width:62.9921; stroke-opacity:1; 
stroke-linecap:round; stroke-linejoin:round;">
<path d="M39884 37553
L39899 37567
L39913 37607
L39913 37634
L39899 37675
L39870 37702
L39842 37715
L39786 37729
L39744 37729
L39688 37715
L39660 37702
L39631 37675
L39617 37634
L39617 37607
L39631 37567
L39645 37553
" />
<path d="M39884 37270
L39899 37284
L39913 37324
L39913 37351
L39899 37392
L39870 37419
L39842 37432
L39786 37446
L39744 37446
L39688 37432
L39660 37419
L39631 37392
L39617 37351
L39617 37324
L39631 37284
L39645 37270
" />
</g>
<g style="fill:#000000; fill-opacity:0.0; 
stroke:#000000; stroke-width:120; stroke-opacity:1; 
stroke-linecap:round; stroke-linejoin:round;">
<path d="M41314 26971
L41428 26971
L41485 27000
L41542 27057
L41571 27171
L41571 27371
L41542 27485
L41485 27542
L41428 27571
L41314 27571
L41257 27542
L41200 27485
L41171 27371
L41171 27171
L41200 27057
L41257 27000
L41314 26971
" />
<path d="M41828 26971
L41828 27457
L41857 27514
L41885 27542
L41942 27571
L42057 27571
L42114 27542
L42142 27514
L42171 27457
L42171 26971
" />
<path d="M42371 26971
L42714 26971
" />
<path d="M42542 27571
L42542 26971
" />
<path d="M43228 27571
L42885 27571
" />
<path d="M43057 27571
L43057 26971
L42999 27057
L42942 27114
L42885 27142
" />
<path d="M45814 26971
L45928 26971
L45985 27000
L46042 27057
L46071 27171
L46071 27371
L46042 27485
L45985 27542
L45928 27571
L45814 27571
L45757 27542
L45700 27485
L45671 27371
L45671 27171
L45700 27057
L45757 27000
L45814 26971
" />
<path d="M46328 26971
L46328 27457
L46357 27514
L46385 27542
L46442 27571
L46557 27571
L46614 27542
L46642 27514
L46671 27457
L46671 26971
" />
<path d="M46871 26971
L47214 26971
" />
<path d="M47042 27571
L47042 26971
" />
<path d="M47385 27028
L47414 27000
L47471 26971
L47614 26971
L47671 27000
L47699 27028
L47728 27085
L47728 27142
L47699 27228
L47357 27571
L47728 27571
" />
<path d="M50314 26971
L50428 26971
L50485 27000
L50542 27057
L50571 27171
L50571 27371
L50542 27485
L50485 27542
L50428 27571
L50314 27571
L50257 27542
L50200 27485
L50171 27371
L50171 27171
L50200 27057
L50257 27000
L50314 26971
" />
<path d="M50828 26971
L50828 27457
L50857 27514
L50885 27542
L50942 27571
L51057 27571
L51114 27542
L51142 27514
L51171 27457
L51171 26971
" />
<path d="M51371 26971
L51714 26971
" />
<path d="M51542 27571
L51542 26971
" />
<path d="M51857 26971
L52228 26971
L52028 27200
L52114 27200
L52171 27228
L52199 27257
L52228 27314
L52228 27457
L52199 27514
L52171 27542
L52114 27571
L51942 27571
L51885 27542
L51857 27514
" />
<path d="M54814 26971
L54928 26971
L54985 27000
L55042 27057
L55071 27171
L55071 27371
L55042 27485
L54985 27542
L54928 27571
L54814 27571
L54757 27542
L54700 27485
L54671 27371
L54671 27171
L54700 27057
L54757 27000
L54814 26971
" />
<path d="M55328 26971
L55328 27457
L55357 27514
L55385 27542
L55442 27571
L55557 27571
L55614 27542
L55642 27514
L55671 27457
L55671 26971
" />
<path d="M55871 26971
L56214 26971
" />
<path d="M56042 27571
L56042 26971
" />
<path d="M56671 27171
L56671 27571
" />
<path d="M56528 26942
L56385 27371
L56757 27371
" />
<path d="M59314 26971
L59428 26971
L59485 27000
L59542 27057
L59571 27171
L59571 27371
L59542 27485
L59485 27542
L59428 27571
L59314 27571
L59257 27542
L59200 27485
L59171 27371
L59171 27171
L59200 27057
L59257 27000
L59314 26971
" />
<path d="M59828 26971
L59828 27457
L59857 27514
L59885 27542
L59942 27571
L60057 27571
L60114 27542
L60142 27514
L60171 27457
L60171 26971
" />
<path d="M60371 26971
L60714 26971
" />
<path d="M60542 27571
L60542 26971
" />
<path d="M61199 26971
L60914 26971
L60885 27257
L60914 27228
L60971 27200
L61114 27200
L61171 27228
L61199 27257
L61228 27314
L61228 27457
L61199 27514
L61171 27542
L61114 27571
L60971 27571
L60914 27542
L60885 27514
" />
<path d="M63814 26971
L63928 26971
L63985 27000
L64042 27057
L64071 27171
L64071 27371
L64042 27485
L63985 27542
L63928 27571
L63814 27571
L63757 27542
L63700 27485
L63671 27371
L63671 27171
L63700 27057
L63757 27000
L63814 26971
" />
<path d="M64328 26971
L64328 27457
L64357 27514
L64385 27542
L64442 27571
L64557 27571
L64614 27542
L64642 27514
L64671 27457
L64671 26971
" />
<path d="M64871 26971
L65214 26971
" />
<path d="M65042 27571
L65042 26971
" />
<path d="M65671 26971
L65557 26971
L65499 27000
L65471 27028
L65414 27114
L65385 27228
L65385 27457
L65414 27514
L65442 27542
L65499 27571
L65614 27571
L65671 27542
L65699 27514
L65728 27457
L65728 27314
L65699 27257
L65671 27228
L65614 27200
L65499 27200
L65442 27228
L65414 27257
L65385 27314
" />
<path d="M68314 26971
L68428 26971
L68485 27000
L68542 27057
L68571 27171
L68571 27371
L68542 27485
L68485 27542
L68428 27571
L68314 27571
L68257 27542
L68200 27485
L68171 27371
L68171 27171
L68200 27057
L68257 27000
L68314 26971
" />
<path d="M68828 26971
L68828 27457
L68857 27514
L68885 27542
L68942 27571
L69057 27571
L69114 27542
L69142 27514
L69171 27457
L69171 26971
" />
<path d="M69371 26971
L69714 26971
" />
<path d="M69542 27571
L69542 26971
" />
<path d="M69857 26971
L70257 26971
L69999 27571
" />
<path d="M72814 26971
L72928 26971
L72985 27000
L73042 27057
L73071 27171
L73071 27371
L73042 27485
L72985 27542
L72928 27571
L72814 27571
L72757 27542
L72700 27485
L72671 27371
L72671 27171
L72700 27057
L72757 27000
L72814 26971
" />
<path d="M73328 26971
L73328 27457
L73357 27514
L73385 27542
L73442 27571
L73557 27571
L73614 27542
L73642 27514
L73671 27457
L73671 26971
" />
<path d="M73871 26971
L74214 26971
" />
<path d="M74042 27571
L74042 26971
" />
<path d="M74499 27228
L74442 27200
L74414 27171
L74385 27114
L74385 27085
L74414 27028
L74442 27000
L74499 26971
L74614 26971
L74671 27000
L74699 27028
L74728 27085
L74728 27114
L74699 27171
L74671 27200
L74614 27228
L74499 27228
L74442 27257
L74414 27285
L74385 27342
L74385 27457
L74414 27514
L74442 27542
L74499 27571
L74614 27571
L74671 27542
L74699 27514
L74728 27457
L74728 27342
L74699 27285
L74671 27257
L74614 27228
" />
<path d="M77671 25342
L77071 25342
L77500 25142
L77071 24942
L77671 24942
" />
<path d="M77071 24542
L77071 24428
L77100 24371
L77157 24314
L77271 24285
L77471 24285
L77585 24314
L77642 24371
L77671 24428
L77671 24542
L77642 24600
L77585 24657
L77471 24685
L77271 24685
L77157 24657
L77100 24600
L77071 24542
" />
<path d="M77071 24114
L77071 23771
" />
<path d="M77671 23942
L77071 23942
" />
<path d="M77071 23457
L77071 23342
L77100 23285
L77157 23228
L77271 23200
L77471 23200
L77585 23228
L77642 23285
L77671 23342
L77671 23457
L77642 23514
L77585 23571
L77471 23600
L77271 23600
L77157 23571
L77100 23514
L77071 23457
" />
<path d="M77671 22600
L77385 22800
" />
<path d="M77671 22942
L77071 22942
L77071 22714
L77100 22657
L77128 22628
L77185 22600
L77271 22600
L77328 22628
L77357 22657
L77385 22714
L77385 22942
" />
<path d="M77671 22028
L77671 22371
" />
<path d="M77671 22200
L77071 22200
L77157 22257
L77214 22314
L77242 22371
" />
<path d="M77571 59842
L76971 59842
L77400 59642
L76971 59442
L77571 59442
" />
<path d="M76971 59042
L76971 58928
L77000 58871
L77057 58814
L77171 58785
L77371 58785
L77485 58814
L77542 58871
L77571 58928
L77571 59042
L77542 59100
L77485 59157
L77371 59185
L77171 59185
L77057 59157
L77000 59100
L76971 59042
" />
<path d="M76971 58614
L76971 58271
" />
<path d="M77571 58442
L76971 58442
" />
<path d="M76971 57957
L76971 57842
L77000 57785
L77057 57728
L77171 57700
L77371 57700
L77485 57728
L77542 57785
L77571 57842
L77571 57957
L77542 58014
L77485 58071
L77371 58100
L77171 58100
L77057 58071
L77000 58014
L76971 57957
" />
<path d="M77571 57100
L77285 57300
" />
<path d="M77571 57442
L76971 57442
L76971 57214
L77000 57157
L77028 57128
L77085 57100
L77171 57100
L77228 57128
L77257 57157
L77285 57214
L77285 57442
" />
<path d="M77028 56871
L77000 56842
L76971 56785
L76971 56642
L77000 56585
L77028 56557
L77085 56528
L77142 56528
L77228 56557
L77571 56900
L77571 56528
" />
<path d="M70860 55344
L70860 54744
" />
<path d="M71146 55344
L71146 54744
L71489 55344
L71489 54744
" />
<path d="M71860 55001
L71803 54972
L71774 54944
L71746 54887
L71746 54858
L71774 54801
L71803 54772
L71860 54744
L71974 54744
L72032 54772
L72060 54801
L72089 54858
L72089 54887
L72060 54944
L72032 54972
L71974 55001
L71860 55001
L71803 55029
L71774 55058
L71746 55115
L71746 55229
L71774 55287
L71803 55315
L71860 55344
L71974 55344
L72032 55315
L72060 55287
L72089 55229
L72089 55115
L72060 55058
L72032 55029
L71974 55001
" />
<path d="M66360 55344
L66360 54744
" />
<path d="M66646 55344
L66646 54744
L66989 55344
L66989 54744
" />
<path d="M67217 54744
L67617 54744
L67360 55344
" />
<path d="M61860 55344
L61860 54744
" />
<path d="M62146 55344
L62146 54744
L62489 55344
L62489 54744
" />
<path d="M63032 54744
L62917 54744
L62860 54772
L62832 54801
L62774 54887
L62746 55001
L62746 55229
L62774 55287
L62803 55315
L62860 55344
L62974 55344
L63032 55315
L63060 55287
L63089 55229
L63089 55087
L63060 55029
L63032 55001
L62974 54972
L62860 54972
L62803 55001
L62774 55029
L62746 55087
" />
<path d="M57360 55344
L57360 54744
" />
<path d="M57646 55344
L57646 54744
L57989 55344
L57989 54744
" />
<path d="M58560 54744
L58274 54744
L58246 55029
L58274 55001
L58332 54972
L58474 54972
L58532 55001
L58560 55029
L58589 55087
L58589 55229
L58560 55287
L58532 55315
L58474 55344
L58332 55344
L58274 55315
L58246 55287
" />
<path d="M52860 55344
L52860 54744
" />
<path d="M53146 55344
L53146 54744
L53489 55344
L53489 54744
" />
<path d="M54032 54944
L54032 55344
" />
<path d="M53889 54715
L53746 55144
L54117 55144
" />
<path d="M48360 55344
L48360 54744
" />
<path d="M48646 55344
L48646 54744
L48989 55344
L48989 54744
" />
<path d="M49217 54744
L49589 54744
L49389 54972
L49474 54972
L49532 55001
L49560 55029
L49589 55087
L49589 55229
L49560 55287
L49532 55315
L49474 55344
L49303 55344
L49246 55315
L49217 55287
" />
<path d="M43860 55344
L43860 54744
" />
<path d="M44146 55344
L44146 54744
L44489 55344
L44489 54744
" />
<path d="M44746 54801
L44774 54772
L44832 54744
L44974 54744
L45032 54772
L45060 54801
L45089 54858
L45089 54915
L45060 55001
L44717 55344
L45089 55344
" />
<path d="M41000 55271
L41000 54671
" />
<path d="M41285 55271
L41285 54671
L41628 55271
L41628 54671
" />
<path d="M42228 55271
L41885 55271
" />
<path d="M42057 55271
L42057 54671
L41999 54757
L41942 54814
L41885 54842
" />
</g> 
</svg>
