<?xml version="1.0" standalone="no"?>
 <!DOCTYPE svg PUBLIC "-//W3C//DTD SVG 1.1//EN" 
 "http://www.w3.org/Graphics/SVG/1.1/DTD/svg11.dtd"> 
<svg xmlns="http://www.w3.org/2000/svg" version="1.1" 
    width="29.7002cm" height="21.0007cm" viewBox="0 0 116930 82680 ">
<title>SVG Picture created as Autoduino-rev2-B_Paste.svg date 2015/06/29 22:41:01 </title>
  <desc>Picture generated by PCBNEW </desc>
<g style="fill:#000000; fill-opacity:1;stroke:#000000; stroke-opacity:1;
stroke-linecap:round; stroke-linejoin:round; "
 transform="translate(0 0) scale(1 1)">
</g>
<g style="fill:#000000; fill-opacity:0.0; 
stroke:#000000; stroke-width:393.701; stroke-opacity:1; 
stroke-linecap:round; stroke-linejoin:round;">
<path d="M61103 49600
L61496 49600
" />
</g>
<g style="fill:#000000; fill-opacity:0.0; 
stroke:#000000; stroke-width:0; stroke-opacity:1; 
stroke-linecap:round; stroke-linejoin:round;">
</g>
<g style="fill:#000000; fill-opacity:1.0; 
stroke:#000000; stroke-width:0; stroke-opacity:1; 
stroke-linecap:round; stroke-linejoin:round;">
<polyline style="fill-rule:evenodd;"
points="61693,49100
60906,49100
60906,48500
61693,48500
61693,49100
" /> 
</g>
<g style="fill:#000000; fill-opacity:1.0; 
stroke:#000000; stroke-width:393.701; stroke-opacity:1; 
stroke-linecap:round; stroke-linejoin:round;">
</g>
<g style="fill:#000000; fill-opacity:0.0; 
stroke:#000000; stroke-width:393.701; stroke-opacity:1; 
stroke-linecap:round; stroke-linejoin:round;">
<path d="M61103 48000
L61496 48000
" />
<path d="M71203 34000
L71596 34000
" />
</g>
<g style="fill:#000000; fill-opacity:0.0; 
stroke:#000000; stroke-width:0; stroke-opacity:1; 
stroke-linecap:round; stroke-linejoin:round;">
</g>
<g style="fill:#000000; fill-opacity:1.0; 
stroke:#000000; stroke-width:0; stroke-opacity:1; 
stroke-linecap:round; stroke-linejoin:round;">
<polyline style="fill-rule:evenodd;"
points="71793,33500
71006,33500
71006,32900
71793,32900
71793,33500
" /> 
</g>
<g style="fill:#000000; fill-opacity:1.0; 
stroke:#000000; stroke-width:393.701; stroke-opacity:1; 
stroke-linecap:round; stroke-linejoin:round;">
</g>
<g style="fill:#000000; fill-opacity:0.0; 
stroke:#000000; stroke-width:393.701; stroke-opacity:1; 
stroke-linecap:round; stroke-linejoin:round;">
<path d="M71203 32400
L71596 32400
" />
<path d="M71203 37000
L71596 37000
" />
</g>
<g style="fill:#000000; fill-opacity:0.0; 
stroke:#000000; stroke-width:0; stroke-opacity:1; 
stroke-linecap:round; stroke-linejoin:round;">
</g>
<g style="fill:#000000; fill-opacity:1.0; 
stroke:#000000; stroke-width:0; stroke-opacity:1; 
stroke-linecap:round; stroke-linejoin:round;">
<polyline style="fill-rule:evenodd;"
points="71793,36500
71006,36500
71006,35900
71793,35900
71793,36500
" /> 
</g>
<g style="fill:#000000; fill-opacity:1.0; 
stroke:#000000; stroke-width:393.701; stroke-opacity:1; 
stroke-linecap:round; stroke-linejoin:round;">
</g>
<g style="fill:#000000; fill-opacity:0.0; 
stroke:#000000; stroke-width:393.701; stroke-opacity:1; 
stroke-linecap:round; stroke-linejoin:round;">
<path d="M71203 35400
L71596 35400
" />
<path d="M71203 40100
L71596 40100
" />
</g>
<g style="fill:#000000; fill-opacity:0.0; 
stroke:#000000; stroke-width:0; stroke-opacity:1; 
stroke-linecap:round; stroke-linejoin:round;">
</g>
<g style="fill:#000000; fill-opacity:1.0; 
stroke:#000000; stroke-width:0; stroke-opacity:1; 
stroke-linecap:round; stroke-linejoin:round;">
<polyline style="fill-rule:evenodd;"
points="71793,39600
71006,39600
71006,39000
71793,39000
71793,39600
" /> 
</g>
<g style="fill:#000000; fill-opacity:1.0; 
stroke:#000000; stroke-width:393.701; stroke-opacity:1; 
stroke-linecap:round; stroke-linejoin:round;">
</g>
<g style="fill:#000000; fill-opacity:0.0; 
stroke:#000000; stroke-width:393.701; stroke-opacity:1; 
stroke-linecap:round; stroke-linejoin:round;">
<path d="M71203 38500
L71596 38500
" />
<path d="M56903 41600
L57296 41600
" />
</g>
<g style="fill:#000000; fill-opacity:0.0; 
stroke:#000000; stroke-width:0; stroke-opacity:1; 
stroke-linecap:round; stroke-linejoin:round;">
</g>
<g style="fill:#000000; fill-opacity:1.0; 
stroke:#000000; stroke-width:0; stroke-opacity:1; 
stroke-linecap:round; stroke-linejoin:round;">
<polyline style="fill-rule:evenodd;"
points="57493,41100
56706,41100
56706,40500
57493,40500
57493,41100
" /> 
</g>
<g style="fill:#000000; fill-opacity:1.0; 
stroke:#000000; stroke-width:393.701; stroke-opacity:1; 
stroke-linecap:round; stroke-linejoin:round;">
</g>
<g style="fill:#000000; fill-opacity:0.0; 
stroke:#000000; stroke-width:393.701; stroke-opacity:1; 
stroke-linecap:round; stroke-linejoin:round;">
<path d="M56903 40000
L57296 40000
" />
<path d="M54400 49596
L54400 49203
" />
</g>
<g style="fill:#000000; fill-opacity:0.0; 
stroke:#000000; stroke-width:0; stroke-opacity:1; 
stroke-linecap:round; stroke-linejoin:round;">
</g>
<g style="fill:#000000; fill-opacity:1.0; 
stroke:#000000; stroke-width:0; stroke-opacity:1; 
stroke-linecap:round; stroke-linejoin:round;">
<polyline style="fill-rule:evenodd;"
points="53900,49006
53900,49793
53300,49793
53300,49006
53900,49006
" /> 
</g>
<g style="fill:#000000; fill-opacity:1.0; 
stroke:#000000; stroke-width:393.701; stroke-opacity:1; 
stroke-linecap:round; stroke-linejoin:round;">
</g>
<g style="fill:#000000; fill-opacity:0.0; 
stroke:#000000; stroke-width:393.701; stroke-opacity:1; 
stroke-linecap:round; stroke-linejoin:round;">
<path d="M52800 49596
L52800 49203
" />
</g>
<g style="fill:#000000; fill-opacity:0.0; 
stroke:#000000; stroke-width:0; stroke-opacity:1; 
stroke-linecap:round; stroke-linejoin:round;">
</g>
<g style="fill:#000000; fill-opacity:1.0; 
stroke:#000000; stroke-width:0; stroke-opacity:1; 
stroke-linecap:round; stroke-linejoin:round;">
<polyline style="fill-rule:evenodd;"
points="42860,22907
42506,22907
42506,22592
42860,22592
42860,22907
" /> 
<polyline style="fill-rule:evenodd;"
points="42033,23281
41679,23281
41679,22966
42033,22966
42033,23281
" /> 
<polyline style="fill-rule:evenodd;"
points="42033,22533
41679,22533
41679,22218
42033,22218
42033,22533
" /> 
<polyline style="fill-rule:evenodd;"
points="55046,47487
57486,47487
57486,49612
55046,49612
55046,47487
" /> 
<polyline style="fill-rule:evenodd;"
points="58824,47456
59453,47456
59453,47849
58824,47849
58824,47456
" /> 
<polyline style="fill-rule:evenodd;"
points="58824,49250
59453,49250
59453,49643
58824,49643
58824,49250
" /> 
<polyline style="fill-rule:evenodd;"
points="67307,52481
67307,52087
67543,52087
67543,52481
67307,52481
" /> 
<polyline style="fill-rule:evenodd;"
points="68057,52481
68057,52087
68293,52087
68293,52481
68057,52481
" /> 
<polyline style="fill-rule:evenodd;"
points="67682,52481
67682,52087
67918,52087
67918,52481
67682,52481
" /> 
<polyline style="fill-rule:evenodd;"
points="68057,53313
68057,52919
68293,52919
68293,53313
68057,53313
" /> 
<polyline style="fill-rule:evenodd;"
points="67307,53313
67307,52919
67543,52919
67543,53313
67307,53313
" /> 
<polyline style="fill-rule:evenodd;"
points="67682,53313
67682,52919
67918,52919
67918,53313
67682,53313
" /> 
<polyline style="fill-rule:evenodd;"
points="57668,33444
57431,33444
57431,32656
57668,32656
57668,33444
" /> 
<polyline style="fill-rule:evenodd;"
points="57168,33444
56931,33444
56931,32656
57168,32656
57168,33444
" /> 
<polyline style="fill-rule:evenodd;"
points="56668,33444
56431,33444
56431,32656
56668,32656
56668,33444
" /> 
<polyline style="fill-rule:evenodd;"
points="56168,33444
55931,33444
55931,32656
56168,32656
56168,33444
" /> 
<polyline style="fill-rule:evenodd;"
points="55668,33444
55431,33444
55431,32656
55668,32656
55668,33444
" /> 
<polyline style="fill-rule:evenodd;"
points="55168,33444
54931,33444
54931,32656
55168,32656
55168,33444
" /> 
<polyline style="fill-rule:evenodd;"
points="54668,33444
54431,33444
54431,32656
54668,32656
54668,33444
" /> 
<polyline style="fill-rule:evenodd;"
points="54168,33444
53931,33444
53931,32656
54168,32656
54168,33444
" /> 
<polyline style="fill-rule:evenodd;"
points="53668,33444
53431,33444
53431,32656
53668,32656
53668,33444
" /> 
<polyline style="fill-rule:evenodd;"
points="53168,33444
52931,33444
52931,32656
53168,32656
53168,33444
" /> 
<polyline style="fill-rule:evenodd;"
points="52668,33444
52431,33444
52431,32656
52668,32656
52668,33444
" /> 
<polyline style="fill-rule:evenodd;"
points="52168,33444
51931,33444
51931,32656
52168,32656
52168,33444
" /> 
<polyline style="fill-rule:evenodd;"
points="52168,29743
51931,29743
51931,28955
52168,28955
52168,29743
" /> 
<polyline style="fill-rule:evenodd;"
points="52668,29743
52431,29743
52431,28955
52668,28955
52668,29743
" /> 
<polyline style="fill-rule:evenodd;"
points="53168,29743
52931,29743
52931,28955
53168,28955
53168,29743
" /> 
<polyline style="fill-rule:evenodd;"
points="53668,29743
53431,29743
53431,28955
53668,28955
53668,29743
" /> 
<polyline style="fill-rule:evenodd;"
points="54168,29743
53931,29743
53931,28955
54168,28955
54168,29743
" /> 
<polyline style="fill-rule:evenodd;"
points="54668,29743
54431,29743
54431,28955
54668,28955
54668,29743
" /> 
<polyline style="fill-rule:evenodd;"
points="55168,29743
54931,29743
54931,28955
55168,28955
55168,29743
" /> 
<polyline style="fill-rule:evenodd;"
points="55668,29743
55431,29743
55431,28955
55668,28955
55668,29743
" /> 
<polyline style="fill-rule:evenodd;"
points="56168,29743
55931,29743
55931,28955
56168,28955
56168,29743
" /> 
<polyline style="fill-rule:evenodd;"
points="56668,29743
56431,29743
56431,28955
56668,28955
56668,29743
" /> 
<polyline style="fill-rule:evenodd;"
points="57168,29743
56931,29743
56931,28955
57168,28955
57168,29743
" /> 
<polyline style="fill-rule:evenodd;"
points="57668,29743
57431,29743
57431,28955
57668,28955
57668,29743
" /> 
<polyline style="fill-rule:evenodd;"
points="74806,39232
75593,39232
75593,39468
74806,39468
74806,39232
" /> 
<polyline style="fill-rule:evenodd;"
points="74806,39732
75593,39732
75593,39968
74806,39968
74806,39732
" /> 
<polyline style="fill-rule:evenodd;"
points="74806,40232
75593,40232
75593,40468
74806,40468
74806,40232
" /> 
<polyline style="fill-rule:evenodd;"
points="74806,40732
75593,40732
75593,40968
74806,40968
74806,40732
" /> 
<polyline style="fill-rule:evenodd;"
points="72606,40732
73393,40732
73393,40968
72606,40968
72606,40732
" /> 
<polyline style="fill-rule:evenodd;"
points="72606,40232
73393,40232
73393,40468
72606,40468
72606,40232
" /> 
<polyline style="fill-rule:evenodd;"
points="72606,39732
73393,39732
73393,39968
72606,39968
72606,39732
" /> 
<polyline style="fill-rule:evenodd;"
points="72606,39232
73393,39232
73393,39468
72606,39468
72606,39232
" /> 
<polyline style="fill-rule:evenodd;"
points="72665,45367
73334,45367
73334,46666
72665,46666
72665,45367
" /> 
<polyline style="fill-rule:evenodd;"
points="72665,47533
73334,47533
73334,48832
72665,48832
72665,47533
" /> 
</g>
<g style="fill:#000000; fill-opacity:1.0; 
stroke:#000000; stroke-width:393.701; stroke-opacity:1; 
stroke-linecap:round; stroke-linejoin:round;">
</g>
<g style="fill:#000000; fill-opacity:0.0; 
stroke:#000000; stroke-width:393.701; stroke-opacity:1; 
stroke-linecap:round; stroke-linejoin:round;">
<path d="M71203 43100
L71596 43100
" />
</g>
<g style="fill:#000000; fill-opacity:0.0; 
stroke:#000000; stroke-width:0; stroke-opacity:1; 
stroke-linecap:round; stroke-linejoin:round;">
</g>
<g style="fill:#000000; fill-opacity:1.0; 
stroke:#000000; stroke-width:0; stroke-opacity:1; 
stroke-linecap:round; stroke-linejoin:round;">
<polyline style="fill-rule:evenodd;"
points="71793,42600
71006,42600
71006,42000
71793,42000
71793,42600
" /> 
</g>
<g style="fill:#000000; fill-opacity:1.0; 
stroke:#000000; stroke-width:393.701; stroke-opacity:1; 
stroke-linecap:round; stroke-linejoin:round;">
</g>
<g style="fill:#000000; fill-opacity:0.0; 
stroke:#000000; stroke-width:393.701; stroke-opacity:1; 
stroke-linecap:round; stroke-linejoin:round;">
<path d="M71203 41500
L71596 41500
" />
</g>
<g style="fill:#000000; fill-opacity:0.0; 
stroke:#000000; stroke-width:0; stroke-opacity:1; 
stroke-linecap:round; stroke-linejoin:round;">
</g>
<g style="fill:#000000; fill-opacity:1.0; 
stroke:#000000; stroke-width:0; stroke-opacity:1; 
stroke-linecap:round; stroke-linejoin:round;">
<polyline style="fill-rule:evenodd;"
points="47360,22907
47006,22907
47006,22592
47360,22592
47360,22907
" /> 
<polyline style="fill-rule:evenodd;"
points="46533,23281
46179,23281
46179,22966
46533,22966
46533,23281
" /> 
<polyline style="fill-rule:evenodd;"
points="46533,22533
46179,22533
46179,22218
46533,22218
46533,22533
" /> 
<polyline style="fill-rule:evenodd;"
points="51860,22907
51506,22907
51506,22592
51860,22592
51860,22907
" /> 
<polyline style="fill-rule:evenodd;"
points="51033,23281
50679,23281
50679,22966
51033,22966
51033,23281
" /> 
<polyline style="fill-rule:evenodd;"
points="51033,22533
50679,22533
50679,22218
51033,22218
51033,22533
" /> 
<polyline style="fill-rule:evenodd;"
points="65360,22907
65006,22907
65006,22592
65360,22592
65360,22907
" /> 
<polyline style="fill-rule:evenodd;"
points="64533,23281
64179,23281
64179,22966
64533,22966
64533,23281
" /> 
<polyline style="fill-rule:evenodd;"
points="64533,22533
64179,22533
64179,22218
64533,22218
64533,22533
" /> 
<polyline style="fill-rule:evenodd;"
points="68592,23110
68592,22756
68907,22756
68907,23110
68592,23110
" /> 
<polyline style="fill-rule:evenodd;"
points="68218,22283
68218,21929
68533,21929
68533,22283
68218,22283
" /> 
<polyline style="fill-rule:evenodd;"
points="68966,22283
68966,21929
69281,21929
69281,22283
68966,22283
" /> 
<polyline style="fill-rule:evenodd;"
points="69657,23240
69657,23594
69342,23594
69342,23240
69657,23240
" /> 
<polyline style="fill-rule:evenodd;"
points="70031,24067
70031,24421
69716,24421
69716,24067
70031,24067
" /> 
<polyline style="fill-rule:evenodd;"
points="69283,24067
69283,24421
68968,24421
68968,24067
69283,24067
" /> 
<polyline style="fill-rule:evenodd;"
points="59757,36590
59757,36944
59442,36944
59442,36590
59757,36590
" /> 
<polyline style="fill-rule:evenodd;"
points="60131,37417
60131,37771
59816,37771
59816,37417
60131,37417
" /> 
<polyline style="fill-rule:evenodd;"
points="59383,37417
59383,37771
59068,37771
59068,37417
59383,37417
" /> 
<polyline style="fill-rule:evenodd;"
points="47157,36590
47157,36944
46842,36944
46842,36590
47157,36590
" /> 
<polyline style="fill-rule:evenodd;"
points="47531,37417
47531,37771
47216,37771
47216,37417
47531,37417
" /> 
<polyline style="fill-rule:evenodd;"
points="46783,37417
46783,37771
46468,37771
46468,37417
46783,37417
" /> 
<polyline style="fill-rule:evenodd;"
points="43957,36590
43957,36944
43642,36944
43642,36590
43957,36590
" /> 
<polyline style="fill-rule:evenodd;"
points="44331,37417
44331,37771
44016,37771
44016,37417
44331,37417
" /> 
<polyline style="fill-rule:evenodd;"
points="43583,37417
43583,37771
43268,37771
43268,37417
43583,37417
" /> 
<polyline style="fill-rule:evenodd;"
points="41957,36490
41957,36844
41642,36844
41642,36490
41957,36490
" /> 
<polyline style="fill-rule:evenodd;"
points="42331,37317
42331,37671
42016,37671
42016,37317
42331,37317
" /> 
<polyline style="fill-rule:evenodd;"
points="41583,37317
41583,37671
41268,37671
41268,37317
41583,37317
" /> 
<polyline style="fill-rule:evenodd;"
points="41490,59542
41844,59542
41844,59857
41490,59857
41490,59542
" /> 
<polyline style="fill-rule:evenodd;"
points="42317,59168
42671,59168
42671,59483
42317,59483
42317,59168
" /> 
<polyline style="fill-rule:evenodd;"
points="42317,59916
42671,59916
42671,60231
42317,60231
42317,59916
" /> 
<polyline style="fill-rule:evenodd;"
points="45990,59542
46344,59542
46344,59857
45990,59857
45990,59542
" /> 
<polyline style="fill-rule:evenodd;"
points="46817,59168
47171,59168
47171,59483
46817,59483
46817,59168
" /> 
<polyline style="fill-rule:evenodd;"
points="46817,59916
47171,59916
47171,60231
46817,60231
46817,59916
" /> 
<polyline style="fill-rule:evenodd;"
points="50490,59542
50844,59542
50844,59857
50490,59857
50490,59542
" /> 
<polyline style="fill-rule:evenodd;"
points="51317,59168
51671,59168
51671,59483
51317,59483
51317,59168
" /> 
<polyline style="fill-rule:evenodd;"
points="51317,59916
51671,59916
51671,60231
51317,60231
51317,59916
" /> 
<polyline style="fill-rule:evenodd;"
points="54990,59542
55344,59542
55344,59857
54990,59857
54990,59542
" /> 
<polyline style="fill-rule:evenodd;"
points="55817,59168
56171,59168
56171,59483
55817,59483
55817,59168
" /> 
<polyline style="fill-rule:evenodd;"
points="55817,59916
56171,59916
56171,60231
55817,60231
55817,59916
" /> 
<polyline style="fill-rule:evenodd;"
points="59490,59642
59844,59642
59844,59957
59490,59957
59490,59642
" /> 
<polyline style="fill-rule:evenodd;"
points="60317,59268
60671,59268
60671,59583
60317,59583
60317,59268
" /> 
<polyline style="fill-rule:evenodd;"
points="60317,60016
60671,60016
60671,60331
60317,60331
60317,60016
" /> 
<polyline style="fill-rule:evenodd;"
points="63990,59642
64344,59642
64344,59957
63990,59957
63990,59642
" /> 
<polyline style="fill-rule:evenodd;"
points="64817,59268
65171,59268
65171,59583
64817,59583
64817,59268
" /> 
<polyline style="fill-rule:evenodd;"
points="64817,60016
65171,60016
65171,60331
64817,60331
64817,60016
" /> 
<polyline style="fill-rule:evenodd;"
points="68490,59642
68844,59642
68844,59957
68490,59957
68490,59642
" /> 
<polyline style="fill-rule:evenodd;"
points="69317,59268
69671,59268
69671,59583
69317,59583
69317,59268
" /> 
<polyline style="fill-rule:evenodd;"
points="69317,60016
69671,60016
69671,60331
69317,60331
69317,60016
" /> 
<polyline style="fill-rule:evenodd;"
points="72990,59642
73344,59642
73344,59957
72990,59957
72990,59642
" /> 
<polyline style="fill-rule:evenodd;"
points="73817,59268
74171,59268
74171,59583
73817,59583
73817,59268
" /> 
<polyline style="fill-rule:evenodd;"
points="73817,60016
74171,60016
74171,60331
73817,60331
73817,60016
" /> 
<polyline style="fill-rule:evenodd;"
points="60860,22907
60506,22907
60506,22592
60860,22592
60860,22907
" /> 
<polyline style="fill-rule:evenodd;"
points="60033,23281
59679,23281
59679,22966
60033,22966
60033,23281
" /> 
<polyline style="fill-rule:evenodd;"
points="60033,22533
59679,22533
59679,22218
60033,22218
60033,22533
" /> 
<polyline style="fill-rule:evenodd;"
points="56360,22907
56006,22907
56006,22592
56360,22592
56360,22907
" /> 
<polyline style="fill-rule:evenodd;"
points="55533,23281
55179,23281
55179,22966
55533,22966
55533,23281
" /> 
<polyline style="fill-rule:evenodd;"
points="55533,22533
55179,22533
55179,22218
55533,22218
55533,22533
" /> 
<polyline style="fill-rule:evenodd;"
points="64891,49572
64891,48627
66269,48627
66269,49572
64891,49572
" /> 
<polyline style="fill-rule:evenodd;"
points="62331,49572
62331,48627
63709,48627
63709,49572
62331,49572
" /> 
<polyline style="fill-rule:evenodd;"
points="64891,45872
64891,44927
66269,44927
66269,45872
64891,45872
" /> 
<polyline style="fill-rule:evenodd;"
points="62331,45872
62331,44927
63709,44927
63709,45872
62331,45872
" /> 
<polyline style="fill-rule:evenodd;"
points="64891,53272
64891,52327
66269,52327
66269,53272
64891,53272
" /> 
<polyline style="fill-rule:evenodd;"
points="62331,53272
62331,52327
63709,52327
63709,53272
62331,53272
" /> 
<polyline style="fill-rule:evenodd;"
points="64891,30072
64891,29127
66269,29127
66269,30072
64891,30072
" /> 
<polyline style="fill-rule:evenodd;"
points="62331,30072
62331,29127
63709,29127
63709,30072
62331,30072
" /> 
<polyline style="fill-rule:evenodd;"
points="76472,35909
75527,35909
75527,34531
76472,34531
76472,35909
" /> 
<polyline style="fill-rule:evenodd;"
points="76472,38469
75527,38469
75527,37091
76472,37091
76472,38469
" /> 
<polyline style="fill-rule:evenodd;"
points="69605,45347
70274,45347
70274,46646
69605,46646
69605,45347
" /> 
<polyline style="fill-rule:evenodd;"
points="69605,47513
70274,47513
70274,48812
69605,48812
69605,47513
" /> 
<polyline style="fill-rule:evenodd;"
points="60309,47296
60309,46803
60703,46803
60703,47296
60309,47296
" /> 
<polyline style="fill-rule:evenodd;"
points="61096,47296
61096,46803
61490,46803
61490,47296
61096,47296
" /> 
<polyline style="fill-rule:evenodd;"
points="59790,29913
59790,30406
59396,30406
59396,29913
59790,29913
" /> 
<polyline style="fill-rule:evenodd;"
points="59003,29913
59003,30406
58609,30406
58609,29913
59003,29913
" /> 
<polyline style="fill-rule:evenodd;"
points="76246,47440
75753,47440
75753,47046
76246,47046
76246,47440
" /> 
<polyline style="fill-rule:evenodd;"
points="76246,46653
75753,46653
75753,46259
76246,46259
76246,46653
" /> 
<polyline style="fill-rule:evenodd;"
points="75283,32674
75776,32674
75776,33068
75283,33068
75283,32674
" /> 
<polyline style="fill-rule:evenodd;"
points="75283,33461
75776,33461
75776,33855
75283,33855
75283,33461
" /> 
<polyline style="fill-rule:evenodd;"
points="41444,57788
41955,57788
41955,58063
41444,58063
41444,57788
" /> 
<polyline style="fill-rule:evenodd;"
points="41444,58536
41955,58536
41955,58811
41444,58811
41444,58536
" /> 
<polyline style="fill-rule:evenodd;"
points="42344,57788
42855,57788
42855,58063
42344,58063
42344,57788
" /> 
<polyline style="fill-rule:evenodd;"
points="42344,58536
42855,58536
42855,58811
42344,58811
42344,58536
" /> 
<polyline style="fill-rule:evenodd;"
points="45944,57788
46455,57788
46455,58063
45944,58063
45944,57788
" /> 
<polyline style="fill-rule:evenodd;"
points="45944,58536
46455,58536
46455,58811
45944,58811
45944,58536
" /> 
<polyline style="fill-rule:evenodd;"
points="46844,57788
47355,57788
47355,58063
46844,58063
46844,57788
" /> 
<polyline style="fill-rule:evenodd;"
points="46844,58536
47355,58536
47355,58811
46844,58811
46844,58536
" /> 
<polyline style="fill-rule:evenodd;"
points="50444,57888
50955,57888
50955,58163
50444,58163
50444,57888
" /> 
<polyline style="fill-rule:evenodd;"
points="50444,58636
50955,58636
50955,58911
50444,58911
50444,58636
" /> 
<polyline style="fill-rule:evenodd;"
points="51344,57888
51855,57888
51855,58163
51344,58163
51344,57888
" /> 
<polyline style="fill-rule:evenodd;"
points="51344,58636
51855,58636
51855,58911
51344,58911
51344,58636
" /> 
<polyline style="fill-rule:evenodd;"
points="54944,57888
55455,57888
55455,58163
54944,58163
54944,57888
" /> 
<polyline style="fill-rule:evenodd;"
points="54944,58636
55455,58636
55455,58911
54944,58911
54944,58636
" /> 
<polyline style="fill-rule:evenodd;"
points="55844,57888
56355,57888
56355,58163
55844,58163
55844,57888
" /> 
<polyline style="fill-rule:evenodd;"
points="55844,58636
56355,58636
56355,58911
55844,58911
55844,58636
" /> 
<polyline style="fill-rule:evenodd;"
points="59344,57888
59855,57888
59855,58163
59344,58163
59344,57888
" /> 
<polyline style="fill-rule:evenodd;"
points="59344,58636
59855,58636
59855,58911
59344,58911
59344,58636
" /> 
<polyline style="fill-rule:evenodd;"
points="60244,57888
60755,57888
60755,58163
60244,58163
60244,57888
" /> 
<polyline style="fill-rule:evenodd;"
points="60244,58636
60755,58636
60755,58911
60244,58911
60244,58636
" /> 
<polyline style="fill-rule:evenodd;"
points="63944,57888
64455,57888
64455,58163
63944,58163
63944,57888
" /> 
<polyline style="fill-rule:evenodd;"
points="63944,58636
64455,58636
64455,58911
63944,58911
63944,58636
" /> 
<polyline style="fill-rule:evenodd;"
points="64844,57888
65355,57888
65355,58163
64844,58163
64844,57888
" /> 
<polyline style="fill-rule:evenodd;"
points="64844,58636
65355,58636
65355,58911
64844,58911
64844,58636
" /> 
<polyline style="fill-rule:evenodd;"
points="68444,57888
68955,57888
68955,58163
68444,58163
68444,57888
" /> 
<polyline style="fill-rule:evenodd;"
points="68444,58636
68955,58636
68955,58911
68444,58911
68444,58636
" /> 
<polyline style="fill-rule:evenodd;"
points="69344,57888
69855,57888
69855,58163
69344,58163
69344,57888
" /> 
<polyline style="fill-rule:evenodd;"
points="69344,58636
69855,58636
69855,58911
69344,58911
69344,58636
" /> 
<polyline style="fill-rule:evenodd;"
points="72944,57888
73455,57888
73455,58163
72944,58163
72944,57888
" /> 
<polyline style="fill-rule:evenodd;"
points="72944,58636
73455,58636
73455,58911
72944,58911
72944,58636
" /> 
<polyline style="fill-rule:evenodd;"
points="73844,57888
74355,57888
74355,58163
73844,58163
73844,57888
" /> 
<polyline style="fill-rule:evenodd;"
points="73844,58636
74355,58636
74355,58911
73844,58911
73844,58636
" /> 
<polyline style="fill-rule:evenodd;"
points="40938,47755
40938,47244
41213,47244
41213,47755
40938,47755
" /> 
<polyline style="fill-rule:evenodd;"
points="41686,47755
41686,47244
41961,47244
41961,47755
41686,47755
" /> 
<polyline style="fill-rule:evenodd;"
points="42055,24811
41544,24811
41544,24536
42055,24536
42055,24811
" /> 
<polyline style="fill-rule:evenodd;"
points="42055,24063
41544,24063
41544,23788
42055,23788
42055,24063
" /> 
<polyline style="fill-rule:evenodd;"
points="67388,54255
67388,53744
67663,53744
67663,54255
67388,54255
" /> 
<polyline style="fill-rule:evenodd;"
points="68136,54255
68136,53744
68411,53744
68411,54255
68136,54255
" /> 
<polyline style="fill-rule:evenodd;"
points="69755,53711
69244,53711
69244,53436
69755,53436
69755,53711
" /> 
<polyline style="fill-rule:evenodd;"
points="69755,52963
69244,52963
69244,52688
69755,52688
69755,52963
" /> 
<polyline style="fill-rule:evenodd;"
points="42955,24811
42444,24811
42444,24536
42955,24536
42955,24811
" /> 
<polyline style="fill-rule:evenodd;"
points="42955,24063
42444,24063
42444,23788
42955,23788
42955,24063
" /> 
<polyline style="fill-rule:evenodd;"
points="46555,24811
46044,24811
46044,24536
46555,24536
46555,24811
" /> 
<polyline style="fill-rule:evenodd;"
points="46555,24063
46044,24063
46044,23788
46555,23788
46555,24063
" /> 
<polyline style="fill-rule:evenodd;"
points="47455,24811
46944,24811
46944,24536
47455,24536
47455,24811
" /> 
<polyline style="fill-rule:evenodd;"
points="47455,24063
46944,24063
46944,23788
47455,23788
47455,24063
" /> 
<polyline style="fill-rule:evenodd;"
points="51055,24811
50544,24811
50544,24536
51055,24536
51055,24811
" /> 
<polyline style="fill-rule:evenodd;"
points="51055,24063
50544,24063
50544,23788
51055,23788
51055,24063
" /> 
<polyline style="fill-rule:evenodd;"
points="51955,24811
51444,24811
51444,24536
51955,24536
51955,24811
" /> 
<polyline style="fill-rule:evenodd;"
points="51955,24063
51444,24063
51444,23788
51955,23788
51955,24063
" /> 
<polyline style="fill-rule:evenodd;"
points="55555,24811
55044,24811
55044,24536
55555,24536
55555,24811
" /> 
<polyline style="fill-rule:evenodd;"
points="55555,24063
55044,24063
55044,23788
55555,23788
55555,24063
" /> 
<polyline style="fill-rule:evenodd;"
points="56455,24811
55944,24811
55944,24536
56455,24536
56455,24811
" /> 
<polyline style="fill-rule:evenodd;"
points="56455,24063
55944,24063
55944,23788
56455,23788
56455,24063
" /> 
<polyline style="fill-rule:evenodd;"
points="60055,24811
59544,24811
59544,24536
60055,24536
60055,24811
" /> 
<polyline style="fill-rule:evenodd;"
points="60055,24063
59544,24063
59544,23788
60055,23788
60055,24063
" /> 
<polyline style="fill-rule:evenodd;"
points="60955,24811
60444,24811
60444,24536
60955,24536
60955,24811
" /> 
<polyline style="fill-rule:evenodd;"
points="60955,24063
60444,24063
60444,23788
60955,23788
60955,24063
" /> 
<polyline style="fill-rule:evenodd;"
points="64555,24811
64044,24811
64044,24536
64555,24536
64555,24811
" /> 
<polyline style="fill-rule:evenodd;"
points="64555,24063
64044,24063
64044,23788
64555,23788
64555,24063
" /> 
<polyline style="fill-rule:evenodd;"
points="65455,24811
64944,24811
64944,24536
65455,24536
65455,24811
" /> 
<polyline style="fill-rule:evenodd;"
points="65455,24063
64944,24063
64944,23788
65455,23788
65455,24063
" /> 
<polyline style="fill-rule:evenodd;"
points="68555,25111
68044,25111
68044,24836
68555,24836
68555,25111
" /> 
<polyline style="fill-rule:evenodd;"
points="68555,24363
68044,24363
68044,24088
68555,24088
68555,24363
" /> 
<polyline style="fill-rule:evenodd;"
points="69155,26661
68644,26661
68644,26386
69155,26386
69155,26661
" /> 
<polyline style="fill-rule:evenodd;"
points="69155,25913
68644,25913
68644,25638
69155,25638
69155,25913
" /> 
<polyline style="fill-rule:evenodd;"
points="73005,25201
72494,25201
72494,24926
73005,24926
73005,25201
" /> 
<polyline style="fill-rule:evenodd;"
points="73005,24453
72494,24453
72494,24178
73005,24178
73005,24453
" /> 
<polyline style="fill-rule:evenodd;"
points="70055,26661
69544,26661
69544,26386
70055,26386
70055,26661
" /> 
<polyline style="fill-rule:evenodd;"
points="70055,25913
69544,25913
69544,25638
70055,25638
70055,25913
" /> 
<polyline style="fill-rule:evenodd;"
points="75738,28505
75738,27994
76013,27994
76013,28505
75738,28505
" /> 
<polyline style="fill-rule:evenodd;"
points="76486,28505
76486,27994
76761,27994
76761,28505
76486,28505
" /> 
<polyline style="fill-rule:evenodd;"
points="75738,29405
75738,28894
76013,28894
76013,29405
75738,29405
" /> 
<polyline style="fill-rule:evenodd;"
points="76486,29405
76486,28894
76761,28894
76761,29405
76486,29405
" /> 
<polyline style="fill-rule:evenodd;"
points="41288,38755
41288,38244
41563,38244
41563,38755
41288,38755
" /> 
<polyline style="fill-rule:evenodd;"
points="42036,38755
42036,38244
42311,38244
42311,38755
42036,38755
" /> 
<polyline style="fill-rule:evenodd;"
points="43388,38755
43388,38244
43663,38244
43663,38755
43388,38755
" /> 
<polyline style="fill-rule:evenodd;"
points="44136,38755
44136,38244
44411,38244
44411,38755
44136,38755
" /> 
<polyline style="fill-rule:evenodd;"
points="46488,38755
46488,38244
46763,38244
46763,38755
46488,38755
" /> 
<polyline style="fill-rule:evenodd;"
points="47236,38755
47236,38244
47511,38244
47511,38755
47236,38755
" /> 
<polyline style="fill-rule:evenodd;"
points="59088,38755
59088,38244
59363,38244
59363,38755
59088,38755
" /> 
<polyline style="fill-rule:evenodd;"
points="59836,38755
59836,38244
60111,38244
60111,38755
59836,38755
" /> 
<polyline style="fill-rule:evenodd;"
points="62711,33544
62711,34055
62436,34055
62436,33544
62711,33544
" /> 
<polyline style="fill-rule:evenodd;"
points="61963,33544
61963,34055
61688,34055
61688,33544
61963,33544
" /> 
<polyline style="fill-rule:evenodd;"
points="62711,34544
62711,35055
62436,35055
62436,34544
62711,34544
" /> 
<polyline style="fill-rule:evenodd;"
points="61963,34544
61963,35055
61688,35055
61688,34544
61963,34544
" /> 
<polyline style="fill-rule:evenodd;"
points="62711,35544
62711,36055
62436,36055
62436,35544
62711,35544
" /> 
<polyline style="fill-rule:evenodd;"
points="61963,35544
61963,36055
61688,36055
61688,35544
61963,35544
" /> 
<polyline style="fill-rule:evenodd;"
points="62711,36544
62711,37055
62436,37055
62436,36544
62711,36544
" /> 
<polyline style="fill-rule:evenodd;"
points="61963,36544
61963,37055
61688,37055
61688,36544
61963,36544
" /> 
<polyline style="fill-rule:evenodd;"
points="62711,37544
62711,38055
62436,38055
62436,37544
62711,37544
" /> 
<polyline style="fill-rule:evenodd;"
points="61963,37544
61963,38055
61688,38055
61688,37544
61963,37544
" /> 
<polyline style="fill-rule:evenodd;"
points="62711,38544
62711,39055
62436,39055
62436,38544
62711,38544
" /> 
<polyline style="fill-rule:evenodd;"
points="61963,38544
61963,39055
61688,39055
61688,38544
61963,38544
" /> 
<polyline style="fill-rule:evenodd;"
points="62711,39544
62711,40055
62436,40055
62436,39544
62711,39544
" /> 
<polyline style="fill-rule:evenodd;"
points="61963,39544
61963,40055
61688,40055
61688,39544
61963,39544
" /> 
<polyline style="fill-rule:evenodd;"
points="42255,34111
41744,34111
41744,33836
42255,33836
42255,34111
" /> 
<polyline style="fill-rule:evenodd;"
points="42255,33363
41744,33363
41744,33088
42255,33088
42255,33363
" /> 
<polyline style="fill-rule:evenodd;"
points="43255,34111
42744,34111
42744,33836
43255,33836
43255,34111
" /> 
<polyline style="fill-rule:evenodd;"
points="43255,33363
42744,33363
42744,33088
43255,33088
43255,33363
" /> 
<polyline style="fill-rule:evenodd;"
points="46655,34111
46144,34111
46144,33836
46655,33836
46655,34111
" /> 
<polyline style="fill-rule:evenodd;"
points="46655,33363
46144,33363
46144,33088
46655,33088
46655,33363
" /> 
<polyline style="fill-rule:evenodd;"
points="59711,28944
59711,29455
59436,29455
59436,28944
59711,28944
" /> 
<polyline style="fill-rule:evenodd;"
points="58963,28944
58963,29455
58688,29455
58688,28944
58963,28944
" /> 
<polyline style="fill-rule:evenodd;"
points="72705,52111
72194,52111
72194,51836
72705,51836
72705,52111
" /> 
<polyline style="fill-rule:evenodd;"
points="72705,51363
72194,51363
72194,51088
72705,51088
72705,51363
" /> 
<polyline style="fill-rule:evenodd;"
points="73144,51088
73655,51088
73655,51363
73144,51363
73144,51088
" /> 
<polyline style="fill-rule:evenodd;"
points="73144,51836
73655,51836
73655,52111
73144,52111
73144,51836
" /> 
<polyline style="fill-rule:evenodd;"
points="74344,32788
74855,32788
74855,33063
74344,33063
74344,32788
" /> 
<polyline style="fill-rule:evenodd;"
points="74344,33536
74855,33536
74855,33811
74344,33811
74344,33536
" /> 
<polyline style="fill-rule:evenodd;"
points="74104,51083
74615,51083
74615,51358
74104,51358
74104,51083
" /> 
<polyline style="fill-rule:evenodd;"
points="74104,51831
74615,51831
74615,52106
74104,52106
74104,51831
" /> 
</g> 
</svg>
