<?xml version="1.0" standalone="no"?>
 <!DOCTYPE svg PUBLIC "-//W3C//DTD SVG 1.1//EN" 
 "http://www.w3.org/Graphics/SVG/1.1/DTD/svg11.dtd"> 
<svg xmlns="http://www.w3.org/2000/svg" version="1.1" 
    width="29.7002cm" height="21.0007cm" viewBox="0 0 116930 82680 ">
<title>SVG Picture created as Autoduino-rev2-B_Fab.svg date 2015/06/29 22:41:01 </title>
  <desc>Picture generated by PCBNEW </desc>
<g style="fill:#000000; fill-opacity:1;stroke:#000000; stroke-opacity:1;
stroke-linecap:round; stroke-linejoin:round; "
 transform="translate(0 0) scale(1 1)">
</g>
<g style="fill:#000000; fill-opacity:0.0; 
stroke:#000000; stroke-width:59.0551; stroke-opacity:1; 
stroke-linecap:round; stroke-linejoin:round;">
<path d="M72478 47521
L72084 47521
L72084 47615
L72103 47671
L72140 47709
L72178 47728
L72253 47746
L72309 47746
L72384 47728
L72421 47709
L72459 47671
L72478 47615
L72478 47521
" />
<path d="M72478 47915
L72084 47915
" />
<path d="M72084 48178
L72084 48253
L72103 48290
L72140 48328
L72215 48346
L72346 48346
L72421 48328
L72459 48290
L72478 48253
L72478 48178
L72459 48140
L72421 48103
L72346 48084
L72215 48084
L72140 48103
L72103 48140
L72084 48178
" />
<path d="M72478 48515
L72084 48515
L72084 48609
L72103 48665
L72140 48703
L72178 48721
L72253 48740
L72309 48740
L72384 48721
L72421 48703
L72459 48665
L72478 48609
L72478 48515
" />
<path d="M72271 48909
L72271 49040
" />
<path d="M72478 49096
L72478 48909
L72084 48909
L72084 49096
" />
<path d="M65884 47021
L65865 47003
L65827 46984
L65734 46984
L65696 47003
L65677 47021
L65659 47059
L65659 47096
L65677 47153
L65902 47378
L65659 47378
" />
<path d="M65509 47021
L65490 47003
L65452 46984
L65359 46984
L65321 47003
L65302 47021
L65284 47059
L65284 47096
L65302 47153
L65527 47378
L65284 47378
" />
<path d="M65040 46984
L65003 46984
L64965 47003
L64946 47021
L64928 47059
L64909 47134
L64909 47228
L64928 47303
L64946 47340
L64965 47359
L65003 47378
L65040 47378
L65078 47359
L65096 47340
L65115 47303
L65134 47228
L65134 47134
L65115 47059
L65096 47021
L65078 47003
L65040 46984
" />
<path d="M64571 47115
L64571 47378
" />
<path d="M64740 47115
L64740 47321
L64721 47359
L64684 47378
L64628 47378
L64590 47359
L64571 47340
" />
<path d="M64253 47171
L64384 47171
" />
<path d="M64384 47378
L64384 46984
L64196 46984
" />
<path d="M63765 46965
L64103 47471
" />
<path d="M63428 47378
L63653 47378
" />
<path d="M63540 47378
L63540 46984
L63578 47040
L63615 47078
L63653 47096
" />
<path d="M63090 46984
L63165 46984
L63203 47003
L63222 47021
L63259 47078
L63278 47153
L63278 47303
L63259 47340
L63240 47359
L63203 47378
L63128 47378
L63090 47359
L63072 47340
L63053 47303
L63053 47209
L63072 47171
L63090 47153
L63128 47134
L63203 47134
L63240 47153
L63259 47171
L63278 47209
" />
<path d="M62940 46984
L62809 47378
L62678 46984
" />
<path d="M65884 43321
L65865 43303
L65827 43284
L65734 43284
L65696 43303
L65677 43321
L65659 43359
L65659 43396
L65677 43453
L65902 43678
L65659 43678
" />
<path d="M65509 43321
L65490 43303
L65452 43284
L65359 43284
L65321 43303
L65302 43321
L65284 43359
L65284 43396
L65302 43453
L65527 43678
L65284 43678
" />
<path d="M65040 43284
L65003 43284
L64965 43303
L64946 43321
L64928 43359
L64909 43434
L64909 43528
L64928 43603
L64946 43640
L64965 43659
L65003 43678
L65040 43678
L65078 43659
L65096 43640
L65115 43603
L65134 43528
L65134 43434
L65115 43359
L65096 43321
L65078 43303
L65040 43284
" />
<path d="M64571 43415
L64571 43678
" />
<path d="M64740 43415
L64740 43621
L64721 43659
L64684 43678
L64628 43678
L64590 43659
L64571 43640
" />
<path d="M64253 43471
L64384 43471
" />
<path d="M64384 43678
L64384 43284
L64196 43284
" />
<path d="M63765 43265
L64103 43771
" />
<path d="M63428 43678
L63653 43678
" />
<path d="M63540 43678
L63540 43284
L63578 43340
L63615 43378
L63653 43396
" />
<path d="M63090 43284
L63165 43284
L63203 43303
L63222 43321
L63259 43378
L63278 43453
L63278 43603
L63259 43640
L63240 43659
L63203 43678
L63128 43678
L63090 43659
L63072 43640
L63053 43603
L63053 43509
L63072 43471
L63090 43453
L63128 43434
L63203 43434
L63240 43453
L63259 43471
L63278 43509
" />
<path d="M62940 43284
L62809 43678
L62678 43284
" />
<path d="M65984 54621
L65965 54603
L65927 54584
L65834 54584
L65796 54603
L65777 54621
L65759 54659
L65759 54696
L65777 54753
L66002 54978
L65759 54978
" />
<path d="M65609 54621
L65590 54603
L65552 54584
L65459 54584
L65421 54603
L65402 54621
L65384 54659
L65384 54696
L65402 54753
L65627 54978
L65384 54978
" />
<path d="M65140 54584
L65103 54584
L65065 54603
L65046 54621
L65028 54659
L65009 54734
L65009 54828
L65028 54903
L65046 54940
L65065 54959
L65103 54978
L65140 54978
L65178 54959
L65196 54940
L65215 54903
L65234 54828
L65234 54734
L65215 54659
L65196 54621
L65178 54603
L65140 54584
" />
<path d="M64671 54715
L64671 54978
" />
<path d="M64840 54715
L64840 54921
L64821 54959
L64784 54978
L64728 54978
L64690 54959
L64671 54940
" />
<path d="M64353 54771
L64484 54771
" />
<path d="M64484 54978
L64484 54584
L64296 54584
" />
<path d="M63865 54565
L64203 55071
" />
<path d="M63528 54978
L63753 54978
" />
<path d="M63640 54978
L63640 54584
L63678 54640
L63715 54678
L63753 54696
" />
<path d="M63190 54584
L63265 54584
L63303 54603
L63322 54621
L63359 54678
L63378 54753
L63378 54903
L63359 54940
L63340 54959
L63303 54978
L63228 54978
L63190 54959
L63172 54940
L63153 54903
L63153 54809
L63172 54771
L63190 54753
L63228 54734
L63303 54734
L63340 54753
L63359 54771
L63378 54809
" />
<path d="M63040 54584
L62909 54978
L62778 54584
" />
<path d="M65884 31321
L65865 31303
L65827 31284
L65734 31284
L65696 31303
L65677 31321
L65659 31359
L65659 31396
L65677 31453
L65902 31678
L65659 31678
" />
<path d="M65509 31321
L65490 31303
L65452 31284
L65359 31284
L65321 31303
L65302 31321
L65284 31359
L65284 31396
L65302 31453
L65527 31678
L65284 31678
" />
<path d="M65040 31284
L65003 31284
L64965 31303
L64946 31321
L64928 31359
L64909 31434
L64909 31528
L64928 31603
L64946 31640
L64965 31659
L65003 31678
L65040 31678
L65078 31659
L65096 31640
L65115 31603
L65134 31528
L65134 31434
L65115 31359
L65096 31321
L65078 31303
L65040 31284
" />
<path d="M64571 31415
L64571 31678
" />
<path d="M64740 31415
L64740 31621
L64721 31659
L64684 31678
L64628 31678
L64590 31659
L64571 31640
" />
<path d="M64253 31471
L64384 31471
" />
<path d="M64384 31678
L64384 31284
L64196 31284
" />
<path d="M63765 31265
L64103 31771
" />
<path d="M63428 31678
L63653 31678
" />
<path d="M63540 31678
L63540 31284
L63578 31340
L63615 31378
L63653 31396
" />
<path d="M63090 31284
L63165 31284
L63203 31303
L63222 31321
L63259 31378
L63278 31453
L63278 31603
L63259 31640
L63240 31659
L63203 31678
L63128 31678
L63090 31659
L63072 31640
L63053 31603
L63053 31509
L63072 31471
L63090 31453
L63128 31434
L63203 31434
L63240 31453
L63259 31471
L63278 31509
" />
<path d="M62940 31284
L62809 31678
L62678 31284
" />
<path d="M73821 34915
L73803 34934
L73784 34972
L73784 35065
L73803 35103
L73821 35122
L73859 35140
L73896 35140
L73953 35122
L74178 34897
L74178 35140
" />
<path d="M73821 35290
L73803 35309
L73784 35347
L73784 35440
L73803 35478
L73821 35497
L73859 35515
L73896 35515
L73953 35497
L74178 35272
L74178 35515
" />
<path d="M73784 35759
L73784 35796
L73803 35834
L73821 35853
L73859 35871
L73934 35890
L74028 35890
L74103 35871
L74140 35853
L74159 35834
L74178 35796
L74178 35759
L74159 35721
L74140 35703
L74103 35684
L74028 35665
L73934 35665
L73859 35684
L73821 35703
L73803 35721
L73784 35759
" />
<path d="M73915 36228
L74178 36228
" />
<path d="M73915 36059
L74121 36059
L74159 36078
L74178 36115
L74178 36171
L74159 36209
L74140 36228
" />
<path d="M73971 36546
L73971 36415
" />
<path d="M74178 36415
L73784 36415
L73784 36603
" />
<path d="M73765 37034
L74271 36696
" />
<path d="M74178 37371
L74178 37146
" />
<path d="M74178 37259
L73784 37259
L73840 37221
L73878 37184
L73896 37146
" />
<path d="M73784 37709
L73784 37634
L73803 37596
L73821 37577
L73878 37540
L73953 37521
L74103 37521
L74140 37540
L74159 37559
L74178 37596
L74178 37671
L74159 37709
L74140 37727
L74103 37746
L74009 37746
L73971 37727
L73953 37709
L73934 37671
L73934 37596
L73953 37559
L73971 37540
L74009 37521
" />
<path d="M73784 37859
L74178 37990
L73784 38121
" />
<path d="M69378 48121
L68984 48121
L68984 48215
L69003 48271
L69040 48309
L69078 48328
L69153 48346
L69209 48346
L69284 48328
L69321 48309
L69359 48271
L69378 48215
L69378 48121
" />
<path d="M69378 48515
L68984 48515
" />
<path d="M68984 48778
L68984 48853
L69003 48890
L69040 48928
L69115 48946
L69246 48946
L69321 48928
L69359 48890
L69378 48853
L69378 48778
L69359 48740
L69321 48703
L69246 48684
L69115 48684
L69040 48703
L69003 48740
L68984 48778
" />
<path d="M69378 49115
L68984 49115
L68984 49209
L69003 49265
L69040 49303
L69078 49321
L69153 49340
L69209 49340
L69284 49321
L69321 49303
L69359 49265
L69378 49209
L69378 49115
" />
<path d="M69171 49509
L69171 49640
" />
<path d="M69378 49696
L69378 49509
L68984 49509
L68984 49696
" />
<path d="M60078 46659
L60078 46434
" />
<path d="M60078 46546
L59684 46546
L59740 46509
L59778 46471
L59796 46434
" />
<path d="M59684 46903
L59684 46940
L59703 46978
L59721 46996
L59759 47015
L59834 47034
L59928 47034
L60003 47015
L60040 46996
L60059 46978
L60078 46940
L60078 46903
L60059 46865
L60040 46846
L60003 46828
L59928 46809
L59834 46809
L59759 46828
L59721 46846
L59703 46865
L59684 46903
" />
<path d="M59684 47278
L59684 47315
L59703 47353
L59721 47371
L59759 47390
L59834 47409
L59928 47409
L60003 47390
L60040 47371
L60059 47353
L60078 47315
L60078 47278
L60059 47240
L60040 47221
L60003 47203
L59928 47184
L59834 47184
L59759 47203
L59721 47221
L59703 47240
L59684 47278
" />
<path d="M59815 47578
L60078 47578
" />
<path d="M59853 47578
L59834 47596
L59815 47634
L59815 47690
L59834 47728
L59871 47746
L60078 47746
" />
<path d="M59640 31164
L59865 31164
" />
<path d="M59753 31164
L59753 30771
L59790 30827
L59828 30864
L59865 30883
" />
<path d="M59396 30771
L59359 30771
L59321 30789
L59303 30808
L59284 30846
L59265 30921
L59265 31014
L59284 31089
L59303 31127
L59321 31146
L59359 31164
L59396 31164
L59434 31146
L59453 31127
L59471 31089
L59490 31014
L59490 30921
L59471 30846
L59453 30808
L59434 30789
L59396 30771
" />
<path d="M59021 30771
L58984 30771
L58946 30789
L58928 30808
L58909 30846
L58890 30921
L58890 31014
L58909 31089
L58928 31127
L58946 31146
L58984 31164
L59021 31164
L59059 31146
L59078 31127
L59096 31089
L59115 31014
L59115 30921
L59096 30846
L59078 30808
L59059 30789
L59021 30771
" />
<path d="M58721 30902
L58721 31164
" />
<path d="M58721 30939
L58703 30921
L58665 30902
L58609 30902
L58571 30921
L58553 30958
L58553 31164
" />
<path d="M75351 46409
L75351 46184
" />
<path d="M75351 46296
L74957 46296
L75013 46259
L75051 46221
L75070 46184
" />
<path d="M74957 46653
L74957 46690
L74976 46728
L74995 46746
L75032 46765
L75107 46784
L75201 46784
L75276 46765
L75313 46746
L75332 46728
L75351 46690
L75351 46653
L75332 46615
L75313 46596
L75276 46578
L75201 46559
L75107 46559
L75032 46578
L74995 46596
L74976 46615
L74957 46653
" />
<path d="M74957 47028
L74957 47065
L74976 47103
L74995 47121
L75032 47140
L75107 47159
L75201 47159
L75276 47140
L75313 47121
L75332 47103
L75351 47065
L75351 47028
L75332 46990
L75313 46971
L75276 46953
L75201 46934
L75107 46934
L75032 46953
L74995 46971
L74976 46990
L74957 47028
" />
<path d="M75088 47328
L75351 47328
" />
<path d="M75126 47328
L75107 47346
L75088 47384
L75088 47440
L75107 47478
L75145 47496
L75351 47496
" />
<path d="M76378 32959
L76378 32734
" />
<path d="M76378 32846
L75984 32846
L76040 32809
L76078 32771
L76096 32734
" />
<path d="M75984 33203
L75984 33240
L76003 33278
L76021 33296
L76059 33315
L76134 33334
L76228 33334
L76303 33315
L76340 33296
L76359 33278
L76378 33240
L76378 33203
L76359 33165
L76340 33146
L76303 33128
L76228 33109
L76134 33109
L76059 33128
L76021 33146
L76003 33165
L75984 33203
" />
<path d="M75984 33578
L75984 33615
L76003 33653
L76021 33671
L76059 33690
L76134 33709
L76228 33709
L76303 33690
L76340 33671
L76359 33653
L76378 33615
L76378 33578
L76359 33540
L76340 33521
L76303 33503
L76228 33484
L76134 33484
L76059 33503
L76021 33521
L76003 33540
L75984 33578
" />
<path d="M76115 33878
L76378 33878
" />
<path d="M76153 33878
L76134 33896
L76115 33934
L76115 33990
L76134 34028
L76171 34046
L76378 34046
" />
<path d="M41278 59053
L41278 58828
" />
<path d="M41278 58940
L40884 58940
L40940 58903
L40978 58865
L40996 58828
" />
<path d="M41278 59221
L40884 59221
" />
<path d="M41128 59259
L41278 59371
" />
<path d="M41015 59371
L41165 59221
" />
<path d="M43021 58015
L43003 58034
L42984 58071
L42984 58165
L43003 58203
L43021 58221
L43059 58240
L43096 58240
L43153 58221
L43378 57996
L43378 58240
" />
<path d="M43021 58390
L43003 58409
L42984 58446
L42984 58540
L43003 58578
L43021 58596
L43059 58615
L43096 58615
L43153 58596
L43378 58371
L43378 58615
" />
<path d="M42984 58859
L42984 58896
L43003 58934
L43021 58953
L43059 58971
L43134 58990
L43228 58990
L43303 58971
L43340 58953
L43359 58934
L43378 58896
L43378 58859
L43359 58821
L43340 58803
L43303 58784
L43228 58765
L43134 58765
L43059 58784
L43021 58803
L43003 58821
L42984 58859
" />
<path d="M43378 59384
L43190 59253
" />
<path d="M43378 59159
L42984 59159
L42984 59309
L43003 59346
L43021 59365
L43059 59384
L43115 59384
L43153 59365
L43171 59346
L43190 59309
L43190 59159
" />
<path d="M45978 59153
L45978 58928
" />
<path d="M45978 59040
L45584 59040
L45640 59003
L45678 58965
L45696 58928
" />
<path d="M45978 59321
L45584 59321
" />
<path d="M45828 59359
L45978 59471
" />
<path d="M45715 59471
L45865 59321
" />
<path d="M47521 58015
L47503 58034
L47484 58071
L47484 58165
L47503 58203
L47521 58221
L47559 58240
L47596 58240
L47653 58221
L47878 57996
L47878 58240
" />
<path d="M47521 58390
L47503 58409
L47484 58446
L47484 58540
L47503 58578
L47521 58596
L47559 58615
L47596 58615
L47653 58596
L47878 58371
L47878 58615
" />
<path d="M47484 58859
L47484 58896
L47503 58934
L47521 58953
L47559 58971
L47634 58990
L47728 58990
L47803 58971
L47840 58953
L47859 58934
L47878 58896
L47878 58859
L47859 58821
L47840 58803
L47803 58784
L47728 58765
L47634 58765
L47559 58784
L47521 58803
L47503 58821
L47484 58859
" />
<path d="M47878 59384
L47690 59253
" />
<path d="M47878 59159
L47484 59159
L47484 59309
L47503 59346
L47521 59365
L47559 59384
L47615 59384
L47653 59365
L47671 59346
L47690 59309
L47690 59159
" />
<path d="M50478 59153
L50478 58928
" />
<path d="M50478 59040
L50084 59040
L50140 59003
L50178 58965
L50196 58928
" />
<path d="M50478 59321
L50084 59321
" />
<path d="M50328 59359
L50478 59471
" />
<path d="M50215 59471
L50365 59321
" />
<path d="M52021 58215
L52003 58234
L51984 58271
L51984 58365
L52003 58403
L52021 58421
L52059 58440
L52096 58440
L52153 58421
L52378 58196
L52378 58440
" />
<path d="M52021 58590
L52003 58609
L51984 58646
L51984 58740
L52003 58778
L52021 58796
L52059 58815
L52096 58815
L52153 58796
L52378 58571
L52378 58815
" />
<path d="M51984 59059
L51984 59096
L52003 59134
L52021 59153
L52059 59171
L52134 59190
L52228 59190
L52303 59171
L52340 59153
L52359 59134
L52378 59096
L52378 59059
L52359 59021
L52340 59003
L52303 58984
L52228 58965
L52134 58965
L52059 58984
L52021 59003
L52003 59021
L51984 59059
" />
<path d="M52378 59584
L52190 59453
" />
<path d="M52378 59359
L51984 59359
L51984 59509
L52003 59546
L52021 59565
L52059 59584
L52115 59584
L52153 59565
L52171 59546
L52190 59509
L52190 59359
" />
<path d="M54878 59153
L54878 58928
" />
<path d="M54878 59040
L54484 59040
L54540 59003
L54578 58965
L54596 58928
" />
<path d="M54878 59321
L54484 59321
" />
<path d="M54728 59359
L54878 59471
" />
<path d="M54615 59471
L54765 59321
" />
<path d="M56521 58215
L56503 58234
L56484 58271
L56484 58365
L56503 58403
L56521 58421
L56559 58440
L56596 58440
L56653 58421
L56878 58196
L56878 58440
" />
<path d="M56521 58590
L56503 58609
L56484 58646
L56484 58740
L56503 58778
L56521 58796
L56559 58815
L56596 58815
L56653 58796
L56878 58571
L56878 58815
" />
<path d="M56484 59059
L56484 59096
L56503 59134
L56521 59153
L56559 59171
L56634 59190
L56728 59190
L56803 59171
L56840 59153
L56859 59134
L56878 59096
L56878 59059
L56859 59021
L56840 59003
L56803 58984
L56728 58965
L56634 58965
L56559 58984
L56521 59003
L56503 59021
L56484 59059
" />
<path d="M56878 59584
L56690 59453
" />
<path d="M56878 59359
L56484 59359
L56484 59509
L56503 59546
L56521 59565
L56559 59584
L56615 59584
L56653 59565
L56671 59546
L56690 59509
L56690 59359
" />
<path d="M59478 59253
L59478 59028
" />
<path d="M59478 59140
L59084 59140
L59140 59103
L59178 59065
L59196 59028
" />
<path d="M59478 59421
L59084 59421
" />
<path d="M59328 59459
L59478 59571
" />
<path d="M59215 59571
L59365 59421
" />
<path d="M61021 58115
L61003 58134
L60984 58171
L60984 58265
L61003 58303
L61021 58321
L61059 58340
L61096 58340
L61153 58321
L61378 58096
L61378 58340
" />
<path d="M61021 58490
L61003 58509
L60984 58546
L60984 58640
L61003 58678
L61021 58696
L61059 58715
L61096 58715
L61153 58696
L61378 58471
L61378 58715
" />
<path d="M60984 58959
L60984 58996
L61003 59034
L61021 59053
L61059 59071
L61134 59090
L61228 59090
L61303 59071
L61340 59053
L61359 59034
L61378 58996
L61378 58959
L61359 58921
L61340 58903
L61303 58884
L61228 58865
L61134 58865
L61059 58884
L61021 58903
L61003 58921
L60984 58959
" />
<path d="M61378 59484
L61190 59353
" />
<path d="M61378 59259
L60984 59259
L60984 59409
L61003 59446
L61021 59465
L61059 59484
L61115 59484
L61153 59465
L61171 59446
L61190 59409
L61190 59259
" />
<path d="M63978 59253
L63978 59028
" />
<path d="M63978 59140
L63584 59140
L63640 59103
L63678 59065
L63696 59028
" />
<path d="M63978 59421
L63584 59421
" />
<path d="M63828 59459
L63978 59571
" />
<path d="M63715 59571
L63865 59421
" />
<path d="M65421 58115
L65403 58134
L65384 58171
L65384 58265
L65403 58303
L65421 58321
L65459 58340
L65496 58340
L65553 58321
L65778 58096
L65778 58340
" />
<path d="M65421 58490
L65403 58509
L65384 58546
L65384 58640
L65403 58678
L65421 58696
L65459 58715
L65496 58715
L65553 58696
L65778 58471
L65778 58715
" />
<path d="M65384 58959
L65384 58996
L65403 59034
L65421 59053
L65459 59071
L65534 59090
L65628 59090
L65703 59071
L65740 59053
L65759 59034
L65778 58996
L65778 58959
L65759 58921
L65740 58903
L65703 58884
L65628 58865
L65534 58865
L65459 58884
L65421 58903
L65403 58921
L65384 58959
" />
<path d="M65778 59484
L65590 59353
" />
<path d="M65778 59259
L65384 59259
L65384 59409
L65403 59446
L65421 59465
L65459 59484
L65515 59484
L65553 59465
L65571 59446
L65590 59409
L65590 59259
" />
<path d="M68478 59253
L68478 59028
" />
<path d="M68478 59140
L68084 59140
L68140 59103
L68178 59065
L68196 59028
" />
<path d="M68478 59421
L68084 59421
" />
<path d="M68328 59459
L68478 59571
" />
<path d="M68215 59571
L68365 59421
" />
<path d="M69921 58015
L69903 58034
L69884 58071
L69884 58165
L69903 58203
L69921 58221
L69959 58240
L69996 58240
L70053 58221
L70278 57996
L70278 58240
" />
<path d="M69921 58390
L69903 58409
L69884 58446
L69884 58540
L69903 58578
L69921 58596
L69959 58615
L69996 58615
L70053 58596
L70278 58371
L70278 58615
" />
<path d="M69884 58859
L69884 58896
L69903 58934
L69921 58953
L69959 58971
L70034 58990
L70128 58990
L70203 58971
L70240 58953
L70259 58934
L70278 58896
L70278 58859
L70259 58821
L70240 58803
L70203 58784
L70128 58765
L70034 58765
L69959 58784
L69921 58803
L69903 58821
L69884 58859
" />
<path d="M70278 59384
L70090 59253
" />
<path d="M70278 59159
L69884 59159
L69884 59309
L69903 59346
L69921 59365
L69959 59384
L70015 59384
L70053 59365
L70071 59346
L70090 59309
L70090 59159
" />
<path d="M72978 59253
L72978 59028
" />
<path d="M72978 59140
L72584 59140
L72640 59103
L72678 59065
L72696 59028
" />
<path d="M72978 59421
L72584 59421
" />
<path d="M72828 59459
L72978 59571
" />
<path d="M72715 59571
L72865 59421
" />
<path d="M74921 56815
L74903 56834
L74884 56871
L74884 56965
L74903 57003
L74921 57021
L74959 57040
L74996 57040
L75053 57021
L75278 56796
L75278 57040
" />
<path d="M74921 57190
L74903 57209
L74884 57246
L74884 57340
L74903 57378
L74921 57396
L74959 57415
L74996 57415
L75053 57396
L75278 57171
L75278 57415
" />
<path d="M74884 57659
L74884 57696
L74903 57734
L74921 57753
L74959 57771
L75034 57790
L75128 57790
L75203 57771
L75240 57753
L75259 57734
L75278 57696
L75278 57659
L75259 57621
L75240 57603
L75203 57584
L75128 57565
L75034 57565
L74959 57584
L74921 57603
L74903 57621
L74884 57659
" />
<path d="M75278 58184
L75090 58053
" />
<path d="M75278 57959
L74884 57959
L74884 58109
L74903 58146
L74921 58165
L74959 58184
L75015 58184
L75053 58165
L75071 58146
L75090 58109
L75090 57959
" />
<path d="M42184 48121
L42165 48103
L42128 48084
L42034 48084
L41996 48103
L41978 48121
L41959 48159
L41959 48196
L41978 48253
L42203 48478
L41959 48478
" />
<path d="M41809 48121
L41790 48103
L41753 48084
L41659 48084
L41621 48103
L41603 48121
L41584 48159
L41584 48196
L41603 48253
L41828 48478
L41584 48478
" />
<path d="M41340 48084
L41303 48084
L41265 48103
L41246 48121
L41228 48159
L41209 48234
L41209 48328
L41228 48403
L41246 48440
L41265 48459
L41303 48478
L41340 48478
L41378 48459
L41396 48440
L41415 48403
L41434 48328
L41434 48234
L41415 48159
L41396 48121
L41378 48103
L41340 48084
" />
<path d="M40815 48478
L40946 48290
" />
<path d="M41040 48478
L41040 48084
L40890 48084
L40853 48103
L40834 48121
L40815 48159
L40815 48215
L40834 48253
L40853 48271
L40890 48290
L41040 48290
" />
<path d="M41221 22415
L41203 22434
L41184 22471
L41184 22565
L41203 22603
L41221 22621
L41259 22640
L41296 22640
L41353 22621
L41578 22396
L41578 22640
" />
<path d="M41221 22790
L41203 22809
L41184 22846
L41184 22940
L41203 22978
L41221 22996
L41259 23015
L41296 23015
L41353 22996
L41578 22771
L41578 23015
" />
<path d="M41184 23259
L41184 23296
L41203 23334
L41221 23353
L41259 23371
L41334 23390
L41428 23390
L41503 23371
L41540 23353
L41559 23334
L41578 23296
L41578 23259
L41559 23221
L41540 23203
L41503 23184
L41428 23165
L41334 23165
L41259 23184
L41221 23203
L41203 23221
L41184 23259
" />
<path d="M41578 23784
L41390 23653
" />
<path d="M41578 23559
L41184 23559
L41184 23709
L41203 23746
L41221 23765
L41259 23784
L41315 23784
L41353 23765
L41371 23746
L41390 23709
L41390 23559
" />
<path d="M68971 54878
L68896 54878
L68859 54859
L68840 54840
L68802 54784
L68784 54709
L68784 54559
L68802 54521
L68821 54503
L68859 54484
L68934 54484
L68971 54503
L68990 54521
L69009 54559
L69009 54653
L68990 54690
L68971 54709
L68934 54728
L68859 54728
L68821 54709
L68802 54690
L68784 54653
" />
<path d="M68653 54484
L68390 54484
L68559 54878
" />
<path d="M68071 54484
L68146 54484
L68184 54503
L68203 54521
L68240 54578
L68259 54653
L68259 54803
L68240 54840
L68221 54859
L68184 54878
L68109 54878
L68071 54859
L68053 54840
L68034 54803
L68034 54709
L68053 54671
L68071 54653
L68109 54634
L68184 54634
L68221 54653
L68240 54671
L68259 54709
" />
<path d="M67865 54878
L67865 54484
" />
<path d="M67828 54728
L67715 54878
" />
<path d="M67715 54615
L67865 54765
" />
<path d="M67040 54878
L67265 54878
" />
<path d="M67153 54878
L67153 54484
L67190 54540
L67228 54578
L67265 54596
" />
<path d="M66890 54878
L66590 54484
" />
<path d="M66834 54484
L66797 54503
L66778 54540
L66797 54578
L66834 54596
L66871 54578
L66890 54540
L66871 54503
L66834 54484
" />
<path d="M66609 54859
L66590 54821
L66609 54784
L66647 54765
L66684 54784
L66703 54821
L66684 54859
L66647 54878
L66609 54859
" />
<path d="M71727 53984
L71484 53984
L71615 54134
L71559 54134
L71521 54153
L71502 54171
L71484 54209
L71484 54303
L71502 54340
L71521 54359
L71559 54378
L71671 54378
L71709 54359
L71727 54340
" />
<path d="M71240 53984
L71203 53984
L71165 54003
L71146 54021
L71128 54059
L71109 54134
L71109 54228
L71128 54303
L71146 54340
L71165 54359
L71203 54378
L71240 54378
L71278 54359
L71296 54340
L71315 54303
L71334 54228
L71334 54134
L71315 54059
L71296 54021
L71278 54003
L71240 53984
" />
<path d="M70921 54378
L70846 54378
L70809 54359
L70790 54340
L70753 54284
L70734 54209
L70734 54059
L70753 54021
L70771 54003
L70809 53984
L70884 53984
L70921 54003
L70940 54021
L70959 54059
L70959 54153
L70940 54190
L70921 54209
L70884 54228
L70809 54228
L70771 54209
L70753 54190
L70734 54153
" />
<path d="M70565 54378
L70565 53984
" />
<path d="M70528 54228
L70415 54378
" />
<path d="M70415 54115
L70565 54265
" />
<path d="M69740 54378
L69965 54378
" />
<path d="M69853 54378
L69853 53984
L69890 54040
L69928 54078
L69965 54096
" />
<path d="M69590 54378
L69290 53984
" />
<path d="M69534 53984
L69497 54003
L69478 54040
L69497 54078
L69534 54096
L69571 54078
L69590 54040
L69571 54003
L69534 53984
" />
<path d="M69309 54359
L69290 54321
L69309 54284
L69347 54265
L69384 54284
L69403 54321
L69384 54359
L69347 54378
L69309 54359
" />
<path d="M43278 23453
L43278 23228
" />
<path d="M43278 23340
L42884 23340
L42940 23303
L42978 23265
L42996 23228
" />
<path d="M43278 23621
L42884 23621
" />
<path d="M43128 23659
L43278 23771
" />
<path d="M43015 23771
L43165 23621
" />
<path d="M45721 22415
L45703 22434
L45684 22471
L45684 22565
L45703 22603
L45721 22621
L45759 22640
L45796 22640
L45853 22621
L46078 22396
L46078 22640
" />
<path d="M45721 22790
L45703 22809
L45684 22846
L45684 22940
L45703 22978
L45721 22996
L45759 23015
L45796 23015
L45853 22996
L46078 22771
L46078 23015
" />
<path d="M45684 23259
L45684 23296
L45703 23334
L45721 23353
L45759 23371
L45834 23390
L45928 23390
L46003 23371
L46040 23353
L46059 23334
L46078 23296
L46078 23259
L46059 23221
L46040 23203
L46003 23184
L45928 23165
L45834 23165
L45759 23184
L45721 23203
L45703 23221
L45684 23259
" />
<path d="M46078 23784
L45890 23653
" />
<path d="M46078 23559
L45684 23559
L45684 23709
L45703 23746
L45721 23765
L45759 23784
L45815 23784
L45853 23765
L45871 23746
L45890 23709
L45890 23559
" />
<path d="M47678 23453
L47678 23228
" />
<path d="M47678 23340
L47284 23340
L47340 23303
L47378 23265
L47396 23228
" />
<path d="M47678 23621
L47284 23621
" />
<path d="M47528 23659
L47678 23771
" />
<path d="M47415 23771
L47565 23621
" />
<path d="M50221 22315
L50203 22334
L50184 22371
L50184 22465
L50203 22503
L50221 22521
L50259 22540
L50296 22540
L50353 22521
L50578 22296
L50578 22540
" />
<path d="M50221 22690
L50203 22709
L50184 22746
L50184 22840
L50203 22878
L50221 22896
L50259 22915
L50296 22915
L50353 22896
L50578 22671
L50578 22915
" />
<path d="M50184 23159
L50184 23196
L50203 23234
L50221 23253
L50259 23271
L50334 23290
L50428 23290
L50503 23271
L50540 23253
L50559 23234
L50578 23196
L50578 23159
L50559 23121
L50540 23103
L50503 23084
L50428 23065
L50334 23065
L50259 23084
L50221 23103
L50203 23121
L50184 23159
" />
<path d="M50578 23684
L50390 23553
" />
<path d="M50578 23459
L50184 23459
L50184 23609
L50203 23646
L50221 23665
L50259 23684
L50315 23684
L50353 23665
L50371 23646
L50390 23609
L50390 23459
" />
<path d="M52278 23353
L52278 23128
" />
<path d="M52278 23240
L51884 23240
L51940 23203
L51978 23165
L51996 23128
" />
<path d="M52278 23521
L51884 23521
" />
<path d="M52128 23559
L52278 23671
" />
<path d="M52015 23671
L52165 23521
" />
<path d="M54721 22315
L54703 22334
L54684 22371
L54684 22465
L54703 22503
L54721 22521
L54759 22540
L54796 22540
L54853 22521
L55078 22296
L55078 22540
" />
<path d="M54721 22690
L54703 22709
L54684 22746
L54684 22840
L54703 22878
L54721 22896
L54759 22915
L54796 22915
L54853 22896
L55078 22671
L55078 22915
" />
<path d="M54684 23159
L54684 23196
L54703 23234
L54721 23253
L54759 23271
L54834 23290
L54928 23290
L55003 23271
L55040 23253
L55059 23234
L55078 23196
L55078 23159
L55059 23121
L55040 23103
L55003 23084
L54928 23065
L54834 23065
L54759 23084
L54721 23103
L54703 23121
L54684 23159
" />
<path d="M55078 23684
L54890 23553
" />
<path d="M55078 23459
L54684 23459
L54684 23609
L54703 23646
L54721 23665
L54759 23684
L54815 23684
L54853 23665
L54871 23646
L54890 23609
L54890 23459
" />
<path d="M56678 23353
L56678 23128
" />
<path d="M56678 23240
L56284 23240
L56340 23203
L56378 23165
L56396 23128
" />
<path d="M56678 23521
L56284 23521
" />
<path d="M56528 23559
L56678 23671
" />
<path d="M56415 23671
L56565 23521
" />
<path d="M59221 22415
L59203 22434
L59184 22471
L59184 22565
L59203 22603
L59221 22621
L59259 22640
L59296 22640
L59353 22621
L59578 22396
L59578 22640
" />
<path d="M59221 22790
L59203 22809
L59184 22846
L59184 22940
L59203 22978
L59221 22996
L59259 23015
L59296 23015
L59353 22996
L59578 22771
L59578 23015
" />
<path d="M59184 23259
L59184 23296
L59203 23334
L59221 23353
L59259 23371
L59334 23390
L59428 23390
L59503 23371
L59540 23353
L59559 23334
L59578 23296
L59578 23259
L59559 23221
L59540 23203
L59503 23184
L59428 23165
L59334 23165
L59259 23184
L59221 23203
L59203 23221
L59184 23259
" />
<path d="M59578 23784
L59390 23653
" />
<path d="M59578 23559
L59184 23559
L59184 23709
L59203 23746
L59221 23765
L59259 23784
L59315 23784
L59353 23765
L59371 23746
L59390 23709
L59390 23559
" />
<path d="M61278 23353
L61278 23128
" />
<path d="M61278 23240
L60884 23240
L60940 23203
L60978 23165
L60996 23128
" />
<path d="M61278 23521
L60884 23521
" />
<path d="M61128 23559
L61278 23671
" />
<path d="M61015 23671
L61165 23521
" />
<path d="M63721 22315
L63703 22334
L63684 22371
L63684 22465
L63703 22503
L63721 22521
L63759 22540
L63796 22540
L63853 22521
L64078 22296
L64078 22540
" />
<path d="M63721 22690
L63703 22709
L63684 22746
L63684 22840
L63703 22878
L63721 22896
L63759 22915
L63796 22915
L63853 22896
L64078 22671
L64078 22915
" />
<path d="M63684 23159
L63684 23196
L63703 23234
L63721 23253
L63759 23271
L63834 23290
L63928 23290
L64003 23271
L64040 23253
L64059 23234
L64078 23196
L64078 23159
L64059 23121
L64040 23103
L64003 23084
L63928 23065
L63834 23065
L63759 23084
L63721 23103
L63703 23121
L63684 23159
" />
<path d="M64078 23684
L63890 23553
" />
<path d="M64078 23459
L63684 23459
L63684 23609
L63703 23646
L63721 23665
L63759 23684
L63815 23684
L63853 23665
L63871 23646
L63890 23609
L63890 23459
" />
<path d="M65778 23353
L65778 23128
" />
<path d="M65778 23240
L65384 23240
L65440 23203
L65478 23165
L65496 23128
" />
<path d="M65778 23521
L65384 23521
" />
<path d="M65628 23559
L65778 23671
" />
<path d="M65515 23671
L65665 23521
" />
<path d="M67521 24015
L67503 24034
L67484 24071
L67484 24165
L67503 24203
L67521 24221
L67559 24240
L67596 24240
L67653 24221
L67878 23996
L67878 24240
" />
<path d="M67521 24390
L67503 24409
L67484 24446
L67484 24540
L67503 24578
L67521 24596
L67559 24615
L67596 24615
L67653 24596
L67878 24371
L67878 24615
" />
<path d="M67484 24859
L67484 24896
L67503 24934
L67521 24953
L67559 24971
L67634 24990
L67728 24990
L67803 24971
L67840 24953
L67859 24934
L67878 24896
L67878 24859
L67859 24821
L67840 24803
L67803 24784
L67728 24765
L67634 24765
L67559 24784
L67521 24803
L67503 24821
L67484 24859
" />
<path d="M67878 25384
L67690 25253
" />
<path d="M67878 25159
L67484 25159
L67484 25309
L67503 25346
L67521 25365
L67559 25384
L67615 25384
L67653 25365
L67671 25346
L67690 25309
L67690 25159
" />
<path d="M69246 25578
L69471 25578
" />
<path d="M69359 25578
L69359 25184
L69396 25240
L69434 25278
L69471 25296
" />
<path d="M69078 25578
L69078 25184
" />
<path d="M69040 25428
L68928 25578
" />
<path d="M68928 25315
L69078 25465
" />
<path d="M73221 24015
L73203 24034
L73184 24071
L73184 24165
L73203 24203
L73221 24221
L73259 24240
L73296 24240
L73353 24221
L73578 23996
L73578 24240
" />
<path d="M73221 24390
L73203 24409
L73184 24446
L73184 24540
L73203 24578
L73221 24596
L73259 24615
L73296 24615
L73353 24596
L73578 24371
L73578 24615
" />
<path d="M73184 24859
L73184 24896
L73203 24934
L73221 24953
L73259 24971
L73334 24990
L73428 24990
L73503 24971
L73540 24953
L73559 24934
L73578 24896
L73578 24859
L73559 24821
L73540 24803
L73503 24784
L73428 24765
L73334 24765
L73259 24784
L73221 24803
L73203 24821
L73184 24859
" />
<path d="M73578 25384
L73390 25253
" />
<path d="M73578 25159
L73184 25159
L73184 25309
L73203 25346
L73221 25365
L73259 25384
L73315 25384
L73353 25365
L73371 25346
L73390 25309
L73390 25159
" />
<path d="M70146 25578
L70371 25578
" />
<path d="M70259 25578
L70259 25184
L70296 25240
L70334 25278
L70371 25296
" />
<path d="M69978 25578
L69978 25184
" />
<path d="M69940 25428
L69828 25578
" />
<path d="M69828 25315
L69978 25465
" />
<path d="M77246 28378
L77471 28378
" />
<path d="M77359 28378
L77359 27984
L77396 28040
L77434 28078
L77471 28096
" />
<path d="M77078 28378
L77078 27984
" />
<path d="M77040 28228
L76928 28378
" />
<path d="M76928 28115
L77078 28265
" />
<path d="M77246 29278
L77471 29278
" />
<path d="M77359 29278
L77359 28884
L77396 28940
L77434 28978
L77471 28996
" />
<path d="M77078 29278
L77078 28884
" />
<path d="M77040 29128
L76928 29278
" />
<path d="M76928 29015
L77078 29165
" />
<path d="M41034 38678
L41259 38678
" />
<path d="M41146 38678
L41146 38284
L41184 38340
L41221 38378
L41259 38396
" />
<path d="M40790 38284
L40753 38284
L40715 38303
L40696 38321
L40678 38359
L40659 38434
L40659 38528
L40678 38603
L40696 38640
L40715 38659
L40753 38678
L40790 38678
L40828 38659
L40846 38640
L40865 38603
L40884 38528
L40884 38434
L40865 38359
L40846 38321
L40828 38303
L40790 38284
" />
<path d="M40490 38678
L40490 38284
" />
<path d="M40453 38528
L40340 38678
" />
<path d="M40340 38415
L40490 38565
" />
<path d="M43134 38678
L43359 38678
" />
<path d="M43246 38678
L43246 38284
L43284 38340
L43321 38378
L43359 38396
" />
<path d="M42890 38284
L42853 38284
L42815 38303
L42796 38321
L42778 38359
L42759 38434
L42759 38528
L42778 38603
L42796 38640
L42815 38659
L42853 38678
L42890 38678
L42928 38659
L42946 38640
L42965 38603
L42984 38528
L42984 38434
L42965 38359
L42946 38321
L42928 38303
L42890 38284
" />
<path d="M42590 38678
L42590 38284
" />
<path d="M42553 38528
L42440 38678
" />
<path d="M42440 38415
L42590 38565
" />
<path d="M46034 38678
L46259 38678
" />
<path d="M46146 38678
L46146 38284
L46184 38340
L46221 38378
L46259 38396
" />
<path d="M45790 38284
L45753 38284
L45715 38303
L45696 38321
L45678 38359
L45659 38434
L45659 38528
L45678 38603
L45696 38640
L45715 38659
L45753 38678
L45790 38678
L45828 38659
L45846 38640
L45865 38603
L45884 38528
L45884 38434
L45865 38359
L45846 38321
L45828 38303
L45790 38284
" />
<path d="M45490 38678
L45490 38284
" />
<path d="M45453 38528
L45340 38678
" />
<path d="M45340 38415
L45490 38565
" />
<path d="M58734 38678
L58959 38678
" />
<path d="M58846 38678
L58846 38284
L58884 38340
L58921 38378
L58959 38396
" />
<path d="M58490 38284
L58453 38284
L58415 38303
L58396 38321
L58378 38359
L58359 38434
L58359 38528
L58378 38603
L58396 38640
L58415 38659
L58453 38678
L58490 38678
L58528 38659
L58546 38640
L58565 38603
L58584 38528
L58584 38434
L58565 38359
L58546 38321
L58528 38303
L58490 38284
" />
<path d="M58190 38678
L58190 38284
" />
<path d="M58153 38528
L58040 38678
" />
<path d="M58040 38415
L58190 38565
" />
<path d="M63146 33778
L63371 33778
" />
<path d="M63259 33778
L63259 33384
L63296 33440
L63334 33478
L63371 33496
" />
<path d="M62978 33778
L62978 33384
" />
<path d="M62940 33628
L62828 33778
" />
<path d="M62828 33515
L62978 33665
" />
<path d="M63146 34678
L63371 34678
" />
<path d="M63259 34678
L63259 34284
L63296 34340
L63334 34378
L63371 34396
" />
<path d="M62978 34678
L62978 34284
" />
<path d="M62940 34528
L62828 34678
" />
<path d="M62828 34415
L62978 34565
" />
<path d="M63146 35678
L63371 35678
" />
<path d="M63259 35678
L63259 35284
L63296 35340
L63334 35378
L63371 35396
" />
<path d="M62978 35678
L62978 35284
" />
<path d="M62940 35528
L62828 35678
" />
<path d="M62828 35415
L62978 35565
" />
<path d="M63146 36678
L63371 36678
" />
<path d="M63259 36678
L63259 36284
L63296 36340
L63334 36378
L63371 36396
" />
<path d="M62978 36678
L62978 36284
" />
<path d="M62940 36528
L62828 36678
" />
<path d="M62828 36415
L62978 36565
" />
<path d="M63146 37678
L63371 37678
" />
<path d="M63259 37678
L63259 37284
L63296 37340
L63334 37378
L63371 37396
" />
<path d="M62978 37678
L62978 37284
" />
<path d="M62940 37528
L62828 37678
" />
<path d="M62828 37415
L62978 37565
" />
<path d="M63146 38678
L63371 38678
" />
<path d="M63259 38678
L63259 38284
L63296 38340
L63334 38378
L63371 38396
" />
<path d="M62978 38678
L62978 38284
" />
<path d="M62940 38528
L62828 38678
" />
<path d="M62828 38415
L62978 38565
" />
<path d="M63146 39678
L63371 39678
" />
<path d="M63259 39678
L63259 39284
L63296 39340
L63334 39378
L63371 39396
" />
<path d="M62978 39678
L62978 39284
" />
<path d="M62940 39528
L62828 39678
" />
<path d="M62828 39415
L62978 39565
" />
<path d="M41351 33365
L41351 33140
" />
<path d="M41351 33253
L40957 33253
L41013 33215
L41051 33178
L41070 33140
" />
<path d="M40957 33609
L40957 33646
L40976 33684
L40995 33703
L41032 33721
L41107 33740
L41201 33740
L41276 33721
L41313 33703
L41332 33684
L41351 33646
L41351 33609
L41332 33571
L41313 33553
L41276 33534
L41201 33515
L41107 33515
L41032 33534
L40995 33553
L40976 33571
L40957 33609
" />
<path d="M41351 33909
L40957 33909
" />
<path d="M41201 33946
L41351 34059
" />
<path d="M41088 34059
L41238 33909
" />
<path d="M43878 33365
L43878 33140
" />
<path d="M43878 33253
L43484 33253
L43540 33215
L43578 33178
L43596 33140
" />
<path d="M43484 33609
L43484 33646
L43503 33684
L43521 33703
L43559 33721
L43634 33740
L43728 33740
L43803 33721
L43840 33703
L43859 33684
L43878 33646
L43878 33609
L43859 33571
L43840 33553
L43803 33534
L43728 33515
L43634 33515
L43559 33534
L43521 33553
L43503 33571
L43484 33609
" />
<path d="M43878 33909
L43484 33909
" />
<path d="M43728 33946
L43878 34059
" />
<path d="M43615 34059
L43765 33909
" />
<path d="M45751 33365
L45751 33140
" />
<path d="M45751 33253
L45357 33253
L45413 33215
L45451 33178
L45470 33140
" />
<path d="M45357 33609
L45357 33646
L45376 33684
L45395 33703
L45432 33721
L45507 33740
L45601 33740
L45676 33721
L45713 33703
L45732 33684
L45751 33646
L45751 33609
L45732 33571
L45713 33553
L45676 33534
L45601 33515
L45507 33515
L45432 33534
L45395 33553
L45376 33571
L45357 33609
" />
<path d="M45751 33909
L45357 33909
" />
<path d="M45601 33946
L45751 34059
" />
<path d="M45488 34059
L45638 33909
" />
<path d="M59434 28678
L59659 28678
" />
<path d="M59546 28678
L59546 28284
L59584 28340
L59621 28378
L59659 28396
" />
<path d="M59190 28284
L59153 28284
L59115 28303
L59096 28321
L59078 28359
L59059 28434
L59059 28528
L59078 28603
L59096 28640
L59115 28659
L59153 28678
L59190 28678
L59228 28659
L59246 28640
L59265 28603
L59284 28528
L59284 28434
L59265 28359
L59246 28321
L59228 28303
L59190 28284
" />
<path d="M58890 28678
L58890 28284
" />
<path d="M58853 28528
L58740 28678
" />
<path d="M58740 28415
L58890 28565
" />
<path d="M72434 52678
L72659 52678
" />
<path d="M72546 52678
L72546 52284
L72584 52340
L72621 52378
L72659 52396
" />
<path d="M72190 52284
L72153 52284
L72115 52303
L72096 52321
L72078 52359
L72059 52434
L72059 52528
L72078 52603
L72096 52640
L72115 52659
L72153 52678
L72190 52678
L72228 52659
L72246 52640
L72265 52603
L72284 52528
L72284 52434
L72265 52359
L72246 52321
L72228 52303
L72190 52284
" />
<path d="M71890 52678
L71890 52284
" />
<path d="M71853 52528
L71740 52678
" />
<path d="M71740 52415
L71890 52565
" />
<path d="M73634 52678
L73859 52678
" />
<path d="M73746 52678
L73746 52284
L73784 52340
L73821 52378
L73859 52396
" />
<path d="M73390 52284
L73353 52284
L73315 52303
L73296 52321
L73278 52359
L73259 52434
L73259 52528
L73278 52603
L73296 52640
L73315 52659
L73353 52678
L73390 52678
L73428 52659
L73446 52640
L73465 52603
L73484 52528
L73484 52434
L73465 52359
L73446 52321
L73428 52303
L73390 52284
" />
<path d="M73090 52678
L73090 52284
" />
<path d="M73053 52528
L72940 52678
" />
<path d="M72940 52415
L73090 52565
" />
<path d="M73821 32915
L73803 32934
L73784 32971
L73784 33065
L73803 33103
L73821 33121
L73859 33140
L73896 33140
L73953 33121
L74178 32896
L74178 33140
" />
<path d="M73821 33290
L73803 33309
L73784 33346
L73784 33440
L73803 33478
L73821 33496
L73859 33515
L73896 33515
L73953 33496
L74178 33271
L74178 33515
" />
<path d="M73784 33759
L73784 33796
L73803 33834
L73821 33853
L73859 33871
L73934 33890
L74028 33890
L74103 33871
L74140 33853
L74159 33834
L74178 33796
L74178 33759
L74159 33721
L74140 33703
L74103 33684
L74028 33665
L73934 33665
L73859 33684
L73821 33703
L73803 33721
L73784 33759
" />
<path d="M74178 34284
L73990 34153
" />
<path d="M74178 34059
L73784 34059
L73784 34209
L73803 34246
L73821 34265
L73859 34284
L73915 34284
L73953 34265
L73971 34246
L73990 34209
L73990 34059
" />
<path d="M75034 52678
L75259 52678
" />
<path d="M75146 52678
L75146 52284
L75184 52340
L75221 52378
L75259 52396
" />
<path d="M74790 52284
L74753 52284
L74715 52303
L74696 52321
L74678 52359
L74659 52434
L74659 52528
L74678 52603
L74696 52640
L74715 52659
L74753 52678
L74790 52678
L74828 52659
L74846 52640
L74865 52603
L74884 52528
L74884 52434
L74865 52359
L74846 52321
L74828 52303
L74790 52284
" />
<path d="M74490 52678
L74490 52284
" />
<path d="M74453 52528
L74340 52678
" />
<path d="M74340 52415
L74490 52565
" />
</g> 
</svg>
