G04 #@! TF.FileFunction,Paste,Bot*
%FSLAX46Y46*%
G04 Gerber Fmt 4.6, Leading zero omitted, Abs format (unit mm)*
G04 Created by KiCad (PCBNEW (2014-12-08 BZR 5317)-product) date sam. 06 juin 2015 11:44:28 CEST*
%MOMM*%
G01*
G04 APERTURE LIST*
%ADD10C,0.100000*%
%ADD11O,2.000000X1.000000*%
%ADD12R,2.000000X1.524000*%
%ADD13O,1.000000X2.000000*%
%ADD14R,1.524000X2.000000*%
%ADD15R,0.899160X0.800100*%
%ADD16R,6.197600X5.397500*%
%ADD17R,1.597660X0.998220*%
%ADD18R,0.599440X1.000760*%
%ADD19R,0.600000X2.000000*%
%ADD20R,1.998980X0.599440*%
%ADD21R,1.699260X3.299460*%
%ADD22R,0.800100X0.899160*%
%ADD23R,3.500120X2.400300*%
%ADD24R,2.400300X3.500120*%
%ADD25R,1.000000X1.250000*%
%ADD26R,1.250000X1.000000*%
%ADD27R,1.300000X0.700000*%
%ADD28R,0.700000X1.300000*%
G04 APERTURE END LIST*
D10*
D11*
X155702000Y-125984000D03*
D12*
X155702000Y-123952000D03*
D11*
X155702000Y-121920000D03*
X181356000Y-86360000D03*
D12*
X181356000Y-84328000D03*
D11*
X181356000Y-82296000D03*
X181356000Y-93980000D03*
D12*
X181356000Y-91948000D03*
D11*
X181356000Y-89916000D03*
X181356000Y-101854000D03*
D12*
X181356000Y-99822000D03*
D11*
X181356000Y-97790000D03*
X145034000Y-105664000D03*
D12*
X145034000Y-103632000D03*
D11*
X145034000Y-101600000D03*
D13*
X138176000Y-125476000D03*
D14*
X136144000Y-125476000D03*
D13*
X134112000Y-125476000D03*
D15*
X108414820Y-57785000D03*
X106314240Y-58734960D03*
X106314240Y-56835040D03*
D16*
X142915640Y-123317000D03*
D17*
X150213060Y-121038620D03*
X150213060Y-125595380D03*
D18*
X171259500Y-132801360D03*
X173164500Y-132801360D03*
X172212000Y-132801360D03*
X173164500Y-134914640D03*
X171259500Y-134914640D03*
X172212000Y-134914640D03*
D19*
X146177000Y-83948000D03*
X144907000Y-83948000D03*
X143637000Y-83948000D03*
X142367000Y-83948000D03*
X141097000Y-83948000D03*
X139827000Y-83948000D03*
X138557000Y-83948000D03*
X137287000Y-83948000D03*
X136017000Y-83948000D03*
X134747000Y-83948000D03*
X133477000Y-83948000D03*
X132207000Y-83948000D03*
X132207000Y-74548000D03*
X133477000Y-74548000D03*
X134747000Y-74548000D03*
X136017000Y-74548000D03*
X137287000Y-74548000D03*
X138557000Y-74548000D03*
X139827000Y-74548000D03*
X141097000Y-74548000D03*
X142367000Y-74548000D03*
X143637000Y-74548000D03*
X144907000Y-74548000D03*
X146177000Y-74548000D03*
D20*
X191008000Y-99949000D03*
X191008000Y-101219000D03*
X191008000Y-102489000D03*
X191008000Y-103759000D03*
X185420000Y-103759000D03*
X185420000Y-102489000D03*
X185420000Y-101219000D03*
X185420000Y-99949000D03*
D21*
X185420000Y-116883180D03*
X185420000Y-122384820D03*
D11*
X181356000Y-109474000D03*
D12*
X181356000Y-107442000D03*
D11*
X181356000Y-105410000D03*
D15*
X119844820Y-57785000D03*
X117744240Y-58734960D03*
X117744240Y-56835040D03*
X131274820Y-57785000D03*
X129174240Y-58734960D03*
X129174240Y-56835040D03*
X165564820Y-57785000D03*
X163464240Y-58734960D03*
X163464240Y-56835040D03*
D22*
X174625000Y-58249820D03*
X173675040Y-56149240D03*
X175574960Y-56149240D03*
X176530000Y-59479180D03*
X177479960Y-61579760D03*
X175580040Y-61579760D03*
X151384000Y-93388180D03*
X152333960Y-95488760D03*
X150434040Y-95488760D03*
X119380000Y-93388180D03*
X120329960Y-95488760D03*
X118430040Y-95488760D03*
X111252000Y-93388180D03*
X112201960Y-95488760D03*
X110302040Y-95488760D03*
X106172000Y-93134180D03*
X107121960Y-95234760D03*
X105222040Y-95234760D03*
D15*
X105834180Y-151638000D03*
X107934760Y-150688040D03*
X107934760Y-152587960D03*
X117264180Y-151638000D03*
X119364760Y-150688040D03*
X119364760Y-152587960D03*
X128694180Y-151638000D03*
X130794760Y-150688040D03*
X130794760Y-152587960D03*
X140124180Y-151638000D03*
X142224760Y-150688040D03*
X142224760Y-152587960D03*
X151554180Y-151892000D03*
X153654760Y-150942040D03*
X153654760Y-152841960D03*
X162984180Y-151892000D03*
X165084760Y-150942040D03*
X165084760Y-152841960D03*
X174414180Y-151892000D03*
X176514760Y-150942040D03*
X176514760Y-152841960D03*
X185844180Y-151892000D03*
X187944760Y-150942040D03*
X187944760Y-152841960D03*
X154134820Y-57785000D03*
X152034240Y-58734960D03*
X152034240Y-56835040D03*
X142704820Y-57785000D03*
X140604240Y-58734960D03*
X140604240Y-56835040D03*
D23*
X166573200Y-124714000D03*
X160070800Y-124714000D03*
X166573200Y-115316000D03*
X160070800Y-115316000D03*
X166573200Y-134112000D03*
X160070800Y-134112000D03*
X166573200Y-75184000D03*
X160070800Y-75184000D03*
D24*
X193040000Y-89458800D03*
X193040000Y-95961200D03*
D21*
X177647600Y-116832380D03*
X177647600Y-122334020D03*
D25*
X153686000Y-119507000D03*
X155686000Y-119507000D03*
X151368000Y-76606400D03*
X149368000Y-76606400D03*
D26*
X193040000Y-119999000D03*
X193040000Y-117999000D03*
X191846200Y-83493100D03*
X191846200Y-85493100D03*
D27*
X105918000Y-147132000D03*
X105918000Y-149032000D03*
X108204000Y-147132000D03*
X108204000Y-149032000D03*
X117348000Y-147132000D03*
X117348000Y-149032000D03*
X119634000Y-147132000D03*
X119634000Y-149032000D03*
X128778000Y-147386000D03*
X128778000Y-149286000D03*
X131064000Y-147386000D03*
X131064000Y-149286000D03*
X140208000Y-147386000D03*
X140208000Y-149286000D03*
X142494000Y-147386000D03*
X142494000Y-149286000D03*
X151384000Y-147386000D03*
X151384000Y-149286000D03*
X153670000Y-147386000D03*
X153670000Y-149286000D03*
X163068000Y-147386000D03*
X163068000Y-149286000D03*
X165354000Y-147386000D03*
X165354000Y-149286000D03*
X174498000Y-147386000D03*
X174498000Y-149286000D03*
X176784000Y-147386000D03*
X176784000Y-149286000D03*
X185928000Y-147386000D03*
X185928000Y-149286000D03*
X188214000Y-147386000D03*
X188214000Y-149286000D03*
D28*
X104333000Y-120650000D03*
X106233000Y-120650000D03*
D27*
X106172000Y-62672000D03*
X106172000Y-60772000D03*
D28*
X171516000Y-137160000D03*
X173416000Y-137160000D03*
D27*
X176530000Y-136078000D03*
X176530000Y-134178000D03*
X108458000Y-62672000D03*
X108458000Y-60772000D03*
X117602000Y-62672000D03*
X117602000Y-60772000D03*
X119888000Y-62672000D03*
X119888000Y-60772000D03*
X129032000Y-62672000D03*
X129032000Y-60772000D03*
X131318000Y-62672000D03*
X131318000Y-60772000D03*
X140462000Y-62672000D03*
X140462000Y-60772000D03*
X142748000Y-62672000D03*
X142748000Y-60772000D03*
X151892000Y-62672000D03*
X151892000Y-60772000D03*
X154178000Y-62672000D03*
X154178000Y-60772000D03*
X163322000Y-62672000D03*
X163322000Y-60772000D03*
X165608000Y-62672000D03*
X165608000Y-60772000D03*
X173482000Y-63434000D03*
X173482000Y-61534000D03*
X175006000Y-67371000D03*
X175006000Y-65471000D03*
X184785000Y-63662600D03*
X184785000Y-61762600D03*
X177292000Y-67371000D03*
X177292000Y-65471000D03*
D28*
X192725000Y-71755000D03*
X194625000Y-71755000D03*
X192725000Y-74041000D03*
X194625000Y-74041000D03*
X105222000Y-97790000D03*
X107122000Y-97790000D03*
X110556000Y-97790000D03*
X112456000Y-97790000D03*
X118430000Y-97790000D03*
X120330000Y-97790000D03*
X150434000Y-97790000D03*
X152334000Y-97790000D03*
X158938000Y-85852000D03*
X157038000Y-85852000D03*
X158938000Y-88392000D03*
X157038000Y-88392000D03*
X158938000Y-90932000D03*
X157038000Y-90932000D03*
X158938000Y-93472000D03*
X157038000Y-93472000D03*
X158938000Y-96012000D03*
X157038000Y-96012000D03*
X158938000Y-98552000D03*
X157038000Y-98552000D03*
X158938000Y-101092000D03*
X157038000Y-101092000D03*
D27*
X106680000Y-86294000D03*
X106680000Y-84394000D03*
X109220000Y-86294000D03*
X109220000Y-84394000D03*
X117856000Y-86294000D03*
X117856000Y-84394000D03*
D28*
X151318000Y-74168000D03*
X149418000Y-74168000D03*
D27*
X184023000Y-132014000D03*
X184023000Y-130114000D03*
X186436000Y-130114000D03*
X186436000Y-132014000D03*
X189484000Y-83632000D03*
X189484000Y-85532000D03*
X188874400Y-130101300D03*
X188874400Y-132001300D03*
M02*
