<?xml version="1.0" standalone="no"?>
 <!DOCTYPE svg PUBLIC "-//W3C//DTD SVG 1.1//EN" 
 "http://www.w3.org/Graphics/SVG/1.1/DTD/svg11.dtd"> 
<svg xmlns="http://www.w3.org/2000/svg" version="1.1" 
    width="29.7002cm" height="21.0007cm" viewBox="0 0 116930 82680 ">
<title>SVG Picture created as Autoduino-rev2-F_Paste.svg date 2015/06/29 22:41:01 </title>
  <desc>Picture generated by PCBNEW </desc>
<g style="fill:#000000; fill-opacity:1;stroke:#000000; stroke-opacity:1;
stroke-linecap:round; stroke-linejoin:round; "
 transform="translate(0 0) scale(1 1)">
</g>
<g style="fill:#000000; fill-opacity:0.0; 
stroke:#000000; stroke-width:0; stroke-opacity:1; 
stroke-linecap:round; stroke-linejoin:round;">
</g>
<g style="fill:#000000; fill-opacity:1.0; 
stroke:#000000; stroke-width:0; stroke-opacity:1; 
stroke-linecap:round; stroke-linejoin:round;">
<polyline style="fill-rule:evenodd;"
points="77209,47272
77209,47626
76619,47626
76619,47272
77209,47272
" /> 
<polyline style="fill-rule:evenodd;"
points="77209,45973
77209,46327
76619,46327
76619,45973
77209,45973
" /> 
<polyline style="fill-rule:evenodd;"
points="75280,45973
75280,46327
74690,46327
74690,45973
75280,45973
" /> 
<polyline style="fill-rule:evenodd;"
points="75280,47272
75280,47626
74690,47626
74690,47272
75280,47272
" /> 
<polyline style="fill-rule:evenodd;"
points="74740,32827
74740,32473
75330,32473
75330,32827
74740,32827
" /> 
<polyline style="fill-rule:evenodd;"
points="74740,34126
74740,33772
75330,33772
75330,34126
74740,34126
" /> 
<polyline style="fill-rule:evenodd;"
points="76669,34126
76669,33772
77259,33772
77259,34126
76669,34126
" /> 
<polyline style="fill-rule:evenodd;"
points="76669,32827
76669,32473
77259,32473
77259,32827
76669,32827
" /> 
</g> 
</svg>
