M48
;DRILL file {kicad (2014-12-08 BZR 5317)-product} date sam. 06 juin 2015 11:44:37 CEST
;FORMAT={-:-/ absolute / metric / decimal}
FMAT,2
METRIC,TZ
T1C1.300
T2C3.175
%
G90
G05
M71
T1
X101.6Y-58.13
X101.6Y-64.13
X101.6Y-144.785
X101.6Y-150.785
X113.03Y-58.13
X113.03Y-64.13
X113.03Y-144.785
X113.03Y-150.785
X124.46Y-58.13
X124.46Y-64.13
X124.46Y-144.785
X124.46Y-150.785
X135.89Y-58.13
X135.89Y-64.13
X135.89Y-144.785
X135.89Y-150.785
X147.32Y-58.13
X147.32Y-64.13
X147.32Y-144.785
X147.32Y-150.785
X158.75Y-58.13
X158.75Y-64.13
X158.75Y-144.785
X158.75Y-150.785
X170.18Y-58.13
X170.18Y-64.13
X170.18Y-144.785
X170.18Y-150.785
X181.61Y-58.13
X181.61Y-64.13
X181.61Y-144.785
X181.61Y-150.785
X192.405Y-58.13
X192.405Y-64.13
X192.405Y-144.785
X192.405Y-150.785
T2
X101.854Y-138.176
X103.124Y-89.916
X153.924Y-105.156
X153.924Y-133.096
T0
M30
