G04 #@! TF.FileFunction,*
%FSLAX46Y46*%
G04 Gerber Fmt 4.6, Leading zero omitted, Abs format (unit mm)*
G04 Created by KiCad (PCBNEW (2014-12-08 BZR 5317)-product) date sam. 06 juin 2015 11:44:28 CEST*
%MOMM*%
G01*
G04 APERTURE LIST*
%ADD10C,0.100000*%
%ADD11C,0.150000*%
G04 APERTURE END LIST*
D10*
D11*
X184094381Y-120705810D02*
X183094381Y-120705810D01*
X183094381Y-120943905D01*
X183142000Y-121086763D01*
X183237238Y-121182001D01*
X183332476Y-121229620D01*
X183522952Y-121277239D01*
X183665810Y-121277239D01*
X183856286Y-121229620D01*
X183951524Y-121182001D01*
X184046762Y-121086763D01*
X184094381Y-120943905D01*
X184094381Y-120705810D01*
X184094381Y-121705810D02*
X183094381Y-121705810D01*
X183094381Y-122372476D02*
X183094381Y-122562953D01*
X183142000Y-122658191D01*
X183237238Y-122753429D01*
X183427714Y-122801048D01*
X183761048Y-122801048D01*
X183951524Y-122753429D01*
X184046762Y-122658191D01*
X184094381Y-122562953D01*
X184094381Y-122372476D01*
X184046762Y-122277238D01*
X183951524Y-122182000D01*
X183761048Y-122134381D01*
X183427714Y-122134381D01*
X183237238Y-122182000D01*
X183142000Y-122277238D01*
X183094381Y-122372476D01*
X184094381Y-123229619D02*
X183094381Y-123229619D01*
X183094381Y-123467714D01*
X183142000Y-123610572D01*
X183237238Y-123705810D01*
X183332476Y-123753429D01*
X183522952Y-123801048D01*
X183665810Y-123801048D01*
X183856286Y-123753429D01*
X183951524Y-123705810D01*
X184046762Y-123610572D01*
X184094381Y-123467714D01*
X184094381Y-123229619D01*
X183570571Y-124229619D02*
X183570571Y-124562953D01*
X184094381Y-124705810D02*
X184094381Y-124229619D01*
X183094381Y-124229619D01*
X183094381Y-124705810D01*
X167345810Y-119435619D02*
X167298191Y-119388000D01*
X167202953Y-119340381D01*
X166964857Y-119340381D01*
X166869619Y-119388000D01*
X166822000Y-119435619D01*
X166774381Y-119530857D01*
X166774381Y-119626095D01*
X166822000Y-119768952D01*
X167393429Y-120340381D01*
X166774381Y-120340381D01*
X166393429Y-119435619D02*
X166345810Y-119388000D01*
X166250572Y-119340381D01*
X166012476Y-119340381D01*
X165917238Y-119388000D01*
X165869619Y-119435619D01*
X165822000Y-119530857D01*
X165822000Y-119626095D01*
X165869619Y-119768952D01*
X166441048Y-120340381D01*
X165822000Y-120340381D01*
X165202953Y-119340381D02*
X165107714Y-119340381D01*
X165012476Y-119388000D01*
X164964857Y-119435619D01*
X164917238Y-119530857D01*
X164869619Y-119721333D01*
X164869619Y-119959429D01*
X164917238Y-120149905D01*
X164964857Y-120245143D01*
X165012476Y-120292762D01*
X165107714Y-120340381D01*
X165202953Y-120340381D01*
X165298191Y-120292762D01*
X165345810Y-120245143D01*
X165393429Y-120149905D01*
X165441048Y-119959429D01*
X165441048Y-119721333D01*
X165393429Y-119530857D01*
X165345810Y-119435619D01*
X165298191Y-119388000D01*
X165202953Y-119340381D01*
X164012476Y-119673714D02*
X164012476Y-120340381D01*
X164441048Y-119673714D02*
X164441048Y-120197524D01*
X164393429Y-120292762D01*
X164298191Y-120340381D01*
X164155333Y-120340381D01*
X164060095Y-120292762D01*
X164012476Y-120245143D01*
X163202952Y-119816571D02*
X163536286Y-119816571D01*
X163536286Y-120340381D02*
X163536286Y-119340381D01*
X163060095Y-119340381D01*
X161964857Y-119292762D02*
X162822000Y-120578476D01*
X161107714Y-120340381D02*
X161679143Y-120340381D01*
X161393429Y-120340381D02*
X161393429Y-119340381D01*
X161488667Y-119483238D01*
X161583905Y-119578476D01*
X161679143Y-119626095D01*
X160250571Y-119340381D02*
X160441048Y-119340381D01*
X160536286Y-119388000D01*
X160583905Y-119435619D01*
X160679143Y-119578476D01*
X160726762Y-119768952D01*
X160726762Y-120149905D01*
X160679143Y-120245143D01*
X160631524Y-120292762D01*
X160536286Y-120340381D01*
X160345809Y-120340381D01*
X160250571Y-120292762D01*
X160202952Y-120245143D01*
X160155333Y-120149905D01*
X160155333Y-119911810D01*
X160202952Y-119816571D01*
X160250571Y-119768952D01*
X160345809Y-119721333D01*
X160536286Y-119721333D01*
X160631524Y-119768952D01*
X160679143Y-119816571D01*
X160726762Y-119911810D01*
X159869619Y-119340381D02*
X159536286Y-120340381D01*
X159202952Y-119340381D01*
X167345810Y-110037619D02*
X167298191Y-109990000D01*
X167202953Y-109942381D01*
X166964857Y-109942381D01*
X166869619Y-109990000D01*
X166822000Y-110037619D01*
X166774381Y-110132857D01*
X166774381Y-110228095D01*
X166822000Y-110370952D01*
X167393429Y-110942381D01*
X166774381Y-110942381D01*
X166393429Y-110037619D02*
X166345810Y-109990000D01*
X166250572Y-109942381D01*
X166012476Y-109942381D01*
X165917238Y-109990000D01*
X165869619Y-110037619D01*
X165822000Y-110132857D01*
X165822000Y-110228095D01*
X165869619Y-110370952D01*
X166441048Y-110942381D01*
X165822000Y-110942381D01*
X165202953Y-109942381D02*
X165107714Y-109942381D01*
X165012476Y-109990000D01*
X164964857Y-110037619D01*
X164917238Y-110132857D01*
X164869619Y-110323333D01*
X164869619Y-110561429D01*
X164917238Y-110751905D01*
X164964857Y-110847143D01*
X165012476Y-110894762D01*
X165107714Y-110942381D01*
X165202953Y-110942381D01*
X165298191Y-110894762D01*
X165345810Y-110847143D01*
X165393429Y-110751905D01*
X165441048Y-110561429D01*
X165441048Y-110323333D01*
X165393429Y-110132857D01*
X165345810Y-110037619D01*
X165298191Y-109990000D01*
X165202953Y-109942381D01*
X164012476Y-110275714D02*
X164012476Y-110942381D01*
X164441048Y-110275714D02*
X164441048Y-110799524D01*
X164393429Y-110894762D01*
X164298191Y-110942381D01*
X164155333Y-110942381D01*
X164060095Y-110894762D01*
X164012476Y-110847143D01*
X163202952Y-110418571D02*
X163536286Y-110418571D01*
X163536286Y-110942381D02*
X163536286Y-109942381D01*
X163060095Y-109942381D01*
X161964857Y-109894762D02*
X162822000Y-111180476D01*
X161107714Y-110942381D02*
X161679143Y-110942381D01*
X161393429Y-110942381D02*
X161393429Y-109942381D01*
X161488667Y-110085238D01*
X161583905Y-110180476D01*
X161679143Y-110228095D01*
X160250571Y-109942381D02*
X160441048Y-109942381D01*
X160536286Y-109990000D01*
X160583905Y-110037619D01*
X160679143Y-110180476D01*
X160726762Y-110370952D01*
X160726762Y-110751905D01*
X160679143Y-110847143D01*
X160631524Y-110894762D01*
X160536286Y-110942381D01*
X160345809Y-110942381D01*
X160250571Y-110894762D01*
X160202952Y-110847143D01*
X160155333Y-110751905D01*
X160155333Y-110513810D01*
X160202952Y-110418571D01*
X160250571Y-110370952D01*
X160345809Y-110323333D01*
X160536286Y-110323333D01*
X160631524Y-110370952D01*
X160679143Y-110418571D01*
X160726762Y-110513810D01*
X159869619Y-109942381D02*
X159536286Y-110942381D01*
X159202952Y-109942381D01*
X167599810Y-138739619D02*
X167552191Y-138692000D01*
X167456953Y-138644381D01*
X167218857Y-138644381D01*
X167123619Y-138692000D01*
X167076000Y-138739619D01*
X167028381Y-138834857D01*
X167028381Y-138930095D01*
X167076000Y-139072952D01*
X167647429Y-139644381D01*
X167028381Y-139644381D01*
X166647429Y-138739619D02*
X166599810Y-138692000D01*
X166504572Y-138644381D01*
X166266476Y-138644381D01*
X166171238Y-138692000D01*
X166123619Y-138739619D01*
X166076000Y-138834857D01*
X166076000Y-138930095D01*
X166123619Y-139072952D01*
X166695048Y-139644381D01*
X166076000Y-139644381D01*
X165456953Y-138644381D02*
X165361714Y-138644381D01*
X165266476Y-138692000D01*
X165218857Y-138739619D01*
X165171238Y-138834857D01*
X165123619Y-139025333D01*
X165123619Y-139263429D01*
X165171238Y-139453905D01*
X165218857Y-139549143D01*
X165266476Y-139596762D01*
X165361714Y-139644381D01*
X165456953Y-139644381D01*
X165552191Y-139596762D01*
X165599810Y-139549143D01*
X165647429Y-139453905D01*
X165695048Y-139263429D01*
X165695048Y-139025333D01*
X165647429Y-138834857D01*
X165599810Y-138739619D01*
X165552191Y-138692000D01*
X165456953Y-138644381D01*
X164266476Y-138977714D02*
X164266476Y-139644381D01*
X164695048Y-138977714D02*
X164695048Y-139501524D01*
X164647429Y-139596762D01*
X164552191Y-139644381D01*
X164409333Y-139644381D01*
X164314095Y-139596762D01*
X164266476Y-139549143D01*
X163456952Y-139120571D02*
X163790286Y-139120571D01*
X163790286Y-139644381D02*
X163790286Y-138644381D01*
X163314095Y-138644381D01*
X162218857Y-138596762D02*
X163076000Y-139882476D01*
X161361714Y-139644381D02*
X161933143Y-139644381D01*
X161647429Y-139644381D02*
X161647429Y-138644381D01*
X161742667Y-138787238D01*
X161837905Y-138882476D01*
X161933143Y-138930095D01*
X160504571Y-138644381D02*
X160695048Y-138644381D01*
X160790286Y-138692000D01*
X160837905Y-138739619D01*
X160933143Y-138882476D01*
X160980762Y-139072952D01*
X160980762Y-139453905D01*
X160933143Y-139549143D01*
X160885524Y-139596762D01*
X160790286Y-139644381D01*
X160599809Y-139644381D01*
X160504571Y-139596762D01*
X160456952Y-139549143D01*
X160409333Y-139453905D01*
X160409333Y-139215810D01*
X160456952Y-139120571D01*
X160504571Y-139072952D01*
X160599809Y-139025333D01*
X160790286Y-139025333D01*
X160885524Y-139072952D01*
X160933143Y-139120571D01*
X160980762Y-139215810D01*
X160123619Y-138644381D02*
X159790286Y-139644381D01*
X159456952Y-138644381D01*
X167345810Y-79557619D02*
X167298191Y-79510000D01*
X167202953Y-79462381D01*
X166964857Y-79462381D01*
X166869619Y-79510000D01*
X166822000Y-79557619D01*
X166774381Y-79652857D01*
X166774381Y-79748095D01*
X166822000Y-79890952D01*
X167393429Y-80462381D01*
X166774381Y-80462381D01*
X166393429Y-79557619D02*
X166345810Y-79510000D01*
X166250572Y-79462381D01*
X166012476Y-79462381D01*
X165917238Y-79510000D01*
X165869619Y-79557619D01*
X165822000Y-79652857D01*
X165822000Y-79748095D01*
X165869619Y-79890952D01*
X166441048Y-80462381D01*
X165822000Y-80462381D01*
X165202953Y-79462381D02*
X165107714Y-79462381D01*
X165012476Y-79510000D01*
X164964857Y-79557619D01*
X164917238Y-79652857D01*
X164869619Y-79843333D01*
X164869619Y-80081429D01*
X164917238Y-80271905D01*
X164964857Y-80367143D01*
X165012476Y-80414762D01*
X165107714Y-80462381D01*
X165202953Y-80462381D01*
X165298191Y-80414762D01*
X165345810Y-80367143D01*
X165393429Y-80271905D01*
X165441048Y-80081429D01*
X165441048Y-79843333D01*
X165393429Y-79652857D01*
X165345810Y-79557619D01*
X165298191Y-79510000D01*
X165202953Y-79462381D01*
X164012476Y-79795714D02*
X164012476Y-80462381D01*
X164441048Y-79795714D02*
X164441048Y-80319524D01*
X164393429Y-80414762D01*
X164298191Y-80462381D01*
X164155333Y-80462381D01*
X164060095Y-80414762D01*
X164012476Y-80367143D01*
X163202952Y-79938571D02*
X163536286Y-79938571D01*
X163536286Y-80462381D02*
X163536286Y-79462381D01*
X163060095Y-79462381D01*
X161964857Y-79414762D02*
X162822000Y-80700476D01*
X161107714Y-80462381D02*
X161679143Y-80462381D01*
X161393429Y-80462381D02*
X161393429Y-79462381D01*
X161488667Y-79605238D01*
X161583905Y-79700476D01*
X161679143Y-79748095D01*
X160250571Y-79462381D02*
X160441048Y-79462381D01*
X160536286Y-79510000D01*
X160583905Y-79557619D01*
X160679143Y-79700476D01*
X160726762Y-79890952D01*
X160726762Y-80271905D01*
X160679143Y-80367143D01*
X160631524Y-80414762D01*
X160536286Y-80462381D01*
X160345809Y-80462381D01*
X160250571Y-80414762D01*
X160202952Y-80367143D01*
X160155333Y-80271905D01*
X160155333Y-80033810D01*
X160202952Y-79938571D01*
X160250571Y-79890952D01*
X160345809Y-79843333D01*
X160536286Y-79843333D01*
X160631524Y-79890952D01*
X160679143Y-79938571D01*
X160726762Y-80033810D01*
X159869619Y-79462381D02*
X159536286Y-80462381D01*
X159202952Y-79462381D01*
X187507619Y-88686190D02*
X187460000Y-88733809D01*
X187412381Y-88829047D01*
X187412381Y-89067143D01*
X187460000Y-89162381D01*
X187507619Y-89210000D01*
X187602857Y-89257619D01*
X187698095Y-89257619D01*
X187840952Y-89210000D01*
X188412381Y-88638571D01*
X188412381Y-89257619D01*
X187507619Y-89638571D02*
X187460000Y-89686190D01*
X187412381Y-89781428D01*
X187412381Y-90019524D01*
X187460000Y-90114762D01*
X187507619Y-90162381D01*
X187602857Y-90210000D01*
X187698095Y-90210000D01*
X187840952Y-90162381D01*
X188412381Y-89590952D01*
X188412381Y-90210000D01*
X187412381Y-90829047D02*
X187412381Y-90924286D01*
X187460000Y-91019524D01*
X187507619Y-91067143D01*
X187602857Y-91114762D01*
X187793333Y-91162381D01*
X188031429Y-91162381D01*
X188221905Y-91114762D01*
X188317143Y-91067143D01*
X188364762Y-91019524D01*
X188412381Y-90924286D01*
X188412381Y-90829047D01*
X188364762Y-90733809D01*
X188317143Y-90686190D01*
X188221905Y-90638571D01*
X188031429Y-90590952D01*
X187793333Y-90590952D01*
X187602857Y-90638571D01*
X187507619Y-90686190D01*
X187460000Y-90733809D01*
X187412381Y-90829047D01*
X187745714Y-92019524D02*
X188412381Y-92019524D01*
X187745714Y-91590952D02*
X188269524Y-91590952D01*
X188364762Y-91638571D01*
X188412381Y-91733809D01*
X188412381Y-91876667D01*
X188364762Y-91971905D01*
X188317143Y-92019524D01*
X187888571Y-92829048D02*
X187888571Y-92495714D01*
X188412381Y-92495714D02*
X187412381Y-92495714D01*
X187412381Y-92971905D01*
X187364762Y-94067143D02*
X188650476Y-93210000D01*
X188412381Y-94924286D02*
X188412381Y-94352857D01*
X188412381Y-94638571D02*
X187412381Y-94638571D01*
X187555238Y-94543333D01*
X187650476Y-94448095D01*
X187698095Y-94352857D01*
X187412381Y-95781429D02*
X187412381Y-95590952D01*
X187460000Y-95495714D01*
X187507619Y-95448095D01*
X187650476Y-95352857D01*
X187840952Y-95305238D01*
X188221905Y-95305238D01*
X188317143Y-95352857D01*
X188364762Y-95400476D01*
X188412381Y-95495714D01*
X188412381Y-95686191D01*
X188364762Y-95781429D01*
X188317143Y-95829048D01*
X188221905Y-95876667D01*
X187983810Y-95876667D01*
X187888571Y-95829048D01*
X187840952Y-95781429D01*
X187793333Y-95686191D01*
X187793333Y-95495714D01*
X187840952Y-95400476D01*
X187888571Y-95352857D01*
X187983810Y-95305238D01*
X187412381Y-96162381D02*
X188412381Y-96495714D01*
X187412381Y-96829048D01*
X176220381Y-122229810D02*
X175220381Y-122229810D01*
X175220381Y-122467905D01*
X175268000Y-122610763D01*
X175363238Y-122706001D01*
X175458476Y-122753620D01*
X175648952Y-122801239D01*
X175791810Y-122801239D01*
X175982286Y-122753620D01*
X176077524Y-122706001D01*
X176172762Y-122610763D01*
X176220381Y-122467905D01*
X176220381Y-122229810D01*
X176220381Y-123229810D02*
X175220381Y-123229810D01*
X175220381Y-123896476D02*
X175220381Y-124086953D01*
X175268000Y-124182191D01*
X175363238Y-124277429D01*
X175553714Y-124325048D01*
X175887048Y-124325048D01*
X176077524Y-124277429D01*
X176172762Y-124182191D01*
X176220381Y-124086953D01*
X176220381Y-123896476D01*
X176172762Y-123801238D01*
X176077524Y-123706000D01*
X175887048Y-123658381D01*
X175553714Y-123658381D01*
X175363238Y-123706000D01*
X175268000Y-123801238D01*
X175220381Y-123896476D01*
X176220381Y-124753619D02*
X175220381Y-124753619D01*
X175220381Y-124991714D01*
X175268000Y-125134572D01*
X175363238Y-125229810D01*
X175458476Y-125277429D01*
X175648952Y-125325048D01*
X175791810Y-125325048D01*
X175982286Y-125277429D01*
X176077524Y-125229810D01*
X176172762Y-125134572D01*
X176220381Y-124991714D01*
X176220381Y-124753619D01*
X175696571Y-125753619D02*
X175696571Y-126086953D01*
X176220381Y-126229810D02*
X176220381Y-125753619D01*
X175220381Y-125753619D01*
X175220381Y-126229810D01*
X152598381Y-118514953D02*
X152598381Y-117943524D01*
X152598381Y-118229238D02*
X151598381Y-118229238D01*
X151741238Y-118134000D01*
X151836476Y-118038762D01*
X151884095Y-117943524D01*
X151598381Y-119134000D02*
X151598381Y-119229239D01*
X151646000Y-119324477D01*
X151693619Y-119372096D01*
X151788857Y-119419715D01*
X151979333Y-119467334D01*
X152217429Y-119467334D01*
X152407905Y-119419715D01*
X152503143Y-119372096D01*
X152550762Y-119324477D01*
X152598381Y-119229239D01*
X152598381Y-119134000D01*
X152550762Y-119038762D01*
X152503143Y-118991143D01*
X152407905Y-118943524D01*
X152217429Y-118895905D01*
X151979333Y-118895905D01*
X151788857Y-118943524D01*
X151693619Y-118991143D01*
X151646000Y-119038762D01*
X151598381Y-119134000D01*
X151598381Y-120086381D02*
X151598381Y-120181620D01*
X151646000Y-120276858D01*
X151693619Y-120324477D01*
X151788857Y-120372096D01*
X151979333Y-120419715D01*
X152217429Y-120419715D01*
X152407905Y-120372096D01*
X152503143Y-120324477D01*
X152550762Y-120276858D01*
X152598381Y-120181620D01*
X152598381Y-120086381D01*
X152550762Y-119991143D01*
X152503143Y-119943524D01*
X152407905Y-119895905D01*
X152217429Y-119848286D01*
X151979333Y-119848286D01*
X151788857Y-119895905D01*
X151693619Y-119943524D01*
X151646000Y-119991143D01*
X151598381Y-120086381D01*
X151931714Y-120848286D02*
X152598381Y-120848286D01*
X152026952Y-120848286D02*
X151979333Y-120895905D01*
X151931714Y-120991143D01*
X151931714Y-121134001D01*
X151979333Y-121229239D01*
X152074571Y-121276858D01*
X152598381Y-121276858D01*
X151487047Y-79158781D02*
X152058476Y-79158781D01*
X151772762Y-79158781D02*
X151772762Y-78158781D01*
X151868000Y-78301638D01*
X151963238Y-78396876D01*
X152058476Y-78444495D01*
X150868000Y-78158781D02*
X150772761Y-78158781D01*
X150677523Y-78206400D01*
X150629904Y-78254019D01*
X150582285Y-78349257D01*
X150534666Y-78539733D01*
X150534666Y-78777829D01*
X150582285Y-78968305D01*
X150629904Y-79063543D01*
X150677523Y-79111162D01*
X150772761Y-79158781D01*
X150868000Y-79158781D01*
X150963238Y-79111162D01*
X151010857Y-79063543D01*
X151058476Y-78968305D01*
X151106095Y-78777829D01*
X151106095Y-78539733D01*
X151058476Y-78349257D01*
X151010857Y-78254019D01*
X150963238Y-78206400D01*
X150868000Y-78158781D01*
X149915619Y-78158781D02*
X149820380Y-78158781D01*
X149725142Y-78206400D01*
X149677523Y-78254019D01*
X149629904Y-78349257D01*
X149582285Y-78539733D01*
X149582285Y-78777829D01*
X149629904Y-78968305D01*
X149677523Y-79063543D01*
X149725142Y-79111162D01*
X149820380Y-79158781D01*
X149915619Y-79158781D01*
X150010857Y-79111162D01*
X150058476Y-79063543D01*
X150106095Y-78968305D01*
X150153714Y-78777829D01*
X150153714Y-78539733D01*
X150106095Y-78349257D01*
X150058476Y-78254019D01*
X150010857Y-78206400D01*
X149915619Y-78158781D01*
X149153714Y-78492114D02*
X149153714Y-79158781D01*
X149153714Y-78587352D02*
X149106095Y-78539733D01*
X149010857Y-78492114D01*
X148867999Y-78492114D01*
X148772761Y-78539733D01*
X148725142Y-78634971D01*
X148725142Y-79158781D01*
X191392381Y-117879953D02*
X191392381Y-117308524D01*
X191392381Y-117594238D02*
X190392381Y-117594238D01*
X190535238Y-117499000D01*
X190630476Y-117403762D01*
X190678095Y-117308524D01*
X190392381Y-118499000D02*
X190392381Y-118594239D01*
X190440000Y-118689477D01*
X190487619Y-118737096D01*
X190582857Y-118784715D01*
X190773333Y-118832334D01*
X191011429Y-118832334D01*
X191201905Y-118784715D01*
X191297143Y-118737096D01*
X191344762Y-118689477D01*
X191392381Y-118594239D01*
X191392381Y-118499000D01*
X191344762Y-118403762D01*
X191297143Y-118356143D01*
X191201905Y-118308524D01*
X191011429Y-118260905D01*
X190773333Y-118260905D01*
X190582857Y-118308524D01*
X190487619Y-118356143D01*
X190440000Y-118403762D01*
X190392381Y-118499000D01*
X190392381Y-119451381D02*
X190392381Y-119546620D01*
X190440000Y-119641858D01*
X190487619Y-119689477D01*
X190582857Y-119737096D01*
X190773333Y-119784715D01*
X191011429Y-119784715D01*
X191201905Y-119737096D01*
X191297143Y-119689477D01*
X191344762Y-119641858D01*
X191392381Y-119546620D01*
X191392381Y-119451381D01*
X191344762Y-119356143D01*
X191297143Y-119308524D01*
X191201905Y-119260905D01*
X191011429Y-119213286D01*
X190773333Y-119213286D01*
X190582857Y-119260905D01*
X190487619Y-119308524D01*
X190440000Y-119356143D01*
X190392381Y-119451381D01*
X190725714Y-120213286D02*
X191392381Y-120213286D01*
X190820952Y-120213286D02*
X190773333Y-120260905D01*
X190725714Y-120356143D01*
X190725714Y-120499001D01*
X190773333Y-120594239D01*
X190868571Y-120641858D01*
X191392381Y-120641858D01*
X194000381Y-83716953D02*
X194000381Y-83145524D01*
X194000381Y-83431238D02*
X193000381Y-83431238D01*
X193143238Y-83336000D01*
X193238476Y-83240762D01*
X193286095Y-83145524D01*
X193000381Y-84336000D02*
X193000381Y-84431239D01*
X193048000Y-84526477D01*
X193095619Y-84574096D01*
X193190857Y-84621715D01*
X193381333Y-84669334D01*
X193619429Y-84669334D01*
X193809905Y-84621715D01*
X193905143Y-84574096D01*
X193952762Y-84526477D01*
X194000381Y-84431239D01*
X194000381Y-84336000D01*
X193952762Y-84240762D01*
X193905143Y-84193143D01*
X193809905Y-84145524D01*
X193619429Y-84097905D01*
X193381333Y-84097905D01*
X193190857Y-84145524D01*
X193095619Y-84193143D01*
X193048000Y-84240762D01*
X193000381Y-84336000D01*
X193000381Y-85288381D02*
X193000381Y-85383620D01*
X193048000Y-85478858D01*
X193095619Y-85526477D01*
X193190857Y-85574096D01*
X193381333Y-85621715D01*
X193619429Y-85621715D01*
X193809905Y-85574096D01*
X193905143Y-85526477D01*
X193952762Y-85478858D01*
X194000381Y-85383620D01*
X194000381Y-85288381D01*
X193952762Y-85193143D01*
X193905143Y-85145524D01*
X193809905Y-85097905D01*
X193619429Y-85050286D01*
X193381333Y-85050286D01*
X193190857Y-85097905D01*
X193095619Y-85145524D01*
X193048000Y-85193143D01*
X193000381Y-85288381D01*
X193333714Y-86050286D02*
X194000381Y-86050286D01*
X193428952Y-86050286D02*
X193381333Y-86097905D01*
X193333714Y-86193143D01*
X193333714Y-86336001D01*
X193381333Y-86431239D01*
X193476571Y-86478858D01*
X194000381Y-86478858D01*
X104846381Y-149994953D02*
X104846381Y-149423524D01*
X104846381Y-149709238D02*
X103846381Y-149709238D01*
X103989238Y-149614000D01*
X104084476Y-149518762D01*
X104132095Y-149423524D01*
X104846381Y-150423524D02*
X103846381Y-150423524D01*
X104465429Y-150518762D02*
X104846381Y-150804477D01*
X104179714Y-150804477D02*
X104560667Y-150423524D01*
X109275619Y-147359905D02*
X109228000Y-147407524D01*
X109180381Y-147502762D01*
X109180381Y-147740858D01*
X109228000Y-147836096D01*
X109275619Y-147883715D01*
X109370857Y-147931334D01*
X109466095Y-147931334D01*
X109608952Y-147883715D01*
X110180381Y-147312286D01*
X110180381Y-147931334D01*
X109275619Y-148312286D02*
X109228000Y-148359905D01*
X109180381Y-148455143D01*
X109180381Y-148693239D01*
X109228000Y-148788477D01*
X109275619Y-148836096D01*
X109370857Y-148883715D01*
X109466095Y-148883715D01*
X109608952Y-148836096D01*
X110180381Y-148264667D01*
X110180381Y-148883715D01*
X109180381Y-149502762D02*
X109180381Y-149598001D01*
X109228000Y-149693239D01*
X109275619Y-149740858D01*
X109370857Y-149788477D01*
X109561333Y-149836096D01*
X109799429Y-149836096D01*
X109989905Y-149788477D01*
X110085143Y-149740858D01*
X110132762Y-149693239D01*
X110180381Y-149598001D01*
X110180381Y-149502762D01*
X110132762Y-149407524D01*
X110085143Y-149359905D01*
X109989905Y-149312286D01*
X109799429Y-149264667D01*
X109561333Y-149264667D01*
X109370857Y-149312286D01*
X109275619Y-149359905D01*
X109228000Y-149407524D01*
X109180381Y-149502762D01*
X110180381Y-150836096D02*
X109704190Y-150502762D01*
X110180381Y-150264667D02*
X109180381Y-150264667D01*
X109180381Y-150645620D01*
X109228000Y-150740858D01*
X109275619Y-150788477D01*
X109370857Y-150836096D01*
X109513714Y-150836096D01*
X109608952Y-150788477D01*
X109656571Y-150740858D01*
X109704190Y-150645620D01*
X109704190Y-150264667D01*
X116784381Y-150248953D02*
X116784381Y-149677524D01*
X116784381Y-149963238D02*
X115784381Y-149963238D01*
X115927238Y-149868000D01*
X116022476Y-149772762D01*
X116070095Y-149677524D01*
X116784381Y-150677524D02*
X115784381Y-150677524D01*
X116403429Y-150772762D02*
X116784381Y-151058477D01*
X116117714Y-151058477D02*
X116498667Y-150677524D01*
X120705619Y-147359905D02*
X120658000Y-147407524D01*
X120610381Y-147502762D01*
X120610381Y-147740858D01*
X120658000Y-147836096D01*
X120705619Y-147883715D01*
X120800857Y-147931334D01*
X120896095Y-147931334D01*
X121038952Y-147883715D01*
X121610381Y-147312286D01*
X121610381Y-147931334D01*
X120705619Y-148312286D02*
X120658000Y-148359905D01*
X120610381Y-148455143D01*
X120610381Y-148693239D01*
X120658000Y-148788477D01*
X120705619Y-148836096D01*
X120800857Y-148883715D01*
X120896095Y-148883715D01*
X121038952Y-148836096D01*
X121610381Y-148264667D01*
X121610381Y-148883715D01*
X120610381Y-149502762D02*
X120610381Y-149598001D01*
X120658000Y-149693239D01*
X120705619Y-149740858D01*
X120800857Y-149788477D01*
X120991333Y-149836096D01*
X121229429Y-149836096D01*
X121419905Y-149788477D01*
X121515143Y-149740858D01*
X121562762Y-149693239D01*
X121610381Y-149598001D01*
X121610381Y-149502762D01*
X121562762Y-149407524D01*
X121515143Y-149359905D01*
X121419905Y-149312286D01*
X121229429Y-149264667D01*
X120991333Y-149264667D01*
X120800857Y-149312286D01*
X120705619Y-149359905D01*
X120658000Y-149407524D01*
X120610381Y-149502762D01*
X121610381Y-150836096D02*
X121134190Y-150502762D01*
X121610381Y-150264667D02*
X120610381Y-150264667D01*
X120610381Y-150645620D01*
X120658000Y-150740858D01*
X120705619Y-150788477D01*
X120800857Y-150836096D01*
X120943714Y-150836096D01*
X121038952Y-150788477D01*
X121086571Y-150740858D01*
X121134190Y-150645620D01*
X121134190Y-150264667D01*
X128214381Y-150248953D02*
X128214381Y-149677524D01*
X128214381Y-149963238D02*
X127214381Y-149963238D01*
X127357238Y-149868000D01*
X127452476Y-149772762D01*
X127500095Y-149677524D01*
X128214381Y-150677524D02*
X127214381Y-150677524D01*
X127833429Y-150772762D02*
X128214381Y-151058477D01*
X127547714Y-151058477D02*
X127928667Y-150677524D01*
X132135619Y-147867905D02*
X132088000Y-147915524D01*
X132040381Y-148010762D01*
X132040381Y-148248858D01*
X132088000Y-148344096D01*
X132135619Y-148391715D01*
X132230857Y-148439334D01*
X132326095Y-148439334D01*
X132468952Y-148391715D01*
X133040381Y-147820286D01*
X133040381Y-148439334D01*
X132135619Y-148820286D02*
X132088000Y-148867905D01*
X132040381Y-148963143D01*
X132040381Y-149201239D01*
X132088000Y-149296477D01*
X132135619Y-149344096D01*
X132230857Y-149391715D01*
X132326095Y-149391715D01*
X132468952Y-149344096D01*
X133040381Y-148772667D01*
X133040381Y-149391715D01*
X132040381Y-150010762D02*
X132040381Y-150106001D01*
X132088000Y-150201239D01*
X132135619Y-150248858D01*
X132230857Y-150296477D01*
X132421333Y-150344096D01*
X132659429Y-150344096D01*
X132849905Y-150296477D01*
X132945143Y-150248858D01*
X132992762Y-150201239D01*
X133040381Y-150106001D01*
X133040381Y-150010762D01*
X132992762Y-149915524D01*
X132945143Y-149867905D01*
X132849905Y-149820286D01*
X132659429Y-149772667D01*
X132421333Y-149772667D01*
X132230857Y-149820286D01*
X132135619Y-149867905D01*
X132088000Y-149915524D01*
X132040381Y-150010762D01*
X133040381Y-151344096D02*
X132564190Y-151010762D01*
X133040381Y-150772667D02*
X132040381Y-150772667D01*
X132040381Y-151153620D01*
X132088000Y-151248858D01*
X132135619Y-151296477D01*
X132230857Y-151344096D01*
X132373714Y-151344096D01*
X132468952Y-151296477D01*
X132516571Y-151248858D01*
X132564190Y-151153620D01*
X132564190Y-150772667D01*
X139390381Y-150248953D02*
X139390381Y-149677524D01*
X139390381Y-149963238D02*
X138390381Y-149963238D01*
X138533238Y-149868000D01*
X138628476Y-149772762D01*
X138676095Y-149677524D01*
X139390381Y-150677524D02*
X138390381Y-150677524D01*
X139009429Y-150772762D02*
X139390381Y-151058477D01*
X138723714Y-151058477D02*
X139104667Y-150677524D01*
X143565619Y-147867905D02*
X143518000Y-147915524D01*
X143470381Y-148010762D01*
X143470381Y-148248858D01*
X143518000Y-148344096D01*
X143565619Y-148391715D01*
X143660857Y-148439334D01*
X143756095Y-148439334D01*
X143898952Y-148391715D01*
X144470381Y-147820286D01*
X144470381Y-148439334D01*
X143565619Y-148820286D02*
X143518000Y-148867905D01*
X143470381Y-148963143D01*
X143470381Y-149201239D01*
X143518000Y-149296477D01*
X143565619Y-149344096D01*
X143660857Y-149391715D01*
X143756095Y-149391715D01*
X143898952Y-149344096D01*
X144470381Y-148772667D01*
X144470381Y-149391715D01*
X143470381Y-150010762D02*
X143470381Y-150106001D01*
X143518000Y-150201239D01*
X143565619Y-150248858D01*
X143660857Y-150296477D01*
X143851333Y-150344096D01*
X144089429Y-150344096D01*
X144279905Y-150296477D01*
X144375143Y-150248858D01*
X144422762Y-150201239D01*
X144470381Y-150106001D01*
X144470381Y-150010762D01*
X144422762Y-149915524D01*
X144375143Y-149867905D01*
X144279905Y-149820286D01*
X144089429Y-149772667D01*
X143851333Y-149772667D01*
X143660857Y-149820286D01*
X143565619Y-149867905D01*
X143518000Y-149915524D01*
X143470381Y-150010762D01*
X144470381Y-151344096D02*
X143994190Y-151010762D01*
X144470381Y-150772667D02*
X143470381Y-150772667D01*
X143470381Y-151153620D01*
X143518000Y-151248858D01*
X143565619Y-151296477D01*
X143660857Y-151344096D01*
X143803714Y-151344096D01*
X143898952Y-151296477D01*
X143946571Y-151248858D01*
X143994190Y-151153620D01*
X143994190Y-150772667D01*
X151074381Y-150502953D02*
X151074381Y-149931524D01*
X151074381Y-150217238D02*
X150074381Y-150217238D01*
X150217238Y-150122000D01*
X150312476Y-150026762D01*
X150360095Y-149931524D01*
X151074381Y-150931524D02*
X150074381Y-150931524D01*
X150693429Y-151026762D02*
X151074381Y-151312477D01*
X150407714Y-151312477D02*
X150788667Y-150931524D01*
X154995619Y-147613905D02*
X154948000Y-147661524D01*
X154900381Y-147756762D01*
X154900381Y-147994858D01*
X154948000Y-148090096D01*
X154995619Y-148137715D01*
X155090857Y-148185334D01*
X155186095Y-148185334D01*
X155328952Y-148137715D01*
X155900381Y-147566286D01*
X155900381Y-148185334D01*
X154995619Y-148566286D02*
X154948000Y-148613905D01*
X154900381Y-148709143D01*
X154900381Y-148947239D01*
X154948000Y-149042477D01*
X154995619Y-149090096D01*
X155090857Y-149137715D01*
X155186095Y-149137715D01*
X155328952Y-149090096D01*
X155900381Y-148518667D01*
X155900381Y-149137715D01*
X154900381Y-149756762D02*
X154900381Y-149852001D01*
X154948000Y-149947239D01*
X154995619Y-149994858D01*
X155090857Y-150042477D01*
X155281333Y-150090096D01*
X155519429Y-150090096D01*
X155709905Y-150042477D01*
X155805143Y-149994858D01*
X155852762Y-149947239D01*
X155900381Y-149852001D01*
X155900381Y-149756762D01*
X155852762Y-149661524D01*
X155805143Y-149613905D01*
X155709905Y-149566286D01*
X155519429Y-149518667D01*
X155281333Y-149518667D01*
X155090857Y-149566286D01*
X154995619Y-149613905D01*
X154948000Y-149661524D01*
X154900381Y-149756762D01*
X155900381Y-151090096D02*
X155424190Y-150756762D01*
X155900381Y-150518667D02*
X154900381Y-150518667D01*
X154900381Y-150899620D01*
X154948000Y-150994858D01*
X154995619Y-151042477D01*
X155090857Y-151090096D01*
X155233714Y-151090096D01*
X155328952Y-151042477D01*
X155376571Y-150994858D01*
X155424190Y-150899620D01*
X155424190Y-150518667D01*
X162504381Y-150502953D02*
X162504381Y-149931524D01*
X162504381Y-150217238D02*
X161504381Y-150217238D01*
X161647238Y-150122000D01*
X161742476Y-150026762D01*
X161790095Y-149931524D01*
X162504381Y-150931524D02*
X161504381Y-150931524D01*
X162123429Y-151026762D02*
X162504381Y-151312477D01*
X161837714Y-151312477D02*
X162218667Y-150931524D01*
X166171619Y-147613905D02*
X166124000Y-147661524D01*
X166076381Y-147756762D01*
X166076381Y-147994858D01*
X166124000Y-148090096D01*
X166171619Y-148137715D01*
X166266857Y-148185334D01*
X166362095Y-148185334D01*
X166504952Y-148137715D01*
X167076381Y-147566286D01*
X167076381Y-148185334D01*
X166171619Y-148566286D02*
X166124000Y-148613905D01*
X166076381Y-148709143D01*
X166076381Y-148947239D01*
X166124000Y-149042477D01*
X166171619Y-149090096D01*
X166266857Y-149137715D01*
X166362095Y-149137715D01*
X166504952Y-149090096D01*
X167076381Y-148518667D01*
X167076381Y-149137715D01*
X166076381Y-149756762D02*
X166076381Y-149852001D01*
X166124000Y-149947239D01*
X166171619Y-149994858D01*
X166266857Y-150042477D01*
X166457333Y-150090096D01*
X166695429Y-150090096D01*
X166885905Y-150042477D01*
X166981143Y-149994858D01*
X167028762Y-149947239D01*
X167076381Y-149852001D01*
X167076381Y-149756762D01*
X167028762Y-149661524D01*
X166981143Y-149613905D01*
X166885905Y-149566286D01*
X166695429Y-149518667D01*
X166457333Y-149518667D01*
X166266857Y-149566286D01*
X166171619Y-149613905D01*
X166124000Y-149661524D01*
X166076381Y-149756762D01*
X167076381Y-151090096D02*
X166600190Y-150756762D01*
X167076381Y-150518667D02*
X166076381Y-150518667D01*
X166076381Y-150899620D01*
X166124000Y-150994858D01*
X166171619Y-151042477D01*
X166266857Y-151090096D01*
X166409714Y-151090096D01*
X166504952Y-151042477D01*
X166552571Y-150994858D01*
X166600190Y-150899620D01*
X166600190Y-150518667D01*
X173934381Y-150502953D02*
X173934381Y-149931524D01*
X173934381Y-150217238D02*
X172934381Y-150217238D01*
X173077238Y-150122000D01*
X173172476Y-150026762D01*
X173220095Y-149931524D01*
X173934381Y-150931524D02*
X172934381Y-150931524D01*
X173553429Y-151026762D02*
X173934381Y-151312477D01*
X173267714Y-151312477D02*
X173648667Y-150931524D01*
X177601619Y-147359905D02*
X177554000Y-147407524D01*
X177506381Y-147502762D01*
X177506381Y-147740858D01*
X177554000Y-147836096D01*
X177601619Y-147883715D01*
X177696857Y-147931334D01*
X177792095Y-147931334D01*
X177934952Y-147883715D01*
X178506381Y-147312286D01*
X178506381Y-147931334D01*
X177601619Y-148312286D02*
X177554000Y-148359905D01*
X177506381Y-148455143D01*
X177506381Y-148693239D01*
X177554000Y-148788477D01*
X177601619Y-148836096D01*
X177696857Y-148883715D01*
X177792095Y-148883715D01*
X177934952Y-148836096D01*
X178506381Y-148264667D01*
X178506381Y-148883715D01*
X177506381Y-149502762D02*
X177506381Y-149598001D01*
X177554000Y-149693239D01*
X177601619Y-149740858D01*
X177696857Y-149788477D01*
X177887333Y-149836096D01*
X178125429Y-149836096D01*
X178315905Y-149788477D01*
X178411143Y-149740858D01*
X178458762Y-149693239D01*
X178506381Y-149598001D01*
X178506381Y-149502762D01*
X178458762Y-149407524D01*
X178411143Y-149359905D01*
X178315905Y-149312286D01*
X178125429Y-149264667D01*
X177887333Y-149264667D01*
X177696857Y-149312286D01*
X177601619Y-149359905D01*
X177554000Y-149407524D01*
X177506381Y-149502762D01*
X178506381Y-150836096D02*
X178030190Y-150502762D01*
X178506381Y-150264667D02*
X177506381Y-150264667D01*
X177506381Y-150645620D01*
X177554000Y-150740858D01*
X177601619Y-150788477D01*
X177696857Y-150836096D01*
X177839714Y-150836096D01*
X177934952Y-150788477D01*
X177982571Y-150740858D01*
X178030190Y-150645620D01*
X178030190Y-150264667D01*
X185364381Y-150502953D02*
X185364381Y-149931524D01*
X185364381Y-150217238D02*
X184364381Y-150217238D01*
X184507238Y-150122000D01*
X184602476Y-150026762D01*
X184650095Y-149931524D01*
X185364381Y-150931524D02*
X184364381Y-150931524D01*
X184983429Y-151026762D02*
X185364381Y-151312477D01*
X184697714Y-151312477D02*
X185078667Y-150931524D01*
X190301619Y-144311905D02*
X190254000Y-144359524D01*
X190206381Y-144454762D01*
X190206381Y-144692858D01*
X190254000Y-144788096D01*
X190301619Y-144835715D01*
X190396857Y-144883334D01*
X190492095Y-144883334D01*
X190634952Y-144835715D01*
X191206381Y-144264286D01*
X191206381Y-144883334D01*
X190301619Y-145264286D02*
X190254000Y-145311905D01*
X190206381Y-145407143D01*
X190206381Y-145645239D01*
X190254000Y-145740477D01*
X190301619Y-145788096D01*
X190396857Y-145835715D01*
X190492095Y-145835715D01*
X190634952Y-145788096D01*
X191206381Y-145216667D01*
X191206381Y-145835715D01*
X190206381Y-146454762D02*
X190206381Y-146550001D01*
X190254000Y-146645239D01*
X190301619Y-146692858D01*
X190396857Y-146740477D01*
X190587333Y-146788096D01*
X190825429Y-146788096D01*
X191015905Y-146740477D01*
X191111143Y-146692858D01*
X191158762Y-146645239D01*
X191206381Y-146550001D01*
X191206381Y-146454762D01*
X191158762Y-146359524D01*
X191111143Y-146311905D01*
X191015905Y-146264286D01*
X190825429Y-146216667D01*
X190587333Y-146216667D01*
X190396857Y-146264286D01*
X190301619Y-146311905D01*
X190254000Y-146359524D01*
X190206381Y-146454762D01*
X191206381Y-147788096D02*
X190730190Y-147454762D01*
X191206381Y-147216667D02*
X190206381Y-147216667D01*
X190206381Y-147597620D01*
X190254000Y-147692858D01*
X190301619Y-147740477D01*
X190396857Y-147788096D01*
X190539714Y-147788096D01*
X190634952Y-147740477D01*
X190682571Y-147692858D01*
X190730190Y-147597620D01*
X190730190Y-147216667D01*
X107148095Y-122229619D02*
X107100476Y-122182000D01*
X107005238Y-122134381D01*
X106767142Y-122134381D01*
X106671904Y-122182000D01*
X106624285Y-122229619D01*
X106576666Y-122324857D01*
X106576666Y-122420095D01*
X106624285Y-122562952D01*
X107195714Y-123134381D01*
X106576666Y-123134381D01*
X106195714Y-122229619D02*
X106148095Y-122182000D01*
X106052857Y-122134381D01*
X105814761Y-122134381D01*
X105719523Y-122182000D01*
X105671904Y-122229619D01*
X105624285Y-122324857D01*
X105624285Y-122420095D01*
X105671904Y-122562952D01*
X106243333Y-123134381D01*
X105624285Y-123134381D01*
X105005238Y-122134381D02*
X104909999Y-122134381D01*
X104814761Y-122182000D01*
X104767142Y-122229619D01*
X104719523Y-122324857D01*
X104671904Y-122515333D01*
X104671904Y-122753429D01*
X104719523Y-122943905D01*
X104767142Y-123039143D01*
X104814761Y-123086762D01*
X104909999Y-123134381D01*
X105005238Y-123134381D01*
X105100476Y-123086762D01*
X105148095Y-123039143D01*
X105195714Y-122943905D01*
X105243333Y-122753429D01*
X105243333Y-122515333D01*
X105195714Y-122324857D01*
X105148095Y-122229619D01*
X105100476Y-122182000D01*
X105005238Y-122134381D01*
X103671904Y-123134381D02*
X104005238Y-122658190D01*
X104243333Y-123134381D02*
X104243333Y-122134381D01*
X103862380Y-122134381D01*
X103767142Y-122182000D01*
X103719523Y-122229619D01*
X103671904Y-122324857D01*
X103671904Y-122467714D01*
X103719523Y-122562952D01*
X103767142Y-122610571D01*
X103862380Y-122658190D01*
X104243333Y-122658190D01*
X104703619Y-56935905D02*
X104656000Y-56983524D01*
X104608381Y-57078762D01*
X104608381Y-57316858D01*
X104656000Y-57412096D01*
X104703619Y-57459715D01*
X104798857Y-57507334D01*
X104894095Y-57507334D01*
X105036952Y-57459715D01*
X105608381Y-56888286D01*
X105608381Y-57507334D01*
X104703619Y-57888286D02*
X104656000Y-57935905D01*
X104608381Y-58031143D01*
X104608381Y-58269239D01*
X104656000Y-58364477D01*
X104703619Y-58412096D01*
X104798857Y-58459715D01*
X104894095Y-58459715D01*
X105036952Y-58412096D01*
X105608381Y-57840667D01*
X105608381Y-58459715D01*
X104608381Y-59078762D02*
X104608381Y-59174001D01*
X104656000Y-59269239D01*
X104703619Y-59316858D01*
X104798857Y-59364477D01*
X104989333Y-59412096D01*
X105227429Y-59412096D01*
X105417905Y-59364477D01*
X105513143Y-59316858D01*
X105560762Y-59269239D01*
X105608381Y-59174001D01*
X105608381Y-59078762D01*
X105560762Y-58983524D01*
X105513143Y-58935905D01*
X105417905Y-58888286D01*
X105227429Y-58840667D01*
X104989333Y-58840667D01*
X104798857Y-58888286D01*
X104703619Y-58935905D01*
X104656000Y-58983524D01*
X104608381Y-59078762D01*
X105608381Y-60412096D02*
X105132190Y-60078762D01*
X105608381Y-59840667D02*
X104608381Y-59840667D01*
X104608381Y-60221620D01*
X104656000Y-60316858D01*
X104703619Y-60364477D01*
X104798857Y-60412096D01*
X104941714Y-60412096D01*
X105036952Y-60364477D01*
X105084571Y-60316858D01*
X105132190Y-60221620D01*
X105132190Y-59840667D01*
X175188191Y-139390381D02*
X174997715Y-139390381D01*
X174902476Y-139342762D01*
X174854857Y-139295143D01*
X174759619Y-139152286D01*
X174712000Y-138961810D01*
X174712000Y-138580857D01*
X174759619Y-138485619D01*
X174807238Y-138438000D01*
X174902476Y-138390381D01*
X175092953Y-138390381D01*
X175188191Y-138438000D01*
X175235810Y-138485619D01*
X175283429Y-138580857D01*
X175283429Y-138818952D01*
X175235810Y-138914190D01*
X175188191Y-138961810D01*
X175092953Y-139009429D01*
X174902476Y-139009429D01*
X174807238Y-138961810D01*
X174759619Y-138914190D01*
X174712000Y-138818952D01*
X174378667Y-138390381D02*
X173712000Y-138390381D01*
X174140572Y-139390381D01*
X172902476Y-138390381D02*
X173092953Y-138390381D01*
X173188191Y-138438000D01*
X173235810Y-138485619D01*
X173331048Y-138628476D01*
X173378667Y-138818952D01*
X173378667Y-139199905D01*
X173331048Y-139295143D01*
X173283429Y-139342762D01*
X173188191Y-139390381D01*
X172997714Y-139390381D01*
X172902476Y-139342762D01*
X172854857Y-139295143D01*
X172807238Y-139199905D01*
X172807238Y-138961810D01*
X172854857Y-138866571D01*
X172902476Y-138818952D01*
X172997714Y-138771333D01*
X173188191Y-138771333D01*
X173283429Y-138818952D01*
X173331048Y-138866571D01*
X173378667Y-138961810D01*
X172378667Y-139390381D02*
X172378667Y-138390381D01*
X172283429Y-139009429D02*
X171997714Y-139390381D01*
X171997714Y-138723714D02*
X172378667Y-139104667D01*
X170283428Y-139390381D02*
X170854857Y-139390381D01*
X170569143Y-139390381D02*
X170569143Y-138390381D01*
X170664381Y-138533238D01*
X170759619Y-138628476D01*
X170854857Y-138676095D01*
X169902476Y-139390381D02*
X169140571Y-138390381D01*
X169759619Y-138390381D02*
X169664381Y-138438000D01*
X169616762Y-138533238D01*
X169664381Y-138628476D01*
X169759619Y-138676095D01*
X169854857Y-138628476D01*
X169902476Y-138533238D01*
X169854857Y-138438000D01*
X169759619Y-138390381D01*
X169188190Y-139342762D02*
X169140571Y-139247524D01*
X169188190Y-139152286D01*
X169283428Y-139104667D01*
X169378666Y-139152286D01*
X169426285Y-139247524D01*
X169378666Y-139342762D01*
X169283428Y-139390381D01*
X169188190Y-139342762D01*
X182189048Y-137120381D02*
X181570000Y-137120381D01*
X181903334Y-137501333D01*
X181760476Y-137501333D01*
X181665238Y-137548952D01*
X181617619Y-137596571D01*
X181570000Y-137691810D01*
X181570000Y-137929905D01*
X181617619Y-138025143D01*
X181665238Y-138072762D01*
X181760476Y-138120381D01*
X182046191Y-138120381D01*
X182141429Y-138072762D01*
X182189048Y-138025143D01*
X180950953Y-137120381D02*
X180855714Y-137120381D01*
X180760476Y-137168000D01*
X180712857Y-137215619D01*
X180665238Y-137310857D01*
X180617619Y-137501333D01*
X180617619Y-137739429D01*
X180665238Y-137929905D01*
X180712857Y-138025143D01*
X180760476Y-138072762D01*
X180855714Y-138120381D01*
X180950953Y-138120381D01*
X181046191Y-138072762D01*
X181093810Y-138025143D01*
X181141429Y-137929905D01*
X181189048Y-137739429D01*
X181189048Y-137501333D01*
X181141429Y-137310857D01*
X181093810Y-137215619D01*
X181046191Y-137168000D01*
X180950953Y-137120381D01*
X180141429Y-138120381D02*
X179950953Y-138120381D01*
X179855714Y-138072762D01*
X179808095Y-138025143D01*
X179712857Y-137882286D01*
X179665238Y-137691810D01*
X179665238Y-137310857D01*
X179712857Y-137215619D01*
X179760476Y-137168000D01*
X179855714Y-137120381D01*
X180046191Y-137120381D01*
X180141429Y-137168000D01*
X180189048Y-137215619D01*
X180236667Y-137310857D01*
X180236667Y-137548952D01*
X180189048Y-137644190D01*
X180141429Y-137691810D01*
X180046191Y-137739429D01*
X179855714Y-137739429D01*
X179760476Y-137691810D01*
X179712857Y-137644190D01*
X179665238Y-137548952D01*
X179236667Y-138120381D02*
X179236667Y-137120381D01*
X179141429Y-137739429D02*
X178855714Y-138120381D01*
X178855714Y-137453714D02*
X179236667Y-137834667D01*
X177141428Y-138120381D02*
X177712857Y-138120381D01*
X177427143Y-138120381D02*
X177427143Y-137120381D01*
X177522381Y-137263238D01*
X177617619Y-137358476D01*
X177712857Y-137406095D01*
X176760476Y-138120381D02*
X175998571Y-137120381D01*
X176617619Y-137120381D02*
X176522381Y-137168000D01*
X176474762Y-137263238D01*
X176522381Y-137358476D01*
X176617619Y-137406095D01*
X176712857Y-137358476D01*
X176760476Y-137263238D01*
X176712857Y-137168000D01*
X176617619Y-137120381D01*
X176046190Y-138072762D02*
X175998571Y-137977524D01*
X176046190Y-137882286D01*
X176141428Y-137834667D01*
X176236666Y-137882286D01*
X176284285Y-137977524D01*
X176236666Y-138072762D01*
X176141428Y-138120381D01*
X176046190Y-138072762D01*
X109926381Y-59570953D02*
X109926381Y-58999524D01*
X109926381Y-59285238D02*
X108926381Y-59285238D01*
X109069238Y-59190000D01*
X109164476Y-59094762D01*
X109212095Y-58999524D01*
X109926381Y-59999524D02*
X108926381Y-59999524D01*
X109545429Y-60094762D02*
X109926381Y-60380477D01*
X109259714Y-60380477D02*
X109640667Y-59999524D01*
X116133619Y-56935905D02*
X116086000Y-56983524D01*
X116038381Y-57078762D01*
X116038381Y-57316858D01*
X116086000Y-57412096D01*
X116133619Y-57459715D01*
X116228857Y-57507334D01*
X116324095Y-57507334D01*
X116466952Y-57459715D01*
X117038381Y-56888286D01*
X117038381Y-57507334D01*
X116133619Y-57888286D02*
X116086000Y-57935905D01*
X116038381Y-58031143D01*
X116038381Y-58269239D01*
X116086000Y-58364477D01*
X116133619Y-58412096D01*
X116228857Y-58459715D01*
X116324095Y-58459715D01*
X116466952Y-58412096D01*
X117038381Y-57840667D01*
X117038381Y-58459715D01*
X116038381Y-59078762D02*
X116038381Y-59174001D01*
X116086000Y-59269239D01*
X116133619Y-59316858D01*
X116228857Y-59364477D01*
X116419333Y-59412096D01*
X116657429Y-59412096D01*
X116847905Y-59364477D01*
X116943143Y-59316858D01*
X116990762Y-59269239D01*
X117038381Y-59174001D01*
X117038381Y-59078762D01*
X116990762Y-58983524D01*
X116943143Y-58935905D01*
X116847905Y-58888286D01*
X116657429Y-58840667D01*
X116419333Y-58840667D01*
X116228857Y-58888286D01*
X116133619Y-58935905D01*
X116086000Y-58983524D01*
X116038381Y-59078762D01*
X117038381Y-60412096D02*
X116562190Y-60078762D01*
X117038381Y-59840667D02*
X116038381Y-59840667D01*
X116038381Y-60221620D01*
X116086000Y-60316858D01*
X116133619Y-60364477D01*
X116228857Y-60412096D01*
X116371714Y-60412096D01*
X116466952Y-60364477D01*
X116514571Y-60316858D01*
X116562190Y-60221620D01*
X116562190Y-59840667D01*
X121102381Y-59570953D02*
X121102381Y-58999524D01*
X121102381Y-59285238D02*
X120102381Y-59285238D01*
X120245238Y-59190000D01*
X120340476Y-59094762D01*
X120388095Y-58999524D01*
X121102381Y-59999524D02*
X120102381Y-59999524D01*
X120721429Y-60094762D02*
X121102381Y-60380477D01*
X120435714Y-60380477D02*
X120816667Y-59999524D01*
X127563619Y-56681905D02*
X127516000Y-56729524D01*
X127468381Y-56824762D01*
X127468381Y-57062858D01*
X127516000Y-57158096D01*
X127563619Y-57205715D01*
X127658857Y-57253334D01*
X127754095Y-57253334D01*
X127896952Y-57205715D01*
X128468381Y-56634286D01*
X128468381Y-57253334D01*
X127563619Y-57634286D02*
X127516000Y-57681905D01*
X127468381Y-57777143D01*
X127468381Y-58015239D01*
X127516000Y-58110477D01*
X127563619Y-58158096D01*
X127658857Y-58205715D01*
X127754095Y-58205715D01*
X127896952Y-58158096D01*
X128468381Y-57586667D01*
X128468381Y-58205715D01*
X127468381Y-58824762D02*
X127468381Y-58920001D01*
X127516000Y-59015239D01*
X127563619Y-59062858D01*
X127658857Y-59110477D01*
X127849333Y-59158096D01*
X128087429Y-59158096D01*
X128277905Y-59110477D01*
X128373143Y-59062858D01*
X128420762Y-59015239D01*
X128468381Y-58920001D01*
X128468381Y-58824762D01*
X128420762Y-58729524D01*
X128373143Y-58681905D01*
X128277905Y-58634286D01*
X128087429Y-58586667D01*
X127849333Y-58586667D01*
X127658857Y-58634286D01*
X127563619Y-58681905D01*
X127516000Y-58729524D01*
X127468381Y-58824762D01*
X128468381Y-60158096D02*
X127992190Y-59824762D01*
X128468381Y-59586667D02*
X127468381Y-59586667D01*
X127468381Y-59967620D01*
X127516000Y-60062858D01*
X127563619Y-60110477D01*
X127658857Y-60158096D01*
X127801714Y-60158096D01*
X127896952Y-60110477D01*
X127944571Y-60062858D01*
X127992190Y-59967620D01*
X127992190Y-59586667D01*
X132786381Y-59316953D02*
X132786381Y-58745524D01*
X132786381Y-59031238D02*
X131786381Y-59031238D01*
X131929238Y-58936000D01*
X132024476Y-58840762D01*
X132072095Y-58745524D01*
X132786381Y-59745524D02*
X131786381Y-59745524D01*
X132405429Y-59840762D02*
X132786381Y-60126477D01*
X132119714Y-60126477D02*
X132500667Y-59745524D01*
X138993619Y-56681905D02*
X138946000Y-56729524D01*
X138898381Y-56824762D01*
X138898381Y-57062858D01*
X138946000Y-57158096D01*
X138993619Y-57205715D01*
X139088857Y-57253334D01*
X139184095Y-57253334D01*
X139326952Y-57205715D01*
X139898381Y-56634286D01*
X139898381Y-57253334D01*
X138993619Y-57634286D02*
X138946000Y-57681905D01*
X138898381Y-57777143D01*
X138898381Y-58015239D01*
X138946000Y-58110477D01*
X138993619Y-58158096D01*
X139088857Y-58205715D01*
X139184095Y-58205715D01*
X139326952Y-58158096D01*
X139898381Y-57586667D01*
X139898381Y-58205715D01*
X138898381Y-58824762D02*
X138898381Y-58920001D01*
X138946000Y-59015239D01*
X138993619Y-59062858D01*
X139088857Y-59110477D01*
X139279333Y-59158096D01*
X139517429Y-59158096D01*
X139707905Y-59110477D01*
X139803143Y-59062858D01*
X139850762Y-59015239D01*
X139898381Y-58920001D01*
X139898381Y-58824762D01*
X139850762Y-58729524D01*
X139803143Y-58681905D01*
X139707905Y-58634286D01*
X139517429Y-58586667D01*
X139279333Y-58586667D01*
X139088857Y-58634286D01*
X138993619Y-58681905D01*
X138946000Y-58729524D01*
X138898381Y-58824762D01*
X139898381Y-60158096D02*
X139422190Y-59824762D01*
X139898381Y-59586667D02*
X138898381Y-59586667D01*
X138898381Y-59967620D01*
X138946000Y-60062858D01*
X138993619Y-60110477D01*
X139088857Y-60158096D01*
X139231714Y-60158096D01*
X139326952Y-60110477D01*
X139374571Y-60062858D01*
X139422190Y-59967620D01*
X139422190Y-59586667D01*
X143962381Y-59316953D02*
X143962381Y-58745524D01*
X143962381Y-59031238D02*
X142962381Y-59031238D01*
X143105238Y-58936000D01*
X143200476Y-58840762D01*
X143248095Y-58745524D01*
X143962381Y-59745524D02*
X142962381Y-59745524D01*
X143581429Y-59840762D02*
X143962381Y-60126477D01*
X143295714Y-60126477D02*
X143676667Y-59745524D01*
X150423619Y-56935905D02*
X150376000Y-56983524D01*
X150328381Y-57078762D01*
X150328381Y-57316858D01*
X150376000Y-57412096D01*
X150423619Y-57459715D01*
X150518857Y-57507334D01*
X150614095Y-57507334D01*
X150756952Y-57459715D01*
X151328381Y-56888286D01*
X151328381Y-57507334D01*
X150423619Y-57888286D02*
X150376000Y-57935905D01*
X150328381Y-58031143D01*
X150328381Y-58269239D01*
X150376000Y-58364477D01*
X150423619Y-58412096D01*
X150518857Y-58459715D01*
X150614095Y-58459715D01*
X150756952Y-58412096D01*
X151328381Y-57840667D01*
X151328381Y-58459715D01*
X150328381Y-59078762D02*
X150328381Y-59174001D01*
X150376000Y-59269239D01*
X150423619Y-59316858D01*
X150518857Y-59364477D01*
X150709333Y-59412096D01*
X150947429Y-59412096D01*
X151137905Y-59364477D01*
X151233143Y-59316858D01*
X151280762Y-59269239D01*
X151328381Y-59174001D01*
X151328381Y-59078762D01*
X151280762Y-58983524D01*
X151233143Y-58935905D01*
X151137905Y-58888286D01*
X150947429Y-58840667D01*
X150709333Y-58840667D01*
X150518857Y-58888286D01*
X150423619Y-58935905D01*
X150376000Y-58983524D01*
X150328381Y-59078762D01*
X151328381Y-60412096D02*
X150852190Y-60078762D01*
X151328381Y-59840667D02*
X150328381Y-59840667D01*
X150328381Y-60221620D01*
X150376000Y-60316858D01*
X150423619Y-60364477D01*
X150518857Y-60412096D01*
X150661714Y-60412096D01*
X150756952Y-60364477D01*
X150804571Y-60316858D01*
X150852190Y-60221620D01*
X150852190Y-59840667D01*
X155646381Y-59316953D02*
X155646381Y-58745524D01*
X155646381Y-59031238D02*
X154646381Y-59031238D01*
X154789238Y-58936000D01*
X154884476Y-58840762D01*
X154932095Y-58745524D01*
X155646381Y-59745524D02*
X154646381Y-59745524D01*
X155265429Y-59840762D02*
X155646381Y-60126477D01*
X154979714Y-60126477D02*
X155360667Y-59745524D01*
X161853619Y-56681905D02*
X161806000Y-56729524D01*
X161758381Y-56824762D01*
X161758381Y-57062858D01*
X161806000Y-57158096D01*
X161853619Y-57205715D01*
X161948857Y-57253334D01*
X162044095Y-57253334D01*
X162186952Y-57205715D01*
X162758381Y-56634286D01*
X162758381Y-57253334D01*
X161853619Y-57634286D02*
X161806000Y-57681905D01*
X161758381Y-57777143D01*
X161758381Y-58015239D01*
X161806000Y-58110477D01*
X161853619Y-58158096D01*
X161948857Y-58205715D01*
X162044095Y-58205715D01*
X162186952Y-58158096D01*
X162758381Y-57586667D01*
X162758381Y-58205715D01*
X161758381Y-58824762D02*
X161758381Y-58920001D01*
X161806000Y-59015239D01*
X161853619Y-59062858D01*
X161948857Y-59110477D01*
X162139333Y-59158096D01*
X162377429Y-59158096D01*
X162567905Y-59110477D01*
X162663143Y-59062858D01*
X162710762Y-59015239D01*
X162758381Y-58920001D01*
X162758381Y-58824762D01*
X162710762Y-58729524D01*
X162663143Y-58681905D01*
X162567905Y-58634286D01*
X162377429Y-58586667D01*
X162139333Y-58586667D01*
X161948857Y-58634286D01*
X161853619Y-58681905D01*
X161806000Y-58729524D01*
X161758381Y-58824762D01*
X162758381Y-60158096D02*
X162282190Y-59824762D01*
X162758381Y-59586667D02*
X161758381Y-59586667D01*
X161758381Y-59967620D01*
X161806000Y-60062858D01*
X161853619Y-60110477D01*
X161948857Y-60158096D01*
X162091714Y-60158096D01*
X162186952Y-60110477D01*
X162234571Y-60062858D01*
X162282190Y-59967620D01*
X162282190Y-59586667D01*
X167076381Y-59316953D02*
X167076381Y-58745524D01*
X167076381Y-59031238D02*
X166076381Y-59031238D01*
X166219238Y-58936000D01*
X166314476Y-58840762D01*
X166362095Y-58745524D01*
X167076381Y-59745524D02*
X166076381Y-59745524D01*
X166695429Y-59840762D02*
X167076381Y-60126477D01*
X166409714Y-60126477D02*
X166790667Y-59745524D01*
X171505619Y-60999905D02*
X171458000Y-61047524D01*
X171410381Y-61142762D01*
X171410381Y-61380858D01*
X171458000Y-61476096D01*
X171505619Y-61523715D01*
X171600857Y-61571334D01*
X171696095Y-61571334D01*
X171838952Y-61523715D01*
X172410381Y-60952286D01*
X172410381Y-61571334D01*
X171505619Y-61952286D02*
X171458000Y-61999905D01*
X171410381Y-62095143D01*
X171410381Y-62333239D01*
X171458000Y-62428477D01*
X171505619Y-62476096D01*
X171600857Y-62523715D01*
X171696095Y-62523715D01*
X171838952Y-62476096D01*
X172410381Y-61904667D01*
X172410381Y-62523715D01*
X171410381Y-63142762D02*
X171410381Y-63238001D01*
X171458000Y-63333239D01*
X171505619Y-63380858D01*
X171600857Y-63428477D01*
X171791333Y-63476096D01*
X172029429Y-63476096D01*
X172219905Y-63428477D01*
X172315143Y-63380858D01*
X172362762Y-63333239D01*
X172410381Y-63238001D01*
X172410381Y-63142762D01*
X172362762Y-63047524D01*
X172315143Y-62999905D01*
X172219905Y-62952286D01*
X172029429Y-62904667D01*
X171791333Y-62904667D01*
X171600857Y-62952286D01*
X171505619Y-62999905D01*
X171458000Y-63047524D01*
X171410381Y-63142762D01*
X172410381Y-64476096D02*
X171934190Y-64142762D01*
X172410381Y-63904667D02*
X171410381Y-63904667D01*
X171410381Y-64285620D01*
X171458000Y-64380858D01*
X171505619Y-64428477D01*
X171600857Y-64476096D01*
X171743714Y-64476096D01*
X171838952Y-64428477D01*
X171886571Y-64380858D01*
X171934190Y-64285620D01*
X171934190Y-63904667D01*
X175887047Y-64968381D02*
X176458476Y-64968381D01*
X176172762Y-64968381D02*
X176172762Y-63968381D01*
X176268000Y-64111238D01*
X176363238Y-64206476D01*
X176458476Y-64254095D01*
X175458476Y-64968381D02*
X175458476Y-63968381D01*
X175363238Y-64587429D02*
X175077523Y-64968381D01*
X175077523Y-64301714D02*
X175458476Y-64682667D01*
X185983619Y-60999905D02*
X185936000Y-61047524D01*
X185888381Y-61142762D01*
X185888381Y-61380858D01*
X185936000Y-61476096D01*
X185983619Y-61523715D01*
X186078857Y-61571334D01*
X186174095Y-61571334D01*
X186316952Y-61523715D01*
X186888381Y-60952286D01*
X186888381Y-61571334D01*
X185983619Y-61952286D02*
X185936000Y-61999905D01*
X185888381Y-62095143D01*
X185888381Y-62333239D01*
X185936000Y-62428477D01*
X185983619Y-62476096D01*
X186078857Y-62523715D01*
X186174095Y-62523715D01*
X186316952Y-62476096D01*
X186888381Y-61904667D01*
X186888381Y-62523715D01*
X185888381Y-63142762D02*
X185888381Y-63238001D01*
X185936000Y-63333239D01*
X185983619Y-63380858D01*
X186078857Y-63428477D01*
X186269333Y-63476096D01*
X186507429Y-63476096D01*
X186697905Y-63428477D01*
X186793143Y-63380858D01*
X186840762Y-63333239D01*
X186888381Y-63238001D01*
X186888381Y-63142762D01*
X186840762Y-63047524D01*
X186793143Y-62999905D01*
X186697905Y-62952286D01*
X186507429Y-62904667D01*
X186269333Y-62904667D01*
X186078857Y-62952286D01*
X185983619Y-62999905D01*
X185936000Y-63047524D01*
X185888381Y-63142762D01*
X186888381Y-64476096D02*
X186412190Y-64142762D01*
X186888381Y-63904667D02*
X185888381Y-63904667D01*
X185888381Y-64285620D01*
X185936000Y-64380858D01*
X185983619Y-64428477D01*
X186078857Y-64476096D01*
X186221714Y-64476096D01*
X186316952Y-64428477D01*
X186364571Y-64380858D01*
X186412190Y-64285620D01*
X186412190Y-63904667D01*
X178173047Y-64968381D02*
X178744476Y-64968381D01*
X178458762Y-64968381D02*
X178458762Y-63968381D01*
X178554000Y-64111238D01*
X178649238Y-64206476D01*
X178744476Y-64254095D01*
X177744476Y-64968381D02*
X177744476Y-63968381D01*
X177649238Y-64587429D02*
X177363523Y-64968381D01*
X177363523Y-64301714D02*
X177744476Y-64682667D01*
X196207047Y-72080381D02*
X196778476Y-72080381D01*
X196492762Y-72080381D02*
X196492762Y-71080381D01*
X196588000Y-71223238D01*
X196683238Y-71318476D01*
X196778476Y-71366095D01*
X195778476Y-72080381D02*
X195778476Y-71080381D01*
X195683238Y-71699429D02*
X195397523Y-72080381D01*
X195397523Y-71413714D02*
X195778476Y-71794667D01*
X196207047Y-74366381D02*
X196778476Y-74366381D01*
X196492762Y-74366381D02*
X196492762Y-73366381D01*
X196588000Y-73509238D01*
X196683238Y-73604476D01*
X196778476Y-73652095D01*
X195778476Y-74366381D02*
X195778476Y-73366381D01*
X195683238Y-73985429D02*
X195397523Y-74366381D01*
X195397523Y-73699714D02*
X195778476Y-74080667D01*
X104227238Y-98242381D02*
X104798667Y-98242381D01*
X104512953Y-98242381D02*
X104512953Y-97242381D01*
X104608191Y-97385238D01*
X104703429Y-97480476D01*
X104798667Y-97528095D01*
X103608191Y-97242381D02*
X103512952Y-97242381D01*
X103417714Y-97290000D01*
X103370095Y-97337619D01*
X103322476Y-97432857D01*
X103274857Y-97623333D01*
X103274857Y-97861429D01*
X103322476Y-98051905D01*
X103370095Y-98147143D01*
X103417714Y-98194762D01*
X103512952Y-98242381D01*
X103608191Y-98242381D01*
X103703429Y-98194762D01*
X103751048Y-98147143D01*
X103798667Y-98051905D01*
X103846286Y-97861429D01*
X103846286Y-97623333D01*
X103798667Y-97432857D01*
X103751048Y-97337619D01*
X103703429Y-97290000D01*
X103608191Y-97242381D01*
X102846286Y-98242381D02*
X102846286Y-97242381D01*
X102751048Y-97861429D02*
X102465333Y-98242381D01*
X102465333Y-97575714D02*
X102846286Y-97956667D01*
X109561238Y-98242381D02*
X110132667Y-98242381D01*
X109846953Y-98242381D02*
X109846953Y-97242381D01*
X109942191Y-97385238D01*
X110037429Y-97480476D01*
X110132667Y-97528095D01*
X108942191Y-97242381D02*
X108846952Y-97242381D01*
X108751714Y-97290000D01*
X108704095Y-97337619D01*
X108656476Y-97432857D01*
X108608857Y-97623333D01*
X108608857Y-97861429D01*
X108656476Y-98051905D01*
X108704095Y-98147143D01*
X108751714Y-98194762D01*
X108846952Y-98242381D01*
X108942191Y-98242381D01*
X109037429Y-98194762D01*
X109085048Y-98147143D01*
X109132667Y-98051905D01*
X109180286Y-97861429D01*
X109180286Y-97623333D01*
X109132667Y-97432857D01*
X109085048Y-97337619D01*
X109037429Y-97290000D01*
X108942191Y-97242381D01*
X108180286Y-98242381D02*
X108180286Y-97242381D01*
X108085048Y-97861429D02*
X107799333Y-98242381D01*
X107799333Y-97575714D02*
X108180286Y-97956667D01*
X116927238Y-98242381D02*
X117498667Y-98242381D01*
X117212953Y-98242381D02*
X117212953Y-97242381D01*
X117308191Y-97385238D01*
X117403429Y-97480476D01*
X117498667Y-97528095D01*
X116308191Y-97242381D02*
X116212952Y-97242381D01*
X116117714Y-97290000D01*
X116070095Y-97337619D01*
X116022476Y-97432857D01*
X115974857Y-97623333D01*
X115974857Y-97861429D01*
X116022476Y-98051905D01*
X116070095Y-98147143D01*
X116117714Y-98194762D01*
X116212952Y-98242381D01*
X116308191Y-98242381D01*
X116403429Y-98194762D01*
X116451048Y-98147143D01*
X116498667Y-98051905D01*
X116546286Y-97861429D01*
X116546286Y-97623333D01*
X116498667Y-97432857D01*
X116451048Y-97337619D01*
X116403429Y-97290000D01*
X116308191Y-97242381D01*
X115546286Y-98242381D02*
X115546286Y-97242381D01*
X115451048Y-97861429D02*
X115165333Y-98242381D01*
X115165333Y-97575714D02*
X115546286Y-97956667D01*
X149185238Y-98242381D02*
X149756667Y-98242381D01*
X149470953Y-98242381D02*
X149470953Y-97242381D01*
X149566191Y-97385238D01*
X149661429Y-97480476D01*
X149756667Y-97528095D01*
X148566191Y-97242381D02*
X148470952Y-97242381D01*
X148375714Y-97290000D01*
X148328095Y-97337619D01*
X148280476Y-97432857D01*
X148232857Y-97623333D01*
X148232857Y-97861429D01*
X148280476Y-98051905D01*
X148328095Y-98147143D01*
X148375714Y-98194762D01*
X148470952Y-98242381D01*
X148566191Y-98242381D01*
X148661429Y-98194762D01*
X148709048Y-98147143D01*
X148756667Y-98051905D01*
X148804286Y-97861429D01*
X148804286Y-97623333D01*
X148756667Y-97432857D01*
X148709048Y-97337619D01*
X148661429Y-97290000D01*
X148566191Y-97242381D01*
X147804286Y-98242381D02*
X147804286Y-97242381D01*
X147709048Y-97861429D02*
X147423333Y-98242381D01*
X147423333Y-97575714D02*
X147804286Y-97956667D01*
X160393047Y-85796381D02*
X160964476Y-85796381D01*
X160678762Y-85796381D02*
X160678762Y-84796381D01*
X160774000Y-84939238D01*
X160869238Y-85034476D01*
X160964476Y-85082095D01*
X159964476Y-85796381D02*
X159964476Y-84796381D01*
X159869238Y-85415429D02*
X159583523Y-85796381D01*
X159583523Y-85129714D02*
X159964476Y-85510667D01*
X160393047Y-88082381D02*
X160964476Y-88082381D01*
X160678762Y-88082381D02*
X160678762Y-87082381D01*
X160774000Y-87225238D01*
X160869238Y-87320476D01*
X160964476Y-87368095D01*
X159964476Y-88082381D02*
X159964476Y-87082381D01*
X159869238Y-87701429D02*
X159583523Y-88082381D01*
X159583523Y-87415714D02*
X159964476Y-87796667D01*
X160393047Y-90622381D02*
X160964476Y-90622381D01*
X160678762Y-90622381D02*
X160678762Y-89622381D01*
X160774000Y-89765238D01*
X160869238Y-89860476D01*
X160964476Y-89908095D01*
X159964476Y-90622381D02*
X159964476Y-89622381D01*
X159869238Y-90241429D02*
X159583523Y-90622381D01*
X159583523Y-89955714D02*
X159964476Y-90336667D01*
X160393047Y-93162381D02*
X160964476Y-93162381D01*
X160678762Y-93162381D02*
X160678762Y-92162381D01*
X160774000Y-92305238D01*
X160869238Y-92400476D01*
X160964476Y-92448095D01*
X159964476Y-93162381D02*
X159964476Y-92162381D01*
X159869238Y-92781429D02*
X159583523Y-93162381D01*
X159583523Y-92495714D02*
X159964476Y-92876667D01*
X160393047Y-95702381D02*
X160964476Y-95702381D01*
X160678762Y-95702381D02*
X160678762Y-94702381D01*
X160774000Y-94845238D01*
X160869238Y-94940476D01*
X160964476Y-94988095D01*
X159964476Y-95702381D02*
X159964476Y-94702381D01*
X159869238Y-95321429D02*
X159583523Y-95702381D01*
X159583523Y-95035714D02*
X159964476Y-95416667D01*
X160393047Y-98242381D02*
X160964476Y-98242381D01*
X160678762Y-98242381D02*
X160678762Y-97242381D01*
X160774000Y-97385238D01*
X160869238Y-97480476D01*
X160964476Y-97528095D01*
X159964476Y-98242381D02*
X159964476Y-97242381D01*
X159869238Y-97861429D02*
X159583523Y-98242381D01*
X159583523Y-97575714D02*
X159964476Y-97956667D01*
X160393047Y-100782381D02*
X160964476Y-100782381D01*
X160678762Y-100782381D02*
X160678762Y-99782381D01*
X160774000Y-99925238D01*
X160869238Y-100020476D01*
X160964476Y-100068095D01*
X159964476Y-100782381D02*
X159964476Y-99782381D01*
X159869238Y-100401429D02*
X159583523Y-100782381D01*
X159583523Y-100115714D02*
X159964476Y-100496667D01*
X105032381Y-84748762D02*
X105032381Y-84177333D01*
X105032381Y-84463047D02*
X104032381Y-84463047D01*
X104175238Y-84367809D01*
X104270476Y-84272571D01*
X104318095Y-84177333D01*
X104032381Y-85367809D02*
X104032381Y-85463048D01*
X104080000Y-85558286D01*
X104127619Y-85605905D01*
X104222857Y-85653524D01*
X104413333Y-85701143D01*
X104651429Y-85701143D01*
X104841905Y-85653524D01*
X104937143Y-85605905D01*
X104984762Y-85558286D01*
X105032381Y-85463048D01*
X105032381Y-85367809D01*
X104984762Y-85272571D01*
X104937143Y-85224952D01*
X104841905Y-85177333D01*
X104651429Y-85129714D01*
X104413333Y-85129714D01*
X104222857Y-85177333D01*
X104127619Y-85224952D01*
X104080000Y-85272571D01*
X104032381Y-85367809D01*
X105032381Y-86129714D02*
X104032381Y-86129714D01*
X104651429Y-86224952D02*
X105032381Y-86510667D01*
X104365714Y-86510667D02*
X104746667Y-86129714D01*
X111450381Y-84748762D02*
X111450381Y-84177333D01*
X111450381Y-84463047D02*
X110450381Y-84463047D01*
X110593238Y-84367809D01*
X110688476Y-84272571D01*
X110736095Y-84177333D01*
X110450381Y-85367809D02*
X110450381Y-85463048D01*
X110498000Y-85558286D01*
X110545619Y-85605905D01*
X110640857Y-85653524D01*
X110831333Y-85701143D01*
X111069429Y-85701143D01*
X111259905Y-85653524D01*
X111355143Y-85605905D01*
X111402762Y-85558286D01*
X111450381Y-85463048D01*
X111450381Y-85367809D01*
X111402762Y-85272571D01*
X111355143Y-85224952D01*
X111259905Y-85177333D01*
X111069429Y-85129714D01*
X110831333Y-85129714D01*
X110640857Y-85177333D01*
X110545619Y-85224952D01*
X110498000Y-85272571D01*
X110450381Y-85367809D01*
X111450381Y-86129714D02*
X110450381Y-86129714D01*
X111069429Y-86224952D02*
X111450381Y-86510667D01*
X110783714Y-86510667D02*
X111164667Y-86129714D01*
X116208381Y-84748762D02*
X116208381Y-84177333D01*
X116208381Y-84463047D02*
X115208381Y-84463047D01*
X115351238Y-84367809D01*
X115446476Y-84272571D01*
X115494095Y-84177333D01*
X115208381Y-85367809D02*
X115208381Y-85463048D01*
X115256000Y-85558286D01*
X115303619Y-85605905D01*
X115398857Y-85653524D01*
X115589333Y-85701143D01*
X115827429Y-85701143D01*
X116017905Y-85653524D01*
X116113143Y-85605905D01*
X116160762Y-85558286D01*
X116208381Y-85463048D01*
X116208381Y-85367809D01*
X116160762Y-85272571D01*
X116113143Y-85224952D01*
X116017905Y-85177333D01*
X115827429Y-85129714D01*
X115589333Y-85129714D01*
X115398857Y-85177333D01*
X115303619Y-85224952D01*
X115256000Y-85272571D01*
X115208381Y-85367809D01*
X116208381Y-86129714D02*
X115208381Y-86129714D01*
X115827429Y-86224952D02*
X116208381Y-86510667D01*
X115541714Y-86510667D02*
X115922667Y-86129714D01*
X150963238Y-72842381D02*
X151534667Y-72842381D01*
X151248953Y-72842381D02*
X151248953Y-71842381D01*
X151344191Y-71985238D01*
X151439429Y-72080476D01*
X151534667Y-72128095D01*
X150344191Y-71842381D02*
X150248952Y-71842381D01*
X150153714Y-71890000D01*
X150106095Y-71937619D01*
X150058476Y-72032857D01*
X150010857Y-72223333D01*
X150010857Y-72461429D01*
X150058476Y-72651905D01*
X150106095Y-72747143D01*
X150153714Y-72794762D01*
X150248952Y-72842381D01*
X150344191Y-72842381D01*
X150439429Y-72794762D01*
X150487048Y-72747143D01*
X150534667Y-72651905D01*
X150582286Y-72461429D01*
X150582286Y-72223333D01*
X150534667Y-72032857D01*
X150487048Y-71937619D01*
X150439429Y-71890000D01*
X150344191Y-71842381D01*
X149582286Y-72842381D02*
X149582286Y-71842381D01*
X149487048Y-72461429D02*
X149201333Y-72842381D01*
X149201333Y-72175714D02*
X149582286Y-72556667D01*
X183983238Y-133802381D02*
X184554667Y-133802381D01*
X184268953Y-133802381D02*
X184268953Y-132802381D01*
X184364191Y-132945238D01*
X184459429Y-133040476D01*
X184554667Y-133088095D01*
X183364191Y-132802381D02*
X183268952Y-132802381D01*
X183173714Y-132850000D01*
X183126095Y-132897619D01*
X183078476Y-132992857D01*
X183030857Y-133183333D01*
X183030857Y-133421429D01*
X183078476Y-133611905D01*
X183126095Y-133707143D01*
X183173714Y-133754762D01*
X183268952Y-133802381D01*
X183364191Y-133802381D01*
X183459429Y-133754762D01*
X183507048Y-133707143D01*
X183554667Y-133611905D01*
X183602286Y-133421429D01*
X183602286Y-133183333D01*
X183554667Y-132992857D01*
X183507048Y-132897619D01*
X183459429Y-132850000D01*
X183364191Y-132802381D01*
X182602286Y-133802381D02*
X182602286Y-132802381D01*
X182507048Y-133421429D02*
X182221333Y-133802381D01*
X182221333Y-133135714D02*
X182602286Y-133516667D01*
X187031238Y-133802381D02*
X187602667Y-133802381D01*
X187316953Y-133802381D02*
X187316953Y-132802381D01*
X187412191Y-132945238D01*
X187507429Y-133040476D01*
X187602667Y-133088095D01*
X186412191Y-132802381D02*
X186316952Y-132802381D01*
X186221714Y-132850000D01*
X186174095Y-132897619D01*
X186126476Y-132992857D01*
X186078857Y-133183333D01*
X186078857Y-133421429D01*
X186126476Y-133611905D01*
X186174095Y-133707143D01*
X186221714Y-133754762D01*
X186316952Y-133802381D01*
X186412191Y-133802381D01*
X186507429Y-133754762D01*
X186555048Y-133707143D01*
X186602667Y-133611905D01*
X186650286Y-133421429D01*
X186650286Y-133183333D01*
X186602667Y-132992857D01*
X186555048Y-132897619D01*
X186507429Y-132850000D01*
X186412191Y-132802381D01*
X185650286Y-133802381D02*
X185650286Y-132802381D01*
X185555048Y-133421429D02*
X185269333Y-133802381D01*
X185269333Y-133135714D02*
X185650286Y-133516667D01*
X187507619Y-83605905D02*
X187460000Y-83653524D01*
X187412381Y-83748762D01*
X187412381Y-83986858D01*
X187460000Y-84082096D01*
X187507619Y-84129715D01*
X187602857Y-84177334D01*
X187698095Y-84177334D01*
X187840952Y-84129715D01*
X188412381Y-83558286D01*
X188412381Y-84177334D01*
X187507619Y-84558286D02*
X187460000Y-84605905D01*
X187412381Y-84701143D01*
X187412381Y-84939239D01*
X187460000Y-85034477D01*
X187507619Y-85082096D01*
X187602857Y-85129715D01*
X187698095Y-85129715D01*
X187840952Y-85082096D01*
X188412381Y-84510667D01*
X188412381Y-85129715D01*
X187412381Y-85748762D02*
X187412381Y-85844001D01*
X187460000Y-85939239D01*
X187507619Y-85986858D01*
X187602857Y-86034477D01*
X187793333Y-86082096D01*
X188031429Y-86082096D01*
X188221905Y-86034477D01*
X188317143Y-85986858D01*
X188364762Y-85939239D01*
X188412381Y-85844001D01*
X188412381Y-85748762D01*
X188364762Y-85653524D01*
X188317143Y-85605905D01*
X188221905Y-85558286D01*
X188031429Y-85510667D01*
X187793333Y-85510667D01*
X187602857Y-85558286D01*
X187507619Y-85605905D01*
X187460000Y-85653524D01*
X187412381Y-85748762D01*
X188412381Y-87082096D02*
X187936190Y-86748762D01*
X188412381Y-86510667D02*
X187412381Y-86510667D01*
X187412381Y-86891620D01*
X187460000Y-86986858D01*
X187507619Y-87034477D01*
X187602857Y-87082096D01*
X187745714Y-87082096D01*
X187840952Y-87034477D01*
X187888571Y-86986858D01*
X187936190Y-86891620D01*
X187936190Y-86510667D01*
X190587238Y-133802381D02*
X191158667Y-133802381D01*
X190872953Y-133802381D02*
X190872953Y-132802381D01*
X190968191Y-132945238D01*
X191063429Y-133040476D01*
X191158667Y-133088095D01*
X189968191Y-132802381D02*
X189872952Y-132802381D01*
X189777714Y-132850000D01*
X189730095Y-132897619D01*
X189682476Y-132992857D01*
X189634857Y-133183333D01*
X189634857Y-133421429D01*
X189682476Y-133611905D01*
X189730095Y-133707143D01*
X189777714Y-133754762D01*
X189872952Y-133802381D01*
X189968191Y-133802381D01*
X190063429Y-133754762D01*
X190111048Y-133707143D01*
X190158667Y-133611905D01*
X190206286Y-133421429D01*
X190206286Y-133183333D01*
X190158667Y-132992857D01*
X190111048Y-132897619D01*
X190063429Y-132850000D01*
X189968191Y-132802381D01*
X189206286Y-133802381D02*
X189206286Y-132802381D01*
X189111048Y-133421429D02*
X188825333Y-133802381D01*
X188825333Y-133135714D02*
X189206286Y-133516667D01*
M02*
