G04 #@! TF.FileFunction,Legend,Bot*
%FSLAX46Y46*%
G04 Gerber Fmt 4.6, Leading zero omitted, Abs format (unit mm)*
G04 Created by KiCad (PCBNEW (2014-12-08 BZR 5317)-product) date sam. 06 juin 2015 11:44:28 CEST*
%MOMM*%
G01*
G04 APERTURE LIST*
%ADD10C,0.100000*%
%ADD11C,0.200000*%
%ADD12C,0.150000*%
%ADD13C,0.200660*%
%ADD14C,0.203200*%
%ADD15C,0.127000*%
%ADD16C,0.280000*%
%ADD17C,0.101600*%
%ADD18C,0.099060*%
%ADD19C,0.149860*%
%ADD20C,0.160000*%
G04 APERTURE END LIST*
D10*
D11*
X152654000Y-87376000D02*
X98298000Y-87376000D01*
X153924000Y-88646000D02*
X152654000Y-87376000D01*
X153924000Y-100076000D02*
X153924000Y-88646000D01*
X156464000Y-102616000D02*
X153924000Y-100076000D01*
X156464000Y-135636000D02*
X156464000Y-102616000D01*
X153924000Y-138176000D02*
X156464000Y-135636000D01*
X153924000Y-140716000D02*
X153924000Y-138176000D01*
X98298000Y-140716000D02*
X153924000Y-140716000D01*
X98298000Y-87376000D02*
X98298000Y-140716000D01*
D12*
X155702000Y-125603000D02*
X155702000Y-124714000D01*
X157099000Y-126873000D02*
X157099000Y-121031000D01*
X157099000Y-121031000D02*
X154305000Y-121031000D01*
X154305000Y-121031000D02*
X154305000Y-126873000D01*
X154305000Y-126873000D02*
X157099000Y-126873000D01*
X181356000Y-85979000D02*
X181356000Y-85090000D01*
X182753000Y-87249000D02*
X182753000Y-81407000D01*
X182753000Y-81407000D02*
X179959000Y-81407000D01*
X179959000Y-81407000D02*
X179959000Y-87249000D01*
X179959000Y-87249000D02*
X182753000Y-87249000D01*
X181356000Y-93599000D02*
X181356000Y-92710000D01*
X182753000Y-94869000D02*
X182753000Y-89027000D01*
X182753000Y-89027000D02*
X179959000Y-89027000D01*
X179959000Y-89027000D02*
X179959000Y-94869000D01*
X179959000Y-94869000D02*
X182753000Y-94869000D01*
X181356000Y-101473000D02*
X181356000Y-100584000D01*
X182753000Y-102743000D02*
X182753000Y-96901000D01*
X182753000Y-96901000D02*
X179959000Y-96901000D01*
X179959000Y-96901000D02*
X179959000Y-102743000D01*
X179959000Y-102743000D02*
X182753000Y-102743000D01*
X145034000Y-105283000D02*
X145034000Y-104394000D01*
X146431000Y-106553000D02*
X146431000Y-100711000D01*
X146431000Y-100711000D02*
X143637000Y-100711000D01*
X143637000Y-100711000D02*
X143637000Y-106553000D01*
X143637000Y-106553000D02*
X146431000Y-106553000D01*
X137795000Y-125476000D02*
X136906000Y-125476000D01*
X139065000Y-124079000D02*
X133223000Y-124079000D01*
X133223000Y-124079000D02*
X133223000Y-126873000D01*
X133223000Y-126873000D02*
X139065000Y-126873000D01*
X139065000Y-126873000D02*
X139065000Y-124079000D01*
D13*
X106664760Y-57985660D02*
X106664760Y-57584340D01*
X108016040Y-56385460D02*
X107066080Y-56385460D01*
X108016040Y-56385460D02*
X108016040Y-57083960D01*
X108016040Y-59184540D02*
X108016040Y-58486040D01*
X108016040Y-59184540D02*
X107066080Y-59184540D01*
D14*
X141579600Y-126593600D02*
X147574000Y-126593600D01*
X147574000Y-126593600D02*
X147574000Y-120040400D01*
X147574000Y-120040400D02*
X141579600Y-120040400D01*
D15*
X171361100Y-133159500D02*
X170713400Y-133807200D01*
X171208700Y-133159500D02*
X170713400Y-133654800D01*
X172212000Y-134556500D02*
X172212000Y-135216900D01*
X173164500Y-134556500D02*
X173164500Y-135216900D01*
X171259500Y-134556500D02*
X171259500Y-135216900D01*
X172212000Y-133159500D02*
X172212000Y-132499100D01*
X173164500Y-133159500D02*
X173164500Y-132499100D01*
X171259500Y-133159500D02*
X171259500Y-132499100D01*
X170713400Y-134556500D02*
X173710600Y-134556500D01*
X173710600Y-134556500D02*
X173710600Y-133159500D01*
X173710600Y-133159500D02*
X170713400Y-133159500D01*
X170713400Y-133159500D02*
X170713400Y-134556500D01*
D12*
X147067000Y-83123000D02*
X146702000Y-83123000D01*
X147067000Y-75373000D02*
X146702000Y-75373000D01*
X131317000Y-75373000D02*
X131682000Y-75373000D01*
X131317000Y-83123000D02*
X131682000Y-83123000D01*
X147067000Y-83123000D02*
X147067000Y-75373000D01*
X131317000Y-83123000D02*
X131317000Y-75373000D01*
X146702000Y-83123000D02*
X146702000Y-84948000D01*
D15*
X186232800Y-99441000D02*
X190195200Y-99441000D01*
X190195200Y-99441000D02*
X190195200Y-104267000D01*
X190195200Y-104267000D02*
X186232800Y-104267000D01*
X186232800Y-104267000D02*
X186232800Y-99441000D01*
X186232800Y-99949000D02*
X185140600Y-99949000D01*
X186232800Y-101219000D02*
X185140600Y-101219000D01*
X186232800Y-102489000D02*
X185140600Y-102489000D01*
X185140600Y-103759000D02*
X186232800Y-103759000D01*
X190195200Y-103759000D02*
X191287400Y-103759000D01*
X191287400Y-102489000D02*
X190195200Y-102489000D01*
X191287400Y-101219000D02*
X190195200Y-101219000D01*
X191287400Y-99949000D02*
X190195200Y-99949000D01*
X189931067Y-100177600D02*
G75*
G03X189931067Y-100177600I-472467J0D01*
G01*
D12*
X185420000Y-119134420D02*
X185420000Y-118984560D01*
X185420000Y-119982780D02*
X185420000Y-120183440D01*
X185420000Y-119134420D02*
X186169300Y-119134420D01*
X185420000Y-119134420D02*
X184718960Y-119134420D01*
X185420000Y-119134420D02*
X184718960Y-119982780D01*
X184718960Y-119982780D02*
X186121040Y-119982780D01*
X186121040Y-119982780D02*
X185420000Y-119134420D01*
X181356000Y-109093000D02*
X181356000Y-108204000D01*
X182753000Y-110363000D02*
X182753000Y-104521000D01*
X182753000Y-104521000D02*
X179959000Y-104521000D01*
X179959000Y-104521000D02*
X179959000Y-110363000D01*
X179959000Y-110363000D02*
X182753000Y-110363000D01*
D13*
X118094760Y-57985660D02*
X118094760Y-57584340D01*
X119446040Y-56385460D02*
X118496080Y-56385460D01*
X119446040Y-56385460D02*
X119446040Y-57083960D01*
X119446040Y-59184540D02*
X119446040Y-58486040D01*
X119446040Y-59184540D02*
X118496080Y-59184540D01*
X129524760Y-57985660D02*
X129524760Y-57584340D01*
X130876040Y-56385460D02*
X129926080Y-56385460D01*
X130876040Y-56385460D02*
X130876040Y-57083960D01*
X130876040Y-59184540D02*
X130876040Y-58486040D01*
X130876040Y-59184540D02*
X129926080Y-59184540D01*
X163814760Y-57985660D02*
X163814760Y-57584340D01*
X165166040Y-56385460D02*
X164216080Y-56385460D01*
X165166040Y-56385460D02*
X165166040Y-57083960D01*
X165166040Y-59184540D02*
X165166040Y-58486040D01*
X165166040Y-59184540D02*
X164216080Y-59184540D01*
X174424340Y-56499760D02*
X174825660Y-56499760D01*
X176024540Y-57851040D02*
X176024540Y-56901080D01*
X176024540Y-57851040D02*
X175326040Y-57851040D01*
X173225460Y-57851040D02*
X173923960Y-57851040D01*
X173225460Y-57851040D02*
X173225460Y-56901080D01*
X176730660Y-61229240D02*
X176329340Y-61229240D01*
X175130460Y-59877960D02*
X175130460Y-60827920D01*
X175130460Y-59877960D02*
X175828960Y-59877960D01*
X177929540Y-59877960D02*
X177231040Y-59877960D01*
X177929540Y-59877960D02*
X177929540Y-60827920D01*
X151584660Y-95138240D02*
X151183340Y-95138240D01*
X149984460Y-93786960D02*
X149984460Y-94736920D01*
X149984460Y-93786960D02*
X150682960Y-93786960D01*
X152783540Y-93786960D02*
X152085040Y-93786960D01*
X152783540Y-93786960D02*
X152783540Y-94736920D01*
X119580660Y-95138240D02*
X119179340Y-95138240D01*
X117980460Y-93786960D02*
X117980460Y-94736920D01*
X117980460Y-93786960D02*
X118678960Y-93786960D01*
X120779540Y-93786960D02*
X120081040Y-93786960D01*
X120779540Y-93786960D02*
X120779540Y-94736920D01*
X111452660Y-95138240D02*
X111051340Y-95138240D01*
X109852460Y-93786960D02*
X109852460Y-94736920D01*
X109852460Y-93786960D02*
X110550960Y-93786960D01*
X112651540Y-93786960D02*
X111953040Y-93786960D01*
X112651540Y-93786960D02*
X112651540Y-94736920D01*
X106372660Y-94884240D02*
X105971340Y-94884240D01*
X104772460Y-93532960D02*
X104772460Y-94482920D01*
X104772460Y-93532960D02*
X105470960Y-93532960D01*
X107571540Y-93532960D02*
X106873040Y-93532960D01*
X107571540Y-93532960D02*
X107571540Y-94482920D01*
X107584240Y-151437340D02*
X107584240Y-151838660D01*
X106232960Y-153037540D02*
X107182920Y-153037540D01*
X106232960Y-153037540D02*
X106232960Y-152339040D01*
X106232960Y-150238460D02*
X106232960Y-150936960D01*
X106232960Y-150238460D02*
X107182920Y-150238460D01*
X119014240Y-151437340D02*
X119014240Y-151838660D01*
X117662960Y-153037540D02*
X118612920Y-153037540D01*
X117662960Y-153037540D02*
X117662960Y-152339040D01*
X117662960Y-150238460D02*
X117662960Y-150936960D01*
X117662960Y-150238460D02*
X118612920Y-150238460D01*
X130444240Y-151437340D02*
X130444240Y-151838660D01*
X129092960Y-153037540D02*
X130042920Y-153037540D01*
X129092960Y-153037540D02*
X129092960Y-152339040D01*
X129092960Y-150238460D02*
X129092960Y-150936960D01*
X129092960Y-150238460D02*
X130042920Y-150238460D01*
X141874240Y-151437340D02*
X141874240Y-151838660D01*
X140522960Y-153037540D02*
X141472920Y-153037540D01*
X140522960Y-153037540D02*
X140522960Y-152339040D01*
X140522960Y-150238460D02*
X140522960Y-150936960D01*
X140522960Y-150238460D02*
X141472920Y-150238460D01*
X153304240Y-151691340D02*
X153304240Y-152092660D01*
X151952960Y-153291540D02*
X152902920Y-153291540D01*
X151952960Y-153291540D02*
X151952960Y-152593040D01*
X151952960Y-150492460D02*
X151952960Y-151190960D01*
X151952960Y-150492460D02*
X152902920Y-150492460D01*
X164734240Y-151691340D02*
X164734240Y-152092660D01*
X163382960Y-153291540D02*
X164332920Y-153291540D01*
X163382960Y-153291540D02*
X163382960Y-152593040D01*
X163382960Y-150492460D02*
X163382960Y-151190960D01*
X163382960Y-150492460D02*
X164332920Y-150492460D01*
X176164240Y-151691340D02*
X176164240Y-152092660D01*
X174812960Y-153291540D02*
X175762920Y-153291540D01*
X174812960Y-153291540D02*
X174812960Y-152593040D01*
X174812960Y-150492460D02*
X174812960Y-151190960D01*
X174812960Y-150492460D02*
X175762920Y-150492460D01*
X187594240Y-151691340D02*
X187594240Y-152092660D01*
X186242960Y-153291540D02*
X187192920Y-153291540D01*
X186242960Y-153291540D02*
X186242960Y-152593040D01*
X186242960Y-150492460D02*
X186242960Y-151190960D01*
X186242960Y-150492460D02*
X187192920Y-150492460D01*
X152384760Y-57985660D02*
X152384760Y-57584340D01*
X153736040Y-56385460D02*
X152786080Y-56385460D01*
X153736040Y-56385460D02*
X153736040Y-57083960D01*
X153736040Y-59184540D02*
X153736040Y-58486040D01*
X153736040Y-59184540D02*
X152786080Y-59184540D01*
X140954760Y-57985660D02*
X140954760Y-57584340D01*
X142306040Y-56385460D02*
X141356080Y-56385460D01*
X142306040Y-56385460D02*
X142306040Y-57083960D01*
X142306040Y-59184540D02*
X142306040Y-58486040D01*
X142306040Y-59184540D02*
X141356080Y-59184540D01*
D12*
X159512000Y-125730000D02*
X159512000Y-123698000D01*
X159639000Y-123317000D02*
X159639000Y-126111000D01*
X159766000Y-126365000D02*
X159766000Y-123063000D01*
X159893000Y-122809000D02*
X159893000Y-126619000D01*
X160020000Y-122682000D02*
X160020000Y-126746000D01*
X160147000Y-127000000D02*
X160147000Y-122428000D01*
X167259000Y-124714000D02*
G75*
G03X167259000Y-124714000I-3937000J0D01*
G01*
X159131000Y-128905000D02*
X159131000Y-120523000D01*
X159131000Y-120523000D02*
X166751000Y-120523000D01*
X166751000Y-120523000D02*
X167513000Y-121285000D01*
X167513000Y-121285000D02*
X167513000Y-128143000D01*
X167513000Y-128143000D02*
X166751000Y-128905000D01*
X166751000Y-128905000D02*
X159131000Y-128905000D01*
X167005000Y-124714000D02*
X166243000Y-124714000D01*
X166624000Y-125095000D02*
X166624000Y-124333000D01*
X159512000Y-116332000D02*
X159512000Y-114300000D01*
X159639000Y-113919000D02*
X159639000Y-116713000D01*
X159766000Y-116967000D02*
X159766000Y-113665000D01*
X159893000Y-113411000D02*
X159893000Y-117221000D01*
X160020000Y-113284000D02*
X160020000Y-117348000D01*
X160147000Y-117602000D02*
X160147000Y-113030000D01*
X167259000Y-115316000D02*
G75*
G03X167259000Y-115316000I-3937000J0D01*
G01*
X159131000Y-119507000D02*
X159131000Y-111125000D01*
X159131000Y-111125000D02*
X166751000Y-111125000D01*
X166751000Y-111125000D02*
X167513000Y-111887000D01*
X167513000Y-111887000D02*
X167513000Y-118745000D01*
X167513000Y-118745000D02*
X166751000Y-119507000D01*
X166751000Y-119507000D02*
X159131000Y-119507000D01*
X167005000Y-115316000D02*
X166243000Y-115316000D01*
X166624000Y-115697000D02*
X166624000Y-114935000D01*
X159512000Y-135128000D02*
X159512000Y-133096000D01*
X159639000Y-132715000D02*
X159639000Y-135509000D01*
X159766000Y-135763000D02*
X159766000Y-132461000D01*
X159893000Y-132207000D02*
X159893000Y-136017000D01*
X160020000Y-132080000D02*
X160020000Y-136144000D01*
X160147000Y-136398000D02*
X160147000Y-131826000D01*
X167259000Y-134112000D02*
G75*
G03X167259000Y-134112000I-3937000J0D01*
G01*
X159131000Y-138303000D02*
X159131000Y-129921000D01*
X159131000Y-129921000D02*
X166751000Y-129921000D01*
X166751000Y-129921000D02*
X167513000Y-130683000D01*
X167513000Y-130683000D02*
X167513000Y-137541000D01*
X167513000Y-137541000D02*
X166751000Y-138303000D01*
X166751000Y-138303000D02*
X159131000Y-138303000D01*
X167005000Y-134112000D02*
X166243000Y-134112000D01*
X166624000Y-134493000D02*
X166624000Y-133731000D01*
X159512000Y-76200000D02*
X159512000Y-74168000D01*
X159639000Y-73787000D02*
X159639000Y-76581000D01*
X159766000Y-76835000D02*
X159766000Y-73533000D01*
X159893000Y-73279000D02*
X159893000Y-77089000D01*
X160020000Y-73152000D02*
X160020000Y-77216000D01*
X160147000Y-77470000D02*
X160147000Y-72898000D01*
X167259000Y-75184000D02*
G75*
G03X167259000Y-75184000I-3937000J0D01*
G01*
X159131000Y-79375000D02*
X159131000Y-70993000D01*
X159131000Y-70993000D02*
X166751000Y-70993000D01*
X166751000Y-70993000D02*
X167513000Y-71755000D01*
X167513000Y-71755000D02*
X167513000Y-78613000D01*
X167513000Y-78613000D02*
X166751000Y-79375000D01*
X166751000Y-79375000D02*
X159131000Y-79375000D01*
X167005000Y-75184000D02*
X166243000Y-75184000D01*
X166624000Y-75565000D02*
X166624000Y-74803000D01*
X194056000Y-96520000D02*
X192024000Y-96520000D01*
X191643000Y-96393000D02*
X194437000Y-96393000D01*
X194691000Y-96266000D02*
X191389000Y-96266000D01*
X191135000Y-96139000D02*
X194945000Y-96139000D01*
X191008000Y-96012000D02*
X195072000Y-96012000D01*
X195326000Y-95885000D02*
X190754000Y-95885000D01*
X196977000Y-92710000D02*
G75*
G03X196977000Y-92710000I-3937000J0D01*
G01*
X197231000Y-96901000D02*
X188849000Y-96901000D01*
X188849000Y-96901000D02*
X188849000Y-89281000D01*
X188849000Y-89281000D02*
X189611000Y-88519000D01*
X189611000Y-88519000D02*
X196469000Y-88519000D01*
X196469000Y-88519000D02*
X197231000Y-89281000D01*
X197231000Y-89281000D02*
X197231000Y-96901000D01*
X193040000Y-89027000D02*
X193040000Y-89789000D01*
X193421000Y-89408000D02*
X192659000Y-89408000D01*
D16*
X102468600Y-95199200D02*
G75*
G03X102468600Y-95199200I-1275000J0D01*
G01*
D12*
X177647600Y-119083620D02*
X177647600Y-118933760D01*
X177647600Y-119931980D02*
X177647600Y-120132640D01*
X177647600Y-119083620D02*
X178396900Y-119083620D01*
X177647600Y-119083620D02*
X176946560Y-119083620D01*
X177647600Y-119083620D02*
X176946560Y-119931980D01*
X176946560Y-119931980D02*
X178348640Y-119931980D01*
X178348640Y-119931980D02*
X177647600Y-119083620D01*
X155186000Y-120357000D02*
X154186000Y-120357000D01*
X154186000Y-118657000D02*
X155186000Y-118657000D01*
X149868000Y-75756400D02*
X150868000Y-75756400D01*
X150868000Y-77456400D02*
X149868000Y-77456400D01*
X193890000Y-118499000D02*
X193890000Y-119499000D01*
X192190000Y-119499000D02*
X192190000Y-118499000D01*
X190996200Y-84993100D02*
X190996200Y-83993100D01*
X192696200Y-83993100D02*
X192696200Y-84993100D01*
X106793000Y-148682000D02*
X106793000Y-147482000D01*
X105043000Y-147482000D02*
X105043000Y-148682000D01*
X109079000Y-148682000D02*
X109079000Y-147482000D01*
X107329000Y-147482000D02*
X107329000Y-148682000D01*
X118223000Y-148682000D02*
X118223000Y-147482000D01*
X116473000Y-147482000D02*
X116473000Y-148682000D01*
X120509000Y-148682000D02*
X120509000Y-147482000D01*
X118759000Y-147482000D02*
X118759000Y-148682000D01*
X129653000Y-148936000D02*
X129653000Y-147736000D01*
X127903000Y-147736000D02*
X127903000Y-148936000D01*
X131939000Y-148936000D02*
X131939000Y-147736000D01*
X130189000Y-147736000D02*
X130189000Y-148936000D01*
X141083000Y-148936000D02*
X141083000Y-147736000D01*
X139333000Y-147736000D02*
X139333000Y-148936000D01*
X143369000Y-148936000D02*
X143369000Y-147736000D01*
X141619000Y-147736000D02*
X141619000Y-148936000D01*
X152259000Y-148936000D02*
X152259000Y-147736000D01*
X150509000Y-147736000D02*
X150509000Y-148936000D01*
X154545000Y-148936000D02*
X154545000Y-147736000D01*
X152795000Y-147736000D02*
X152795000Y-148936000D01*
X163943000Y-148936000D02*
X163943000Y-147736000D01*
X162193000Y-147736000D02*
X162193000Y-148936000D01*
X166229000Y-148936000D02*
X166229000Y-147736000D01*
X164479000Y-147736000D02*
X164479000Y-148936000D01*
X175373000Y-148936000D02*
X175373000Y-147736000D01*
X173623000Y-147736000D02*
X173623000Y-148936000D01*
X177659000Y-148936000D02*
X177659000Y-147736000D01*
X175909000Y-147736000D02*
X175909000Y-148936000D01*
X186803000Y-148936000D02*
X186803000Y-147736000D01*
X185053000Y-147736000D02*
X185053000Y-148936000D01*
X189089000Y-148936000D02*
X189089000Y-147736000D01*
X187339000Y-147736000D02*
X187339000Y-148936000D01*
X105883000Y-119775000D02*
X104683000Y-119775000D01*
X104683000Y-121525000D02*
X105883000Y-121525000D01*
X105297000Y-61122000D02*
X105297000Y-62322000D01*
X107047000Y-62322000D02*
X107047000Y-61122000D01*
X173066000Y-136285000D02*
X171866000Y-136285000D01*
X171866000Y-138035000D02*
X173066000Y-138035000D01*
X175655000Y-134528000D02*
X175655000Y-135728000D01*
X177405000Y-135728000D02*
X177405000Y-134528000D01*
X107583000Y-61122000D02*
X107583000Y-62322000D01*
X109333000Y-62322000D02*
X109333000Y-61122000D01*
X116727000Y-61122000D02*
X116727000Y-62322000D01*
X118477000Y-62322000D02*
X118477000Y-61122000D01*
X119013000Y-61122000D02*
X119013000Y-62322000D01*
X120763000Y-62322000D02*
X120763000Y-61122000D01*
X128157000Y-61122000D02*
X128157000Y-62322000D01*
X129907000Y-62322000D02*
X129907000Y-61122000D01*
X130443000Y-61122000D02*
X130443000Y-62322000D01*
X132193000Y-62322000D02*
X132193000Y-61122000D01*
X139587000Y-61122000D02*
X139587000Y-62322000D01*
X141337000Y-62322000D02*
X141337000Y-61122000D01*
X141873000Y-61122000D02*
X141873000Y-62322000D01*
X143623000Y-62322000D02*
X143623000Y-61122000D01*
X151017000Y-61122000D02*
X151017000Y-62322000D01*
X152767000Y-62322000D02*
X152767000Y-61122000D01*
X153303000Y-61122000D02*
X153303000Y-62322000D01*
X155053000Y-62322000D02*
X155053000Y-61122000D01*
X162447000Y-61122000D02*
X162447000Y-62322000D01*
X164197000Y-62322000D02*
X164197000Y-61122000D01*
X164733000Y-61122000D02*
X164733000Y-62322000D01*
X166483000Y-62322000D02*
X166483000Y-61122000D01*
X172607000Y-61884000D02*
X172607000Y-63084000D01*
X174357000Y-63084000D02*
X174357000Y-61884000D01*
X174131000Y-65821000D02*
X174131000Y-67021000D01*
X175881000Y-67021000D02*
X175881000Y-65821000D01*
X183910000Y-62112600D02*
X183910000Y-63312600D01*
X185660000Y-63312600D02*
X185660000Y-62112600D01*
X176417000Y-65821000D02*
X176417000Y-67021000D01*
X178167000Y-67021000D02*
X178167000Y-65821000D01*
X194275000Y-70880000D02*
X193075000Y-70880000D01*
X193075000Y-72630000D02*
X194275000Y-72630000D01*
X194275000Y-73166000D02*
X193075000Y-73166000D01*
X193075000Y-74916000D02*
X194275000Y-74916000D01*
X106772000Y-96915000D02*
X105572000Y-96915000D01*
X105572000Y-98665000D02*
X106772000Y-98665000D01*
X112106000Y-96915000D02*
X110906000Y-96915000D01*
X110906000Y-98665000D02*
X112106000Y-98665000D01*
X119980000Y-96915000D02*
X118780000Y-96915000D01*
X118780000Y-98665000D02*
X119980000Y-98665000D01*
X151984000Y-96915000D02*
X150784000Y-96915000D01*
X150784000Y-98665000D02*
X151984000Y-98665000D01*
X157388000Y-86727000D02*
X158588000Y-86727000D01*
X158588000Y-84977000D02*
X157388000Y-84977000D01*
X157388000Y-89267000D02*
X158588000Y-89267000D01*
X158588000Y-87517000D02*
X157388000Y-87517000D01*
X157388000Y-91807000D02*
X158588000Y-91807000D01*
X158588000Y-90057000D02*
X157388000Y-90057000D01*
X157388000Y-94347000D02*
X158588000Y-94347000D01*
X158588000Y-92597000D02*
X157388000Y-92597000D01*
X157388000Y-96887000D02*
X158588000Y-96887000D01*
X158588000Y-95137000D02*
X157388000Y-95137000D01*
X157388000Y-99427000D02*
X158588000Y-99427000D01*
X158588000Y-97677000D02*
X157388000Y-97677000D01*
X157388000Y-101967000D02*
X158588000Y-101967000D01*
X158588000Y-100217000D02*
X157388000Y-100217000D01*
X105805000Y-84744000D02*
X105805000Y-85944000D01*
X107555000Y-85944000D02*
X107555000Y-84744000D01*
X108345000Y-84744000D02*
X108345000Y-85944000D01*
X110095000Y-85944000D02*
X110095000Y-84744000D01*
X116981000Y-84744000D02*
X116981000Y-85944000D01*
X118731000Y-85944000D02*
X118731000Y-84744000D01*
X149768000Y-75043000D02*
X150968000Y-75043000D01*
X150968000Y-73293000D02*
X149768000Y-73293000D01*
X183148000Y-130464000D02*
X183148000Y-131664000D01*
X184898000Y-131664000D02*
X184898000Y-130464000D01*
X187311000Y-131664000D02*
X187311000Y-130464000D01*
X185561000Y-130464000D02*
X185561000Y-131664000D01*
X190359000Y-85182000D02*
X190359000Y-83982000D01*
X188609000Y-83982000D02*
X188609000Y-85182000D01*
X189749400Y-131651300D02*
X189749400Y-130451300D01*
X187999400Y-130451300D02*
X187999400Y-131651300D01*
X152594571Y-124976000D02*
X153666000Y-124976000D01*
X153880286Y-124904572D01*
X154023143Y-124761715D01*
X154094571Y-124547429D01*
X154094571Y-124404572D01*
X154094571Y-126476000D02*
X154094571Y-125618857D01*
X154094571Y-126047429D02*
X152594571Y-126047429D01*
X152808857Y-125904572D01*
X152951714Y-125761714D01*
X153023143Y-125618857D01*
X183074571Y-83828000D02*
X184146000Y-83828000D01*
X184360286Y-83756572D01*
X184503143Y-83613715D01*
X184574571Y-83399429D01*
X184574571Y-83256572D01*
X183217429Y-84470857D02*
X183146000Y-84542286D01*
X183074571Y-84685143D01*
X183074571Y-85042286D01*
X183146000Y-85185143D01*
X183217429Y-85256572D01*
X183360286Y-85328000D01*
X183503143Y-85328000D01*
X183717429Y-85256572D01*
X184574571Y-84399429D01*
X184574571Y-85328000D01*
X183074571Y-91448000D02*
X184146000Y-91448000D01*
X184360286Y-91376572D01*
X184503143Y-91233715D01*
X184574571Y-91019429D01*
X184574571Y-90876572D01*
X183574571Y-92805143D02*
X184574571Y-92805143D01*
X183003143Y-92448000D02*
X184074571Y-92090857D01*
X184074571Y-93019429D01*
X183074571Y-97036000D02*
X184146000Y-97036000D01*
X184360286Y-96964572D01*
X184503143Y-96821715D01*
X184574571Y-96607429D01*
X184574571Y-96464572D01*
X183074571Y-98393143D02*
X183074571Y-98107429D01*
X183146000Y-97964572D01*
X183217429Y-97893143D01*
X183431714Y-97750286D01*
X183717429Y-97678857D01*
X184288857Y-97678857D01*
X184431714Y-97750286D01*
X184503143Y-97821714D01*
X184574571Y-97964572D01*
X184574571Y-98250286D01*
X184503143Y-98393143D01*
X184431714Y-98464572D01*
X184288857Y-98536000D01*
X183931714Y-98536000D01*
X183788857Y-98464572D01*
X183717429Y-98393143D01*
X183646000Y-98250286D01*
X183646000Y-97964572D01*
X183717429Y-97821714D01*
X183788857Y-97750286D01*
X183931714Y-97678857D01*
X147006571Y-102878000D02*
X148078000Y-102878000D01*
X148292286Y-102806572D01*
X148435143Y-102663715D01*
X148506571Y-102449429D01*
X148506571Y-102306572D01*
X147006571Y-103449429D02*
X147006571Y-104449429D01*
X148506571Y-103806572D01*
X136898000Y-122114571D02*
X136898000Y-123186000D01*
X136969428Y-123400286D01*
X137112285Y-123543143D01*
X137326571Y-123614571D01*
X137469428Y-123614571D01*
X136112286Y-123614571D02*
X135826571Y-123614571D01*
X135683714Y-123543143D01*
X135612286Y-123471714D01*
X135469428Y-123257429D01*
X135398000Y-122971714D01*
X135398000Y-122400286D01*
X135469428Y-122257429D01*
X135540857Y-122186000D01*
X135683714Y-122114571D01*
X135969428Y-122114571D01*
X136112286Y-122186000D01*
X136183714Y-122257429D01*
X136255143Y-122400286D01*
X136255143Y-122757429D01*
X136183714Y-122900286D01*
X136112286Y-122971714D01*
X135969428Y-123043143D01*
X135683714Y-123043143D01*
X135540857Y-122971714D01*
X135469428Y-122900286D01*
X135398000Y-122757429D01*
D10*
X107489619Y-56153810D02*
X107537238Y-56130000D01*
X107584857Y-56082381D01*
X107656286Y-56010952D01*
X107703905Y-55987143D01*
X107751524Y-55987143D01*
X107727714Y-56106190D02*
X107775333Y-56082381D01*
X107822952Y-56034762D01*
X107846762Y-55939524D01*
X107846762Y-55772857D01*
X107822952Y-55677619D01*
X107775333Y-55630000D01*
X107727714Y-55606190D01*
X107632476Y-55606190D01*
X107584857Y-55630000D01*
X107537238Y-55677619D01*
X107513429Y-55772857D01*
X107513429Y-55939524D01*
X107537238Y-56034762D01*
X107584857Y-56082381D01*
X107632476Y-56106190D01*
X107727714Y-56106190D01*
X107275333Y-56106190D02*
X107180095Y-56106190D01*
X107132476Y-56082381D01*
X107108666Y-56058571D01*
X107061047Y-55987143D01*
X107037238Y-55891905D01*
X107037238Y-55701429D01*
X107061047Y-55653810D01*
X107084857Y-55630000D01*
X107132476Y-55606190D01*
X107227714Y-55606190D01*
X107275333Y-55630000D01*
X107299142Y-55653810D01*
X107322952Y-55701429D01*
X107322952Y-55820476D01*
X107299142Y-55868095D01*
X107275333Y-55891905D01*
X107227714Y-55915714D01*
X107132476Y-55915714D01*
X107084857Y-55891905D01*
X107061047Y-55868095D01*
X107037238Y-55820476D01*
D17*
X145493619Y-118430524D02*
X145493619Y-119458619D01*
X145433143Y-119579571D01*
X145372667Y-119640048D01*
X145251714Y-119700524D01*
X145009810Y-119700524D01*
X144888857Y-119640048D01*
X144828381Y-119579571D01*
X144767905Y-119458619D01*
X144767905Y-118430524D01*
X143497905Y-119700524D02*
X144223619Y-119700524D01*
X143860762Y-119700524D02*
X143860762Y-118430524D01*
X143981714Y-118611952D01*
X144102667Y-118732905D01*
X144223619Y-118793381D01*
D18*
X169905982Y-133476758D02*
X170311052Y-133476758D01*
X170358707Y-133500586D01*
X170382535Y-133524413D01*
X170406362Y-133572069D01*
X170406362Y-133667379D01*
X170382535Y-133715034D01*
X170358707Y-133738862D01*
X170311052Y-133762690D01*
X169905982Y-133762690D01*
X169953638Y-133977138D02*
X169929810Y-134000966D01*
X169905982Y-134048621D01*
X169905982Y-134167759D01*
X169929810Y-134215415D01*
X169953638Y-134239242D01*
X170001293Y-134263070D01*
X170048948Y-134263070D01*
X170120431Y-134239242D01*
X170406362Y-133953311D01*
X170406362Y-134263070D01*
D12*
X147534381Y-81534095D02*
X148343905Y-81534095D01*
X148439143Y-81581714D01*
X148486762Y-81629333D01*
X148534381Y-81724571D01*
X148534381Y-81915048D01*
X148486762Y-82010286D01*
X148439143Y-82057905D01*
X148343905Y-82105524D01*
X147534381Y-82105524D01*
X147867714Y-83010286D02*
X148534381Y-83010286D01*
X147486762Y-82772190D02*
X148201048Y-82534095D01*
X148201048Y-83153143D01*
X144866572Y-73032881D02*
X144866572Y-72032881D01*
X144485619Y-72032881D01*
X144390381Y-72080500D01*
X144342762Y-72128119D01*
X144295143Y-72223357D01*
X144295143Y-72366214D01*
X144342762Y-72461452D01*
X144390381Y-72509071D01*
X144485619Y-72556690D01*
X144866572Y-72556690D01*
X143295143Y-72937643D02*
X143342762Y-72985262D01*
X143485619Y-73032881D01*
X143580857Y-73032881D01*
X143723715Y-72985262D01*
X143818953Y-72890024D01*
X143866572Y-72794786D01*
X143914191Y-72604310D01*
X143914191Y-72461452D01*
X143866572Y-72270976D01*
X143818953Y-72175738D01*
X143723715Y-72080500D01*
X143580857Y-72032881D01*
X143485619Y-72032881D01*
X143342762Y-72080500D01*
X143295143Y-72128119D01*
X142914191Y-72747167D02*
X142438000Y-72747167D01*
X143009429Y-73032881D02*
X142676096Y-72032881D01*
X142342762Y-73032881D01*
X141961810Y-73032881D02*
X141771334Y-73032881D01*
X141676095Y-72985262D01*
X141628476Y-72937643D01*
X141533238Y-72794786D01*
X141485619Y-72604310D01*
X141485619Y-72223357D01*
X141533238Y-72128119D01*
X141580857Y-72080500D01*
X141676095Y-72032881D01*
X141866572Y-72032881D01*
X141961810Y-72080500D01*
X142009429Y-72128119D01*
X142057048Y-72223357D01*
X142057048Y-72461452D01*
X142009429Y-72556690D01*
X141961810Y-72604310D01*
X141866572Y-72651929D01*
X141676095Y-72651929D01*
X141580857Y-72604310D01*
X141533238Y-72556690D01*
X141485619Y-72461452D01*
X140580857Y-72032881D02*
X141057048Y-72032881D01*
X141104667Y-72509071D01*
X141057048Y-72461452D01*
X140961810Y-72413833D01*
X140723714Y-72413833D01*
X140628476Y-72461452D01*
X140580857Y-72509071D01*
X140533238Y-72604310D01*
X140533238Y-72842405D01*
X140580857Y-72937643D01*
X140628476Y-72985262D01*
X140723714Y-73032881D01*
X140961810Y-73032881D01*
X141057048Y-72985262D01*
X141104667Y-72937643D01*
X139628476Y-72032881D02*
X140104667Y-72032881D01*
X140152286Y-72509071D01*
X140104667Y-72461452D01*
X140009429Y-72413833D01*
X139771333Y-72413833D01*
X139676095Y-72461452D01*
X139628476Y-72509071D01*
X139580857Y-72604310D01*
X139580857Y-72842405D01*
X139628476Y-72937643D01*
X139676095Y-72985262D01*
X139771333Y-73032881D01*
X140009429Y-73032881D01*
X140104667Y-72985262D01*
X140152286Y-72937643D01*
X138676095Y-72032881D02*
X139152286Y-72032881D01*
X139199905Y-72509071D01*
X139152286Y-72461452D01*
X139057048Y-72413833D01*
X138818952Y-72413833D01*
X138723714Y-72461452D01*
X138676095Y-72509071D01*
X138628476Y-72604310D01*
X138628476Y-72842405D01*
X138676095Y-72937643D01*
X138723714Y-72985262D01*
X138818952Y-73032881D01*
X139057048Y-73032881D01*
X139152286Y-72985262D01*
X139199905Y-72937643D01*
X138199905Y-73032881D02*
X138199905Y-72032881D01*
X137961810Y-72032881D01*
X137818952Y-72080500D01*
X137723714Y-72175738D01*
X137676095Y-72270976D01*
X137628476Y-72461452D01*
X137628476Y-72604310D01*
X137676095Y-72794786D01*
X137723714Y-72890024D01*
X137818952Y-72985262D01*
X137961810Y-73032881D01*
X138199905Y-73032881D01*
X136485619Y-72985262D02*
X136342762Y-73032881D01*
X136104666Y-73032881D01*
X136009428Y-72985262D01*
X135961809Y-72937643D01*
X135914190Y-72842405D01*
X135914190Y-72747167D01*
X135961809Y-72651929D01*
X136009428Y-72604310D01*
X136104666Y-72556690D01*
X136295143Y-72509071D01*
X136390381Y-72461452D01*
X136438000Y-72413833D01*
X136485619Y-72318595D01*
X136485619Y-72223357D01*
X136438000Y-72128119D01*
X136390381Y-72080500D01*
X136295143Y-72032881D01*
X136057047Y-72032881D01*
X135914190Y-72080500D01*
X135295143Y-72032881D02*
X135104666Y-72032881D01*
X135009428Y-72080500D01*
X134914190Y-72175738D01*
X134866571Y-72366214D01*
X134866571Y-72699548D01*
X134914190Y-72890024D01*
X135009428Y-72985262D01*
X135104666Y-73032881D01*
X135295143Y-73032881D01*
X135390381Y-72985262D01*
X135485619Y-72890024D01*
X135533238Y-72699548D01*
X135533238Y-72366214D01*
X135485619Y-72175738D01*
X135390381Y-72080500D01*
X135295143Y-72032881D01*
X134485619Y-72128119D02*
X134438000Y-72080500D01*
X134342762Y-72032881D01*
X134104666Y-72032881D01*
X134009428Y-72080500D01*
X133961809Y-72128119D01*
X133914190Y-72223357D01*
X133914190Y-72318595D01*
X133961809Y-72461452D01*
X134533238Y-73032881D01*
X133914190Y-73032881D01*
X133057047Y-72366214D02*
X133057047Y-73032881D01*
X133295143Y-71985262D02*
X133533238Y-72699548D01*
X132914190Y-72699548D01*
D19*
X188530895Y-98395669D02*
X188530895Y-99002245D01*
X188495214Y-99073607D01*
X188459533Y-99109288D01*
X188388171Y-99144969D01*
X188245448Y-99144969D01*
X188174086Y-99109288D01*
X188138405Y-99073607D01*
X188102724Y-99002245D01*
X188102724Y-98395669D01*
X187424786Y-98395669D02*
X187567509Y-98395669D01*
X187638871Y-98431350D01*
X187674552Y-98467031D01*
X187745914Y-98574074D01*
X187781595Y-98716798D01*
X187781595Y-99002245D01*
X187745914Y-99073607D01*
X187710233Y-99109288D01*
X187638871Y-99144969D01*
X187496148Y-99144969D01*
X187424786Y-99109288D01*
X187389105Y-99073607D01*
X187353424Y-99002245D01*
X187353424Y-98823840D01*
X187389105Y-98752479D01*
X187424786Y-98716798D01*
X187496148Y-98681117D01*
X187638871Y-98681117D01*
X187710233Y-98716798D01*
X187745914Y-98752479D01*
X187781595Y-98823840D01*
D12*
X184348381Y-116863905D02*
X183348381Y-116863905D01*
X183348381Y-117102000D01*
X183396000Y-117244858D01*
X183491238Y-117340096D01*
X183586476Y-117387715D01*
X183776952Y-117435334D01*
X183919810Y-117435334D01*
X184110286Y-117387715D01*
X184205524Y-117340096D01*
X184300762Y-117244858D01*
X184348381Y-117102000D01*
X184348381Y-116863905D01*
X184348381Y-118387715D02*
X184348381Y-117816286D01*
X184348381Y-118102000D02*
X183348381Y-118102000D01*
X183491238Y-118006762D01*
X183586476Y-117911524D01*
X183634095Y-117816286D01*
X187722381Y-117572095D02*
X186722381Y-117572095D01*
X187722381Y-118143524D02*
X187150952Y-117714952D01*
X186722381Y-118143524D02*
X187293810Y-117572095D01*
X187436667Y-121195905D02*
X187436667Y-121672096D01*
X187722381Y-121100667D02*
X186722381Y-121434000D01*
X187722381Y-121767334D01*
X183074571Y-107243715D02*
X184146000Y-107243715D01*
X184360286Y-107172287D01*
X184503143Y-107029430D01*
X184574571Y-106815144D01*
X184574571Y-106672287D01*
X184574571Y-108743715D02*
X184574571Y-107886572D01*
X184574571Y-108315144D02*
X183074571Y-108315144D01*
X183288857Y-108172287D01*
X183431714Y-108029429D01*
X183503143Y-107886572D01*
X183074571Y-109672286D02*
X183074571Y-109815143D01*
X183146000Y-109958000D01*
X183217429Y-110029429D01*
X183360286Y-110100858D01*
X183646000Y-110172286D01*
X184003143Y-110172286D01*
X184288857Y-110100858D01*
X184431714Y-110029429D01*
X184503143Y-109958000D01*
X184574571Y-109815143D01*
X184574571Y-109672286D01*
X184503143Y-109529429D01*
X184431714Y-109458000D01*
X184288857Y-109386572D01*
X184003143Y-109315143D01*
X183646000Y-109315143D01*
X183360286Y-109386572D01*
X183217429Y-109458000D01*
X183146000Y-109529429D01*
X183074571Y-109672286D01*
D10*
X119157714Y-56153810D02*
X119205333Y-56130000D01*
X119252952Y-56082381D01*
X119324381Y-56010952D01*
X119372000Y-55987143D01*
X119419619Y-55987143D01*
X119395809Y-56106190D02*
X119443428Y-56082381D01*
X119491047Y-56034762D01*
X119514857Y-55939524D01*
X119514857Y-55772857D01*
X119491047Y-55677619D01*
X119443428Y-55630000D01*
X119395809Y-55606190D01*
X119300571Y-55606190D01*
X119252952Y-55630000D01*
X119205333Y-55677619D01*
X119181524Y-55772857D01*
X119181524Y-55939524D01*
X119205333Y-56034762D01*
X119252952Y-56082381D01*
X119300571Y-56106190D01*
X119395809Y-56106190D01*
X118705333Y-56106190D02*
X118991047Y-56106190D01*
X118848190Y-56106190D02*
X118848190Y-55606190D01*
X118895809Y-55677619D01*
X118943428Y-55725238D01*
X118991047Y-55749048D01*
X118395809Y-55606190D02*
X118348190Y-55606190D01*
X118300571Y-55630000D01*
X118276762Y-55653810D01*
X118252952Y-55701429D01*
X118229143Y-55796667D01*
X118229143Y-55915714D01*
X118252952Y-56010952D01*
X118276762Y-56058571D01*
X118300571Y-56082381D01*
X118348190Y-56106190D01*
X118395809Y-56106190D01*
X118443428Y-56082381D01*
X118467238Y-56058571D01*
X118491047Y-56010952D01*
X118514857Y-55915714D01*
X118514857Y-55796667D01*
X118491047Y-55701429D01*
X118467238Y-55653810D01*
X118443428Y-55630000D01*
X118395809Y-55606190D01*
X130587714Y-56153810D02*
X130635333Y-56130000D01*
X130682952Y-56082381D01*
X130754381Y-56010952D01*
X130802000Y-55987143D01*
X130849619Y-55987143D01*
X130825809Y-56106190D02*
X130873428Y-56082381D01*
X130921047Y-56034762D01*
X130944857Y-55939524D01*
X130944857Y-55772857D01*
X130921047Y-55677619D01*
X130873428Y-55630000D01*
X130825809Y-55606190D01*
X130730571Y-55606190D01*
X130682952Y-55630000D01*
X130635333Y-55677619D01*
X130611524Y-55772857D01*
X130611524Y-55939524D01*
X130635333Y-56034762D01*
X130682952Y-56082381D01*
X130730571Y-56106190D01*
X130825809Y-56106190D01*
X130135333Y-56106190D02*
X130421047Y-56106190D01*
X130278190Y-56106190D02*
X130278190Y-55606190D01*
X130325809Y-55677619D01*
X130373428Y-55725238D01*
X130421047Y-55749048D01*
X129659143Y-56106190D02*
X129944857Y-56106190D01*
X129802000Y-56106190D02*
X129802000Y-55606190D01*
X129849619Y-55677619D01*
X129897238Y-55725238D01*
X129944857Y-55749048D01*
X164877714Y-55899810D02*
X164925333Y-55876000D01*
X164972952Y-55828381D01*
X165044381Y-55756952D01*
X165092000Y-55733143D01*
X165139619Y-55733143D01*
X165115809Y-55852190D02*
X165163428Y-55828381D01*
X165211047Y-55780762D01*
X165234857Y-55685524D01*
X165234857Y-55518857D01*
X165211047Y-55423619D01*
X165163428Y-55376000D01*
X165115809Y-55352190D01*
X165020571Y-55352190D01*
X164972952Y-55376000D01*
X164925333Y-55423619D01*
X164901524Y-55518857D01*
X164901524Y-55685524D01*
X164925333Y-55780762D01*
X164972952Y-55828381D01*
X165020571Y-55852190D01*
X165115809Y-55852190D01*
X164425333Y-55852190D02*
X164711047Y-55852190D01*
X164568190Y-55852190D02*
X164568190Y-55352190D01*
X164615809Y-55423619D01*
X164663428Y-55471238D01*
X164711047Y-55495048D01*
X163996762Y-55518857D02*
X163996762Y-55852190D01*
X164115809Y-55328381D02*
X164234857Y-55685524D01*
X163925333Y-55685524D01*
X175037714Y-55645810D02*
X175085333Y-55622000D01*
X175132952Y-55574381D01*
X175204381Y-55502952D01*
X175252000Y-55479143D01*
X175299619Y-55479143D01*
X175275809Y-55598190D02*
X175323428Y-55574381D01*
X175371047Y-55526762D01*
X175394857Y-55431524D01*
X175394857Y-55264857D01*
X175371047Y-55169619D01*
X175323428Y-55122000D01*
X175275809Y-55098190D01*
X175180571Y-55098190D01*
X175132952Y-55122000D01*
X175085333Y-55169619D01*
X175061524Y-55264857D01*
X175061524Y-55431524D01*
X175085333Y-55526762D01*
X175132952Y-55574381D01*
X175180571Y-55598190D01*
X175275809Y-55598190D01*
X174585333Y-55598190D02*
X174871047Y-55598190D01*
X174728190Y-55598190D02*
X174728190Y-55098190D01*
X174775809Y-55169619D01*
X174823428Y-55217238D01*
X174871047Y-55241048D01*
X174132952Y-55098190D02*
X174371047Y-55098190D01*
X174394857Y-55336286D01*
X174371047Y-55312476D01*
X174323428Y-55288667D01*
X174204381Y-55288667D01*
X174156762Y-55312476D01*
X174132952Y-55336286D01*
X174109143Y-55383905D01*
X174109143Y-55502952D01*
X174132952Y-55550571D01*
X174156762Y-55574381D01*
X174204381Y-55598190D01*
X174323428Y-55598190D01*
X174371047Y-55574381D01*
X174394857Y-55550571D01*
X178339714Y-59455810D02*
X178387333Y-59432000D01*
X178434952Y-59384381D01*
X178506381Y-59312952D01*
X178554000Y-59289143D01*
X178601619Y-59289143D01*
X178577809Y-59408190D02*
X178625428Y-59384381D01*
X178673047Y-59336762D01*
X178696857Y-59241524D01*
X178696857Y-59074857D01*
X178673047Y-58979619D01*
X178625428Y-58932000D01*
X178577809Y-58908190D01*
X178482571Y-58908190D01*
X178434952Y-58932000D01*
X178387333Y-58979619D01*
X178363524Y-59074857D01*
X178363524Y-59241524D01*
X178387333Y-59336762D01*
X178434952Y-59384381D01*
X178482571Y-59408190D01*
X178577809Y-59408190D01*
X177887333Y-59408190D02*
X178173047Y-59408190D01*
X178030190Y-59408190D02*
X178030190Y-58908190D01*
X178077809Y-58979619D01*
X178125428Y-59027238D01*
X178173047Y-59051048D01*
X177458762Y-58908190D02*
X177554000Y-58908190D01*
X177601619Y-58932000D01*
X177625428Y-58955810D01*
X177673047Y-59027238D01*
X177696857Y-59122476D01*
X177696857Y-59312952D01*
X177673047Y-59360571D01*
X177649238Y-59384381D01*
X177601619Y-59408190D01*
X177506381Y-59408190D01*
X177458762Y-59384381D01*
X177434952Y-59360571D01*
X177411143Y-59312952D01*
X177411143Y-59193905D01*
X177434952Y-59146286D01*
X177458762Y-59122476D01*
X177506381Y-59098667D01*
X177601619Y-59098667D01*
X177649238Y-59122476D01*
X177673047Y-59146286D01*
X177696857Y-59193905D01*
X149383714Y-94761810D02*
X149431333Y-94738000D01*
X149478952Y-94690381D01*
X149550381Y-94618952D01*
X149598000Y-94595143D01*
X149645619Y-94595143D01*
X149621809Y-94714190D02*
X149669428Y-94690381D01*
X149717047Y-94642762D01*
X149740857Y-94547524D01*
X149740857Y-94380857D01*
X149717047Y-94285619D01*
X149669428Y-94238000D01*
X149621809Y-94214190D01*
X149526571Y-94214190D01*
X149478952Y-94238000D01*
X149431333Y-94285619D01*
X149407524Y-94380857D01*
X149407524Y-94547524D01*
X149431333Y-94642762D01*
X149478952Y-94690381D01*
X149526571Y-94714190D01*
X149621809Y-94714190D01*
X149217047Y-94261810D02*
X149193237Y-94238000D01*
X149145618Y-94214190D01*
X149026571Y-94214190D01*
X148978952Y-94238000D01*
X148955142Y-94261810D01*
X148931333Y-94309429D01*
X148931333Y-94357048D01*
X148955142Y-94428476D01*
X149240856Y-94714190D01*
X148931333Y-94714190D01*
X148621809Y-94214190D02*
X148574190Y-94214190D01*
X148526571Y-94238000D01*
X148502762Y-94261810D01*
X148478952Y-94309429D01*
X148455143Y-94404667D01*
X148455143Y-94523714D01*
X148478952Y-94618952D01*
X148502762Y-94666571D01*
X148526571Y-94690381D01*
X148574190Y-94714190D01*
X148621809Y-94714190D01*
X148669428Y-94690381D01*
X148693238Y-94666571D01*
X148717047Y-94618952D01*
X148740857Y-94523714D01*
X148740857Y-94404667D01*
X148717047Y-94309429D01*
X148693238Y-94261810D01*
X148669428Y-94238000D01*
X148621809Y-94214190D01*
X118141714Y-93491810D02*
X118189333Y-93468000D01*
X118236952Y-93420381D01*
X118308381Y-93348952D01*
X118356000Y-93325143D01*
X118403619Y-93325143D01*
X118379809Y-93444190D02*
X118427428Y-93420381D01*
X118475047Y-93372762D01*
X118498857Y-93277524D01*
X118498857Y-93110857D01*
X118475047Y-93015619D01*
X118427428Y-92968000D01*
X118379809Y-92944190D01*
X118284571Y-92944190D01*
X118236952Y-92968000D01*
X118189333Y-93015619D01*
X118165524Y-93110857D01*
X118165524Y-93277524D01*
X118189333Y-93372762D01*
X118236952Y-93420381D01*
X118284571Y-93444190D01*
X118379809Y-93444190D01*
X117689333Y-93444190D02*
X117975047Y-93444190D01*
X117832190Y-93444190D02*
X117832190Y-92944190D01*
X117879809Y-93015619D01*
X117927428Y-93063238D01*
X117975047Y-93087048D01*
X117451238Y-93444190D02*
X117356000Y-93444190D01*
X117308381Y-93420381D01*
X117284571Y-93396571D01*
X117236952Y-93325143D01*
X117213143Y-93229905D01*
X117213143Y-93039429D01*
X117236952Y-92991810D01*
X117260762Y-92968000D01*
X117308381Y-92944190D01*
X117403619Y-92944190D01*
X117451238Y-92968000D01*
X117475047Y-92991810D01*
X117498857Y-93039429D01*
X117498857Y-93158476D01*
X117475047Y-93206095D01*
X117451238Y-93229905D01*
X117403619Y-93253714D01*
X117308381Y-93253714D01*
X117260762Y-93229905D01*
X117236952Y-93206095D01*
X117213143Y-93158476D01*
X110013714Y-93491810D02*
X110061333Y-93468000D01*
X110108952Y-93420381D01*
X110180381Y-93348952D01*
X110228000Y-93325143D01*
X110275619Y-93325143D01*
X110251809Y-93444190D02*
X110299428Y-93420381D01*
X110347047Y-93372762D01*
X110370857Y-93277524D01*
X110370857Y-93110857D01*
X110347047Y-93015619D01*
X110299428Y-92968000D01*
X110251809Y-92944190D01*
X110156571Y-92944190D01*
X110108952Y-92968000D01*
X110061333Y-93015619D01*
X110037524Y-93110857D01*
X110037524Y-93277524D01*
X110061333Y-93372762D01*
X110108952Y-93420381D01*
X110156571Y-93444190D01*
X110251809Y-93444190D01*
X109561333Y-93444190D02*
X109847047Y-93444190D01*
X109704190Y-93444190D02*
X109704190Y-92944190D01*
X109751809Y-93015619D01*
X109799428Y-93063238D01*
X109847047Y-93087048D01*
X109275619Y-93158476D02*
X109323238Y-93134667D01*
X109347047Y-93110857D01*
X109370857Y-93063238D01*
X109370857Y-93039429D01*
X109347047Y-92991810D01*
X109323238Y-92968000D01*
X109275619Y-92944190D01*
X109180381Y-92944190D01*
X109132762Y-92968000D01*
X109108952Y-92991810D01*
X109085143Y-93039429D01*
X109085143Y-93063238D01*
X109108952Y-93110857D01*
X109132762Y-93134667D01*
X109180381Y-93158476D01*
X109275619Y-93158476D01*
X109323238Y-93182286D01*
X109347047Y-93206095D01*
X109370857Y-93253714D01*
X109370857Y-93348952D01*
X109347047Y-93396571D01*
X109323238Y-93420381D01*
X109275619Y-93444190D01*
X109180381Y-93444190D01*
X109132762Y-93420381D01*
X109108952Y-93396571D01*
X109085143Y-93348952D01*
X109085143Y-93253714D01*
X109108952Y-93206095D01*
X109132762Y-93182286D01*
X109180381Y-93158476D01*
X104933714Y-93237810D02*
X104981333Y-93214000D01*
X105028952Y-93166381D01*
X105100381Y-93094952D01*
X105148000Y-93071143D01*
X105195619Y-93071143D01*
X105171809Y-93190190D02*
X105219428Y-93166381D01*
X105267047Y-93118762D01*
X105290857Y-93023524D01*
X105290857Y-92856857D01*
X105267047Y-92761619D01*
X105219428Y-92714000D01*
X105171809Y-92690190D01*
X105076571Y-92690190D01*
X105028952Y-92714000D01*
X104981333Y-92761619D01*
X104957524Y-92856857D01*
X104957524Y-93023524D01*
X104981333Y-93118762D01*
X105028952Y-93166381D01*
X105076571Y-93190190D01*
X105171809Y-93190190D01*
X104481333Y-93190190D02*
X104767047Y-93190190D01*
X104624190Y-93190190D02*
X104624190Y-92690190D01*
X104671809Y-92761619D01*
X104719428Y-92809238D01*
X104767047Y-92833048D01*
X104314666Y-92690190D02*
X103981333Y-92690190D01*
X104195619Y-93190190D01*
X106727619Y-153943810D02*
X106775238Y-153920000D01*
X106822857Y-153872381D01*
X106894286Y-153800952D01*
X106941905Y-153777143D01*
X106989524Y-153777143D01*
X106965714Y-153896190D02*
X107013333Y-153872381D01*
X107060952Y-153824762D01*
X107084762Y-153729524D01*
X107084762Y-153562857D01*
X107060952Y-153467619D01*
X107013333Y-153420000D01*
X106965714Y-153396190D01*
X106870476Y-153396190D01*
X106822857Y-153420000D01*
X106775238Y-153467619D01*
X106751429Y-153562857D01*
X106751429Y-153729524D01*
X106775238Y-153824762D01*
X106822857Y-153872381D01*
X106870476Y-153896190D01*
X106965714Y-153896190D01*
X106275238Y-153896190D02*
X106560952Y-153896190D01*
X106418095Y-153896190D02*
X106418095Y-153396190D01*
X106465714Y-153467619D01*
X106513333Y-153515238D01*
X106560952Y-153539048D01*
X118157619Y-153943810D02*
X118205238Y-153920000D01*
X118252857Y-153872381D01*
X118324286Y-153800952D01*
X118371905Y-153777143D01*
X118419524Y-153777143D01*
X118395714Y-153896190D02*
X118443333Y-153872381D01*
X118490952Y-153824762D01*
X118514762Y-153729524D01*
X118514762Y-153562857D01*
X118490952Y-153467619D01*
X118443333Y-153420000D01*
X118395714Y-153396190D01*
X118300476Y-153396190D01*
X118252857Y-153420000D01*
X118205238Y-153467619D01*
X118181429Y-153562857D01*
X118181429Y-153729524D01*
X118205238Y-153824762D01*
X118252857Y-153872381D01*
X118300476Y-153896190D01*
X118395714Y-153896190D01*
X117990952Y-153443810D02*
X117967142Y-153420000D01*
X117919523Y-153396190D01*
X117800476Y-153396190D01*
X117752857Y-153420000D01*
X117729047Y-153443810D01*
X117705238Y-153491429D01*
X117705238Y-153539048D01*
X117729047Y-153610476D01*
X118014761Y-153896190D01*
X117705238Y-153896190D01*
X129587619Y-153943810D02*
X129635238Y-153920000D01*
X129682857Y-153872381D01*
X129754286Y-153800952D01*
X129801905Y-153777143D01*
X129849524Y-153777143D01*
X129825714Y-153896190D02*
X129873333Y-153872381D01*
X129920952Y-153824762D01*
X129944762Y-153729524D01*
X129944762Y-153562857D01*
X129920952Y-153467619D01*
X129873333Y-153420000D01*
X129825714Y-153396190D01*
X129730476Y-153396190D01*
X129682857Y-153420000D01*
X129635238Y-153467619D01*
X129611429Y-153562857D01*
X129611429Y-153729524D01*
X129635238Y-153824762D01*
X129682857Y-153872381D01*
X129730476Y-153896190D01*
X129825714Y-153896190D01*
X129444761Y-153396190D02*
X129135238Y-153396190D01*
X129301904Y-153586667D01*
X129230476Y-153586667D01*
X129182857Y-153610476D01*
X129159047Y-153634286D01*
X129135238Y-153681905D01*
X129135238Y-153800952D01*
X129159047Y-153848571D01*
X129182857Y-153872381D01*
X129230476Y-153896190D01*
X129373333Y-153896190D01*
X129420952Y-153872381D01*
X129444761Y-153848571D01*
X141017619Y-153943810D02*
X141065238Y-153920000D01*
X141112857Y-153872381D01*
X141184286Y-153800952D01*
X141231905Y-153777143D01*
X141279524Y-153777143D01*
X141255714Y-153896190D02*
X141303333Y-153872381D01*
X141350952Y-153824762D01*
X141374762Y-153729524D01*
X141374762Y-153562857D01*
X141350952Y-153467619D01*
X141303333Y-153420000D01*
X141255714Y-153396190D01*
X141160476Y-153396190D01*
X141112857Y-153420000D01*
X141065238Y-153467619D01*
X141041429Y-153562857D01*
X141041429Y-153729524D01*
X141065238Y-153824762D01*
X141112857Y-153872381D01*
X141160476Y-153896190D01*
X141255714Y-153896190D01*
X140612857Y-153562857D02*
X140612857Y-153896190D01*
X140731904Y-153372381D02*
X140850952Y-153729524D01*
X140541428Y-153729524D01*
X151431619Y-153689810D02*
X151479238Y-153666000D01*
X151526857Y-153618381D01*
X151598286Y-153546952D01*
X151645905Y-153523143D01*
X151693524Y-153523143D01*
X151669714Y-153642190D02*
X151717333Y-153618381D01*
X151764952Y-153570762D01*
X151788762Y-153475524D01*
X151788762Y-153308857D01*
X151764952Y-153213619D01*
X151717333Y-153166000D01*
X151669714Y-153142190D01*
X151574476Y-153142190D01*
X151526857Y-153166000D01*
X151479238Y-153213619D01*
X151455429Y-153308857D01*
X151455429Y-153475524D01*
X151479238Y-153570762D01*
X151526857Y-153618381D01*
X151574476Y-153642190D01*
X151669714Y-153642190D01*
X151003047Y-153142190D02*
X151241142Y-153142190D01*
X151264952Y-153380286D01*
X151241142Y-153356476D01*
X151193523Y-153332667D01*
X151074476Y-153332667D01*
X151026857Y-153356476D01*
X151003047Y-153380286D01*
X150979238Y-153427905D01*
X150979238Y-153546952D01*
X151003047Y-153594571D01*
X151026857Y-153618381D01*
X151074476Y-153642190D01*
X151193523Y-153642190D01*
X151241142Y-153618381D01*
X151264952Y-153594571D01*
X162861619Y-153689810D02*
X162909238Y-153666000D01*
X162956857Y-153618381D01*
X163028286Y-153546952D01*
X163075905Y-153523143D01*
X163123524Y-153523143D01*
X163099714Y-153642190D02*
X163147333Y-153618381D01*
X163194952Y-153570762D01*
X163218762Y-153475524D01*
X163218762Y-153308857D01*
X163194952Y-153213619D01*
X163147333Y-153166000D01*
X163099714Y-153142190D01*
X163004476Y-153142190D01*
X162956857Y-153166000D01*
X162909238Y-153213619D01*
X162885429Y-153308857D01*
X162885429Y-153475524D01*
X162909238Y-153570762D01*
X162956857Y-153618381D01*
X163004476Y-153642190D01*
X163099714Y-153642190D01*
X162456857Y-153142190D02*
X162552095Y-153142190D01*
X162599714Y-153166000D01*
X162623523Y-153189810D01*
X162671142Y-153261238D01*
X162694952Y-153356476D01*
X162694952Y-153546952D01*
X162671142Y-153594571D01*
X162647333Y-153618381D01*
X162599714Y-153642190D01*
X162504476Y-153642190D01*
X162456857Y-153618381D01*
X162433047Y-153594571D01*
X162409238Y-153546952D01*
X162409238Y-153427905D01*
X162433047Y-153380286D01*
X162456857Y-153356476D01*
X162504476Y-153332667D01*
X162599714Y-153332667D01*
X162647333Y-153356476D01*
X162671142Y-153380286D01*
X162694952Y-153427905D01*
X174291619Y-153689810D02*
X174339238Y-153666000D01*
X174386857Y-153618381D01*
X174458286Y-153546952D01*
X174505905Y-153523143D01*
X174553524Y-153523143D01*
X174529714Y-153642190D02*
X174577333Y-153618381D01*
X174624952Y-153570762D01*
X174648762Y-153475524D01*
X174648762Y-153308857D01*
X174624952Y-153213619D01*
X174577333Y-153166000D01*
X174529714Y-153142190D01*
X174434476Y-153142190D01*
X174386857Y-153166000D01*
X174339238Y-153213619D01*
X174315429Y-153308857D01*
X174315429Y-153475524D01*
X174339238Y-153570762D01*
X174386857Y-153618381D01*
X174434476Y-153642190D01*
X174529714Y-153642190D01*
X174148761Y-153142190D02*
X173815428Y-153142190D01*
X174029714Y-153642190D01*
X185721619Y-153689810D02*
X185769238Y-153666000D01*
X185816857Y-153618381D01*
X185888286Y-153546952D01*
X185935905Y-153523143D01*
X185983524Y-153523143D01*
X185959714Y-153642190D02*
X186007333Y-153618381D01*
X186054952Y-153570762D01*
X186078762Y-153475524D01*
X186078762Y-153308857D01*
X186054952Y-153213619D01*
X186007333Y-153166000D01*
X185959714Y-153142190D01*
X185864476Y-153142190D01*
X185816857Y-153166000D01*
X185769238Y-153213619D01*
X185745429Y-153308857D01*
X185745429Y-153475524D01*
X185769238Y-153570762D01*
X185816857Y-153618381D01*
X185864476Y-153642190D01*
X185959714Y-153642190D01*
X185459714Y-153356476D02*
X185507333Y-153332667D01*
X185531142Y-153308857D01*
X185554952Y-153261238D01*
X185554952Y-153237429D01*
X185531142Y-153189810D01*
X185507333Y-153166000D01*
X185459714Y-153142190D01*
X185364476Y-153142190D01*
X185316857Y-153166000D01*
X185293047Y-153189810D01*
X185269238Y-153237429D01*
X185269238Y-153261238D01*
X185293047Y-153308857D01*
X185316857Y-153332667D01*
X185364476Y-153356476D01*
X185459714Y-153356476D01*
X185507333Y-153380286D01*
X185531142Y-153404095D01*
X185554952Y-153451714D01*
X185554952Y-153546952D01*
X185531142Y-153594571D01*
X185507333Y-153618381D01*
X185459714Y-153642190D01*
X185364476Y-153642190D01*
X185316857Y-153618381D01*
X185293047Y-153594571D01*
X185269238Y-153546952D01*
X185269238Y-153451714D01*
X185293047Y-153404095D01*
X185316857Y-153380286D01*
X185364476Y-153356476D01*
X153447714Y-55899810D02*
X153495333Y-55876000D01*
X153542952Y-55828381D01*
X153614381Y-55756952D01*
X153662000Y-55733143D01*
X153709619Y-55733143D01*
X153685809Y-55852190D02*
X153733428Y-55828381D01*
X153781047Y-55780762D01*
X153804857Y-55685524D01*
X153804857Y-55518857D01*
X153781047Y-55423619D01*
X153733428Y-55376000D01*
X153685809Y-55352190D01*
X153590571Y-55352190D01*
X153542952Y-55376000D01*
X153495333Y-55423619D01*
X153471524Y-55518857D01*
X153471524Y-55685524D01*
X153495333Y-55780762D01*
X153542952Y-55828381D01*
X153590571Y-55852190D01*
X153685809Y-55852190D01*
X152995333Y-55852190D02*
X153281047Y-55852190D01*
X153138190Y-55852190D02*
X153138190Y-55352190D01*
X153185809Y-55423619D01*
X153233428Y-55471238D01*
X153281047Y-55495048D01*
X152828666Y-55352190D02*
X152519143Y-55352190D01*
X152685809Y-55542667D01*
X152614381Y-55542667D01*
X152566762Y-55566476D01*
X152542952Y-55590286D01*
X152519143Y-55637905D01*
X152519143Y-55756952D01*
X152542952Y-55804571D01*
X152566762Y-55828381D01*
X152614381Y-55852190D01*
X152757238Y-55852190D01*
X152804857Y-55828381D01*
X152828666Y-55804571D01*
X142017714Y-56153810D02*
X142065333Y-56130000D01*
X142112952Y-56082381D01*
X142184381Y-56010952D01*
X142232000Y-55987143D01*
X142279619Y-55987143D01*
X142255809Y-56106190D02*
X142303428Y-56082381D01*
X142351047Y-56034762D01*
X142374857Y-55939524D01*
X142374857Y-55772857D01*
X142351047Y-55677619D01*
X142303428Y-55630000D01*
X142255809Y-55606190D01*
X142160571Y-55606190D01*
X142112952Y-55630000D01*
X142065333Y-55677619D01*
X142041524Y-55772857D01*
X142041524Y-55939524D01*
X142065333Y-56034762D01*
X142112952Y-56082381D01*
X142160571Y-56106190D01*
X142255809Y-56106190D01*
X141565333Y-56106190D02*
X141851047Y-56106190D01*
X141708190Y-56106190D02*
X141708190Y-55606190D01*
X141755809Y-55677619D01*
X141803428Y-55725238D01*
X141851047Y-55749048D01*
X141374857Y-55653810D02*
X141351047Y-55630000D01*
X141303428Y-55606190D01*
X141184381Y-55606190D01*
X141136762Y-55630000D01*
X141112952Y-55653810D01*
X141089143Y-55701429D01*
X141089143Y-55749048D01*
X141112952Y-55820476D01*
X141398666Y-56106190D01*
X141089143Y-56106190D01*
D12*
X158599143Y-122261334D02*
X158646762Y-122213715D01*
X158694381Y-122070858D01*
X158694381Y-121975620D01*
X158646762Y-121832762D01*
X158551524Y-121737524D01*
X158456286Y-121689905D01*
X158265810Y-121642286D01*
X158122952Y-121642286D01*
X157932476Y-121689905D01*
X157837238Y-121737524D01*
X157742000Y-121832762D01*
X157694381Y-121975620D01*
X157694381Y-122070858D01*
X157742000Y-122213715D01*
X157789619Y-122261334D01*
X157789619Y-122642286D02*
X157742000Y-122689905D01*
X157694381Y-122785143D01*
X157694381Y-123023239D01*
X157742000Y-123118477D01*
X157789619Y-123166096D01*
X157884857Y-123213715D01*
X157980095Y-123213715D01*
X158122952Y-123166096D01*
X158694381Y-122594667D01*
X158694381Y-123213715D01*
X158345143Y-112609334D02*
X158392762Y-112561715D01*
X158440381Y-112418858D01*
X158440381Y-112323620D01*
X158392762Y-112180762D01*
X158297524Y-112085524D01*
X158202286Y-112037905D01*
X158011810Y-111990286D01*
X157868952Y-111990286D01*
X157678476Y-112037905D01*
X157583238Y-112085524D01*
X157488000Y-112180762D01*
X157440381Y-112323620D01*
X157440381Y-112418858D01*
X157488000Y-112561715D01*
X157535619Y-112609334D01*
X157440381Y-112942667D02*
X157440381Y-113561715D01*
X157821333Y-113228381D01*
X157821333Y-113371239D01*
X157868952Y-113466477D01*
X157916571Y-113514096D01*
X158011810Y-113561715D01*
X158249905Y-113561715D01*
X158345143Y-113514096D01*
X158392762Y-113466477D01*
X158440381Y-113371239D01*
X158440381Y-113085524D01*
X158392762Y-112990286D01*
X158345143Y-112942667D01*
X158599143Y-131405334D02*
X158646762Y-131357715D01*
X158694381Y-131214858D01*
X158694381Y-131119620D01*
X158646762Y-130976762D01*
X158551524Y-130881524D01*
X158456286Y-130833905D01*
X158265810Y-130786286D01*
X158122952Y-130786286D01*
X157932476Y-130833905D01*
X157837238Y-130881524D01*
X157742000Y-130976762D01*
X157694381Y-131119620D01*
X157694381Y-131214858D01*
X157742000Y-131357715D01*
X157789619Y-131405334D01*
X158027714Y-132262477D02*
X158694381Y-132262477D01*
X157646762Y-132024381D02*
X158361048Y-131786286D01*
X158361048Y-132405334D01*
X158599143Y-77557334D02*
X158646762Y-77509715D01*
X158694381Y-77366858D01*
X158694381Y-77271620D01*
X158646762Y-77128762D01*
X158551524Y-77033524D01*
X158456286Y-76985905D01*
X158265810Y-76938286D01*
X158122952Y-76938286D01*
X157932476Y-76985905D01*
X157837238Y-77033524D01*
X157742000Y-77128762D01*
X157694381Y-77271620D01*
X157694381Y-77366858D01*
X157742000Y-77509715D01*
X157789619Y-77557334D01*
X158122952Y-78128762D02*
X158075333Y-78033524D01*
X158027714Y-77985905D01*
X157932476Y-77938286D01*
X157884857Y-77938286D01*
X157789619Y-77985905D01*
X157742000Y-78033524D01*
X157694381Y-78128762D01*
X157694381Y-78319239D01*
X157742000Y-78414477D01*
X157789619Y-78462096D01*
X157884857Y-78509715D01*
X157932476Y-78509715D01*
X158027714Y-78462096D01*
X158075333Y-78414477D01*
X158122952Y-78319239D01*
X158122952Y-78128762D01*
X158170571Y-78033524D01*
X158218190Y-77985905D01*
X158313429Y-77938286D01*
X158503905Y-77938286D01*
X158599143Y-77985905D01*
X158646762Y-78033524D01*
X158694381Y-78128762D01*
X158694381Y-78319239D01*
X158646762Y-78414477D01*
X158599143Y-78462096D01*
X158503905Y-78509715D01*
X158313429Y-78509715D01*
X158218190Y-78462096D01*
X158170571Y-78414477D01*
X158122952Y-78319239D01*
X196476857Y-98147143D02*
X196524476Y-98194762D01*
X196667333Y-98242381D01*
X196762571Y-98242381D01*
X196905429Y-98194762D01*
X197000667Y-98099524D01*
X197048286Y-98004286D01*
X197095905Y-97813810D01*
X197095905Y-97670952D01*
X197048286Y-97480476D01*
X197000667Y-97385238D01*
X196905429Y-97290000D01*
X196762571Y-97242381D01*
X196667333Y-97242381D01*
X196524476Y-97290000D01*
X196476857Y-97337619D01*
X195524476Y-98242381D02*
X196095905Y-98242381D01*
X195810191Y-98242381D02*
X195810191Y-97242381D01*
X195905429Y-97385238D01*
X196000667Y-97480476D01*
X196095905Y-97528095D01*
X194572095Y-98242381D02*
X195143524Y-98242381D01*
X194857810Y-98242381D02*
X194857810Y-97242381D01*
X194953048Y-97385238D01*
X195048286Y-97480476D01*
X195143524Y-97528095D01*
D20*
X101536457Y-95062057D02*
X101572171Y-95027771D01*
X101607886Y-94924914D01*
X101607886Y-94856343D01*
X101572171Y-94753486D01*
X101500743Y-94684914D01*
X101429314Y-94650629D01*
X101286457Y-94616343D01*
X101179314Y-94616343D01*
X101036457Y-94650629D01*
X100965029Y-94684914D01*
X100893600Y-94753486D01*
X100857886Y-94856343D01*
X100857886Y-94924914D01*
X100893600Y-95027771D01*
X100929314Y-95062057D01*
X101536457Y-95782057D02*
X101572171Y-95747771D01*
X101607886Y-95644914D01*
X101607886Y-95576343D01*
X101572171Y-95473486D01*
X101500743Y-95404914D01*
X101429314Y-95370629D01*
X101286457Y-95336343D01*
X101179314Y-95336343D01*
X101036457Y-95370629D01*
X100965029Y-95404914D01*
X100893600Y-95473486D01*
X100857886Y-95576343D01*
X100857886Y-95644914D01*
X100893600Y-95747771D01*
X100929314Y-95782057D01*
D12*
X176474381Y-116863905D02*
X175474381Y-116863905D01*
X175474381Y-117102000D01*
X175522000Y-117244858D01*
X175617238Y-117340096D01*
X175712476Y-117387715D01*
X175902952Y-117435334D01*
X176045810Y-117435334D01*
X176236286Y-117387715D01*
X176331524Y-117340096D01*
X176426762Y-117244858D01*
X176474381Y-117102000D01*
X176474381Y-116863905D01*
X175807714Y-118292477D02*
X176474381Y-118292477D01*
X175426762Y-118054381D02*
X176141048Y-117816286D01*
X176141048Y-118435334D01*
X179949981Y-117521295D02*
X178949981Y-117521295D01*
X179949981Y-118092724D02*
X179378552Y-117664152D01*
X178949981Y-118092724D02*
X179521410Y-117521295D01*
X179664267Y-121145105D02*
X179664267Y-121621296D01*
X179949981Y-121049867D02*
X178949981Y-121383200D01*
X179949981Y-121716534D01*
X154852666Y-118213143D02*
X154900285Y-118260762D01*
X155043142Y-118308381D01*
X155138380Y-118308381D01*
X155281238Y-118260762D01*
X155376476Y-118165524D01*
X155424095Y-118070286D01*
X155471714Y-117879810D01*
X155471714Y-117736952D01*
X155424095Y-117546476D01*
X155376476Y-117451238D01*
X155281238Y-117356000D01*
X155138380Y-117308381D01*
X155043142Y-117308381D01*
X154900285Y-117356000D01*
X154852666Y-117403619D01*
X153900285Y-118308381D02*
X154471714Y-118308381D01*
X154186000Y-118308381D02*
X154186000Y-117308381D01*
X154281238Y-117451238D01*
X154376476Y-117546476D01*
X154471714Y-117594095D01*
X153328666Y-77573143D02*
X153376285Y-77620762D01*
X153519142Y-77668381D01*
X153614380Y-77668381D01*
X153757238Y-77620762D01*
X153852476Y-77525524D01*
X153900095Y-77430286D01*
X153947714Y-77239810D01*
X153947714Y-77096952D01*
X153900095Y-76906476D01*
X153852476Y-76811238D01*
X153757238Y-76716000D01*
X153614380Y-76668381D01*
X153519142Y-76668381D01*
X153376285Y-76716000D01*
X153328666Y-76763619D01*
X152471523Y-76668381D02*
X152662000Y-76668381D01*
X152757238Y-76716000D01*
X152804857Y-76763619D01*
X152900095Y-76906476D01*
X152947714Y-77096952D01*
X152947714Y-77477905D01*
X152900095Y-77573143D01*
X152852476Y-77620762D01*
X152757238Y-77668381D01*
X152566761Y-77668381D01*
X152471523Y-77620762D01*
X152423904Y-77573143D01*
X152376285Y-77477905D01*
X152376285Y-77239810D01*
X152423904Y-77144571D01*
X152471523Y-77096952D01*
X152566761Y-77049333D01*
X152757238Y-77049333D01*
X152852476Y-77096952D01*
X152900095Y-77144571D01*
X152947714Y-77239810D01*
X195497143Y-118832334D02*
X195544762Y-118784715D01*
X195592381Y-118641858D01*
X195592381Y-118546620D01*
X195544762Y-118403762D01*
X195449524Y-118308524D01*
X195354286Y-118260905D01*
X195163810Y-118213286D01*
X195020952Y-118213286D01*
X194830476Y-118260905D01*
X194735238Y-118308524D01*
X194640000Y-118403762D01*
X194592381Y-118546620D01*
X194592381Y-118641858D01*
X194640000Y-118784715D01*
X194687619Y-118832334D01*
X195592381Y-119308524D02*
X195592381Y-119499000D01*
X195544762Y-119594239D01*
X195497143Y-119641858D01*
X195354286Y-119737096D01*
X195163810Y-119784715D01*
X194782857Y-119784715D01*
X194687619Y-119737096D01*
X194640000Y-119689477D01*
X194592381Y-119594239D01*
X194592381Y-119403762D01*
X194640000Y-119308524D01*
X194687619Y-119260905D01*
X194782857Y-119213286D01*
X195020952Y-119213286D01*
X195116190Y-119260905D01*
X195163810Y-119308524D01*
X195211429Y-119403762D01*
X195211429Y-119594239D01*
X195163810Y-119689477D01*
X195116190Y-119737096D01*
X195020952Y-119784715D01*
X192412857Y-82399143D02*
X192460476Y-82446762D01*
X192603333Y-82494381D01*
X192698571Y-82494381D01*
X192841429Y-82446762D01*
X192936667Y-82351524D01*
X192984286Y-82256286D01*
X193031905Y-82065810D01*
X193031905Y-81922952D01*
X192984286Y-81732476D01*
X192936667Y-81637238D01*
X192841429Y-81542000D01*
X192698571Y-81494381D01*
X192603333Y-81494381D01*
X192460476Y-81542000D01*
X192412857Y-81589619D01*
X191460476Y-82494381D02*
X192031905Y-82494381D01*
X191746191Y-82494381D02*
X191746191Y-81494381D01*
X191841429Y-81637238D01*
X191936667Y-81732476D01*
X192031905Y-81780095D01*
X190841429Y-81494381D02*
X190746190Y-81494381D01*
X190650952Y-81542000D01*
X190603333Y-81589619D01*
X190555714Y-81684857D01*
X190508095Y-81875333D01*
X190508095Y-82113429D01*
X190555714Y-82303905D01*
X190603333Y-82399143D01*
X190650952Y-82446762D01*
X190746190Y-82494381D01*
X190841429Y-82494381D01*
X190936667Y-82446762D01*
X190984286Y-82399143D01*
X191031905Y-82303905D01*
X191079524Y-82113429D01*
X191079524Y-81875333D01*
X191031905Y-81684857D01*
X190984286Y-81589619D01*
X190936667Y-81542000D01*
X190841429Y-81494381D01*
X104814666Y-146756381D02*
X105148000Y-146280190D01*
X105386095Y-146756381D02*
X105386095Y-145756381D01*
X105005142Y-145756381D01*
X104909904Y-145804000D01*
X104862285Y-145851619D01*
X104814666Y-145946857D01*
X104814666Y-146089714D01*
X104862285Y-146184952D01*
X104909904Y-146232571D01*
X105005142Y-146280190D01*
X105386095Y-146280190D01*
X103862285Y-146756381D02*
X104433714Y-146756381D01*
X104148000Y-146756381D02*
X104148000Y-145756381D01*
X104243238Y-145899238D01*
X104338476Y-145994476D01*
X104433714Y-146042095D01*
X110402666Y-146502381D02*
X110736000Y-146026190D01*
X110974095Y-146502381D02*
X110974095Y-145502381D01*
X110593142Y-145502381D01*
X110497904Y-145550000D01*
X110450285Y-145597619D01*
X110402666Y-145692857D01*
X110402666Y-145835714D01*
X110450285Y-145930952D01*
X110497904Y-145978571D01*
X110593142Y-146026190D01*
X110974095Y-146026190D01*
X110021714Y-145597619D02*
X109974095Y-145550000D01*
X109878857Y-145502381D01*
X109640761Y-145502381D01*
X109545523Y-145550000D01*
X109497904Y-145597619D01*
X109450285Y-145692857D01*
X109450285Y-145788095D01*
X109497904Y-145930952D01*
X110069333Y-146502381D01*
X109450285Y-146502381D01*
X115736666Y-146756381D02*
X116070000Y-146280190D01*
X116308095Y-146756381D02*
X116308095Y-145756381D01*
X115927142Y-145756381D01*
X115831904Y-145804000D01*
X115784285Y-145851619D01*
X115736666Y-145946857D01*
X115736666Y-146089714D01*
X115784285Y-146184952D01*
X115831904Y-146232571D01*
X115927142Y-146280190D01*
X116308095Y-146280190D01*
X115403333Y-145756381D02*
X114784285Y-145756381D01*
X115117619Y-146137333D01*
X114974761Y-146137333D01*
X114879523Y-146184952D01*
X114831904Y-146232571D01*
X114784285Y-146327810D01*
X114784285Y-146565905D01*
X114831904Y-146661143D01*
X114879523Y-146708762D01*
X114974761Y-146756381D01*
X115260476Y-146756381D01*
X115355714Y-146708762D01*
X115403333Y-146661143D01*
X121578666Y-146756381D02*
X121912000Y-146280190D01*
X122150095Y-146756381D02*
X122150095Y-145756381D01*
X121769142Y-145756381D01*
X121673904Y-145804000D01*
X121626285Y-145851619D01*
X121578666Y-145946857D01*
X121578666Y-146089714D01*
X121626285Y-146184952D01*
X121673904Y-146232571D01*
X121769142Y-146280190D01*
X122150095Y-146280190D01*
X120721523Y-146089714D02*
X120721523Y-146756381D01*
X120959619Y-145708762D02*
X121197714Y-146423048D01*
X120578666Y-146423048D01*
X127166666Y-146756381D02*
X127500000Y-146280190D01*
X127738095Y-146756381D02*
X127738095Y-145756381D01*
X127357142Y-145756381D01*
X127261904Y-145804000D01*
X127214285Y-145851619D01*
X127166666Y-145946857D01*
X127166666Y-146089714D01*
X127214285Y-146184952D01*
X127261904Y-146232571D01*
X127357142Y-146280190D01*
X127738095Y-146280190D01*
X126261904Y-145756381D02*
X126738095Y-145756381D01*
X126785714Y-146232571D01*
X126738095Y-146184952D01*
X126642857Y-146137333D01*
X126404761Y-146137333D01*
X126309523Y-146184952D01*
X126261904Y-146232571D01*
X126214285Y-146327810D01*
X126214285Y-146565905D01*
X126261904Y-146661143D01*
X126309523Y-146708762D01*
X126404761Y-146756381D01*
X126642857Y-146756381D01*
X126738095Y-146708762D01*
X126785714Y-146661143D01*
X131738666Y-146502381D02*
X132072000Y-146026190D01*
X132310095Y-146502381D02*
X132310095Y-145502381D01*
X131929142Y-145502381D01*
X131833904Y-145550000D01*
X131786285Y-145597619D01*
X131738666Y-145692857D01*
X131738666Y-145835714D01*
X131786285Y-145930952D01*
X131833904Y-145978571D01*
X131929142Y-146026190D01*
X132310095Y-146026190D01*
X130881523Y-145502381D02*
X131072000Y-145502381D01*
X131167238Y-145550000D01*
X131214857Y-145597619D01*
X131310095Y-145740476D01*
X131357714Y-145930952D01*
X131357714Y-146311905D01*
X131310095Y-146407143D01*
X131262476Y-146454762D01*
X131167238Y-146502381D01*
X130976761Y-146502381D01*
X130881523Y-146454762D01*
X130833904Y-146407143D01*
X130786285Y-146311905D01*
X130786285Y-146073810D01*
X130833904Y-145978571D01*
X130881523Y-145930952D01*
X130976761Y-145883333D01*
X131167238Y-145883333D01*
X131262476Y-145930952D01*
X131310095Y-145978571D01*
X131357714Y-146073810D01*
X138850666Y-146756381D02*
X139184000Y-146280190D01*
X139422095Y-146756381D02*
X139422095Y-145756381D01*
X139041142Y-145756381D01*
X138945904Y-145804000D01*
X138898285Y-145851619D01*
X138850666Y-145946857D01*
X138850666Y-146089714D01*
X138898285Y-146184952D01*
X138945904Y-146232571D01*
X139041142Y-146280190D01*
X139422095Y-146280190D01*
X138517333Y-145756381D02*
X137850666Y-145756381D01*
X138279238Y-146756381D01*
X144692666Y-147010381D02*
X145026000Y-146534190D01*
X145264095Y-147010381D02*
X145264095Y-146010381D01*
X144883142Y-146010381D01*
X144787904Y-146058000D01*
X144740285Y-146105619D01*
X144692666Y-146200857D01*
X144692666Y-146343714D01*
X144740285Y-146438952D01*
X144787904Y-146486571D01*
X144883142Y-146534190D01*
X145264095Y-146534190D01*
X144121238Y-146438952D02*
X144216476Y-146391333D01*
X144264095Y-146343714D01*
X144311714Y-146248476D01*
X144311714Y-146200857D01*
X144264095Y-146105619D01*
X144216476Y-146058000D01*
X144121238Y-146010381D01*
X143930761Y-146010381D01*
X143835523Y-146058000D01*
X143787904Y-146105619D01*
X143740285Y-146200857D01*
X143740285Y-146248476D01*
X143787904Y-146343714D01*
X143835523Y-146391333D01*
X143930761Y-146438952D01*
X144121238Y-146438952D01*
X144216476Y-146486571D01*
X144264095Y-146534190D01*
X144311714Y-146629429D01*
X144311714Y-146819905D01*
X144264095Y-146915143D01*
X144216476Y-146962762D01*
X144121238Y-147010381D01*
X143930761Y-147010381D01*
X143835523Y-146962762D01*
X143787904Y-146915143D01*
X143740285Y-146819905D01*
X143740285Y-146629429D01*
X143787904Y-146534190D01*
X143835523Y-146486571D01*
X143930761Y-146438952D01*
X150280666Y-146756381D02*
X150614000Y-146280190D01*
X150852095Y-146756381D02*
X150852095Y-145756381D01*
X150471142Y-145756381D01*
X150375904Y-145804000D01*
X150328285Y-145851619D01*
X150280666Y-145946857D01*
X150280666Y-146089714D01*
X150328285Y-146184952D01*
X150375904Y-146232571D01*
X150471142Y-146280190D01*
X150852095Y-146280190D01*
X149804476Y-146756381D02*
X149614000Y-146756381D01*
X149518761Y-146708762D01*
X149471142Y-146661143D01*
X149375904Y-146518286D01*
X149328285Y-146327810D01*
X149328285Y-145946857D01*
X149375904Y-145851619D01*
X149423523Y-145804000D01*
X149518761Y-145756381D01*
X149709238Y-145756381D01*
X149804476Y-145804000D01*
X149852095Y-145851619D01*
X149899714Y-145946857D01*
X149899714Y-146184952D01*
X149852095Y-146280190D01*
X149804476Y-146327810D01*
X149709238Y-146375429D01*
X149518761Y-146375429D01*
X149423523Y-146327810D01*
X149375904Y-146280190D01*
X149328285Y-146184952D01*
X156598857Y-147010381D02*
X156932191Y-146534190D01*
X157170286Y-147010381D02*
X157170286Y-146010381D01*
X156789333Y-146010381D01*
X156694095Y-146058000D01*
X156646476Y-146105619D01*
X156598857Y-146200857D01*
X156598857Y-146343714D01*
X156646476Y-146438952D01*
X156694095Y-146486571D01*
X156789333Y-146534190D01*
X157170286Y-146534190D01*
X155646476Y-147010381D02*
X156217905Y-147010381D01*
X155932191Y-147010381D02*
X155932191Y-146010381D01*
X156027429Y-146153238D01*
X156122667Y-146248476D01*
X156217905Y-146296095D01*
X155027429Y-146010381D02*
X154932190Y-146010381D01*
X154836952Y-146058000D01*
X154789333Y-146105619D01*
X154741714Y-146200857D01*
X154694095Y-146391333D01*
X154694095Y-146629429D01*
X154741714Y-146819905D01*
X154789333Y-146915143D01*
X154836952Y-146962762D01*
X154932190Y-147010381D01*
X155027429Y-147010381D01*
X155122667Y-146962762D01*
X155170286Y-146915143D01*
X155217905Y-146819905D01*
X155265524Y-146629429D01*
X155265524Y-146391333D01*
X155217905Y-146200857D01*
X155170286Y-146105619D01*
X155122667Y-146058000D01*
X155027429Y-146010381D01*
X161932857Y-146502381D02*
X162266191Y-146026190D01*
X162504286Y-146502381D02*
X162504286Y-145502381D01*
X162123333Y-145502381D01*
X162028095Y-145550000D01*
X161980476Y-145597619D01*
X161932857Y-145692857D01*
X161932857Y-145835714D01*
X161980476Y-145930952D01*
X162028095Y-145978571D01*
X162123333Y-146026190D01*
X162504286Y-146026190D01*
X160980476Y-146502381D02*
X161551905Y-146502381D01*
X161266191Y-146502381D02*
X161266191Y-145502381D01*
X161361429Y-145645238D01*
X161456667Y-145740476D01*
X161551905Y-145788095D01*
X160028095Y-146502381D02*
X160599524Y-146502381D01*
X160313810Y-146502381D02*
X160313810Y-145502381D01*
X160409048Y-145645238D01*
X160504286Y-145740476D01*
X160599524Y-145788095D01*
X168282857Y-147010381D02*
X168616191Y-146534190D01*
X168854286Y-147010381D02*
X168854286Y-146010381D01*
X168473333Y-146010381D01*
X168378095Y-146058000D01*
X168330476Y-146105619D01*
X168282857Y-146200857D01*
X168282857Y-146343714D01*
X168330476Y-146438952D01*
X168378095Y-146486571D01*
X168473333Y-146534190D01*
X168854286Y-146534190D01*
X167330476Y-147010381D02*
X167901905Y-147010381D01*
X167616191Y-147010381D02*
X167616191Y-146010381D01*
X167711429Y-146153238D01*
X167806667Y-146248476D01*
X167901905Y-146296095D01*
X166949524Y-146105619D02*
X166901905Y-146058000D01*
X166806667Y-146010381D01*
X166568571Y-146010381D01*
X166473333Y-146058000D01*
X166425714Y-146105619D01*
X166378095Y-146200857D01*
X166378095Y-146296095D01*
X166425714Y-146438952D01*
X166997143Y-147010381D01*
X166378095Y-147010381D01*
X173616857Y-146756381D02*
X173950191Y-146280190D01*
X174188286Y-146756381D02*
X174188286Y-145756381D01*
X173807333Y-145756381D01*
X173712095Y-145804000D01*
X173664476Y-145851619D01*
X173616857Y-145946857D01*
X173616857Y-146089714D01*
X173664476Y-146184952D01*
X173712095Y-146232571D01*
X173807333Y-146280190D01*
X174188286Y-146280190D01*
X172664476Y-146756381D02*
X173235905Y-146756381D01*
X172950191Y-146756381D02*
X172950191Y-145756381D01*
X173045429Y-145899238D01*
X173140667Y-145994476D01*
X173235905Y-146042095D01*
X172331143Y-145756381D02*
X171712095Y-145756381D01*
X172045429Y-146137333D01*
X171902571Y-146137333D01*
X171807333Y-146184952D01*
X171759714Y-146232571D01*
X171712095Y-146327810D01*
X171712095Y-146565905D01*
X171759714Y-146661143D01*
X171807333Y-146708762D01*
X171902571Y-146756381D01*
X172188286Y-146756381D01*
X172283524Y-146708762D01*
X172331143Y-146661143D01*
X179712857Y-147010381D02*
X180046191Y-146534190D01*
X180284286Y-147010381D02*
X180284286Y-146010381D01*
X179903333Y-146010381D01*
X179808095Y-146058000D01*
X179760476Y-146105619D01*
X179712857Y-146200857D01*
X179712857Y-146343714D01*
X179760476Y-146438952D01*
X179808095Y-146486571D01*
X179903333Y-146534190D01*
X180284286Y-146534190D01*
X178760476Y-147010381D02*
X179331905Y-147010381D01*
X179046191Y-147010381D02*
X179046191Y-146010381D01*
X179141429Y-146153238D01*
X179236667Y-146248476D01*
X179331905Y-146296095D01*
X177903333Y-146343714D02*
X177903333Y-147010381D01*
X178141429Y-145962762D02*
X178379524Y-146677048D01*
X177760476Y-146677048D01*
X185046857Y-146756381D02*
X185380191Y-146280190D01*
X185618286Y-146756381D02*
X185618286Y-145756381D01*
X185237333Y-145756381D01*
X185142095Y-145804000D01*
X185094476Y-145851619D01*
X185046857Y-145946857D01*
X185046857Y-146089714D01*
X185094476Y-146184952D01*
X185142095Y-146232571D01*
X185237333Y-146280190D01*
X185618286Y-146280190D01*
X184094476Y-146756381D02*
X184665905Y-146756381D01*
X184380191Y-146756381D02*
X184380191Y-145756381D01*
X184475429Y-145899238D01*
X184570667Y-145994476D01*
X184665905Y-146042095D01*
X183189714Y-145756381D02*
X183665905Y-145756381D01*
X183713524Y-146232571D01*
X183665905Y-146184952D01*
X183570667Y-146137333D01*
X183332571Y-146137333D01*
X183237333Y-146184952D01*
X183189714Y-146232571D01*
X183142095Y-146327810D01*
X183142095Y-146565905D01*
X183189714Y-146661143D01*
X183237333Y-146708762D01*
X183332571Y-146756381D01*
X183570667Y-146756381D01*
X183665905Y-146708762D01*
X183713524Y-146661143D01*
X189364857Y-146756381D02*
X189698191Y-146280190D01*
X189936286Y-146756381D02*
X189936286Y-145756381D01*
X189555333Y-145756381D01*
X189460095Y-145804000D01*
X189412476Y-145851619D01*
X189364857Y-145946857D01*
X189364857Y-146089714D01*
X189412476Y-146184952D01*
X189460095Y-146232571D01*
X189555333Y-146280190D01*
X189936286Y-146280190D01*
X188412476Y-146756381D02*
X188983905Y-146756381D01*
X188698191Y-146756381D02*
X188698191Y-145756381D01*
X188793429Y-145899238D01*
X188888667Y-145994476D01*
X188983905Y-146042095D01*
X187555333Y-145756381D02*
X187745810Y-145756381D01*
X187841048Y-145804000D01*
X187888667Y-145851619D01*
X187983905Y-145994476D01*
X188031524Y-146184952D01*
X188031524Y-146565905D01*
X187983905Y-146661143D01*
X187936286Y-146708762D01*
X187841048Y-146756381D01*
X187650571Y-146756381D01*
X187555333Y-146708762D01*
X187507714Y-146661143D01*
X187460095Y-146565905D01*
X187460095Y-146327810D01*
X187507714Y-146232571D01*
X187555333Y-146184952D01*
X187650571Y-146137333D01*
X187841048Y-146137333D01*
X187936286Y-146184952D01*
X187983905Y-146232571D01*
X188031524Y-146327810D01*
X105798857Y-119324381D02*
X106132191Y-118848190D01*
X106370286Y-119324381D02*
X106370286Y-118324381D01*
X105989333Y-118324381D01*
X105894095Y-118372000D01*
X105846476Y-118419619D01*
X105798857Y-118514857D01*
X105798857Y-118657714D01*
X105846476Y-118752952D01*
X105894095Y-118800571D01*
X105989333Y-118848190D01*
X106370286Y-118848190D01*
X104846476Y-119324381D02*
X105417905Y-119324381D01*
X105132191Y-119324381D02*
X105132191Y-118324381D01*
X105227429Y-118467238D01*
X105322667Y-118562476D01*
X105417905Y-118610095D01*
X104513143Y-118324381D02*
X103846476Y-118324381D01*
X104275048Y-119324381D01*
X105100381Y-62603143D02*
X104624190Y-62269809D01*
X105100381Y-62031714D02*
X104100381Y-62031714D01*
X104100381Y-62412667D01*
X104148000Y-62507905D01*
X104195619Y-62555524D01*
X104290857Y-62603143D01*
X104433714Y-62603143D01*
X104528952Y-62555524D01*
X104576571Y-62507905D01*
X104624190Y-62412667D01*
X104624190Y-62031714D01*
X105100381Y-63555524D02*
X105100381Y-62984095D01*
X105100381Y-63269809D02*
X104100381Y-63269809D01*
X104243238Y-63174571D01*
X104338476Y-63079333D01*
X104386095Y-62984095D01*
X104528952Y-64126952D02*
X104481333Y-64031714D01*
X104433714Y-63984095D01*
X104338476Y-63936476D01*
X104290857Y-63936476D01*
X104195619Y-63984095D01*
X104148000Y-64031714D01*
X104100381Y-64126952D01*
X104100381Y-64317429D01*
X104148000Y-64412667D01*
X104195619Y-64460286D01*
X104290857Y-64507905D01*
X104338476Y-64507905D01*
X104433714Y-64460286D01*
X104481333Y-64412667D01*
X104528952Y-64317429D01*
X104528952Y-64126952D01*
X104576571Y-64031714D01*
X104624190Y-63984095D01*
X104719429Y-63936476D01*
X104909905Y-63936476D01*
X105005143Y-63984095D01*
X105052762Y-64031714D01*
X105100381Y-64126952D01*
X105100381Y-64317429D01*
X105052762Y-64412667D01*
X105005143Y-64460286D01*
X104909905Y-64507905D01*
X104719429Y-64507905D01*
X104624190Y-64460286D01*
X104576571Y-64412667D01*
X104528952Y-64317429D01*
X170060857Y-137612381D02*
X170394191Y-137136190D01*
X170632286Y-137612381D02*
X170632286Y-136612381D01*
X170251333Y-136612381D01*
X170156095Y-136660000D01*
X170108476Y-136707619D01*
X170060857Y-136802857D01*
X170060857Y-136945714D01*
X170108476Y-137040952D01*
X170156095Y-137088571D01*
X170251333Y-137136190D01*
X170632286Y-137136190D01*
X169108476Y-137612381D02*
X169679905Y-137612381D01*
X169394191Y-137612381D02*
X169394191Y-136612381D01*
X169489429Y-136755238D01*
X169584667Y-136850476D01*
X169679905Y-136898095D01*
X168632286Y-137612381D02*
X168441810Y-137612381D01*
X168346571Y-137564762D01*
X168298952Y-137517143D01*
X168203714Y-137374286D01*
X168156095Y-137183810D01*
X168156095Y-136802857D01*
X168203714Y-136707619D01*
X168251333Y-136660000D01*
X168346571Y-136612381D01*
X168537048Y-136612381D01*
X168632286Y-136660000D01*
X168679905Y-136707619D01*
X168727524Y-136802857D01*
X168727524Y-137040952D01*
X168679905Y-137136190D01*
X168632286Y-137183810D01*
X168537048Y-137231429D01*
X168346571Y-137231429D01*
X168251333Y-137183810D01*
X168203714Y-137136190D01*
X168156095Y-137040952D01*
X179082381Y-134485143D02*
X178606190Y-134151809D01*
X179082381Y-133913714D02*
X178082381Y-133913714D01*
X178082381Y-134294667D01*
X178130000Y-134389905D01*
X178177619Y-134437524D01*
X178272857Y-134485143D01*
X178415714Y-134485143D01*
X178510952Y-134437524D01*
X178558571Y-134389905D01*
X178606190Y-134294667D01*
X178606190Y-133913714D01*
X178177619Y-134866095D02*
X178130000Y-134913714D01*
X178082381Y-135008952D01*
X178082381Y-135247048D01*
X178130000Y-135342286D01*
X178177619Y-135389905D01*
X178272857Y-135437524D01*
X178368095Y-135437524D01*
X178510952Y-135389905D01*
X179082381Y-134818476D01*
X179082381Y-135437524D01*
X178082381Y-136056571D02*
X178082381Y-136151810D01*
X178130000Y-136247048D01*
X178177619Y-136294667D01*
X178272857Y-136342286D01*
X178463333Y-136389905D01*
X178701429Y-136389905D01*
X178891905Y-136342286D01*
X178987143Y-136294667D01*
X179034762Y-136247048D01*
X179082381Y-136151810D01*
X179082381Y-136056571D01*
X179034762Y-135961333D01*
X178987143Y-135913714D01*
X178891905Y-135866095D01*
X178701429Y-135818476D01*
X178463333Y-135818476D01*
X178272857Y-135866095D01*
X178177619Y-135913714D01*
X178130000Y-135961333D01*
X178082381Y-136056571D01*
X110688381Y-62603143D02*
X110212190Y-62269809D01*
X110688381Y-62031714D02*
X109688381Y-62031714D01*
X109688381Y-62412667D01*
X109736000Y-62507905D01*
X109783619Y-62555524D01*
X109878857Y-62603143D01*
X110021714Y-62603143D01*
X110116952Y-62555524D01*
X110164571Y-62507905D01*
X110212190Y-62412667D01*
X110212190Y-62031714D01*
X109783619Y-62984095D02*
X109736000Y-63031714D01*
X109688381Y-63126952D01*
X109688381Y-63365048D01*
X109736000Y-63460286D01*
X109783619Y-63507905D01*
X109878857Y-63555524D01*
X109974095Y-63555524D01*
X110116952Y-63507905D01*
X110688381Y-62936476D01*
X110688381Y-63555524D01*
X110688381Y-64507905D02*
X110688381Y-63936476D01*
X110688381Y-64222190D02*
X109688381Y-64222190D01*
X109831238Y-64126952D01*
X109926476Y-64031714D01*
X109974095Y-63936476D01*
X116530381Y-62603143D02*
X116054190Y-62269809D01*
X116530381Y-62031714D02*
X115530381Y-62031714D01*
X115530381Y-62412667D01*
X115578000Y-62507905D01*
X115625619Y-62555524D01*
X115720857Y-62603143D01*
X115863714Y-62603143D01*
X115958952Y-62555524D01*
X116006571Y-62507905D01*
X116054190Y-62412667D01*
X116054190Y-62031714D01*
X115625619Y-62984095D02*
X115578000Y-63031714D01*
X115530381Y-63126952D01*
X115530381Y-63365048D01*
X115578000Y-63460286D01*
X115625619Y-63507905D01*
X115720857Y-63555524D01*
X115816095Y-63555524D01*
X115958952Y-63507905D01*
X116530381Y-62936476D01*
X116530381Y-63555524D01*
X115625619Y-63936476D02*
X115578000Y-63984095D01*
X115530381Y-64079333D01*
X115530381Y-64317429D01*
X115578000Y-64412667D01*
X115625619Y-64460286D01*
X115720857Y-64507905D01*
X115816095Y-64507905D01*
X115958952Y-64460286D01*
X116530381Y-63888857D01*
X116530381Y-64507905D01*
X122118381Y-62603143D02*
X121642190Y-62269809D01*
X122118381Y-62031714D02*
X121118381Y-62031714D01*
X121118381Y-62412667D01*
X121166000Y-62507905D01*
X121213619Y-62555524D01*
X121308857Y-62603143D01*
X121451714Y-62603143D01*
X121546952Y-62555524D01*
X121594571Y-62507905D01*
X121642190Y-62412667D01*
X121642190Y-62031714D01*
X121213619Y-62984095D02*
X121166000Y-63031714D01*
X121118381Y-63126952D01*
X121118381Y-63365048D01*
X121166000Y-63460286D01*
X121213619Y-63507905D01*
X121308857Y-63555524D01*
X121404095Y-63555524D01*
X121546952Y-63507905D01*
X122118381Y-62936476D01*
X122118381Y-63555524D01*
X121118381Y-63888857D02*
X121118381Y-64507905D01*
X121499333Y-64174571D01*
X121499333Y-64317429D01*
X121546952Y-64412667D01*
X121594571Y-64460286D01*
X121689810Y-64507905D01*
X121927905Y-64507905D01*
X122023143Y-64460286D01*
X122070762Y-64412667D01*
X122118381Y-64317429D01*
X122118381Y-64031714D01*
X122070762Y-63936476D01*
X122023143Y-63888857D01*
X127960381Y-62603143D02*
X127484190Y-62269809D01*
X127960381Y-62031714D02*
X126960381Y-62031714D01*
X126960381Y-62412667D01*
X127008000Y-62507905D01*
X127055619Y-62555524D01*
X127150857Y-62603143D01*
X127293714Y-62603143D01*
X127388952Y-62555524D01*
X127436571Y-62507905D01*
X127484190Y-62412667D01*
X127484190Y-62031714D01*
X127055619Y-62984095D02*
X127008000Y-63031714D01*
X126960381Y-63126952D01*
X126960381Y-63365048D01*
X127008000Y-63460286D01*
X127055619Y-63507905D01*
X127150857Y-63555524D01*
X127246095Y-63555524D01*
X127388952Y-63507905D01*
X127960381Y-62936476D01*
X127960381Y-63555524D01*
X127293714Y-64412667D02*
X127960381Y-64412667D01*
X126912762Y-64174571D02*
X127627048Y-63936476D01*
X127627048Y-64555524D01*
X133294381Y-62603143D02*
X132818190Y-62269809D01*
X133294381Y-62031714D02*
X132294381Y-62031714D01*
X132294381Y-62412667D01*
X132342000Y-62507905D01*
X132389619Y-62555524D01*
X132484857Y-62603143D01*
X132627714Y-62603143D01*
X132722952Y-62555524D01*
X132770571Y-62507905D01*
X132818190Y-62412667D01*
X132818190Y-62031714D01*
X132389619Y-62984095D02*
X132342000Y-63031714D01*
X132294381Y-63126952D01*
X132294381Y-63365048D01*
X132342000Y-63460286D01*
X132389619Y-63507905D01*
X132484857Y-63555524D01*
X132580095Y-63555524D01*
X132722952Y-63507905D01*
X133294381Y-62936476D01*
X133294381Y-63555524D01*
X132294381Y-64460286D02*
X132294381Y-63984095D01*
X132770571Y-63936476D01*
X132722952Y-63984095D01*
X132675333Y-64079333D01*
X132675333Y-64317429D01*
X132722952Y-64412667D01*
X132770571Y-64460286D01*
X132865810Y-64507905D01*
X133103905Y-64507905D01*
X133199143Y-64460286D01*
X133246762Y-64412667D01*
X133294381Y-64317429D01*
X133294381Y-64079333D01*
X133246762Y-63984095D01*
X133199143Y-63936476D01*
X139390381Y-62603143D02*
X138914190Y-62269809D01*
X139390381Y-62031714D02*
X138390381Y-62031714D01*
X138390381Y-62412667D01*
X138438000Y-62507905D01*
X138485619Y-62555524D01*
X138580857Y-62603143D01*
X138723714Y-62603143D01*
X138818952Y-62555524D01*
X138866571Y-62507905D01*
X138914190Y-62412667D01*
X138914190Y-62031714D01*
X138485619Y-62984095D02*
X138438000Y-63031714D01*
X138390381Y-63126952D01*
X138390381Y-63365048D01*
X138438000Y-63460286D01*
X138485619Y-63507905D01*
X138580857Y-63555524D01*
X138676095Y-63555524D01*
X138818952Y-63507905D01*
X139390381Y-62936476D01*
X139390381Y-63555524D01*
X138390381Y-64412667D02*
X138390381Y-64222190D01*
X138438000Y-64126952D01*
X138485619Y-64079333D01*
X138628476Y-63984095D01*
X138818952Y-63936476D01*
X139199905Y-63936476D01*
X139295143Y-63984095D01*
X139342762Y-64031714D01*
X139390381Y-64126952D01*
X139390381Y-64317429D01*
X139342762Y-64412667D01*
X139295143Y-64460286D01*
X139199905Y-64507905D01*
X138961810Y-64507905D01*
X138866571Y-64460286D01*
X138818952Y-64412667D01*
X138771333Y-64317429D01*
X138771333Y-64126952D01*
X138818952Y-64031714D01*
X138866571Y-63984095D01*
X138961810Y-63936476D01*
X144724381Y-62603143D02*
X144248190Y-62269809D01*
X144724381Y-62031714D02*
X143724381Y-62031714D01*
X143724381Y-62412667D01*
X143772000Y-62507905D01*
X143819619Y-62555524D01*
X143914857Y-62603143D01*
X144057714Y-62603143D01*
X144152952Y-62555524D01*
X144200571Y-62507905D01*
X144248190Y-62412667D01*
X144248190Y-62031714D01*
X143819619Y-62984095D02*
X143772000Y-63031714D01*
X143724381Y-63126952D01*
X143724381Y-63365048D01*
X143772000Y-63460286D01*
X143819619Y-63507905D01*
X143914857Y-63555524D01*
X144010095Y-63555524D01*
X144152952Y-63507905D01*
X144724381Y-62936476D01*
X144724381Y-63555524D01*
X143724381Y-63888857D02*
X143724381Y-64555524D01*
X144724381Y-64126952D01*
X150820381Y-62603143D02*
X150344190Y-62269809D01*
X150820381Y-62031714D02*
X149820381Y-62031714D01*
X149820381Y-62412667D01*
X149868000Y-62507905D01*
X149915619Y-62555524D01*
X150010857Y-62603143D01*
X150153714Y-62603143D01*
X150248952Y-62555524D01*
X150296571Y-62507905D01*
X150344190Y-62412667D01*
X150344190Y-62031714D01*
X149915619Y-62984095D02*
X149868000Y-63031714D01*
X149820381Y-63126952D01*
X149820381Y-63365048D01*
X149868000Y-63460286D01*
X149915619Y-63507905D01*
X150010857Y-63555524D01*
X150106095Y-63555524D01*
X150248952Y-63507905D01*
X150820381Y-62936476D01*
X150820381Y-63555524D01*
X150248952Y-64126952D02*
X150201333Y-64031714D01*
X150153714Y-63984095D01*
X150058476Y-63936476D01*
X150010857Y-63936476D01*
X149915619Y-63984095D01*
X149868000Y-64031714D01*
X149820381Y-64126952D01*
X149820381Y-64317429D01*
X149868000Y-64412667D01*
X149915619Y-64460286D01*
X150010857Y-64507905D01*
X150058476Y-64507905D01*
X150153714Y-64460286D01*
X150201333Y-64412667D01*
X150248952Y-64317429D01*
X150248952Y-64126952D01*
X150296571Y-64031714D01*
X150344190Y-63984095D01*
X150439429Y-63936476D01*
X150629905Y-63936476D01*
X150725143Y-63984095D01*
X150772762Y-64031714D01*
X150820381Y-64126952D01*
X150820381Y-64317429D01*
X150772762Y-64412667D01*
X150725143Y-64460286D01*
X150629905Y-64507905D01*
X150439429Y-64507905D01*
X150344190Y-64460286D01*
X150296571Y-64412667D01*
X150248952Y-64317429D01*
X156408381Y-62603143D02*
X155932190Y-62269809D01*
X156408381Y-62031714D02*
X155408381Y-62031714D01*
X155408381Y-62412667D01*
X155456000Y-62507905D01*
X155503619Y-62555524D01*
X155598857Y-62603143D01*
X155741714Y-62603143D01*
X155836952Y-62555524D01*
X155884571Y-62507905D01*
X155932190Y-62412667D01*
X155932190Y-62031714D01*
X155503619Y-62984095D02*
X155456000Y-63031714D01*
X155408381Y-63126952D01*
X155408381Y-63365048D01*
X155456000Y-63460286D01*
X155503619Y-63507905D01*
X155598857Y-63555524D01*
X155694095Y-63555524D01*
X155836952Y-63507905D01*
X156408381Y-62936476D01*
X156408381Y-63555524D01*
X156408381Y-64031714D02*
X156408381Y-64222190D01*
X156360762Y-64317429D01*
X156313143Y-64365048D01*
X156170286Y-64460286D01*
X155979810Y-64507905D01*
X155598857Y-64507905D01*
X155503619Y-64460286D01*
X155456000Y-64412667D01*
X155408381Y-64317429D01*
X155408381Y-64126952D01*
X155456000Y-64031714D01*
X155503619Y-63984095D01*
X155598857Y-63936476D01*
X155836952Y-63936476D01*
X155932190Y-63984095D01*
X155979810Y-64031714D01*
X156027429Y-64126952D01*
X156027429Y-64317429D01*
X155979810Y-64412667D01*
X155932190Y-64460286D01*
X155836952Y-64507905D01*
X162250381Y-62603143D02*
X161774190Y-62269809D01*
X162250381Y-62031714D02*
X161250381Y-62031714D01*
X161250381Y-62412667D01*
X161298000Y-62507905D01*
X161345619Y-62555524D01*
X161440857Y-62603143D01*
X161583714Y-62603143D01*
X161678952Y-62555524D01*
X161726571Y-62507905D01*
X161774190Y-62412667D01*
X161774190Y-62031714D01*
X161250381Y-62936476D02*
X161250381Y-63555524D01*
X161631333Y-63222190D01*
X161631333Y-63365048D01*
X161678952Y-63460286D01*
X161726571Y-63507905D01*
X161821810Y-63555524D01*
X162059905Y-63555524D01*
X162155143Y-63507905D01*
X162202762Y-63460286D01*
X162250381Y-63365048D01*
X162250381Y-63079333D01*
X162202762Y-62984095D01*
X162155143Y-62936476D01*
X161250381Y-64174571D02*
X161250381Y-64269810D01*
X161298000Y-64365048D01*
X161345619Y-64412667D01*
X161440857Y-64460286D01*
X161631333Y-64507905D01*
X161869429Y-64507905D01*
X162059905Y-64460286D01*
X162155143Y-64412667D01*
X162202762Y-64365048D01*
X162250381Y-64269810D01*
X162250381Y-64174571D01*
X162202762Y-64079333D01*
X162155143Y-64031714D01*
X162059905Y-63984095D01*
X161869429Y-63936476D01*
X161631333Y-63936476D01*
X161440857Y-63984095D01*
X161345619Y-64031714D01*
X161298000Y-64079333D01*
X161250381Y-64174571D01*
X167584381Y-62603143D02*
X167108190Y-62269809D01*
X167584381Y-62031714D02*
X166584381Y-62031714D01*
X166584381Y-62412667D01*
X166632000Y-62507905D01*
X166679619Y-62555524D01*
X166774857Y-62603143D01*
X166917714Y-62603143D01*
X167012952Y-62555524D01*
X167060571Y-62507905D01*
X167108190Y-62412667D01*
X167108190Y-62031714D01*
X166584381Y-62936476D02*
X166584381Y-63555524D01*
X166965333Y-63222190D01*
X166965333Y-63365048D01*
X167012952Y-63460286D01*
X167060571Y-63507905D01*
X167155810Y-63555524D01*
X167393905Y-63555524D01*
X167489143Y-63507905D01*
X167536762Y-63460286D01*
X167584381Y-63365048D01*
X167584381Y-63079333D01*
X167536762Y-62984095D01*
X167489143Y-62936476D01*
X167584381Y-64507905D02*
X167584381Y-63936476D01*
X167584381Y-64222190D02*
X166584381Y-64222190D01*
X166727238Y-64126952D01*
X166822476Y-64031714D01*
X166870095Y-63936476D01*
X176664857Y-63952381D02*
X176998191Y-63476190D01*
X177236286Y-63952381D02*
X177236286Y-62952381D01*
X176855333Y-62952381D01*
X176760095Y-63000000D01*
X176712476Y-63047619D01*
X176664857Y-63142857D01*
X176664857Y-63285714D01*
X176712476Y-63380952D01*
X176760095Y-63428571D01*
X176855333Y-63476190D01*
X177236286Y-63476190D01*
X176331524Y-62952381D02*
X175712476Y-62952381D01*
X176045810Y-63333333D01*
X175902952Y-63333333D01*
X175807714Y-63380952D01*
X175760095Y-63428571D01*
X175712476Y-63523810D01*
X175712476Y-63761905D01*
X175760095Y-63857143D01*
X175807714Y-63904762D01*
X175902952Y-63952381D01*
X176188667Y-63952381D01*
X176283905Y-63904762D01*
X176331524Y-63857143D01*
X175331524Y-63047619D02*
X175283905Y-63000000D01*
X175188667Y-62952381D01*
X174950571Y-62952381D01*
X174855333Y-63000000D01*
X174807714Y-63047619D01*
X174760095Y-63142857D01*
X174760095Y-63238095D01*
X174807714Y-63380952D01*
X175379143Y-63952381D01*
X174760095Y-63952381D01*
X175140857Y-69286381D02*
X175474191Y-68810190D01*
X175712286Y-69286381D02*
X175712286Y-68286381D01*
X175331333Y-68286381D01*
X175236095Y-68334000D01*
X175188476Y-68381619D01*
X175140857Y-68476857D01*
X175140857Y-68619714D01*
X175188476Y-68714952D01*
X175236095Y-68762571D01*
X175331333Y-68810190D01*
X175712286Y-68810190D01*
X174807524Y-68286381D02*
X174188476Y-68286381D01*
X174521810Y-68667333D01*
X174378952Y-68667333D01*
X174283714Y-68714952D01*
X174236095Y-68762571D01*
X174188476Y-68857810D01*
X174188476Y-69095905D01*
X174236095Y-69191143D01*
X174283714Y-69238762D01*
X174378952Y-69286381D01*
X174664667Y-69286381D01*
X174759905Y-69238762D01*
X174807524Y-69191143D01*
X173855143Y-68286381D02*
X173236095Y-68286381D01*
X173569429Y-68667333D01*
X173426571Y-68667333D01*
X173331333Y-68714952D01*
X173283714Y-68762571D01*
X173236095Y-68857810D01*
X173236095Y-69095905D01*
X173283714Y-69191143D01*
X173331333Y-69238762D01*
X173426571Y-69286381D01*
X173712286Y-69286381D01*
X173807524Y-69238762D01*
X173855143Y-69191143D01*
X183840381Y-62349143D02*
X183364190Y-62015809D01*
X183840381Y-61777714D02*
X182840381Y-61777714D01*
X182840381Y-62158667D01*
X182888000Y-62253905D01*
X182935619Y-62301524D01*
X183030857Y-62349143D01*
X183173714Y-62349143D01*
X183268952Y-62301524D01*
X183316571Y-62253905D01*
X183364190Y-62158667D01*
X183364190Y-61777714D01*
X182840381Y-62682476D02*
X182840381Y-63301524D01*
X183221333Y-62968190D01*
X183221333Y-63111048D01*
X183268952Y-63206286D01*
X183316571Y-63253905D01*
X183411810Y-63301524D01*
X183649905Y-63301524D01*
X183745143Y-63253905D01*
X183792762Y-63206286D01*
X183840381Y-63111048D01*
X183840381Y-62825333D01*
X183792762Y-62730095D01*
X183745143Y-62682476D01*
X183173714Y-64158667D02*
X183840381Y-64158667D01*
X182792762Y-63920571D02*
X183507048Y-63682476D01*
X183507048Y-64301524D01*
X178696857Y-69286381D02*
X179030191Y-68810190D01*
X179268286Y-69286381D02*
X179268286Y-68286381D01*
X178887333Y-68286381D01*
X178792095Y-68334000D01*
X178744476Y-68381619D01*
X178696857Y-68476857D01*
X178696857Y-68619714D01*
X178744476Y-68714952D01*
X178792095Y-68762571D01*
X178887333Y-68810190D01*
X179268286Y-68810190D01*
X178363524Y-68286381D02*
X177744476Y-68286381D01*
X178077810Y-68667333D01*
X177934952Y-68667333D01*
X177839714Y-68714952D01*
X177792095Y-68762571D01*
X177744476Y-68857810D01*
X177744476Y-69095905D01*
X177792095Y-69191143D01*
X177839714Y-69238762D01*
X177934952Y-69286381D01*
X178220667Y-69286381D01*
X178315905Y-69238762D01*
X178363524Y-69191143D01*
X176839714Y-68286381D02*
X177315905Y-68286381D01*
X177363524Y-68762571D01*
X177315905Y-68714952D01*
X177220667Y-68667333D01*
X176982571Y-68667333D01*
X176887333Y-68714952D01*
X176839714Y-68762571D01*
X176792095Y-68857810D01*
X176792095Y-69095905D01*
X176839714Y-69191143D01*
X176887333Y-69238762D01*
X176982571Y-69286381D01*
X177220667Y-69286381D01*
X177315905Y-69238762D01*
X177363524Y-69191143D01*
X191396857Y-72080381D02*
X191730191Y-71604190D01*
X191968286Y-72080381D02*
X191968286Y-71080381D01*
X191587333Y-71080381D01*
X191492095Y-71128000D01*
X191444476Y-71175619D01*
X191396857Y-71270857D01*
X191396857Y-71413714D01*
X191444476Y-71508952D01*
X191492095Y-71556571D01*
X191587333Y-71604190D01*
X191968286Y-71604190D01*
X191063524Y-71080381D02*
X190444476Y-71080381D01*
X190777810Y-71461333D01*
X190634952Y-71461333D01*
X190539714Y-71508952D01*
X190492095Y-71556571D01*
X190444476Y-71651810D01*
X190444476Y-71889905D01*
X190492095Y-71985143D01*
X190539714Y-72032762D01*
X190634952Y-72080381D01*
X190920667Y-72080381D01*
X191015905Y-72032762D01*
X191063524Y-71985143D01*
X190111143Y-71080381D02*
X189444476Y-71080381D01*
X189873048Y-72080381D01*
X191396857Y-74366381D02*
X191730191Y-73890190D01*
X191968286Y-74366381D02*
X191968286Y-73366381D01*
X191587333Y-73366381D01*
X191492095Y-73414000D01*
X191444476Y-73461619D01*
X191396857Y-73556857D01*
X191396857Y-73699714D01*
X191444476Y-73794952D01*
X191492095Y-73842571D01*
X191587333Y-73890190D01*
X191968286Y-73890190D01*
X191063524Y-73366381D02*
X190444476Y-73366381D01*
X190777810Y-73747333D01*
X190634952Y-73747333D01*
X190539714Y-73794952D01*
X190492095Y-73842571D01*
X190444476Y-73937810D01*
X190444476Y-74175905D01*
X190492095Y-74271143D01*
X190539714Y-74318762D01*
X190634952Y-74366381D01*
X190920667Y-74366381D01*
X191015905Y-74318762D01*
X191063524Y-74271143D01*
X189968286Y-74366381D02*
X189777810Y-74366381D01*
X189682571Y-74318762D01*
X189634952Y-74271143D01*
X189539714Y-74128286D01*
X189492095Y-73937810D01*
X189492095Y-73556857D01*
X189539714Y-73461619D01*
X189587333Y-73414000D01*
X189682571Y-73366381D01*
X189873048Y-73366381D01*
X189968286Y-73414000D01*
X190015905Y-73461619D01*
X190063524Y-73556857D01*
X190063524Y-73794952D01*
X190015905Y-73890190D01*
X189968286Y-73937810D01*
X189873048Y-73985429D01*
X189682571Y-73985429D01*
X189587333Y-73937810D01*
X189539714Y-73890190D01*
X189492095Y-73794952D01*
X107322857Y-100274381D02*
X107656191Y-99798190D01*
X107894286Y-100274381D02*
X107894286Y-99274381D01*
X107513333Y-99274381D01*
X107418095Y-99322000D01*
X107370476Y-99369619D01*
X107322857Y-99464857D01*
X107322857Y-99607714D01*
X107370476Y-99702952D01*
X107418095Y-99750571D01*
X107513333Y-99798190D01*
X107894286Y-99798190D01*
X106465714Y-99607714D02*
X106465714Y-100274381D01*
X106703810Y-99226762D02*
X106941905Y-99941048D01*
X106322857Y-99941048D01*
X105751429Y-99274381D02*
X105656190Y-99274381D01*
X105560952Y-99322000D01*
X105513333Y-99369619D01*
X105465714Y-99464857D01*
X105418095Y-99655333D01*
X105418095Y-99893429D01*
X105465714Y-100083905D01*
X105513333Y-100179143D01*
X105560952Y-100226762D01*
X105656190Y-100274381D01*
X105751429Y-100274381D01*
X105846667Y-100226762D01*
X105894286Y-100179143D01*
X105941905Y-100083905D01*
X105989524Y-99893429D01*
X105989524Y-99655333D01*
X105941905Y-99464857D01*
X105894286Y-99369619D01*
X105846667Y-99322000D01*
X105751429Y-99274381D01*
X112402857Y-100274381D02*
X112736191Y-99798190D01*
X112974286Y-100274381D02*
X112974286Y-99274381D01*
X112593333Y-99274381D01*
X112498095Y-99322000D01*
X112450476Y-99369619D01*
X112402857Y-99464857D01*
X112402857Y-99607714D01*
X112450476Y-99702952D01*
X112498095Y-99750571D01*
X112593333Y-99798190D01*
X112974286Y-99798190D01*
X111545714Y-99607714D02*
X111545714Y-100274381D01*
X111783810Y-99226762D02*
X112021905Y-99941048D01*
X111402857Y-99941048D01*
X110498095Y-100274381D02*
X111069524Y-100274381D01*
X110783810Y-100274381D02*
X110783810Y-99274381D01*
X110879048Y-99417238D01*
X110974286Y-99512476D01*
X111069524Y-99560095D01*
X120022857Y-100342381D02*
X120356191Y-99866190D01*
X120594286Y-100342381D02*
X120594286Y-99342381D01*
X120213333Y-99342381D01*
X120118095Y-99390000D01*
X120070476Y-99437619D01*
X120022857Y-99532857D01*
X120022857Y-99675714D01*
X120070476Y-99770952D01*
X120118095Y-99818571D01*
X120213333Y-99866190D01*
X120594286Y-99866190D01*
X119165714Y-99675714D02*
X119165714Y-100342381D01*
X119403810Y-99294762D02*
X119641905Y-100009048D01*
X119022857Y-100009048D01*
X118689524Y-99437619D02*
X118641905Y-99390000D01*
X118546667Y-99342381D01*
X118308571Y-99342381D01*
X118213333Y-99390000D01*
X118165714Y-99437619D01*
X118118095Y-99532857D01*
X118118095Y-99628095D01*
X118165714Y-99770952D01*
X118737143Y-100342381D01*
X118118095Y-100342381D01*
X152026857Y-100342381D02*
X152360191Y-99866190D01*
X152598286Y-100342381D02*
X152598286Y-99342381D01*
X152217333Y-99342381D01*
X152122095Y-99390000D01*
X152074476Y-99437619D01*
X152026857Y-99532857D01*
X152026857Y-99675714D01*
X152074476Y-99770952D01*
X152122095Y-99818571D01*
X152217333Y-99866190D01*
X152598286Y-99866190D01*
X151169714Y-99675714D02*
X151169714Y-100342381D01*
X151407810Y-99294762D02*
X151645905Y-100009048D01*
X151026857Y-100009048D01*
X150741143Y-99342381D02*
X150122095Y-99342381D01*
X150455429Y-99723333D01*
X150312571Y-99723333D01*
X150217333Y-99770952D01*
X150169714Y-99818571D01*
X150122095Y-99913810D01*
X150122095Y-100151905D01*
X150169714Y-100247143D01*
X150217333Y-100294762D01*
X150312571Y-100342381D01*
X150598286Y-100342381D01*
X150693524Y-100294762D01*
X150741143Y-100247143D01*
X155582857Y-86304381D02*
X155916191Y-85828190D01*
X156154286Y-86304381D02*
X156154286Y-85304381D01*
X155773333Y-85304381D01*
X155678095Y-85352000D01*
X155630476Y-85399619D01*
X155582857Y-85494857D01*
X155582857Y-85637714D01*
X155630476Y-85732952D01*
X155678095Y-85780571D01*
X155773333Y-85828190D01*
X156154286Y-85828190D01*
X154725714Y-85637714D02*
X154725714Y-86304381D01*
X154963810Y-85256762D02*
X155201905Y-85971048D01*
X154582857Y-85971048D01*
X153773333Y-85637714D02*
X153773333Y-86304381D01*
X154011429Y-85256762D02*
X154249524Y-85971048D01*
X153630476Y-85971048D01*
X155582857Y-89098381D02*
X155916191Y-88622190D01*
X156154286Y-89098381D02*
X156154286Y-88098381D01*
X155773333Y-88098381D01*
X155678095Y-88146000D01*
X155630476Y-88193619D01*
X155582857Y-88288857D01*
X155582857Y-88431714D01*
X155630476Y-88526952D01*
X155678095Y-88574571D01*
X155773333Y-88622190D01*
X156154286Y-88622190D01*
X154725714Y-88431714D02*
X154725714Y-89098381D01*
X154963810Y-88050762D02*
X155201905Y-88765048D01*
X154582857Y-88765048D01*
X153725714Y-88098381D02*
X154201905Y-88098381D01*
X154249524Y-88574571D01*
X154201905Y-88526952D01*
X154106667Y-88479333D01*
X153868571Y-88479333D01*
X153773333Y-88526952D01*
X153725714Y-88574571D01*
X153678095Y-88669810D01*
X153678095Y-88907905D01*
X153725714Y-89003143D01*
X153773333Y-89050762D01*
X153868571Y-89098381D01*
X154106667Y-89098381D01*
X154201905Y-89050762D01*
X154249524Y-89003143D01*
X155582857Y-91384381D02*
X155916191Y-90908190D01*
X156154286Y-91384381D02*
X156154286Y-90384381D01*
X155773333Y-90384381D01*
X155678095Y-90432000D01*
X155630476Y-90479619D01*
X155582857Y-90574857D01*
X155582857Y-90717714D01*
X155630476Y-90812952D01*
X155678095Y-90860571D01*
X155773333Y-90908190D01*
X156154286Y-90908190D01*
X154725714Y-90717714D02*
X154725714Y-91384381D01*
X154963810Y-90336762D02*
X155201905Y-91051048D01*
X154582857Y-91051048D01*
X153773333Y-90384381D02*
X153963810Y-90384381D01*
X154059048Y-90432000D01*
X154106667Y-90479619D01*
X154201905Y-90622476D01*
X154249524Y-90812952D01*
X154249524Y-91193905D01*
X154201905Y-91289143D01*
X154154286Y-91336762D01*
X154059048Y-91384381D01*
X153868571Y-91384381D01*
X153773333Y-91336762D01*
X153725714Y-91289143D01*
X153678095Y-91193905D01*
X153678095Y-90955810D01*
X153725714Y-90860571D01*
X153773333Y-90812952D01*
X153868571Y-90765333D01*
X154059048Y-90765333D01*
X154154286Y-90812952D01*
X154201905Y-90860571D01*
X154249524Y-90955810D01*
X155582857Y-93924381D02*
X155916191Y-93448190D01*
X156154286Y-93924381D02*
X156154286Y-92924381D01*
X155773333Y-92924381D01*
X155678095Y-92972000D01*
X155630476Y-93019619D01*
X155582857Y-93114857D01*
X155582857Y-93257714D01*
X155630476Y-93352952D01*
X155678095Y-93400571D01*
X155773333Y-93448190D01*
X156154286Y-93448190D01*
X154725714Y-93257714D02*
X154725714Y-93924381D01*
X154963810Y-92876762D02*
X155201905Y-93591048D01*
X154582857Y-93591048D01*
X154297143Y-92924381D02*
X153630476Y-92924381D01*
X154059048Y-93924381D01*
X155582857Y-96464381D02*
X155916191Y-95988190D01*
X156154286Y-96464381D02*
X156154286Y-95464381D01*
X155773333Y-95464381D01*
X155678095Y-95512000D01*
X155630476Y-95559619D01*
X155582857Y-95654857D01*
X155582857Y-95797714D01*
X155630476Y-95892952D01*
X155678095Y-95940571D01*
X155773333Y-95988190D01*
X156154286Y-95988190D01*
X154725714Y-95797714D02*
X154725714Y-96464381D01*
X154963810Y-95416762D02*
X155201905Y-96131048D01*
X154582857Y-96131048D01*
X154059048Y-95892952D02*
X154154286Y-95845333D01*
X154201905Y-95797714D01*
X154249524Y-95702476D01*
X154249524Y-95654857D01*
X154201905Y-95559619D01*
X154154286Y-95512000D01*
X154059048Y-95464381D01*
X153868571Y-95464381D01*
X153773333Y-95512000D01*
X153725714Y-95559619D01*
X153678095Y-95654857D01*
X153678095Y-95702476D01*
X153725714Y-95797714D01*
X153773333Y-95845333D01*
X153868571Y-95892952D01*
X154059048Y-95892952D01*
X154154286Y-95940571D01*
X154201905Y-95988190D01*
X154249524Y-96083429D01*
X154249524Y-96273905D01*
X154201905Y-96369143D01*
X154154286Y-96416762D01*
X154059048Y-96464381D01*
X153868571Y-96464381D01*
X153773333Y-96416762D01*
X153725714Y-96369143D01*
X153678095Y-96273905D01*
X153678095Y-96083429D01*
X153725714Y-95988190D01*
X153773333Y-95940571D01*
X153868571Y-95892952D01*
X155582857Y-99004381D02*
X155916191Y-98528190D01*
X156154286Y-99004381D02*
X156154286Y-98004381D01*
X155773333Y-98004381D01*
X155678095Y-98052000D01*
X155630476Y-98099619D01*
X155582857Y-98194857D01*
X155582857Y-98337714D01*
X155630476Y-98432952D01*
X155678095Y-98480571D01*
X155773333Y-98528190D01*
X156154286Y-98528190D01*
X154725714Y-98337714D02*
X154725714Y-99004381D01*
X154963810Y-97956762D02*
X155201905Y-98671048D01*
X154582857Y-98671048D01*
X154154286Y-99004381D02*
X153963810Y-99004381D01*
X153868571Y-98956762D01*
X153820952Y-98909143D01*
X153725714Y-98766286D01*
X153678095Y-98575810D01*
X153678095Y-98194857D01*
X153725714Y-98099619D01*
X153773333Y-98052000D01*
X153868571Y-98004381D01*
X154059048Y-98004381D01*
X154154286Y-98052000D01*
X154201905Y-98099619D01*
X154249524Y-98194857D01*
X154249524Y-98432952D01*
X154201905Y-98528190D01*
X154154286Y-98575810D01*
X154059048Y-98623429D01*
X153868571Y-98623429D01*
X153773333Y-98575810D01*
X153725714Y-98528190D01*
X153678095Y-98432952D01*
X155582857Y-101544381D02*
X155916191Y-101068190D01*
X156154286Y-101544381D02*
X156154286Y-100544381D01*
X155773333Y-100544381D01*
X155678095Y-100592000D01*
X155630476Y-100639619D01*
X155582857Y-100734857D01*
X155582857Y-100877714D01*
X155630476Y-100972952D01*
X155678095Y-101020571D01*
X155773333Y-101068190D01*
X156154286Y-101068190D01*
X154678095Y-100544381D02*
X155154286Y-100544381D01*
X155201905Y-101020571D01*
X155154286Y-100972952D01*
X155059048Y-100925333D01*
X154820952Y-100925333D01*
X154725714Y-100972952D01*
X154678095Y-101020571D01*
X154630476Y-101115810D01*
X154630476Y-101353905D01*
X154678095Y-101449143D01*
X154725714Y-101496762D01*
X154820952Y-101544381D01*
X155059048Y-101544381D01*
X155154286Y-101496762D01*
X155201905Y-101449143D01*
X154011429Y-100544381D02*
X153916190Y-100544381D01*
X153820952Y-100592000D01*
X153773333Y-100639619D01*
X153725714Y-100734857D01*
X153678095Y-100925333D01*
X153678095Y-101163429D01*
X153725714Y-101353905D01*
X153773333Y-101449143D01*
X153820952Y-101496762D01*
X153916190Y-101544381D01*
X154011429Y-101544381D01*
X154106667Y-101496762D01*
X154154286Y-101449143D01*
X154201905Y-101353905D01*
X154249524Y-101163429D01*
X154249524Y-100925333D01*
X154201905Y-100734857D01*
X154154286Y-100639619D01*
X154106667Y-100592000D01*
X154011429Y-100544381D01*
X106560857Y-83510381D02*
X106894191Y-83034190D01*
X107132286Y-83510381D02*
X107132286Y-82510381D01*
X106751333Y-82510381D01*
X106656095Y-82558000D01*
X106608476Y-82605619D01*
X106560857Y-82700857D01*
X106560857Y-82843714D01*
X106608476Y-82938952D01*
X106656095Y-82986571D01*
X106751333Y-83034190D01*
X107132286Y-83034190D01*
X105656095Y-82510381D02*
X106132286Y-82510381D01*
X106179905Y-82986571D01*
X106132286Y-82938952D01*
X106037048Y-82891333D01*
X105798952Y-82891333D01*
X105703714Y-82938952D01*
X105656095Y-82986571D01*
X105608476Y-83081810D01*
X105608476Y-83319905D01*
X105656095Y-83415143D01*
X105703714Y-83462762D01*
X105798952Y-83510381D01*
X106037048Y-83510381D01*
X106132286Y-83462762D01*
X106179905Y-83415143D01*
X104656095Y-83510381D02*
X105227524Y-83510381D01*
X104941810Y-83510381D02*
X104941810Y-82510381D01*
X105037048Y-82653238D01*
X105132286Y-82748476D01*
X105227524Y-82796095D01*
X110370857Y-83510381D02*
X110704191Y-83034190D01*
X110942286Y-83510381D02*
X110942286Y-82510381D01*
X110561333Y-82510381D01*
X110466095Y-82558000D01*
X110418476Y-82605619D01*
X110370857Y-82700857D01*
X110370857Y-82843714D01*
X110418476Y-82938952D01*
X110466095Y-82986571D01*
X110561333Y-83034190D01*
X110942286Y-83034190D01*
X109466095Y-82510381D02*
X109942286Y-82510381D01*
X109989905Y-82986571D01*
X109942286Y-82938952D01*
X109847048Y-82891333D01*
X109608952Y-82891333D01*
X109513714Y-82938952D01*
X109466095Y-82986571D01*
X109418476Y-83081810D01*
X109418476Y-83319905D01*
X109466095Y-83415143D01*
X109513714Y-83462762D01*
X109608952Y-83510381D01*
X109847048Y-83510381D01*
X109942286Y-83462762D01*
X109989905Y-83415143D01*
X109085143Y-82510381D02*
X108466095Y-82510381D01*
X108799429Y-82891333D01*
X108656571Y-82891333D01*
X108561333Y-82938952D01*
X108513714Y-82986571D01*
X108466095Y-83081810D01*
X108466095Y-83319905D01*
X108513714Y-83415143D01*
X108561333Y-83462762D01*
X108656571Y-83510381D01*
X108942286Y-83510381D01*
X109037524Y-83462762D01*
X109085143Y-83415143D01*
X118498857Y-83510381D02*
X118832191Y-83034190D01*
X119070286Y-83510381D02*
X119070286Y-82510381D01*
X118689333Y-82510381D01*
X118594095Y-82558000D01*
X118546476Y-82605619D01*
X118498857Y-82700857D01*
X118498857Y-82843714D01*
X118546476Y-82938952D01*
X118594095Y-82986571D01*
X118689333Y-83034190D01*
X119070286Y-83034190D01*
X117594095Y-82510381D02*
X118070286Y-82510381D01*
X118117905Y-82986571D01*
X118070286Y-82938952D01*
X117975048Y-82891333D01*
X117736952Y-82891333D01*
X117641714Y-82938952D01*
X117594095Y-82986571D01*
X117546476Y-83081810D01*
X117546476Y-83319905D01*
X117594095Y-83415143D01*
X117641714Y-83462762D01*
X117736952Y-83510381D01*
X117975048Y-83510381D01*
X118070286Y-83462762D01*
X118117905Y-83415143D01*
X116689333Y-82843714D02*
X116689333Y-83510381D01*
X116927429Y-82462762D02*
X117165524Y-83177048D01*
X116546476Y-83177048D01*
X154058857Y-74620381D02*
X154392191Y-74144190D01*
X154630286Y-74620381D02*
X154630286Y-73620381D01*
X154249333Y-73620381D01*
X154154095Y-73668000D01*
X154106476Y-73715619D01*
X154058857Y-73810857D01*
X154058857Y-73953714D01*
X154106476Y-74048952D01*
X154154095Y-74096571D01*
X154249333Y-74144190D01*
X154630286Y-74144190D01*
X153154095Y-73620381D02*
X153630286Y-73620381D01*
X153677905Y-74096571D01*
X153630286Y-74048952D01*
X153535048Y-74001333D01*
X153296952Y-74001333D01*
X153201714Y-74048952D01*
X153154095Y-74096571D01*
X153106476Y-74191810D01*
X153106476Y-74429905D01*
X153154095Y-74525143D01*
X153201714Y-74572762D01*
X153296952Y-74620381D01*
X153535048Y-74620381D01*
X153630286Y-74572762D01*
X153677905Y-74525143D01*
X152201714Y-73620381D02*
X152677905Y-73620381D01*
X152725524Y-74096571D01*
X152677905Y-74048952D01*
X152582667Y-74001333D01*
X152344571Y-74001333D01*
X152249333Y-74048952D01*
X152201714Y-74096571D01*
X152154095Y-74191810D01*
X152154095Y-74429905D01*
X152201714Y-74525143D01*
X152249333Y-74572762D01*
X152344571Y-74620381D01*
X152582667Y-74620381D01*
X152677905Y-74572762D01*
X152725524Y-74525143D01*
X187078857Y-128468381D02*
X187412191Y-127992190D01*
X187650286Y-128468381D02*
X187650286Y-127468381D01*
X187269333Y-127468381D01*
X187174095Y-127516000D01*
X187126476Y-127563619D01*
X187078857Y-127658857D01*
X187078857Y-127801714D01*
X187126476Y-127896952D01*
X187174095Y-127944571D01*
X187269333Y-127992190D01*
X187650286Y-127992190D01*
X186174095Y-127468381D02*
X186650286Y-127468381D01*
X186697905Y-127944571D01*
X186650286Y-127896952D01*
X186555048Y-127849333D01*
X186316952Y-127849333D01*
X186221714Y-127896952D01*
X186174095Y-127944571D01*
X186126476Y-128039810D01*
X186126476Y-128277905D01*
X186174095Y-128373143D01*
X186221714Y-128420762D01*
X186316952Y-128468381D01*
X186555048Y-128468381D01*
X186650286Y-128420762D01*
X186697905Y-128373143D01*
X185793143Y-127468381D02*
X185126476Y-127468381D01*
X185555048Y-128468381D01*
X184284857Y-129230381D02*
X184618191Y-128754190D01*
X184856286Y-129230381D02*
X184856286Y-128230381D01*
X184475333Y-128230381D01*
X184380095Y-128278000D01*
X184332476Y-128325619D01*
X184284857Y-128420857D01*
X184284857Y-128563714D01*
X184332476Y-128658952D01*
X184380095Y-128706571D01*
X184475333Y-128754190D01*
X184856286Y-128754190D01*
X183380095Y-128230381D02*
X183856286Y-128230381D01*
X183903905Y-128706571D01*
X183856286Y-128658952D01*
X183761048Y-128611333D01*
X183522952Y-128611333D01*
X183427714Y-128658952D01*
X183380095Y-128706571D01*
X183332476Y-128801810D01*
X183332476Y-129039905D01*
X183380095Y-129135143D01*
X183427714Y-129182762D01*
X183522952Y-129230381D01*
X183761048Y-129230381D01*
X183856286Y-129182762D01*
X183903905Y-129135143D01*
X182761048Y-128658952D02*
X182856286Y-128611333D01*
X182903905Y-128563714D01*
X182951524Y-128468476D01*
X182951524Y-128420857D01*
X182903905Y-128325619D01*
X182856286Y-128278000D01*
X182761048Y-128230381D01*
X182570571Y-128230381D01*
X182475333Y-128278000D01*
X182427714Y-128325619D01*
X182380095Y-128420857D01*
X182380095Y-128468476D01*
X182427714Y-128563714D01*
X182475333Y-128611333D01*
X182570571Y-128658952D01*
X182761048Y-128658952D01*
X182856286Y-128706571D01*
X182903905Y-128754190D01*
X182951524Y-128849429D01*
X182951524Y-129039905D01*
X182903905Y-129135143D01*
X182856286Y-129182762D01*
X182761048Y-129230381D01*
X182570571Y-129230381D01*
X182475333Y-129182762D01*
X182427714Y-129135143D01*
X182380095Y-129039905D01*
X182380095Y-128849429D01*
X182427714Y-128754190D01*
X182475333Y-128706571D01*
X182570571Y-128658952D01*
X189364857Y-82748381D02*
X189698191Y-82272190D01*
X189936286Y-82748381D02*
X189936286Y-81748381D01*
X189555333Y-81748381D01*
X189460095Y-81796000D01*
X189412476Y-81843619D01*
X189364857Y-81938857D01*
X189364857Y-82081714D01*
X189412476Y-82176952D01*
X189460095Y-82224571D01*
X189555333Y-82272190D01*
X189936286Y-82272190D01*
X188460095Y-81748381D02*
X188936286Y-81748381D01*
X188983905Y-82224571D01*
X188936286Y-82176952D01*
X188841048Y-82129333D01*
X188602952Y-82129333D01*
X188507714Y-82176952D01*
X188460095Y-82224571D01*
X188412476Y-82319810D01*
X188412476Y-82557905D01*
X188460095Y-82653143D01*
X188507714Y-82700762D01*
X188602952Y-82748381D01*
X188841048Y-82748381D01*
X188936286Y-82700762D01*
X188983905Y-82653143D01*
X187936286Y-82748381D02*
X187745810Y-82748381D01*
X187650571Y-82700762D01*
X187602952Y-82653143D01*
X187507714Y-82510286D01*
X187460095Y-82319810D01*
X187460095Y-81938857D01*
X187507714Y-81843619D01*
X187555333Y-81796000D01*
X187650571Y-81748381D01*
X187841048Y-81748381D01*
X187936286Y-81796000D01*
X187983905Y-81843619D01*
X188031524Y-81938857D01*
X188031524Y-82176952D01*
X187983905Y-82272190D01*
X187936286Y-82319810D01*
X187841048Y-82367429D01*
X187650571Y-82367429D01*
X187555333Y-82319810D01*
X187507714Y-82272190D01*
X187460095Y-82176952D01*
X190634857Y-129230381D02*
X190968191Y-128754190D01*
X191206286Y-129230381D02*
X191206286Y-128230381D01*
X190825333Y-128230381D01*
X190730095Y-128278000D01*
X190682476Y-128325619D01*
X190634857Y-128420857D01*
X190634857Y-128563714D01*
X190682476Y-128658952D01*
X190730095Y-128706571D01*
X190825333Y-128754190D01*
X191206286Y-128754190D01*
X189777714Y-128230381D02*
X189968191Y-128230381D01*
X190063429Y-128278000D01*
X190111048Y-128325619D01*
X190206286Y-128468476D01*
X190253905Y-128658952D01*
X190253905Y-129039905D01*
X190206286Y-129135143D01*
X190158667Y-129182762D01*
X190063429Y-129230381D01*
X189872952Y-129230381D01*
X189777714Y-129182762D01*
X189730095Y-129135143D01*
X189682476Y-129039905D01*
X189682476Y-128801810D01*
X189730095Y-128706571D01*
X189777714Y-128658952D01*
X189872952Y-128611333D01*
X190063429Y-128611333D01*
X190158667Y-128658952D01*
X190206286Y-128706571D01*
X190253905Y-128801810D01*
X189063429Y-128230381D02*
X188968190Y-128230381D01*
X188872952Y-128278000D01*
X188825333Y-128325619D01*
X188777714Y-128420857D01*
X188730095Y-128611333D01*
X188730095Y-128849429D01*
X188777714Y-129039905D01*
X188825333Y-129135143D01*
X188872952Y-129182762D01*
X188968190Y-129230381D01*
X189063429Y-129230381D01*
X189158667Y-129182762D01*
X189206286Y-129135143D01*
X189253905Y-129039905D01*
X189301524Y-128849429D01*
X189301524Y-128611333D01*
X189253905Y-128420857D01*
X189206286Y-128325619D01*
X189158667Y-128278000D01*
X189063429Y-128230381D01*
M02*
