%FSLAX45Y45*%
G04 Gerber Fmt 4.5, Leading zero omitted, Abs format (unit mm)*
G04 Created by KiCad (PCBNEW (2014-12-08 BZR 5317)-product) date sam. 06 juin 2015 11:44:37 CEST*
%MOMM*%
G01*
G04 APERTURE LIST*
%ADD10C,0.127000*%
%ADD11C,0.100000*%
%ADD12C,0.200000*%
%ADD13C,0.300000*%
G04 APERTURE END LIST*
D10*
D11*
X9804400Y-15417800D02*
X9804400Y-5461000D01*
X19761200Y-15417800D02*
X9804400Y-15417800D01*
X19761200Y-5461000D02*
X19761200Y-15417800D01*
X9804400Y-5461000D02*
X19761200Y-5461000D01*
D12*
X10095000Y-5748000D02*
X10225000Y-5878000D01*
X10225000Y-5748000D02*
X10095000Y-5878000D01*
X10095000Y-6348000D02*
X10225000Y-6478000D01*
X10225000Y-6348000D02*
X10095000Y-6478000D01*
X10095000Y-14413500D02*
X10225000Y-14543500D01*
X10225000Y-14413500D02*
X10095000Y-14543500D01*
X10095000Y-15013500D02*
X10225000Y-15143500D01*
X10225000Y-15013500D02*
X10095000Y-15143500D01*
X11238000Y-5748000D02*
X11368000Y-5878000D01*
X11368000Y-5748000D02*
X11238000Y-5878000D01*
X11238000Y-6348000D02*
X11368000Y-6478000D01*
X11368000Y-6348000D02*
X11238000Y-6478000D01*
X11238000Y-14413500D02*
X11368000Y-14543500D01*
X11368000Y-14413500D02*
X11238000Y-14543500D01*
X11238000Y-15013500D02*
X11368000Y-15143500D01*
X11368000Y-15013500D02*
X11238000Y-15143500D01*
X12381000Y-5748000D02*
X12511000Y-5878000D01*
X12511000Y-5748000D02*
X12381000Y-5878000D01*
X12381000Y-6348000D02*
X12511000Y-6478000D01*
X12511000Y-6348000D02*
X12381000Y-6478000D01*
X12381000Y-14413500D02*
X12511000Y-14543500D01*
X12511000Y-14413500D02*
X12381000Y-14543500D01*
X12381000Y-15013500D02*
X12511000Y-15143500D01*
X12511000Y-15013500D02*
X12381000Y-15143500D01*
X13524000Y-5748000D02*
X13654000Y-5878000D01*
X13654000Y-5748000D02*
X13524000Y-5878000D01*
X13524000Y-6348000D02*
X13654000Y-6478000D01*
X13654000Y-6348000D02*
X13524000Y-6478000D01*
X13524000Y-14413500D02*
X13654000Y-14543500D01*
X13654000Y-14413500D02*
X13524000Y-14543500D01*
X13524000Y-15013500D02*
X13654000Y-15143500D01*
X13654000Y-15013500D02*
X13524000Y-15143500D01*
X14667000Y-5748000D02*
X14797000Y-5878000D01*
X14797000Y-5748000D02*
X14667000Y-5878000D01*
X14667000Y-6348000D02*
X14797000Y-6478000D01*
X14797000Y-6348000D02*
X14667000Y-6478000D01*
X14667000Y-14413500D02*
X14797000Y-14543500D01*
X14797000Y-14413500D02*
X14667000Y-14543500D01*
X14667000Y-15013500D02*
X14797000Y-15143500D01*
X14797000Y-15013500D02*
X14667000Y-15143500D01*
X15810000Y-5748000D02*
X15940000Y-5878000D01*
X15940000Y-5748000D02*
X15810000Y-5878000D01*
X15810000Y-6348000D02*
X15940000Y-6478000D01*
X15940000Y-6348000D02*
X15810000Y-6478000D01*
X15810000Y-14413500D02*
X15940000Y-14543500D01*
X15940000Y-14413500D02*
X15810000Y-14543500D01*
X15810000Y-15013500D02*
X15940000Y-15143500D01*
X15940000Y-15013500D02*
X15810000Y-15143500D01*
X16953000Y-5748000D02*
X17083000Y-5878000D01*
X17083000Y-5748000D02*
X16953000Y-5878000D01*
X16953000Y-6348000D02*
X17083000Y-6478000D01*
X17083000Y-6348000D02*
X16953000Y-6478000D01*
X16953000Y-14413500D02*
X17083000Y-14543500D01*
X17083000Y-14413500D02*
X16953000Y-14543500D01*
X16953000Y-15013500D02*
X17083000Y-15143500D01*
X17083000Y-15013500D02*
X16953000Y-15143500D01*
X18096000Y-5748000D02*
X18226000Y-5878000D01*
X18226000Y-5748000D02*
X18096000Y-5878000D01*
X18096000Y-6348000D02*
X18226000Y-6478000D01*
X18226000Y-6348000D02*
X18096000Y-6478000D01*
X18096000Y-14413500D02*
X18226000Y-14543500D01*
X18226000Y-14413500D02*
X18096000Y-14543500D01*
X18096000Y-15013500D02*
X18226000Y-15143500D01*
X18226000Y-15013500D02*
X18096000Y-15143500D01*
X19175500Y-5748000D02*
X19305500Y-5878000D01*
X19305500Y-5748000D02*
X19175500Y-5878000D01*
X19175500Y-6348000D02*
X19305500Y-6478000D01*
X19305500Y-6348000D02*
X19175500Y-6478000D01*
X19175500Y-14413500D02*
X19305500Y-14543500D01*
X19305500Y-14413500D02*
X19175500Y-14543500D01*
X19175500Y-15013500D02*
X19305500Y-15143500D01*
X19305500Y-15013500D02*
X19175500Y-15143500D01*
X10344150Y-13817600D02*
G75*
G03X10344150Y-13817600I-158750J0D01*
G01*
X10471150Y-8991600D02*
G75*
G03X10471150Y-8991600I-158750J0D01*
G01*
X15551150Y-10515600D02*
G75*
G03X15551150Y-10515600I-158750J0D01*
G01*
X15551150Y-13309600D02*
G75*
G03X15551150Y-13309600I-158750J0D01*
G01*
D13*
X10070829Y-15888514D02*
X10070829Y-15588514D01*
X10142257Y-15588514D01*
X10185114Y-15602800D01*
X10213686Y-15631371D01*
X10227971Y-15659943D01*
X10242257Y-15717086D01*
X10242257Y-15759943D01*
X10227971Y-15817086D01*
X10213686Y-15845657D01*
X10185114Y-15874229D01*
X10142257Y-15888514D01*
X10070829Y-15888514D01*
X10370829Y-15888514D02*
X10370829Y-15688514D01*
X10370829Y-15745657D02*
X10385114Y-15717086D01*
X10399400Y-15702800D01*
X10427971Y-15688514D01*
X10456543Y-15688514D01*
X10556543Y-15888514D02*
X10556543Y-15688514D01*
X10556543Y-15588514D02*
X10542257Y-15602800D01*
X10556543Y-15617086D01*
X10570829Y-15602800D01*
X10556543Y-15588514D01*
X10556543Y-15617086D01*
X10742257Y-15888514D02*
X10713686Y-15874229D01*
X10699400Y-15845657D01*
X10699400Y-15588514D01*
X10899400Y-15888514D02*
X10870829Y-15874229D01*
X10856543Y-15845657D01*
X10856543Y-15588514D01*
X11242257Y-15888514D02*
X11242257Y-15588514D01*
X11342257Y-15802800D01*
X11442257Y-15588514D01*
X11442257Y-15888514D01*
X11713686Y-15888514D02*
X11713686Y-15731371D01*
X11699400Y-15702800D01*
X11670828Y-15688514D01*
X11613686Y-15688514D01*
X11585114Y-15702800D01*
X11713686Y-15874229D02*
X11685114Y-15888514D01*
X11613686Y-15888514D01*
X11585114Y-15874229D01*
X11570828Y-15845657D01*
X11570828Y-15817086D01*
X11585114Y-15788514D01*
X11613686Y-15774229D01*
X11685114Y-15774229D01*
X11713686Y-15759943D01*
X11856543Y-15688514D02*
X11856543Y-15988514D01*
X11856543Y-15702800D02*
X11885114Y-15688514D01*
X11942257Y-15688514D01*
X11970828Y-15702800D01*
X11985114Y-15717086D01*
X11999400Y-15745657D01*
X11999400Y-15831371D01*
X11985114Y-15859943D01*
X11970828Y-15874229D01*
X11942257Y-15888514D01*
X11885114Y-15888514D01*
X11856543Y-15874229D01*
X12127971Y-15859943D02*
X12142257Y-15874229D01*
X12127971Y-15888514D01*
X12113686Y-15874229D01*
X12127971Y-15859943D01*
X12127971Y-15888514D01*
X12127971Y-15702800D02*
X12142257Y-15717086D01*
X12127971Y-15731371D01*
X12113686Y-15717086D01*
X12127971Y-15702800D01*
X12127971Y-15731371D01*
X9669400Y-16317800D02*
X9799400Y-16447800D01*
X9799400Y-16317800D02*
X9669400Y-16447800D01*
X10227971Y-16518514D02*
X10056543Y-16518514D01*
X10142257Y-16518514D02*
X10142257Y-16218514D01*
X10113686Y-16261371D01*
X10085114Y-16289943D01*
X10056543Y-16304229D01*
X10356543Y-16489943D02*
X10370829Y-16504229D01*
X10356543Y-16518514D01*
X10342257Y-16504229D01*
X10356543Y-16489943D01*
X10356543Y-16518514D01*
X10470828Y-16218514D02*
X10656543Y-16218514D01*
X10556543Y-16332800D01*
X10599400Y-16332800D01*
X10627971Y-16347086D01*
X10642257Y-16361371D01*
X10656543Y-16389943D01*
X10656543Y-16461371D01*
X10642257Y-16489943D01*
X10627971Y-16504229D01*
X10599400Y-16518514D01*
X10513686Y-16518514D01*
X10485114Y-16504229D01*
X10470828Y-16489943D01*
X10842257Y-16218514D02*
X10870829Y-16218514D01*
X10899400Y-16232800D01*
X10913686Y-16247086D01*
X10927971Y-16275657D01*
X10942257Y-16332800D01*
X10942257Y-16404229D01*
X10927971Y-16461371D01*
X10913686Y-16489943D01*
X10899400Y-16504229D01*
X10870829Y-16518514D01*
X10842257Y-16518514D01*
X10813686Y-16504229D01*
X10799400Y-16489943D01*
X10785114Y-16461371D01*
X10770829Y-16404229D01*
X10770829Y-16332800D01*
X10785114Y-16275657D01*
X10799400Y-16247086D01*
X10813686Y-16232800D01*
X10842257Y-16218514D01*
X11070829Y-16518514D02*
X11070829Y-16318514D01*
X11070829Y-16347086D02*
X11085114Y-16332800D01*
X11113686Y-16318514D01*
X11156543Y-16318514D01*
X11185114Y-16332800D01*
X11199400Y-16361371D01*
X11199400Y-16518514D01*
X11199400Y-16361371D02*
X11213686Y-16332800D01*
X11242257Y-16318514D01*
X11285114Y-16318514D01*
X11313686Y-16332800D01*
X11327971Y-16361371D01*
X11327971Y-16518514D01*
X11470828Y-16518514D02*
X11470828Y-16318514D01*
X11470828Y-16347086D02*
X11485114Y-16332800D01*
X11513686Y-16318514D01*
X11556543Y-16318514D01*
X11585114Y-16332800D01*
X11599400Y-16361371D01*
X11599400Y-16518514D01*
X11599400Y-16361371D02*
X11613686Y-16332800D01*
X11642257Y-16318514D01*
X11685114Y-16318514D01*
X11713686Y-16332800D01*
X11727971Y-16361371D01*
X11727971Y-16518514D01*
X12313686Y-16204229D02*
X12056543Y-16589943D01*
X12699400Y-16218514D02*
X12727971Y-16218514D01*
X12756543Y-16232800D01*
X12770828Y-16247086D01*
X12785114Y-16275657D01*
X12799400Y-16332800D01*
X12799400Y-16404229D01*
X12785114Y-16461371D01*
X12770828Y-16489943D01*
X12756543Y-16504229D01*
X12727971Y-16518514D01*
X12699400Y-16518514D01*
X12670828Y-16504229D01*
X12656543Y-16489943D01*
X12642257Y-16461371D01*
X12627971Y-16404229D01*
X12627971Y-16332800D01*
X12642257Y-16275657D01*
X12656543Y-16247086D01*
X12670828Y-16232800D01*
X12699400Y-16218514D01*
X12927971Y-16489943D02*
X12942257Y-16504229D01*
X12927971Y-16518514D01*
X12913686Y-16504229D01*
X12927971Y-16489943D01*
X12927971Y-16518514D01*
X13127971Y-16218514D02*
X13156543Y-16218514D01*
X13185114Y-16232800D01*
X13199400Y-16247086D01*
X13213685Y-16275657D01*
X13227971Y-16332800D01*
X13227971Y-16404229D01*
X13213685Y-16461371D01*
X13199400Y-16489943D01*
X13185114Y-16504229D01*
X13156543Y-16518514D01*
X13127971Y-16518514D01*
X13099400Y-16504229D01*
X13085114Y-16489943D01*
X13070828Y-16461371D01*
X13056543Y-16404229D01*
X13056543Y-16332800D01*
X13070828Y-16275657D01*
X13085114Y-16247086D01*
X13099400Y-16232800D01*
X13127971Y-16218514D01*
X13499400Y-16218514D02*
X13356543Y-16218514D01*
X13342257Y-16361371D01*
X13356543Y-16347086D01*
X13385114Y-16332800D01*
X13456543Y-16332800D01*
X13485114Y-16347086D01*
X13499400Y-16361371D01*
X13513685Y-16389943D01*
X13513685Y-16461371D01*
X13499400Y-16489943D01*
X13485114Y-16504229D01*
X13456543Y-16518514D01*
X13385114Y-16518514D01*
X13356543Y-16504229D01*
X13342257Y-16489943D01*
X13799400Y-16518514D02*
X13627971Y-16518514D01*
X13713685Y-16518514D02*
X13713685Y-16218514D01*
X13685114Y-16261371D01*
X13656543Y-16289943D01*
X13627971Y-16304229D01*
X13913686Y-16218514D02*
X13913686Y-16275657D01*
X14027971Y-16218514D02*
X14027971Y-16275657D01*
X14470828Y-16632800D02*
X14456543Y-16618514D01*
X14427971Y-16575657D01*
X14413685Y-16547086D01*
X14399400Y-16504229D01*
X14385114Y-16432800D01*
X14385114Y-16375657D01*
X14399400Y-16304229D01*
X14413685Y-16261371D01*
X14427971Y-16232800D01*
X14456543Y-16189943D01*
X14470828Y-16175657D01*
X14556543Y-16218514D02*
X14742257Y-16218514D01*
X14642257Y-16332800D01*
X14685114Y-16332800D01*
X14713685Y-16347086D01*
X14727971Y-16361371D01*
X14742257Y-16389943D01*
X14742257Y-16461371D01*
X14727971Y-16489943D01*
X14713685Y-16504229D01*
X14685114Y-16518514D01*
X14599400Y-16518514D01*
X14570828Y-16504229D01*
X14556543Y-16489943D01*
X14999400Y-16218514D02*
X14942257Y-16218514D01*
X14913685Y-16232800D01*
X14899400Y-16247086D01*
X14870828Y-16289943D01*
X14856543Y-16347086D01*
X14856543Y-16461371D01*
X14870828Y-16489943D01*
X14885114Y-16504229D01*
X14913685Y-16518514D01*
X14970828Y-16518514D01*
X14999400Y-16504229D01*
X15013685Y-16489943D01*
X15027971Y-16461371D01*
X15027971Y-16389943D01*
X15013685Y-16361371D01*
X14999400Y-16347086D01*
X14970828Y-16332800D01*
X14913685Y-16332800D01*
X14885114Y-16347086D01*
X14870828Y-16361371D01*
X14856543Y-16389943D01*
X15385114Y-16518514D02*
X15385114Y-16218514D01*
X15513685Y-16518514D02*
X15513685Y-16361371D01*
X15499400Y-16332800D01*
X15470828Y-16318514D01*
X15427971Y-16318514D01*
X15399400Y-16332800D01*
X15385114Y-16347086D01*
X15699400Y-16518514D02*
X15670828Y-16504229D01*
X15656543Y-16489943D01*
X15642257Y-16461371D01*
X15642257Y-16375657D01*
X15656543Y-16347086D01*
X15670828Y-16332800D01*
X15699400Y-16318514D01*
X15742257Y-16318514D01*
X15770828Y-16332800D01*
X15785114Y-16347086D01*
X15799400Y-16375657D01*
X15799400Y-16461371D01*
X15785114Y-16489943D01*
X15770828Y-16504229D01*
X15742257Y-16518514D01*
X15699400Y-16518514D01*
X15970828Y-16518514D02*
X15942257Y-16504229D01*
X15927971Y-16475657D01*
X15927971Y-16218514D01*
X16199400Y-16504229D02*
X16170828Y-16518514D01*
X16113686Y-16518514D01*
X16085114Y-16504229D01*
X16070828Y-16475657D01*
X16070828Y-16361371D01*
X16085114Y-16332800D01*
X16113686Y-16318514D01*
X16170828Y-16318514D01*
X16199400Y-16332800D01*
X16213686Y-16361371D01*
X16213686Y-16389943D01*
X16070828Y-16418514D01*
X16327971Y-16504229D02*
X16356543Y-16518514D01*
X16413686Y-16518514D01*
X16442257Y-16504229D01*
X16456543Y-16475657D01*
X16456543Y-16461371D01*
X16442257Y-16432800D01*
X16413686Y-16418514D01*
X16370828Y-16418514D01*
X16342257Y-16404229D01*
X16327971Y-16375657D01*
X16327971Y-16361371D01*
X16342257Y-16332800D01*
X16370828Y-16318514D01*
X16413686Y-16318514D01*
X16442257Y-16332800D01*
X16556543Y-16632800D02*
X16570828Y-16618514D01*
X16599400Y-16575657D01*
X16613686Y-16547086D01*
X16627971Y-16504229D01*
X16642257Y-16432800D01*
X16642257Y-16375657D01*
X16627971Y-16304229D01*
X16613686Y-16261371D01*
X16599400Y-16232800D01*
X16570828Y-16189943D01*
X16556543Y-16175657D01*
X9799400Y-16778800D02*
G75*
G03X9799400Y-16778800I-158750J0D01*
G01*
X10042257Y-16614514D02*
X10227971Y-16614514D01*
X10127971Y-16728800D01*
X10170829Y-16728800D01*
X10199400Y-16743086D01*
X10213686Y-16757371D01*
X10227971Y-16785943D01*
X10227971Y-16857372D01*
X10213686Y-16885943D01*
X10199400Y-16900229D01*
X10170829Y-16914514D01*
X10085114Y-16914514D01*
X10056543Y-16900229D01*
X10042257Y-16885943D01*
X10356543Y-16885943D02*
X10370829Y-16900229D01*
X10356543Y-16914514D01*
X10342257Y-16900229D01*
X10356543Y-16885943D01*
X10356543Y-16914514D01*
X10656543Y-16914514D02*
X10485114Y-16914514D01*
X10570828Y-16914514D02*
X10570828Y-16614514D01*
X10542257Y-16657371D01*
X10513686Y-16685943D01*
X10485114Y-16700229D01*
X10756543Y-16614514D02*
X10956543Y-16614514D01*
X10827971Y-16914514D01*
X11070829Y-16914514D02*
X11070829Y-16714514D01*
X11070829Y-16743086D02*
X11085114Y-16728800D01*
X11113686Y-16714514D01*
X11156543Y-16714514D01*
X11185114Y-16728800D01*
X11199400Y-16757371D01*
X11199400Y-16914514D01*
X11199400Y-16757371D02*
X11213686Y-16728800D01*
X11242257Y-16714514D01*
X11285114Y-16714514D01*
X11313686Y-16728800D01*
X11327971Y-16757371D01*
X11327971Y-16914514D01*
X11470828Y-16914514D02*
X11470828Y-16714514D01*
X11470828Y-16743086D02*
X11485114Y-16728800D01*
X11513686Y-16714514D01*
X11556543Y-16714514D01*
X11585114Y-16728800D01*
X11599400Y-16757371D01*
X11599400Y-16914514D01*
X11599400Y-16757371D02*
X11613686Y-16728800D01*
X11642257Y-16714514D01*
X11685114Y-16714514D01*
X11713686Y-16728800D01*
X11727971Y-16757371D01*
X11727971Y-16914514D01*
X12313686Y-16600229D02*
X12056543Y-16985943D01*
X12699400Y-16614514D02*
X12727971Y-16614514D01*
X12756543Y-16628800D01*
X12770828Y-16643086D01*
X12785114Y-16671657D01*
X12799400Y-16728800D01*
X12799400Y-16800229D01*
X12785114Y-16857372D01*
X12770828Y-16885943D01*
X12756543Y-16900229D01*
X12727971Y-16914514D01*
X12699400Y-16914514D01*
X12670828Y-16900229D01*
X12656543Y-16885943D01*
X12642257Y-16857372D01*
X12627971Y-16800229D01*
X12627971Y-16728800D01*
X12642257Y-16671657D01*
X12656543Y-16643086D01*
X12670828Y-16628800D01*
X12699400Y-16614514D01*
X12927971Y-16885943D02*
X12942257Y-16900229D01*
X12927971Y-16914514D01*
X12913686Y-16900229D01*
X12927971Y-16885943D01*
X12927971Y-16914514D01*
X13227971Y-16914514D02*
X13056543Y-16914514D01*
X13142257Y-16914514D02*
X13142257Y-16614514D01*
X13113685Y-16657371D01*
X13085114Y-16685943D01*
X13056543Y-16700229D01*
X13342257Y-16643086D02*
X13356543Y-16628800D01*
X13385114Y-16614514D01*
X13456543Y-16614514D01*
X13485114Y-16628800D01*
X13499400Y-16643086D01*
X13513685Y-16671657D01*
X13513685Y-16700229D01*
X13499400Y-16743086D01*
X13327971Y-16914514D01*
X13513685Y-16914514D01*
X13785114Y-16614514D02*
X13642257Y-16614514D01*
X13627971Y-16757371D01*
X13642257Y-16743086D01*
X13670828Y-16728800D01*
X13742257Y-16728800D01*
X13770828Y-16743086D01*
X13785114Y-16757371D01*
X13799400Y-16785943D01*
X13799400Y-16857372D01*
X13785114Y-16885943D01*
X13770828Y-16900229D01*
X13742257Y-16914514D01*
X13670828Y-16914514D01*
X13642257Y-16900229D01*
X13627971Y-16885943D01*
X13913686Y-16614514D02*
X13913686Y-16671657D01*
X14027971Y-16614514D02*
X14027971Y-16671657D01*
X14470828Y-17028800D02*
X14456543Y-17014514D01*
X14427971Y-16971657D01*
X14413685Y-16943086D01*
X14399400Y-16900229D01*
X14385114Y-16828800D01*
X14385114Y-16771657D01*
X14399400Y-16700229D01*
X14413685Y-16657371D01*
X14427971Y-16628800D01*
X14456543Y-16585943D01*
X14470828Y-16571657D01*
X14713685Y-16714514D02*
X14713685Y-16914514D01*
X14642257Y-16600229D02*
X14570828Y-16814514D01*
X14756543Y-16814514D01*
X15099400Y-16914514D02*
X15099400Y-16614514D01*
X15227971Y-16914514D02*
X15227971Y-16757371D01*
X15213685Y-16728800D01*
X15185114Y-16714514D01*
X15142257Y-16714514D01*
X15113685Y-16728800D01*
X15099400Y-16743086D01*
X15413685Y-16914514D02*
X15385114Y-16900229D01*
X15370828Y-16885943D01*
X15356543Y-16857372D01*
X15356543Y-16771657D01*
X15370828Y-16743086D01*
X15385114Y-16728800D01*
X15413685Y-16714514D01*
X15456543Y-16714514D01*
X15485114Y-16728800D01*
X15499400Y-16743086D01*
X15513685Y-16771657D01*
X15513685Y-16857372D01*
X15499400Y-16885943D01*
X15485114Y-16900229D01*
X15456543Y-16914514D01*
X15413685Y-16914514D01*
X15685114Y-16914514D02*
X15656543Y-16900229D01*
X15642257Y-16871657D01*
X15642257Y-16614514D01*
X15913686Y-16900229D02*
X15885114Y-16914514D01*
X15827971Y-16914514D01*
X15799400Y-16900229D01*
X15785114Y-16871657D01*
X15785114Y-16757371D01*
X15799400Y-16728800D01*
X15827971Y-16714514D01*
X15885114Y-16714514D01*
X15913686Y-16728800D01*
X15927971Y-16757371D01*
X15927971Y-16785943D01*
X15785114Y-16814514D01*
X16042257Y-16900229D02*
X16070828Y-16914514D01*
X16127971Y-16914514D01*
X16156543Y-16900229D01*
X16170828Y-16871657D01*
X16170828Y-16857372D01*
X16156543Y-16828800D01*
X16127971Y-16814514D01*
X16085114Y-16814514D01*
X16056543Y-16800229D01*
X16042257Y-16771657D01*
X16042257Y-16757371D01*
X16056543Y-16728800D01*
X16085114Y-16714514D01*
X16127971Y-16714514D01*
X16156543Y-16728800D01*
X16270828Y-17028800D02*
X16285114Y-17014514D01*
X16313686Y-16971657D01*
X16327971Y-16943086D01*
X16342257Y-16900229D01*
X16356543Y-16828800D01*
X16356543Y-16771657D01*
X16342257Y-16700229D01*
X16327971Y-16657371D01*
X16313686Y-16628800D01*
X16285114Y-16585943D01*
X16270828Y-16571657D01*
M02*
