<?xml version="1.0" standalone="no"?>
 <!DOCTYPE svg PUBLIC "-//W3C//DTD SVG 1.1//EN" 
 "http://www.w3.org/Graphics/SVG/1.1/DTD/svg11.dtd"> 
<svg xmlns="http://www.w3.org/2000/svg" version="1.1" 
    width="29.7002cm" height="21.0007cm" viewBox="0 0 116930 82680 ">
<title>SVG Picture created as Autoduino-rev2-B_SilkS.svg date 2015/06/29 22:41:01 </title>
  <desc>Picture generated by PCBNEW </desc>
<g style="fill:#000000; fill-opacity:1;stroke:#000000; stroke-opacity:1;
stroke-linecap:round; stroke-linejoin:round; "
 transform="translate(0 0) scale(1 1)">
</g>
<g style="fill:#000000; fill-opacity:0.0; 
stroke:#000000; stroke-width:78.7402; stroke-opacity:1; 
stroke-linecap:round; stroke-linejoin:round;">
<path d="M60100 34400
L38700 34400
" />
<path d="M60600 34900
L60100 34400
" />
<path d="M60600 39400
L60600 34900
" />
<path d="M61600 40400
L60600 39400
" />
<path d="M61600 53400
L61600 40400
" />
<path d="M60600 54400
L61600 53400
" />
<path d="M60600 55400
L60600 54400
" />
<path d="M38700 55400
L60600 55400
" />
<path d="M38700 34400
L38700 55400
" />
</g>
<g style="fill:#000000; fill-opacity:0.0; 
stroke:#000000; stroke-width:59.0551; stroke-opacity:1; 
stroke-linecap:round; stroke-linejoin:round;">
<path d="M61300 49450
L61300 49100
" />
<path d="M61850 49950
L61850 47650
" />
<path d="M61850 47650
L60750 47650
" />
<path d="M60750 47650
L60750 49950
" />
<path d="M60750 49950
L61850 49950
" />
<path d="M71400 33850
L71400 33500
" />
<path d="M71950 34350
L71950 32050
" />
<path d="M71950 32050
L70850 32050
" />
<path d="M70850 32050
L70850 34350
" />
<path d="M70850 34350
L71950 34350
" />
<path d="M71400 36850
L71400 36500
" />
<path d="M71950 37350
L71950 35050
" />
<path d="M71950 35050
L70850 35050
" />
<path d="M70850 35050
L70850 37350
" />
<path d="M70850 37350
L71950 37350
" />
<path d="M71400 39950
L71400 39600
" />
<path d="M71950 40450
L71950 38150
" />
<path d="M71950 38150
L70850 38150
" />
<path d="M70850 38150
L70850 40450
" />
<path d="M70850 40450
L71950 40450
" />
<path d="M57100 41450
L57100 41100
" />
<path d="M57650 41950
L57650 39650
" />
<path d="M57650 39650
L56550 39650
" />
<path d="M56550 39650
L56550 41950
" />
<path d="M56550 41950
L57650 41950
" />
<path d="M54250 49400
L53900 49400
" />
<path d="M54750 48850
L52450 48850
" />
<path d="M52450 48850
L52450 49950
" />
<path d="M52450 49950
L54750 49950
" />
<path d="M54750 49950
L54750 48850
" />
</g>
<g style="fill:#000000; fill-opacity:0.0; 
stroke:#000000; stroke-width:79; stroke-opacity:1; 
stroke-linecap:round; stroke-linejoin:round;">
<path d="M41994 22829
L41994 22671
" />
<path d="M42526 22199
L42152 22199
" />
<path d="M42526 22199
L42526 22474
" />
<path d="M42526 23301
L42526 23026
" />
<path d="M42526 23301
L42152 23301
" />
</g>
<g style="fill:#000000; fill-opacity:0.0; 
stroke:#000000; stroke-width:80; stroke-opacity:1; 
stroke-linecap:round; stroke-linejoin:round;">
<path d="M55740 49840
L58100 49840
" />
<path d="M58100 49840
L58100 47260
" />
<path d="M58100 47260
L55740 47260
" />
</g>
<g style="fill:#000000; fill-opacity:0.0; 
stroke:#000000; stroke-width:50; stroke-opacity:1; 
stroke-linecap:round; stroke-linejoin:round;">
<path d="M67465 52425
L67210 52680
" />
<path d="M67405 52425
L67210 52620
" />
<path d="M67800 52975
L67800 53235
" />
<path d="M68175 52975
L68175 53235
" />
<path d="M67425 52975
L67425 53235
" />
<path d="M67800 52425
L67800 52165
" />
<path d="M68175 52425
L68175 52165
" />
<path d="M67425 52425
L67425 52165
" />
<path d="M67210 52975
L68390 52975
" />
<path d="M68390 52975
L68390 52425
" />
<path d="M68390 52425
L67210 52425
" />
<path d="M67210 52425
L67210 52975
" />
</g>
<g style="fill:#000000; fill-opacity:0.0; 
stroke:#000000; stroke-width:59.0551; stroke-opacity:1; 
stroke-linecap:round; stroke-linejoin:round;">
<path d="M57900 32725
L57756 32725
" />
<path d="M57900 29674
L57756 29674
" />
<path d="M51699 29674
L51843 29674
" />
<path d="M51699 32725
L51843 32725
" />
<path d="M57900 32725
L57900 29674
" />
<path d="M51699 32725
L51699 29674
" />
<path d="M57756 32725
L57756 33444
" />
</g>
<g style="fill:#000000; fill-opacity:0.0; 
stroke:#000000; stroke-width:50; stroke-opacity:1; 
stroke-linecap:round; stroke-linejoin:round;">
<path d="M73320 39150
L74880 39150
" />
<path d="M74880 39150
L74880 41050
" />
<path d="M74880 41050
L73320 41050
" />
<path d="M73320 41050
L73320 39150
" />
<path d="M73320 39350
L72890 39350
" />
<path d="M73320 39850
L72890 39850
" />
<path d="M73320 40350
L72890 40350
" />
<path d="M72890 40850
L73320 40850
" />
<path d="M74880 40850
L75310 40850
" />
<path d="M75310 40350
L74880 40350
" />
<path d="M75310 39850
L74880 39850
" />
<path d="M75310 39350
L74880 39350
" />
<circle cx="74590" cy="39440" r="186.011" /> 
</g>
<g style="fill:#000000; fill-opacity:0.0; 
stroke:#000000; stroke-width:59.0551; stroke-opacity:1; 
stroke-linecap:round; stroke-linejoin:round;">
<path d="M73000 46903
L73000 46844
" />
<path d="M73000 47237
L73000 47316
" />
<path d="M73000 46903
L73295 46903
" />
<path d="M73000 46903
L72724 46903
" />
<path d="M73000 46903
L72724 47237
" />
<path d="M72724 47237
L73276 47237
" />
<path d="M73276 47237
L73000 46903
" />
<path d="M71400 42950
L71400 42600
" />
<path d="M71950 43450
L71950 41150
" />
<path d="M71950 41150
L70850 41150
" />
<path d="M70850 41150
L70850 43450
" />
<path d="M70850 43450
L71950 43450
" />
</g>
<g style="fill:#000000; fill-opacity:0.0; 
stroke:#000000; stroke-width:79; stroke-opacity:1; 
stroke-linecap:round; stroke-linejoin:round;">
<path d="M46494 22829
L46494 22671
" />
<path d="M47026 22199
L46652 22199
" />
<path d="M47026 22199
L47026 22474
" />
<path d="M47026 23301
L47026 23026
" />
<path d="M47026 23301
L46652 23301
" />
<path d="M50994 22829
L50994 22671
" />
<path d="M51526 22199
L51152 22199
" />
<path d="M51526 22199
L51526 22474
" />
<path d="M51526 23301
L51526 23026
" />
<path d="M51526 23301
L51152 23301
" />
<path d="M64494 22829
L64494 22671
" />
<path d="M65026 22199
L64652 22199
" />
<path d="M65026 22199
L65026 22474
" />
<path d="M65026 23301
L65026 23026
" />
<path d="M65026 23301
L64652 23301
" />
<path d="M68671 22244
L68829 22244
" />
<path d="M69301 22776
L69301 22402
" />
<path d="M69301 22776
L69026 22776
" />
<path d="M68199 22776
L68474 22776
" />
<path d="M68199 22776
L68199 22402
" />
<path d="M69579 24106
L69421 24106
" />
<path d="M68949 23574
L68949 23948
" />
<path d="M68949 23574
L69224 23574
" />
<path d="M70051 23574
L69776 23574
" />
<path d="M70051 23574
L70051 23948
" />
<path d="M59679 37456
L59521 37456
" />
<path d="M59049 36924
L59049 37298
" />
<path d="M59049 36924
L59324 36924
" />
<path d="M60151 36924
L59876 36924
" />
<path d="M60151 36924
L60151 37298
" />
<path d="M47079 37456
L46921 37456
" />
<path d="M46449 36924
L46449 37298
" />
<path d="M46449 36924
L46724 36924
" />
<path d="M47551 36924
L47276 36924
" />
<path d="M47551 36924
L47551 37298
" />
<path d="M43879 37456
L43721 37456
" />
<path d="M43249 36924
L43249 37298
" />
<path d="M43249 36924
L43524 36924
" />
<path d="M44351 36924
L44076 36924
" />
<path d="M44351 36924
L44351 37298
" />
<path d="M41879 37356
L41721 37356
" />
<path d="M41249 36824
L41249 37198
" />
<path d="M41249 36824
L41524 36824
" />
<path d="M42351 36824
L42076 36824
" />
<path d="M42351 36824
L42351 37198
" />
<path d="M42356 59621
L42356 59779
" />
<path d="M41824 60251
L42198 60251
" />
<path d="M41824 60251
L41824 59976
" />
<path d="M41824 59149
L41824 59424
" />
<path d="M41824 59149
L42198 59149
" />
<path d="M46856 59621
L46856 59779
" />
<path d="M46324 60251
L46698 60251
" />
<path d="M46324 60251
L46324 59976
" />
<path d="M46324 59149
L46324 59424
" />
<path d="M46324 59149
L46698 59149
" />
<path d="M51356 59621
L51356 59779
" />
<path d="M50824 60251
L51198 60251
" />
<path d="M50824 60251
L50824 59976
" />
<path d="M50824 59149
L50824 59424
" />
<path d="M50824 59149
L51198 59149
" />
<path d="M55856 59621
L55856 59779
" />
<path d="M55324 60251
L55698 60251
" />
<path d="M55324 60251
L55324 59976
" />
<path d="M55324 59149
L55324 59424
" />
<path d="M55324 59149
L55698 59149
" />
<path d="M60356 59721
L60356 59879
" />
<path d="M59824 60351
L60198 60351
" />
<path d="M59824 60351
L59824 60076
" />
<path d="M59824 59249
L59824 59524
" />
<path d="M59824 59249
L60198 59249
" />
<path d="M64856 59721
L64856 59879
" />
<path d="M64324 60351
L64698 60351
" />
<path d="M64324 60351
L64324 60076
" />
<path d="M64324 59249
L64324 59524
" />
<path d="M64324 59249
L64698 59249
" />
<path d="M69356 59721
L69356 59879
" />
<path d="M68824 60351
L69198 60351
" />
<path d="M68824 60351
L68824 60076
" />
<path d="M68824 59249
L68824 59524
" />
<path d="M68824 59249
L69198 59249
" />
<path d="M73856 59721
L73856 59879
" />
<path d="M73324 60351
L73698 60351
" />
<path d="M73324 60351
L73324 60076
" />
<path d="M73324 59249
L73324 59524
" />
<path d="M73324 59249
L73698 59249
" />
<path d="M59994 22829
L59994 22671
" />
<path d="M60526 22199
L60152 22199
" />
<path d="M60526 22199
L60526 22474
" />
<path d="M60526 23301
L60526 23026
" />
<path d="M60526 23301
L60152 23301
" />
<path d="M55494 22829
L55494 22671
" />
<path d="M56026 22199
L55652 22199
" />
<path d="M56026 22199
L56026 22474
" />
<path d="M56026 23301
L56026 23026
" />
<path d="M56026 23301
L55652 23301
" />
</g>
<g style="fill:#000000; fill-opacity:0.0; 
stroke:#000000; stroke-width:59.0551; stroke-opacity:1; 
stroke-linecap:round; stroke-linejoin:round;">
<path d="M62800 49500
L62800 48700
" />
<path d="M62850 48550
L62850 49650
" />
<path d="M62900 49750
L62900 48450
" />
<path d="M62950 48350
L62950 49850
" />
<path d="M63000 48300
L63000 49900
" />
<path d="M63050 50000
L63050 48200
" />
<circle cx="64300" cy="49100" r="1550" /> 
<path d="M62650 50750
L62650 47450
" />
<path d="M62650 47450
L65650 47450
" />
<path d="M65650 47450
L65950 47750
" />
<path d="M65950 47750
L65950 50450
" />
<path d="M65950 50450
L65650 50750
" />
<path d="M65650 50750
L62650 50750
" />
<path d="M65750 49100
L65450 49100
" />
<path d="M65600 49250
L65600 48950
" />
<path d="M62800 45800
L62800 45000
" />
<path d="M62850 44850
L62850 45950
" />
<path d="M62900 46050
L62900 44750
" />
<path d="M62950 44650
L62950 46150
" />
<path d="M63000 44600
L63000 46200
" />
<path d="M63050 46300
L63050 44500
" />
<circle cx="64300" cy="45400" r="1550" /> 
<path d="M62650 47050
L62650 43750
" />
<path d="M62650 43750
L65650 43750
" />
<path d="M65650 43750
L65950 44050
" />
<path d="M65950 44050
L65950 46750
" />
<path d="M65950 46750
L65650 47050
" />
<path d="M65650 47050
L62650 47050
" />
<path d="M65750 45400
L65450 45400
" />
<path d="M65600 45550
L65600 45250
" />
<path d="M62800 53200
L62800 52400
" />
<path d="M62850 52250
L62850 53350
" />
<path d="M62900 53450
L62900 52150
" />
<path d="M62950 52050
L62950 53550
" />
<path d="M63000 52000
L63000 53600
" />
<path d="M63050 53700
L63050 51900
" />
<circle cx="64300" cy="52800" r="1550" /> 
<path d="M62650 54450
L62650 51150
" />
<path d="M62650 51150
L65650 51150
" />
<path d="M65650 51150
L65950 51450
" />
<path d="M65950 51450
L65950 54150
" />
<path d="M65950 54150
L65650 54450
" />
<path d="M65650 54450
L62650 54450
" />
<path d="M65750 52800
L65450 52800
" />
<path d="M65600 52950
L65600 52650
" />
<path d="M62800 30000
L62800 29200
" />
<path d="M62850 29050
L62850 30150
" />
<path d="M62900 30250
L62900 28950
" />
<path d="M62950 28850
L62950 30350
" />
<path d="M63000 28800
L63000 30400
" />
<path d="M63050 30500
L63050 28700
" />
<circle cx="64300" cy="29600" r="1550" /> 
<path d="M62650 31250
L62650 27950
" />
<path d="M62650 27950
L65650 27950
" />
<path d="M65650 27950
L65950 28250
" />
<path d="M65950 28250
L65950 30950
" />
<path d="M65950 30950
L65650 31250
" />
<path d="M65650 31250
L62650 31250
" />
<path d="M65750 29600
L65450 29600
" />
<path d="M65600 29750
L65600 29450
" />
<path d="M76400 38000
L75600 38000
" />
<path d="M75450 37950
L76550 37950
" />
<path d="M76650 37900
L75350 37900
" />
<path d="M75250 37850
L76750 37850
" />
<path d="M75200 37800
L76800 37800
" />
<path d="M76900 37750
L75100 37750
" />
<circle cx="76000" cy="36500" r="1550" /> 
<path d="M77650 38150
L74350 38150
" />
<path d="M74350 38150
L74350 35150
" />
<path d="M74350 35150
L74650 34850
" />
<path d="M74650 34850
L77350 34850
" />
<path d="M77350 34850
L77650 35150
" />
<path d="M77650 35150
L77650 38150
" />
<path d="M76000 35050
L76000 35350
" />
<path d="M76150 35200
L75850 35200
" />
</g>
<g style="fill:#000000; fill-opacity:0.0; 
stroke:#000000; stroke-width:110.236; stroke-opacity:1; 
stroke-linecap:round; stroke-linejoin:round;">
<circle cx="39840" cy="37480" r="501.969" /> 
</g>
<g style="fill:#000000; fill-opacity:0.0; 
stroke:#000000; stroke-width:59.0551; stroke-opacity:1; 
stroke-linecap:round; stroke-linejoin:round;">
<path d="M69940 46883
L69940 46824
" />
<path d="M69940 47217
L69940 47296
" />
<path d="M69940 46883
L70235 46883
" />
<path d="M69940 46883
L69664 46883
" />
<path d="M69940 46883
L69664 47217
" />
<path d="M69664 47217
L70216 47217
" />
<path d="M70216 47217
L69940 46883
" />
<path d="M61096 47384
L60703 47384
" />
<path d="M60703 46715
L61096 46715
" />
<path d="M59003 29825
L59396 29825
" />
<path d="M59396 30494
L59003 30494
" />
<path d="M76334 46653
L76334 47046
" />
<path d="M75665 47046
L75665 46653
" />
<path d="M75195 33461
L75195 33068
" />
<path d="M75864 33068
L75864 33461
" />
<path d="M42044 58536
L42044 58063
" />
<path d="M41355 58063
L41355 58536
" />
<path d="M42944 58536
L42944 58063
" />
<path d="M42255 58063
L42255 58536
" />
<path d="M46544 58536
L46544 58063
" />
<path d="M45855 58063
L45855 58536
" />
<path d="M47444 58536
L47444 58063
" />
<path d="M46755 58063
L46755 58536
" />
<path d="M51044 58636
L51044 58163
" />
<path d="M50355 58163
L50355 58636
" />
<path d="M51944 58636
L51944 58163
" />
<path d="M51255 58163
L51255 58636
" />
<path d="M55544 58636
L55544 58163
" />
<path d="M54855 58163
L54855 58636
" />
<path d="M56444 58636
L56444 58163
" />
<path d="M55755 58163
L55755 58636
" />
<path d="M59944 58636
L59944 58163
" />
<path d="M59255 58163
L59255 58636
" />
<path d="M60844 58636
L60844 58163
" />
<path d="M60155 58163
L60155 58636
" />
<path d="M64544 58636
L64544 58163
" />
<path d="M63855 58163
L63855 58636
" />
<path d="M65444 58636
L65444 58163
" />
<path d="M64755 58163
L64755 58636
" />
<path d="M69044 58636
L69044 58163
" />
<path d="M68355 58163
L68355 58636
" />
<path d="M69944 58636
L69944 58163
" />
<path d="M69255 58163
L69255 58636
" />
<path d="M73544 58636
L73544 58163
" />
<path d="M72855 58163
L72855 58636
" />
<path d="M74444 58636
L74444 58163
" />
<path d="M73755 58163
L73755 58636
" />
<path d="M41686 47155
L41213 47155
" />
<path d="M41213 47844
L41686 47844
" />
<path d="M41455 24063
L41455 24536
" />
<path d="M42144 24536
L42144 24063
" />
<path d="M68136 53655
L67663 53655
" />
<path d="M67663 54344
L68136 54344
" />
<path d="M69155 52963
L69155 53436
" />
<path d="M69844 53436
L69844 52963
" />
<path d="M42355 24063
L42355 24536
" />
<path d="M43044 24536
L43044 24063
" />
<path d="M45955 24063
L45955 24536
" />
<path d="M46644 24536
L46644 24063
" />
<path d="M46855 24063
L46855 24536
" />
<path d="M47544 24536
L47544 24063
" />
<path d="M50455 24063
L50455 24536
" />
<path d="M51144 24536
L51144 24063
" />
<path d="M51355 24063
L51355 24536
" />
<path d="M52044 24536
L52044 24063
" />
<path d="M54955 24063
L54955 24536
" />
<path d="M55644 24536
L55644 24063
" />
<path d="M55855 24063
L55855 24536
" />
<path d="M56544 24536
L56544 24063
" />
<path d="M59455 24063
L59455 24536
" />
<path d="M60144 24536
L60144 24063
" />
<path d="M60355 24063
L60355 24536
" />
<path d="M61044 24536
L61044 24063
" />
<path d="M63955 24063
L63955 24536
" />
<path d="M64644 24536
L64644 24063
" />
<path d="M64855 24063
L64855 24536
" />
<path d="M65544 24536
L65544 24063
" />
<path d="M67955 24363
L67955 24836
" />
<path d="M68644 24836
L68644 24363
" />
<path d="M68555 25913
L68555 26386
" />
<path d="M69244 26386
L69244 25913
" />
<path d="M72405 24453
L72405 24926
" />
<path d="M73094 24926
L73094 24453
" />
<path d="M69455 25913
L69455 26386
" />
<path d="M70144 26386
L70144 25913
" />
<path d="M76486 27905
L76013 27905
" />
<path d="M76013 28594
L76486 28594
" />
<path d="M76486 28805
L76013 28805
" />
<path d="M76013 29494
L76486 29494
" />
<path d="M42036 38155
L41563 38155
" />
<path d="M41563 38844
L42036 38844
" />
<path d="M44136 38155
L43663 38155
" />
<path d="M43663 38844
L44136 38844
" />
<path d="M47236 38155
L46763 38155
" />
<path d="M46763 38844
L47236 38844
" />
<path d="M59836 38155
L59363 38155
" />
<path d="M59363 38844
L59836 38844
" />
<path d="M61963 34144
L62436 34144
" />
<path d="M62436 33455
L61963 33455
" />
<path d="M61963 35144
L62436 35144
" />
<path d="M62436 34455
L61963 34455
" />
<path d="M61963 36144
L62436 36144
" />
<path d="M62436 35455
L61963 35455
" />
<path d="M61963 37144
L62436 37144
" />
<path d="M62436 36455
L61963 36455
" />
<path d="M61963 38144
L62436 38144
" />
<path d="M62436 37455
L61963 37455
" />
<path d="M61963 39144
L62436 39144
" />
<path d="M62436 38455
L61963 38455
" />
<path d="M61963 40144
L62436 40144
" />
<path d="M62436 39455
L61963 39455
" />
<path d="M41655 33363
L41655 33836
" />
<path d="M42344 33836
L42344 33363
" />
<path d="M42655 33363
L42655 33836
" />
<path d="M43344 33836
L43344 33363
" />
<path d="M46055 33363
L46055 33836
" />
<path d="M46744 33836
L46744 33363
" />
<path d="M58963 29544
L59436 29544
" />
<path d="M59436 28855
L58963 28855
" />
<path d="M72105 51363
L72105 51836
" />
<path d="M72794 51836
L72794 51363
" />
<path d="M73744 51836
L73744 51363
" />
<path d="M73055 51363
L73055 51836
" />
<path d="M74944 33536
L74944 33063
" />
<path d="M74255 33063
L74255 33536
" />
<path d="M74704 51831
L74704 51358
" />
<path d="M74015 51358
L74015 51831
" />
<path d="M60076 49203
L60498 49203
L60582 49175
L60639 49118
L60667 49034
L60667 48978
" />
<path d="M60667 49793
L60667 49456
" />
<path d="M60667 49624
L60076 49624
L60160 49568
L60217 49512
L60245 49456
" />
<path d="M72076 33003
L72498 33003
L72582 32975
L72639 32918
L72667 32834
L72667 32778
" />
<path d="M72132 33256
L72104 33284
L72076 33340
L72076 33481
L72104 33537
L72132 33565
L72189 33593
L72245 33593
L72329 33565
L72667 33228
L72667 33593
" />
<path d="M72076 36003
L72498 36003
L72582 35975
L72639 35918
L72667 35834
L72667 35778
" />
<path d="M72273 36537
L72667 36537
" />
<path d="M72048 36396
L72470 36256
L72470 36621
" />
<path d="M72076 38203
L72498 38203
L72582 38175
L72639 38118
L72667 38034
L72667 37978
" />
<path d="M72076 38737
L72076 38624
L72104 38568
L72132 38540
L72217 38484
L72329 38456
L72554 38456
L72610 38484
L72639 38512
L72667 38568
L72667 38681
L72639 38737
L72610 38765
L72554 38793
L72414 38793
L72357 38765
L72329 38737
L72301 38681
L72301 38568
L72329 38512
L72357 38484
L72414 38456
" />
<path d="M57876 40503
L58298 40503
L58382 40475
L58439 40418
L58467 40334
L58467 40278
" />
<path d="M57876 40728
L57876 41121
L58467 40868
" />
<path d="M53896 48076
L53896 48498
L53924 48582
L53981 48639
L54065 48667
L54121 48667
" />
<path d="M53587 48667
L53475 48667
L53418 48639
L53390 48610
L53334 48526
L53306 48414
L53306 48189
L53334 48132
L53362 48104
L53418 48076
L53531 48076
L53587 48104
L53615 48132
L53643 48189
L53643 48329
L53615 48385
L53587 48414
L53531 48442
L53418 48442
L53362 48414
L53334 48385
L53306 48329
" />
</g>
<g style="fill:#000000; fill-opacity:0.0; 
stroke:#000000; stroke-width:39.3701; stroke-opacity:1; 
stroke-linecap:round; stroke-linejoin:round;">
<path d="M42318 22107
L42337 22098
L42356 22079
L42384 22051
L42403 22042
L42421 22042
" />
<path d="M42412 22089
L42431 22079
L42449 22060
L42459 22023
L42459 21957
L42449 21920
L42431 21901
L42412 21892
L42374 21892
L42356 21901
L42337 21920
L42328 21957
L42328 22023
L42337 22060
L42356 22079
L42374 22089
L42412 22089
" />
<path d="M42234 22089
L42196 22089
L42178 22079
L42168 22070
L42150 22042
L42140 22004
L42140 21929
L42150 21910
L42159 21901
L42178 21892
L42215 21892
L42234 21901
L42243 21910
L42253 21929
L42253 21976
L42243 21995
L42234 22004
L42215 22014
L42178 22014
L42159 22004
L42150 21995
L42140 21976
" />
</g>
<g style="fill:#000000; fill-opacity:0.0; 
stroke:#000000; stroke-width:40; stroke-opacity:1; 
stroke-linecap:round; stroke-linejoin:round;">
<path d="M57280 46626
L57280 47030
L57257 47078
L57233 47102
L57185 47126
L57090 47126
L57042 47102
L57019 47078
L56995 47030
L56995 46626
" />
<path d="M56495 47126
L56780 47126
" />
<path d="M56638 47126
L56638 46626
L56685 46697
L56733 46745
L56780 46769
" />
</g>
<g style="fill:#000000; fill-opacity:0.0; 
stroke:#000000; stroke-width:39; stroke-opacity:1; 
stroke-linecap:round; stroke-linejoin:round;">
<path d="M66892 52549
L67051 52549
L67070 52559
L67079 52568
L67089 52587
L67089 52624
L67079 52643
L67070 52653
L67051 52662
L66892 52662
" />
<path d="M66910 52746
L66901 52756
L66892 52775
L66892 52821
L66901 52840
L66910 52850
L66929 52859
L66948 52859
L66976 52850
L67089 52737
L67089 52859
" />
</g>
<g style="fill:#000000; fill-opacity:0.0; 
stroke:#000000; stroke-width:59.0551; stroke-opacity:1; 
stroke-linecap:round; stroke-linejoin:round;">
<path d="M58084 32100
L58403 32100
L58440 32118
L58459 32137
L58478 32175
L58478 32250
L58459 32287
L58440 32306
L58403 32325
L58084 32325
" />
<path d="M58215 32681
L58478 32681
" />
<path d="M58065 32587
L58346 32493
L58346 32737
" />
<path d="M57034 28753
L57034 28359
L56884 28359
L56846 28378
L56827 28396
L56809 28434
L56809 28490
L56827 28528
L56846 28546
L56884 28565
L57034 28565
" />
<path d="M56415 28715
L56434 28734
L56490 28753
L56527 28753
L56584 28734
L56621 28696
L56640 28659
L56659 28584
L56659 28528
L56640 28453
L56621 28415
L56584 28378
L56527 28359
L56490 28359
L56434 28378
L56415 28396
" />
<path d="M56265 28640
L56077 28640
" />
<path d="M56302 28753
L56171 28359
L56040 28753
" />
<path d="M55890 28753
L55815 28753
L55777 28734
L55759 28715
L55721 28659
L55702 28584
L55702 28434
L55721 28396
L55740 28378
L55777 28359
L55852 28359
L55890 28378
L55909 28396
L55927 28434
L55927 28528
L55909 28565
L55890 28584
L55852 28603
L55777 28603
L55740 28584
L55721 28565
L55702 28528
" />
<path d="M55346 28359
L55534 28359
L55553 28546
L55534 28528
L55496 28509
L55403 28509
L55365 28528
L55346 28546
L55328 28584
L55328 28678
L55346 28715
L55365 28734
L55403 28753
L55496 28753
L55534 28734
L55553 28715
" />
<path d="M54971 28359
L55159 28359
L55178 28546
L55159 28528
L55121 28509
L55028 28509
L54990 28528
L54971 28546
L54953 28584
L54953 28678
L54971 28715
L54990 28734
L55028 28753
L55121 28753
L55159 28734
L55178 28715
" />
<path d="M54596 28359
L54784 28359
L54803 28546
L54784 28528
L54746 28509
L54653 28509
L54615 28528
L54596 28546
L54578 28584
L54578 28678
L54596 28715
L54615 28734
L54653 28753
L54746 28753
L54784 28734
L54803 28715
" />
<path d="M54409 28753
L54409 28359
L54315 28359
L54259 28378
L54221 28415
L54203 28453
L54184 28528
L54184 28584
L54203 28659
L54221 28696
L54259 28734
L54315 28753
L54409 28753
" />
<path d="M53734 28734
L53678 28753
L53584 28753
L53547 28734
L53528 28715
L53509 28678
L53509 28640
L53528 28603
L53547 28584
L53584 28565
L53659 28546
L53697 28528
L53715 28509
L53734 28471
L53734 28434
L53715 28396
L53697 28378
L53659 28359
L53565 28359
L53509 28378
" />
<path d="M53265 28359
L53190 28359
L53153 28378
L53115 28415
L53097 28490
L53097 28621
L53115 28696
L53153 28734
L53190 28753
L53265 28753
L53303 28734
L53340 28696
L53359 28621
L53359 28490
L53340 28415
L53303 28378
L53265 28359
" />
<path d="M52947 28396
L52928 28378
L52890 28359
L52797 28359
L52759 28378
L52740 28396
L52722 28434
L52722 28471
L52740 28528
L52965 28753
L52722 28753
" />
<path d="M52384 28490
L52384 28753
" />
<path d="M52478 28340
L52572 28621
L52328 28621
" />
</g>
<g style="fill:#000000; fill-opacity:0.0; 
stroke:#000000; stroke-width:59; stroke-opacity:1; 
stroke-linecap:round; stroke-linejoin:round;">
<path d="M74224 38738
L74224 38977
L74210 39005
L74196 39019
L74168 39033
L74112 39033
L74084 39019
L74070 39005
L74056 38977
L74056 38738
" />
<path d="M73789 38738
L73845 38738
L73873 38752
L73887 38766
L73915 38808
L73929 38864
L73929 38977
L73915 39005
L73901 39019
L73873 39033
L73817 39033
L73789 39019
L73775 39005
L73761 38977
L73761 38907
L73775 38878
L73789 38864
L73817 38850
L73873 38850
L73901 38864
L73915 38878
L73929 38907
" />
</g>
<g style="fill:#000000; fill-opacity:0.0; 
stroke:#000000; stroke-width:59.0551; stroke-opacity:1; 
stroke-linecap:round; stroke-linejoin:round;">
<path d="M72578 46009
L72184 46009
L72184 46103
L72203 46159
L72240 46196
L72278 46215
L72353 46234
L72409 46234
L72484 46215
L72521 46196
L72559 46159
L72578 46103
L72578 46009
" />
<path d="M72578 46609
L72578 46384
" />
<path d="M72578 46496
L72184 46496
L72240 46459
L72278 46421
L72296 46384
" />
<path d="M73906 46288
L73512 46288
" />
<path d="M73906 46513
L73681 46344
" />
<path d="M73512 46513
L73737 46288
" />
<path d="M73793 47714
L73793 47902
" />
<path d="M73906 47677
L73512 47808
L73906 47939
" />
<path d="M72076 42221
L72498 42221
L72582 42193
L72639 42137
L72667 42053
L72667 41996
" />
<path d="M72667 42812
L72667 42475
" />
<path d="M72667 42643
L72076 42643
L72160 42587
L72217 42531
L72245 42475
" />
<path d="M72076 43178
L72076 43234
L72104 43290
L72132 43318
L72189 43346
L72301 43374
L72442 43374
L72554 43346
L72610 43318
L72639 43290
L72667 43234
L72667 43178
L72639 43121
L72610 43093
L72554 43065
L72442 43037
L72301 43037
L72189 43065
L72132 43093
L72104 43121
L72076 43178
" />
</g>
<g style="fill:#000000; fill-opacity:0.0; 
stroke:#000000; stroke-width:39.3701; stroke-opacity:1; 
stroke-linecap:round; stroke-linejoin:round;">
<path d="M46912 22107
L46931 22098
L46949 22079
L46978 22051
L46996 22042
L47015 22042
" />
<path d="M47006 22089
L47024 22079
L47043 22060
L47053 22023
L47053 21957
L47043 21920
L47024 21901
L47006 21892
L46968 21892
L46949 21901
L46931 21920
L46921 21957
L46921 22023
L46931 22060
L46949 22079
L46968 22089
L47006 22089
" />
<path d="M46734 22089
L46846 22089
" />
<path d="M46790 22089
L46790 21892
L46809 21920
L46828 21939
L46846 21948
" />
<path d="M46612 21892
L46593 21892
L46575 21901
L46565 21910
L46556 21929
L46546 21967
L46546 22014
L46556 22051
L46565 22070
L46575 22079
L46593 22089
L46612 22089
L46631 22079
L46640 22070
L46650 22051
L46659 22014
L46659 21967
L46650 21929
L46640 21910
L46631 21901
L46612 21892
" />
<path d="M51412 22107
L51431 22098
L51449 22079
L51478 22051
L51496 22042
L51515 22042
" />
<path d="M51506 22089
L51524 22079
L51543 22060
L51553 22023
L51553 21957
L51543 21920
L51524 21901
L51506 21892
L51468 21892
L51449 21901
L51431 21920
L51421 21957
L51421 22023
L51431 22060
L51449 22079
L51468 22089
L51506 22089
" />
<path d="M51234 22089
L51346 22089
" />
<path d="M51290 22089
L51290 21892
L51309 21920
L51328 21939
L51346 21948
" />
<path d="M51046 22089
L51159 22089
" />
<path d="M51103 22089
L51103 21892
L51121 21920
L51140 21939
L51159 21948
" />
<path d="M64912 22007
L64931 21998
L64949 21979
L64978 21951
L64996 21942
L65015 21942
" />
<path d="M65006 21989
L65024 21979
L65043 21960
L65053 21923
L65053 21857
L65043 21820
L65024 21801
L65006 21792
L64968 21792
L64949 21801
L64931 21820
L64921 21857
L64921 21923
L64931 21960
L64949 21979
L64968 21989
L65006 21989
" />
<path d="M64734 21989
L64846 21989
" />
<path d="M64790 21989
L64790 21792
L64809 21820
L64828 21839
L64846 21848
" />
<path d="M64565 21857
L64565 21989
" />
<path d="M64612 21782
L64659 21923
L64537 21923
" />
<path d="M68912 21907
L68931 21898
L68949 21879
L68978 21851
L68996 21842
L69015 21842
" />
<path d="M69006 21889
L69024 21879
L69043 21860
L69053 21823
L69053 21757
L69043 21720
L69024 21701
L69006 21692
L68968 21692
L68949 21701
L68931 21720
L68921 21757
L68921 21823
L68931 21860
L68949 21879
L68968 21889
L69006 21889
" />
<path d="M68734 21889
L68846 21889
" />
<path d="M68790 21889
L68790 21692
L68809 21720
L68828 21739
L68846 21748
" />
<path d="M68556 21692
L68650 21692
L68659 21785
L68650 21776
L68631 21767
L68584 21767
L68565 21776
L68556 21785
L68546 21804
L68546 21851
L68556 21870
L68565 21879
L68584 21889
L68631 21889
L68650 21879
L68659 21870
" />
<path d="M70212 23407
L70231 23398
L70249 23379
L70278 23351
L70296 23342
L70315 23342
" />
<path d="M70306 23389
L70324 23379
L70343 23360
L70353 23323
L70353 23257
L70343 23220
L70324 23201
L70306 23192
L70268 23192
L70249 23201
L70231 23220
L70221 23257
L70221 23323
L70231 23360
L70249 23379
L70268 23389
L70306 23389
" />
<path d="M70034 23389
L70146 23389
" />
<path d="M70090 23389
L70090 23192
L70109 23220
L70128 23239
L70146 23248
" />
<path d="M69865 23192
L69903 23192
L69921 23201
L69931 23210
L69950 23239
L69959 23276
L69959 23351
L69950 23370
L69940 23379
L69921 23389
L69884 23389
L69865 23379
L69856 23370
L69846 23351
L69846 23304
L69856 23285
L69865 23276
L69884 23267
L69921 23267
L69940 23276
L69950 23285
L69959 23304
" />
<path d="M58812 37307
L58831 37298
L58849 37279
L58878 37251
L58896 37242
L58915 37242
" />
<path d="M58906 37289
L58924 37279
L58943 37260
L58953 37223
L58953 37157
L58943 37120
L58924 37101
L58906 37092
L58868 37092
L58849 37101
L58831 37120
L58821 37157
L58821 37223
L58831 37260
L58849 37279
L58868 37289
L58906 37289
" />
<path d="M58746 37110
L58737 37101
L58718 37092
L58671 37092
L58653 37101
L58643 37110
L58634 37129
L58634 37148
L58643 37176
L58756 37289
L58634 37289
" />
<path d="M58512 37092
L58493 37092
L58475 37101
L58465 37110
L58456 37129
L58446 37167
L58446 37214
L58456 37251
L58465 37270
L58475 37279
L58493 37289
L58512 37289
L58531 37279
L58540 37270
L58550 37251
L58559 37214
L58559 37167
L58550 37129
L58540 37110
L58531 37101
L58512 37092
" />
<path d="M46512 36807
L46531 36798
L46549 36779
L46578 36751
L46596 36742
L46615 36742
" />
<path d="M46606 36789
L46624 36779
L46643 36760
L46653 36723
L46653 36657
L46643 36620
L46624 36601
L46606 36592
L46568 36592
L46549 36601
L46531 36620
L46521 36657
L46521 36723
L46531 36760
L46549 36779
L46568 36789
L46606 36789
" />
<path d="M46334 36789
L46446 36789
" />
<path d="M46390 36789
L46390 36592
L46409 36620
L46428 36639
L46446 36648
" />
<path d="M46240 36789
L46203 36789
L46184 36779
L46175 36770
L46156 36742
L46146 36704
L46146 36629
L46156 36610
L46165 36601
L46184 36592
L46221 36592
L46240 36601
L46250 36610
L46259 36629
L46259 36676
L46250 36695
L46240 36704
L46221 36714
L46184 36714
L46165 36704
L46156 36695
L46146 36676
" />
<path d="M43312 36807
L43331 36798
L43349 36779
L43378 36751
L43396 36742
L43415 36742
" />
<path d="M43406 36789
L43424 36779
L43443 36760
L43453 36723
L43453 36657
L43443 36620
L43424 36601
L43406 36592
L43368 36592
L43349 36601
L43331 36620
L43321 36657
L43321 36723
L43331 36760
L43349 36779
L43368 36789
L43406 36789
" />
<path d="M43134 36789
L43246 36789
" />
<path d="M43190 36789
L43190 36592
L43209 36620
L43228 36639
L43246 36648
" />
<path d="M43021 36676
L43040 36667
L43050 36657
L43059 36639
L43059 36629
L43050 36610
L43040 36601
L43021 36592
L42984 36592
L42965 36601
L42956 36610
L42946 36629
L42946 36639
L42956 36657
L42965 36667
L42984 36676
L43021 36676
L43040 36685
L43050 36695
L43059 36714
L43059 36751
L43050 36770
L43040 36779
L43021 36789
L42984 36789
L42965 36779
L42956 36770
L42946 36751
L42946 36714
L42956 36695
L42965 36685
L42984 36676
" />
<path d="M41312 36707
L41331 36698
L41349 36679
L41378 36651
L41396 36642
L41415 36642
" />
<path d="M41406 36689
L41424 36679
L41443 36660
L41453 36623
L41453 36557
L41443 36520
L41424 36501
L41406 36492
L41368 36492
L41349 36501
L41331 36520
L41321 36557
L41321 36623
L41331 36660
L41349 36679
L41368 36689
L41406 36689
" />
<path d="M41134 36689
L41246 36689
" />
<path d="M41190 36689
L41190 36492
L41209 36520
L41228 36539
L41246 36548
" />
<path d="M41068 36492
L40937 36492
L41021 36689
" />
<path d="M42018 60607
L42037 60598
L42056 60579
L42084 60551
L42103 60542
L42121 60542
" />
<path d="M42112 60589
L42131 60579
L42149 60560
L42159 60523
L42159 60457
L42149 60420
L42131 60401
L42112 60392
L42074 60392
L42056 60401
L42037 60420
L42028 60457
L42028 60523
L42037 60560
L42056 60579
L42074 60589
L42112 60589
" />
<path d="M41840 60589
L41953 60589
" />
<path d="M41896 60589
L41896 60392
L41915 60420
L41934 60439
L41953 60448
" />
<path d="M46518 60607
L46537 60598
L46556 60579
L46584 60551
L46603 60542
L46621 60542
" />
<path d="M46612 60589
L46631 60579
L46649 60560
L46659 60523
L46659 60457
L46649 60420
L46631 60401
L46612 60392
L46574 60392
L46556 60401
L46537 60420
L46528 60457
L46528 60523
L46537 60560
L46556 60579
L46574 60589
L46612 60589
" />
<path d="M46453 60410
L46443 60401
L46425 60392
L46378 60392
L46359 60401
L46350 60410
L46340 60429
L46340 60448
L46350 60476
L46462 60589
L46340 60589
" />
<path d="M51018 60607
L51037 60598
L51056 60579
L51084 60551
L51103 60542
L51121 60542
" />
<path d="M51112 60589
L51131 60579
L51149 60560
L51159 60523
L51159 60457
L51149 60420
L51131 60401
L51112 60392
L51074 60392
L51056 60401
L51037 60420
L51028 60457
L51028 60523
L51037 60560
L51056 60579
L51074 60589
L51112 60589
" />
<path d="M50962 60392
L50840 60392
L50906 60467
L50878 60467
L50859 60476
L50850 60485
L50840 60504
L50840 60551
L50850 60570
L50859 60579
L50878 60589
L50934 60589
L50953 60579
L50962 60570
" />
<path d="M55518 60607
L55537 60598
L55556 60579
L55584 60551
L55603 60542
L55621 60542
" />
<path d="M55612 60589
L55631 60579
L55649 60560
L55659 60523
L55659 60457
L55649 60420
L55631 60401
L55612 60392
L55574 60392
L55556 60401
L55537 60420
L55528 60457
L55528 60523
L55537 60560
L55556 60579
L55574 60589
L55612 60589
" />
<path d="M55359 60457
L55359 60589
" />
<path d="M55406 60382
L55453 60523
L55331 60523
" />
<path d="M59618 60507
L59637 60498
L59656 60479
L59684 60451
L59703 60442
L59721 60442
" />
<path d="M59712 60489
L59731 60479
L59749 60460
L59759 60423
L59759 60357
L59749 60320
L59731 60301
L59712 60292
L59674 60292
L59656 60301
L59637 60320
L59628 60357
L59628 60423
L59637 60460
L59656 60479
L59674 60489
L59712 60489
" />
<path d="M59450 60292
L59543 60292
L59553 60385
L59543 60376
L59525 60367
L59478 60367
L59459 60376
L59450 60385
L59440 60404
L59440 60451
L59450 60470
L59459 60479
L59478 60489
L59525 60489
L59543 60479
L59553 60470
" />
<path d="M64118 60507
L64137 60498
L64156 60479
L64184 60451
L64203 60442
L64221 60442
" />
<path d="M64212 60489
L64231 60479
L64249 60460
L64259 60423
L64259 60357
L64249 60320
L64231 60301
L64212 60292
L64174 60292
L64156 60301
L64137 60320
L64128 60357
L64128 60423
L64137 60460
L64156 60479
L64174 60489
L64212 60489
" />
<path d="M63959 60292
L63996 60292
L64015 60301
L64025 60310
L64043 60339
L64053 60376
L64053 60451
L64043 60470
L64034 60479
L64015 60489
L63978 60489
L63959 60479
L63950 60470
L63940 60451
L63940 60404
L63950 60385
L63959 60376
L63978 60367
L64015 60367
L64034 60376
L64043 60385
L64053 60404
" />
<path d="M68618 60507
L68637 60498
L68656 60479
L68684 60451
L68703 60442
L68721 60442
" />
<path d="M68712 60489
L68731 60479
L68749 60460
L68759 60423
L68759 60357
L68749 60320
L68731 60301
L68712 60292
L68674 60292
L68656 60301
L68637 60320
L68628 60357
L68628 60423
L68637 60460
L68656 60479
L68674 60489
L68712 60489
" />
<path d="M68562 60292
L68431 60292
L68515 60489
" />
<path d="M73118 60507
L73137 60498
L73156 60479
L73184 60451
L73203 60442
L73221 60442
" />
<path d="M73212 60489
L73231 60479
L73249 60460
L73259 60423
L73259 60357
L73249 60320
L73231 60301
L73212 60292
L73174 60292
L73156 60301
L73137 60320
L73128 60357
L73128 60423
L73137 60460
L73156 60479
L73174 60489
L73212 60489
" />
<path d="M73015 60376
L73034 60367
L73043 60357
L73053 60339
L73053 60329
L73043 60310
L73034 60301
L73015 60292
L72978 60292
L72959 60301
L72950 60310
L72940 60329
L72940 60339
L72950 60357
L72959 60367
L72978 60376
L73015 60376
L73034 60385
L73043 60395
L73053 60414
L73053 60451
L73043 60470
L73034 60479
L73015 60489
L72978 60489
L72959 60479
L72950 60470
L72940 60451
L72940 60414
L72950 60395
L72959 60385
L72978 60376
" />
<path d="M60412 22007
L60431 21998
L60449 21979
L60478 21951
L60496 21942
L60515 21942
" />
<path d="M60506 21989
L60524 21979
L60543 21960
L60553 21923
L60553 21857
L60543 21820
L60524 21801
L60506 21792
L60468 21792
L60449 21801
L60431 21820
L60421 21857
L60421 21923
L60431 21960
L60449 21979
L60468 21989
L60506 21989
" />
<path d="M60234 21989
L60346 21989
" />
<path d="M60290 21989
L60290 21792
L60309 21820
L60328 21839
L60346 21848
" />
<path d="M60168 21792
L60046 21792
L60112 21867
L60084 21867
L60065 21876
L60056 21885
L60046 21904
L60046 21951
L60056 21970
L60065 21979
L60084 21989
L60140 21989
L60159 21979
L60168 21970
" />
<path d="M55912 22107
L55931 22098
L55949 22079
L55978 22051
L55996 22042
L56015 22042
" />
<path d="M56006 22089
L56024 22079
L56043 22060
L56053 22023
L56053 21957
L56043 21920
L56024 21901
L56006 21892
L55968 21892
L55949 21901
L55931 21920
L55921 21957
L55921 22023
L55931 22060
L55949 22079
L55968 22089
L56006 22089
" />
<path d="M55734 22089
L55846 22089
" />
<path d="M55790 22089
L55790 21892
L55809 21920
L55828 21939
L55846 21948
" />
<path d="M55659 21910
L55650 21901
L55631 21892
L55584 21892
L55565 21901
L55556 21910
L55546 21929
L55546 21948
L55556 21976
L55668 22089
L55546 22089
" />
</g>
<g style="fill:#000000; fill-opacity:0.0; 
stroke:#000000; stroke-width:59.0551; stroke-opacity:1; 
stroke-linecap:round; stroke-linejoin:round;">
<path d="M62440 48134
L62459 48115
L62478 48059
L62478 48021
L62459 47965
L62421 47928
L62384 47909
L62309 47890
L62253 47890
L62178 47909
L62140 47928
L62103 47965
L62084 48021
L62084 48059
L62103 48115
L62121 48134
" />
<path d="M62121 48284
L62103 48303
L62084 48340
L62084 48434
L62103 48471
L62121 48490
L62159 48509
L62196 48509
L62253 48490
L62478 48265
L62478 48509
" />
<path d="M62340 44334
L62359 44315
L62378 44259
L62378 44221
L62359 44165
L62321 44128
L62284 44109
L62209 44090
L62153 44090
L62078 44109
L62040 44128
L62003 44165
L61984 44221
L61984 44259
L62003 44315
L62021 44334
" />
<path d="M61984 44465
L61984 44709
L62134 44578
L62134 44634
L62153 44671
L62171 44690
L62209 44709
L62303 44709
L62340 44690
L62359 44671
L62378 44634
L62378 44521
L62359 44484
L62340 44465
" />
<path d="M62440 51734
L62459 51715
L62478 51659
L62478 51621
L62459 51565
L62421 51528
L62384 51509
L62309 51490
L62253 51490
L62178 51509
L62140 51528
L62103 51565
L62084 51621
L62084 51659
L62103 51715
L62121 51734
" />
<path d="M62215 52071
L62478 52071
" />
<path d="M62065 51978
L62346 51884
L62346 52128
" />
<path d="M62440 30534
L62459 30515
L62478 30459
L62478 30421
L62459 30365
L62421 30328
L62384 30309
L62309 30290
L62253 30290
L62178 30309
L62140 30328
L62103 30365
L62084 30421
L62084 30459
L62103 30515
L62121 30534
" />
<path d="M62253 30759
L62234 30721
L62215 30703
L62178 30684
L62159 30684
L62121 30703
L62103 30721
L62084 30759
L62084 30834
L62103 30871
L62121 30890
L62159 30909
L62178 30909
L62215 30890
L62234 30871
L62253 30834
L62253 30759
L62271 30721
L62290 30703
L62328 30684
L62403 30684
L62440 30703
L62459 30721
L62478 30759
L62478 30834
L62459 30871
L62440 30890
L62403 30909
L62328 30909
L62290 30890
L62271 30871
L62253 30834
" />
<path d="M77353 38640
L77371 38659
L77428 38678
L77465 38678
L77521 38659
L77559 38621
L77578 38584
L77596 38509
L77596 38453
L77578 38378
L77559 38340
L77521 38303
L77465 38284
L77428 38284
L77371 38303
L77353 38321
" />
<path d="M76978 38678
L77203 38678
" />
<path d="M77090 38678
L77090 38284
L77128 38340
L77165 38378
L77203 38396
" />
<path d="M76603 38678
L76828 38678
" />
<path d="M76715 38678
L76715 38284
L76753 38340
L76790 38378
L76828 38396
" />
</g>
<g style="fill:#000000; fill-opacity:0.0; 
stroke:#000000; stroke-width:62.9921; stroke-opacity:1; 
stroke-linecap:round; stroke-linejoin:round;">
<path d="M39974 37426
L39989 37412
L40003 37372
L40003 37345
L39989 37304
L39960 37277
L39932 37264
L39876 37250
L39834 37250
L39778 37264
L39750 37277
L39721 37304
L39707 37345
L39707 37372
L39721 37412
L39735 37426
" />
<path d="M39974 37709
L39989 37695
L40003 37655
L40003 37628
L39989 37587
L39960 37560
L39932 37547
L39876 37533
L39834 37533
L39778 37547
L39750 37560
L39721 37587
L39707 37628
L39707 37655
L39721 37695
L39735 37709
" />
</g>
<g style="fill:#000000; fill-opacity:0.0; 
stroke:#000000; stroke-width:59.0551; stroke-opacity:1; 
stroke-linecap:round; stroke-linejoin:round;">
<path d="M69478 46009
L69084 46009
L69084 46103
L69103 46159
L69140 46196
L69178 46215
L69253 46234
L69309 46234
L69384 46215
L69421 46196
L69459 46159
L69478 46103
L69478 46009
" />
<path d="M69215 46571
L69478 46571
" />
<path d="M69065 46478
L69346 46384
L69346 46628
" />
<path d="M70846 46268
L70452 46268
" />
<path d="M70846 46493
L70621 46324
" />
<path d="M70452 46493
L70677 46268
" />
<path d="M70733 47694
L70733 47882
" />
<path d="M70846 47657
L70452 47788
L70846 47919
" />
<path d="M60965 46540
L60984 46559
L61040 46578
L61078 46578
L61134 46559
L61171 46521
L61190 46484
L61209 46409
L61209 46353
L61190 46278
L61171 46240
L61134 46203
L61078 46184
L61040 46184
L60984 46203
L60965 46221
" />
<path d="M60590 46578
L60815 46578
" />
<path d="M60703 46578
L60703 46184
L60740 46240
L60778 46278
L60815 46296
" />
<path d="M60365 30540
L60384 30559
L60440 30578
L60478 30578
L60534 30559
L60571 30521
L60590 30484
L60609 30409
L60609 30353
L60590 30278
L60571 30240
L60534 30203
L60478 30184
L60440 30184
L60384 30203
L60365 30221
" />
<path d="M60028 30184
L60103 30184
L60140 30203
L60159 30221
L60196 30278
L60215 30353
L60215 30503
L60196 30540
L60178 30559
L60140 30578
L60065 30578
L60028 30559
L60009 30540
L59990 30503
L59990 30409
L60009 30371
L60028 30353
L60065 30334
L60140 30334
L60178 30353
L60196 30371
L60215 30409
" />
<path d="M76967 46784
L76986 46765
L77004 46709
L77004 46671
L76986 46615
L76948 46578
L76911 46559
L76836 46540
L76779 46540
L76704 46559
L76667 46578
L76629 46615
L76611 46671
L76611 46709
L76629 46765
L76648 46784
" />
<path d="M77004 46971
L77004 47046
L76986 47084
L76967 47103
L76911 47140
L76836 47159
L76686 47159
L76648 47140
L76629 47121
L76611 47084
L76611 47009
L76629 46971
L76648 46953
L76686 46934
L76779 46934
L76817 46953
L76836 46971
L76854 47009
L76854 47084
L76836 47121
L76817 47140
L76779 47159
" />
<path d="M75753 32440
L75771 32459
L75828 32478
L75865 32478
L75921 32459
L75959 32421
L75978 32384
L75996 32309
L75996 32253
L75978 32178
L75959 32140
L75921 32103
L75865 32084
L75828 32084
L75771 32103
L75753 32121
" />
<path d="M75378 32478
L75603 32478
" />
<path d="M75490 32478
L75490 32084
L75528 32140
L75565 32178
L75603 32196
" />
<path d="M75134 32084
L75096 32084
L75059 32103
L75040 32121
L75021 32159
L75003 32234
L75003 32328
L75021 32403
L75040 32440
L75059 32459
L75096 32478
L75134 32478
L75171 32459
L75190 32440
L75209 32403
L75228 32328
L75228 32234
L75209 32159
L75190 32121
L75171 32103
L75134 32084
" />
<path d="M41265 57778
L41396 57590
" />
<path d="M41490 57778
L41490 57384
L41340 57384
L41303 57403
L41284 57421
L41265 57459
L41265 57515
L41284 57553
L41303 57571
L41340 57590
L41490 57590
" />
<path d="M40890 57778
L41115 57778
" />
<path d="M41003 57778
L41003 57384
L41040 57440
L41078 57478
L41115 57496
" />
<path d="M43465 57678
L43596 57490
" />
<path d="M43690 57678
L43690 57284
L43540 57284
L43503 57303
L43484 57321
L43465 57359
L43465 57415
L43484 57453
L43503 57471
L43540 57490
L43690 57490
" />
<path d="M43315 57321
L43296 57303
L43259 57284
L43165 57284
L43128 57303
L43109 57321
L43090 57359
L43090 57396
L43109 57453
L43334 57678
L43090 57678
" />
<path d="M45565 57778
L45696 57590
" />
<path d="M45790 57778
L45790 57384
L45640 57384
L45603 57403
L45584 57421
L45565 57459
L45565 57515
L45584 57553
L45603 57571
L45640 57590
L45790 57590
" />
<path d="M45434 57384
L45190 57384
L45321 57534
L45265 57534
L45228 57553
L45209 57571
L45190 57609
L45190 57703
L45209 57740
L45228 57759
L45265 57778
L45378 57778
L45415 57759
L45434 57740
" />
<path d="M47865 57778
L47996 57590
" />
<path d="M48090 57778
L48090 57384
L47940 57384
L47903 57403
L47884 57421
L47865 57459
L47865 57515
L47884 57553
L47903 57571
L47940 57590
L48090 57590
" />
<path d="M47528 57515
L47528 57778
" />
<path d="M47621 57365
L47715 57646
L47471 57646
" />
<path d="M50065 57778
L50196 57590
" />
<path d="M50290 57778
L50290 57384
L50140 57384
L50103 57403
L50084 57421
L50065 57459
L50065 57515
L50084 57553
L50103 57571
L50140 57590
L50290 57590
" />
<path d="M49709 57384
L49896 57384
L49915 57571
L49896 57553
L49859 57534
L49765 57534
L49728 57553
L49709 57571
L49690 57609
L49690 57703
L49709 57740
L49728 57759
L49765 57778
L49859 57778
L49896 57759
L49915 57740
" />
<path d="M51865 57678
L51996 57490
" />
<path d="M52090 57678
L52090 57284
L51940 57284
L51903 57303
L51884 57321
L51865 57359
L51865 57415
L51884 57453
L51903 57471
L51940 57490
L52090 57490
" />
<path d="M51528 57284
L51603 57284
L51640 57303
L51659 57321
L51696 57378
L51715 57453
L51715 57603
L51696 57640
L51678 57659
L51640 57678
L51565 57678
L51528 57659
L51509 57640
L51490 57603
L51490 57509
L51509 57471
L51528 57453
L51565 57434
L51640 57434
L51678 57453
L51696 57471
L51715 57509
" />
<path d="M54665 57778
L54796 57590
" />
<path d="M54890 57778
L54890 57384
L54740 57384
L54703 57403
L54684 57421
L54665 57459
L54665 57515
L54684 57553
L54703 57571
L54740 57590
L54890 57590
" />
<path d="M54534 57384
L54271 57384
L54440 57778
" />
<path d="M56965 57878
L57096 57690
" />
<path d="M57190 57878
L57190 57484
L57040 57484
L57003 57503
L56984 57521
L56965 57559
L56965 57615
L56984 57653
L57003 57671
L57040 57690
L57190 57690
" />
<path d="M56740 57653
L56778 57634
L56796 57615
L56815 57578
L56815 57559
L56796 57521
L56778 57503
L56740 57484
L56665 57484
L56628 57503
L56609 57521
L56590 57559
L56590 57578
L56609 57615
L56628 57634
L56665 57653
L56740 57653
L56778 57671
L56796 57690
L56815 57728
L56815 57803
L56796 57840
L56778 57859
L56740 57878
L56665 57878
L56628 57859
L56609 57840
L56590 57803
L56590 57728
L56609 57690
L56628 57671
L56665 57653
" />
<path d="M59165 57778
L59296 57590
" />
<path d="M59390 57778
L59390 57384
L59240 57384
L59203 57403
L59184 57421
L59165 57459
L59165 57515
L59184 57553
L59203 57571
L59240 57590
L59390 57590
" />
<path d="M58978 57778
L58903 57778
L58865 57759
L58846 57740
L58809 57684
L58790 57609
L58790 57459
L58809 57421
L58828 57403
L58865 57384
L58940 57384
L58978 57403
L58996 57421
L59015 57459
L59015 57553
L58996 57590
L58978 57609
L58940 57628
L58865 57628
L58828 57609
L58809 57590
L58790 57553
" />
<path d="M61653 57878
L61784 57690
" />
<path d="M61878 57878
L61878 57484
L61728 57484
L61690 57503
L61671 57521
L61653 57559
L61653 57615
L61671 57653
L61690 57671
L61728 57690
L61878 57690
" />
<path d="M61278 57878
L61503 57878
" />
<path d="M61390 57878
L61390 57484
L61428 57540
L61465 57578
L61503 57596
" />
<path d="M61034 57484
L60996 57484
L60959 57503
L60940 57521
L60921 57559
L60903 57634
L60903 57728
L60921 57803
L60940 57840
L60959 57859
L60996 57878
L61034 57878
L61071 57859
L61090 57840
L61109 57803
L61128 57728
L61128 57634
L61109 57559
L61090 57521
L61071 57503
L61034 57484
" />
<path d="M63753 57678
L63884 57490
" />
<path d="M63978 57678
L63978 57284
L63828 57284
L63790 57303
L63771 57321
L63753 57359
L63753 57415
L63771 57453
L63790 57471
L63828 57490
L63978 57490
" />
<path d="M63378 57678
L63603 57678
" />
<path d="M63490 57678
L63490 57284
L63528 57340
L63565 57378
L63603 57396
" />
<path d="M63003 57678
L63228 57678
" />
<path d="M63115 57678
L63115 57284
L63153 57340
L63190 57378
L63228 57396
" />
<path d="M66253 57878
L66384 57690
" />
<path d="M66478 57878
L66478 57484
L66328 57484
L66290 57503
L66271 57521
L66253 57559
L66253 57615
L66271 57653
L66290 57671
L66328 57690
L66478 57690
" />
<path d="M65878 57878
L66103 57878
" />
<path d="M65990 57878
L65990 57484
L66028 57540
L66065 57578
L66103 57596
" />
<path d="M65728 57521
L65709 57503
L65671 57484
L65578 57484
L65540 57503
L65521 57521
L65503 57559
L65503 57596
L65521 57653
L65746 57878
L65503 57878
" />
<path d="M68353 57778
L68484 57590
" />
<path d="M68578 57778
L68578 57384
L68428 57384
L68390 57403
L68371 57421
L68353 57459
L68353 57515
L68371 57553
L68390 57571
L68428 57590
L68578 57590
" />
<path d="M67978 57778
L68203 57778
" />
<path d="M68090 57778
L68090 57384
L68128 57440
L68165 57478
L68203 57496
" />
<path d="M67846 57384
L67603 57384
L67734 57534
L67678 57534
L67640 57553
L67621 57571
L67603 57609
L67603 57703
L67621 57740
L67640 57759
L67678 57778
L67790 57778
L67828 57759
L67846 57740
" />
<path d="M70753 57878
L70884 57690
" />
<path d="M70978 57878
L70978 57484
L70828 57484
L70790 57503
L70771 57521
L70753 57559
L70753 57615
L70771 57653
L70790 57671
L70828 57690
L70978 57690
" />
<path d="M70378 57878
L70603 57878
" />
<path d="M70490 57878
L70490 57484
L70528 57540
L70565 57578
L70603 57596
" />
<path d="M70040 57615
L70040 57878
" />
<path d="M70134 57465
L70228 57746
L69984 57746
" />
<path d="M72853 57778
L72984 57590
" />
<path d="M73078 57778
L73078 57384
L72928 57384
L72890 57403
L72871 57421
L72853 57459
L72853 57515
L72871 57553
L72890 57571
L72928 57590
L73078 57590
" />
<path d="M72478 57778
L72703 57778
" />
<path d="M72590 57778
L72590 57384
L72628 57440
L72665 57478
L72703 57496
" />
<path d="M72121 57384
L72309 57384
L72328 57571
L72309 57553
L72271 57534
L72178 57534
L72140 57553
L72121 57571
L72103 57609
L72103 57703
L72121 57740
L72140 57759
L72178 57778
L72271 57778
L72309 57759
L72328 57740
" />
<path d="M74553 57778
L74684 57590
" />
<path d="M74778 57778
L74778 57384
L74628 57384
L74590 57403
L74571 57421
L74553 57459
L74553 57515
L74571 57553
L74590 57571
L74628 57590
L74778 57590
" />
<path d="M74178 57778
L74403 57778
" />
<path d="M74290 57778
L74290 57384
L74328 57440
L74365 57478
L74403 57496
" />
<path d="M73840 57384
L73915 57384
L73953 57403
L73971 57421
L74009 57478
L74028 57553
L74028 57703
L74009 57740
L73990 57759
L73953 57778
L73878 57778
L73840 57759
L73821 57740
L73803 57703
L73803 57609
L73821 57571
L73840 57553
L73878 57534
L73953 57534
L73990 57553
L74009 57571
L74028 57609
" />
<path d="M41653 46978
L41784 46790
" />
<path d="M41878 46978
L41878 46584
L41728 46584
L41690 46603
L41671 46621
L41653 46659
L41653 46715
L41671 46753
L41690 46771
L41728 46790
L41878 46790
" />
<path d="M41278 46978
L41503 46978
" />
<path d="M41390 46978
L41390 46584
L41428 46640
L41465 46678
L41503 46696
" />
<path d="M41146 46584
L40884 46584
L41053 46978
" />
<path d="M41378 24646
L41190 24515
" />
<path d="M41378 24421
L40984 24421
L40984 24571
L41003 24609
L41021 24628
L41059 24646
L41115 24646
L41153 24628
L41171 24609
L41190 24571
L41190 24421
" />
<path d="M41378 25021
L41378 24796
" />
<path d="M41378 24909
L40984 24909
L41040 24871
L41078 24834
L41096 24796
" />
<path d="M41153 25246
L41134 25209
L41115 25190
L41078 25171
L41059 25171
L41021 25190
L41003 25209
L40984 25246
L40984 25321
L41003 25359
L41021 25378
L41059 25396
L41078 25396
L41115 25378
L41134 25359
L41153 25321
L41153 25246
L41171 25209
L41190 25190
L41228 25171
L41303 25171
L41340 25190
L41359 25209
L41378 25246
L41378 25321
L41359 25359
L41340 25378
L41303 25396
L41228 25396
L41190 25378
L41171 25359
L41153 25321
" />
<path d="M66953 54178
L67084 53990
" />
<path d="M67178 54178
L67178 53784
L67028 53784
L66990 53803
L66971 53821
L66953 53859
L66953 53915
L66971 53953
L66990 53971
L67028 53990
L67178 53990
" />
<path d="M66578 54178
L66803 54178
" />
<path d="M66690 54178
L66690 53784
L66728 53840
L66765 53878
L66803 53896
" />
<path d="M66390 54178
L66315 54178
L66278 54159
L66259 54140
L66221 54084
L66203 54009
L66203 53859
L66221 53821
L66240 53803
L66278 53784
L66353 53784
L66390 53803
L66409 53821
L66428 53859
L66428 53953
L66409 53990
L66390 54009
L66353 54028
L66278 54028
L66240 54009
L66221 53990
L66203 53953
" />
<path d="M70504 52946
L70317 52815
" />
<path d="M70504 52721
L70111 52721
L70111 52871
L70129 52909
L70148 52928
L70186 52946
L70242 52946
L70279 52928
L70298 52909
L70317 52871
L70317 52721
" />
<path d="M70148 53096
L70129 53115
L70111 53153
L70111 53246
L70129 53284
L70148 53303
L70186 53321
L70223 53321
L70279 53303
L70504 53078
L70504 53321
" />
<path d="M70111 53565
L70111 53603
L70129 53640
L70148 53659
L70186 53678
L70261 53696
L70354 53696
L70429 53678
L70467 53659
L70486 53640
L70504 53603
L70504 53565
L70486 53528
L70467 53509
L70429 53490
L70354 53471
L70261 53471
L70186 53490
L70148 53509
L70129 53528
L70111 53565
" />
<path d="M43578 24646
L43390 24515
" />
<path d="M43578 24421
L43184 24421
L43184 24571
L43203 24609
L43221 24628
L43259 24646
L43315 24646
L43353 24628
L43371 24609
L43390 24571
L43390 24421
" />
<path d="M43221 24796
L43203 24815
L43184 24853
L43184 24946
L43203 24984
L43221 25003
L43259 25021
L43296 25021
L43353 25003
L43578 24778
L43578 25021
" />
<path d="M43578 25396
L43578 25171
" />
<path d="M43578 25284
L43184 25284
L43240 25246
L43278 25209
L43296 25171
" />
<path d="M45878 24646
L45690 24515
" />
<path d="M45878 24421
L45484 24421
L45484 24571
L45503 24609
L45521 24628
L45559 24646
L45615 24646
L45653 24628
L45671 24609
L45690 24571
L45690 24421
" />
<path d="M45521 24796
L45503 24815
L45484 24853
L45484 24946
L45503 24984
L45521 25003
L45559 25021
L45596 25021
L45653 25003
L45878 24778
L45878 25021
" />
<path d="M45521 25171
L45503 25190
L45484 25228
L45484 25321
L45503 25359
L45521 25378
L45559 25396
L45596 25396
L45653 25378
L45878 25153
L45878 25396
" />
<path d="M48078 24646
L47890 24515
" />
<path d="M48078 24421
L47684 24421
L47684 24571
L47703 24609
L47721 24628
L47759 24646
L47815 24646
L47853 24628
L47871 24609
L47890 24571
L47890 24421
" />
<path d="M47721 24796
L47703 24815
L47684 24853
L47684 24946
L47703 24984
L47721 25003
L47759 25021
L47796 25021
L47853 25003
L48078 24778
L48078 25021
" />
<path d="M47684 25153
L47684 25396
L47834 25265
L47834 25321
L47853 25359
L47871 25378
L47909 25396
L48003 25396
L48040 25378
L48059 25359
L48078 25321
L48078 25209
L48059 25171
L48040 25153
" />
<path d="M50378 24646
L50190 24515
" />
<path d="M50378 24421
L49984 24421
L49984 24571
L50003 24609
L50021 24628
L50059 24646
L50115 24646
L50153 24628
L50171 24609
L50190 24571
L50190 24421
" />
<path d="M50021 24796
L50003 24815
L49984 24853
L49984 24946
L50003 24984
L50021 25003
L50059 25021
L50096 25021
L50153 25003
L50378 24778
L50378 25021
" />
<path d="M50115 25359
L50378 25359
" />
<path d="M49965 25265
L50246 25171
L50246 25415
" />
<path d="M52478 24646
L52290 24515
" />
<path d="M52478 24421
L52084 24421
L52084 24571
L52103 24609
L52121 24628
L52159 24646
L52215 24646
L52253 24628
L52271 24609
L52290 24571
L52290 24421
" />
<path d="M52121 24796
L52103 24815
L52084 24853
L52084 24946
L52103 24984
L52121 25003
L52159 25021
L52196 25021
L52253 25003
L52478 24778
L52478 25021
" />
<path d="M52084 25378
L52084 25190
L52271 25171
L52253 25190
L52234 25228
L52234 25321
L52253 25359
L52271 25378
L52309 25396
L52403 25396
L52440 25378
L52459 25359
L52478 25321
L52478 25228
L52459 25190
L52440 25171
" />
<path d="M54878 24646
L54690 24515
" />
<path d="M54878 24421
L54484 24421
L54484 24571
L54503 24609
L54521 24628
L54559 24646
L54615 24646
L54653 24628
L54671 24609
L54690 24571
L54690 24421
" />
<path d="M54521 24796
L54503 24815
L54484 24853
L54484 24946
L54503 24984
L54521 25003
L54559 25021
L54596 25021
L54653 25003
L54878 24778
L54878 25021
" />
<path d="M54484 25359
L54484 25284
L54503 25246
L54521 25228
L54578 25190
L54653 25171
L54803 25171
L54840 25190
L54859 25209
L54878 25246
L54878 25321
L54859 25359
L54840 25378
L54803 25396
L54709 25396
L54671 25378
L54653 25359
L54634 25321
L54634 25246
L54653 25209
L54671 25190
L54709 25171
" />
<path d="M56978 24646
L56790 24515
" />
<path d="M56978 24421
L56584 24421
L56584 24571
L56603 24609
L56621 24628
L56659 24646
L56715 24646
L56753 24628
L56771 24609
L56790 24571
L56790 24421
" />
<path d="M56621 24796
L56603 24815
L56584 24853
L56584 24946
L56603 24984
L56621 25003
L56659 25021
L56696 25021
L56753 25003
L56978 24778
L56978 25021
" />
<path d="M56584 25153
L56584 25415
L56978 25246
" />
<path d="M59378 24646
L59190 24515
" />
<path d="M59378 24421
L58984 24421
L58984 24571
L59003 24609
L59021 24628
L59059 24646
L59115 24646
L59153 24628
L59171 24609
L59190 24571
L59190 24421
" />
<path d="M59021 24796
L59003 24815
L58984 24853
L58984 24946
L59003 24984
L59021 25003
L59059 25021
L59096 25021
L59153 25003
L59378 24778
L59378 25021
" />
<path d="M59153 25246
L59134 25209
L59115 25190
L59078 25171
L59059 25171
L59021 25190
L59003 25209
L58984 25246
L58984 25321
L59003 25359
L59021 25378
L59059 25396
L59078 25396
L59115 25378
L59134 25359
L59153 25321
L59153 25246
L59171 25209
L59190 25190
L59228 25171
L59303 25171
L59340 25190
L59359 25209
L59378 25246
L59378 25321
L59359 25359
L59340 25378
L59303 25396
L59228 25396
L59190 25378
L59171 25359
L59153 25321
" />
<path d="M61578 24646
L61390 24515
" />
<path d="M61578 24421
L61184 24421
L61184 24571
L61203 24609
L61221 24628
L61259 24646
L61315 24646
L61353 24628
L61371 24609
L61390 24571
L61390 24421
" />
<path d="M61221 24796
L61203 24815
L61184 24853
L61184 24946
L61203 24984
L61221 25003
L61259 25021
L61296 25021
L61353 25003
L61578 24778
L61578 25021
" />
<path d="M61578 25209
L61578 25284
L61559 25321
L61540 25340
L61484 25378
L61409 25396
L61259 25396
L61221 25378
L61203 25359
L61184 25321
L61184 25246
L61203 25209
L61221 25190
L61259 25171
L61353 25171
L61390 25190
L61409 25209
L61428 25246
L61428 25321
L61409 25359
L61390 25378
L61353 25396
" />
<path d="M63878 24646
L63690 24515
" />
<path d="M63878 24421
L63484 24421
L63484 24571
L63503 24609
L63521 24628
L63559 24646
L63615 24646
L63653 24628
L63671 24609
L63690 24571
L63690 24421
" />
<path d="M63484 24778
L63484 25021
L63634 24890
L63634 24946
L63653 24984
L63671 25003
L63709 25021
L63803 25021
L63840 25003
L63859 24984
L63878 24946
L63878 24834
L63859 24796
L63840 24778
" />
<path d="M63484 25265
L63484 25303
L63503 25340
L63521 25359
L63559 25378
L63634 25396
L63728 25396
L63803 25378
L63840 25359
L63859 25340
L63878 25303
L63878 25265
L63859 25228
L63840 25209
L63803 25190
L63728 25171
L63634 25171
L63559 25190
L63521 25209
L63503 25228
L63484 25265
" />
<path d="M65978 24646
L65790 24515
" />
<path d="M65978 24421
L65584 24421
L65584 24571
L65603 24609
L65621 24628
L65659 24646
L65715 24646
L65753 24628
L65771 24609
L65790 24571
L65790 24421
" />
<path d="M65584 24778
L65584 25021
L65734 24890
L65734 24946
L65753 24984
L65771 25003
L65809 25021
L65903 25021
L65940 25003
L65959 24984
L65978 24946
L65978 24834
L65959 24796
L65940 24778
" />
<path d="M65978 25396
L65978 25171
" />
<path d="M65978 25284
L65584 25284
L65640 25246
L65678 25209
L65696 25171
" />
<path d="M69553 25178
L69684 24990
" />
<path d="M69778 25178
L69778 24784
L69628 24784
L69590 24803
L69571 24821
L69553 24859
L69553 24915
L69571 24953
L69590 24971
L69628 24990
L69778 24990
" />
<path d="M69421 24784
L69178 24784
L69309 24934
L69253 24934
L69215 24953
L69196 24971
L69178 25009
L69178 25103
L69196 25140
L69215 25159
L69253 25178
L69365 25178
L69403 25159
L69421 25140
" />
<path d="M69028 24821
L69009 24803
L68971 24784
L68878 24784
L68840 24803
L68821 24821
L68803 24859
L68803 24896
L68821 24953
L69046 25178
L68803 25178
" />
<path d="M68953 27278
L69084 27090
" />
<path d="M69178 27278
L69178 26884
L69028 26884
L68990 26903
L68971 26921
L68953 26959
L68953 27015
L68971 27053
L68990 27071
L69028 27090
L69178 27090
" />
<path d="M68821 26884
L68578 26884
L68709 27034
L68653 27034
L68615 27053
L68596 27071
L68578 27109
L68578 27203
L68596 27240
L68615 27259
L68653 27278
L68765 27278
L68803 27259
L68821 27240
" />
<path d="M68446 26884
L68203 26884
L68334 27034
L68278 27034
L68240 27053
L68221 27071
L68203 27109
L68203 27203
L68221 27240
L68240 27259
L68278 27278
L68390 27278
L68428 27259
L68446 27240
" />
<path d="M72378 24546
L72190 24415
" />
<path d="M72378 24321
L71984 24321
L71984 24471
L72003 24509
L72021 24528
L72059 24546
L72115 24546
L72153 24528
L72171 24509
L72190 24471
L72190 24321
" />
<path d="M71984 24678
L71984 24921
L72134 24790
L72134 24846
L72153 24884
L72171 24903
L72209 24921
L72303 24921
L72340 24903
L72359 24884
L72378 24846
L72378 24734
L72359 24696
L72340 24678
" />
<path d="M72115 25259
L72378 25259
" />
<path d="M71965 25165
L72246 25071
L72246 25315
" />
<path d="M70353 27278
L70484 27090
" />
<path d="M70578 27278
L70578 26884
L70428 26884
L70390 26903
L70371 26921
L70353 26959
L70353 27015
L70371 27053
L70390 27071
L70428 27090
L70578 27090
" />
<path d="M70221 26884
L69978 26884
L70109 27034
L70053 27034
L70015 27053
L69996 27071
L69978 27109
L69978 27203
L69996 27240
L70015 27259
L70053 27278
L70165 27278
L70203 27259
L70221 27240
" />
<path d="M69621 26884
L69809 26884
L69828 27071
L69809 27053
L69771 27034
L69678 27034
L69640 27053
L69621 27071
L69603 27109
L69603 27203
L69621 27240
L69640 27259
L69678 27278
L69771 27278
L69809 27259
L69828 27240
" />
<path d="M75353 28378
L75484 28190
" />
<path d="M75578 28378
L75578 27984
L75428 27984
L75390 28003
L75371 28021
L75353 28059
L75353 28115
L75371 28153
L75390 28171
L75428 28190
L75578 28190
" />
<path d="M75221 27984
L74978 27984
L75109 28134
L75053 28134
L75015 28153
L74996 28171
L74978 28209
L74978 28303
L74996 28340
L75015 28359
L75053 28378
L75165 28378
L75203 28359
L75221 28340
" />
<path d="M74846 27984
L74584 27984
L74753 28378
" />
<path d="M75353 29278
L75484 29090
" />
<path d="M75578 29278
L75578 28884
L75428 28884
L75390 28903
L75371 28921
L75353 28959
L75353 29015
L75371 29053
L75390 29071
L75428 29090
L75578 29090
" />
<path d="M75221 28884
L74978 28884
L75109 29034
L75053 29034
L75015 29053
L74996 29071
L74978 29109
L74978 29203
L74996 29240
L75015 29259
L75053 29278
L75165 29278
L75203 29259
L75221 29240
" />
<path d="M74790 29278
L74715 29278
L74678 29259
L74659 29240
L74621 29184
L74603 29109
L74603 28959
L74621 28921
L74640 28903
L74678 28884
L74753 28884
L74790 28903
L74809 28921
L74828 28959
L74828 29053
L74809 29090
L74790 29109
L74753 29128
L74678 29128
L74640 29109
L74621 29090
L74603 29053
" />
<path d="M42253 39478
L42384 39290
" />
<path d="M42478 39478
L42478 39084
L42328 39084
L42290 39103
L42271 39121
L42253 39159
L42253 39215
L42271 39253
L42290 39271
L42328 39290
L42478 39290
" />
<path d="M41915 39215
L41915 39478
" />
<path d="M42009 39065
L42103 39346
L41859 39346
" />
<path d="M41634 39084
L41596 39084
L41559 39103
L41540 39121
L41521 39159
L41503 39234
L41503 39328
L41521 39403
L41540 39440
L41559 39459
L41596 39478
L41634 39478
L41671 39459
L41690 39440
L41709 39403
L41728 39328
L41728 39234
L41709 39159
L41690 39121
L41671 39103
L41634 39084
" />
<path d="M44253 39478
L44384 39290
" />
<path d="M44478 39478
L44478 39084
L44328 39084
L44290 39103
L44271 39121
L44253 39159
L44253 39215
L44271 39253
L44290 39271
L44328 39290
L44478 39290
" />
<path d="M43915 39215
L43915 39478
" />
<path d="M44009 39065
L44103 39346
L43859 39346
" />
<path d="M43503 39478
L43728 39478
" />
<path d="M43615 39478
L43615 39084
L43653 39140
L43690 39178
L43728 39196
" />
<path d="M47253 39504
L47384 39317
" />
<path d="M47478 39504
L47478 39111
L47328 39111
L47290 39129
L47271 39148
L47253 39186
L47253 39242
L47271 39279
L47290 39298
L47328 39317
L47478 39317
" />
<path d="M46915 39242
L46915 39504
" />
<path d="M47009 39092
L47103 39373
L46859 39373
" />
<path d="M46728 39148
L46709 39129
L46671 39111
L46578 39111
L46540 39129
L46521 39148
L46503 39186
L46503 39223
L46521 39279
L46746 39504
L46503 39504
" />
<path d="M59853 39504
L59984 39317
" />
<path d="M60078 39504
L60078 39111
L59928 39111
L59890 39129
L59871 39148
L59853 39186
L59853 39242
L59871 39279
L59890 39298
L59928 39317
L60078 39317
" />
<path d="M59515 39242
L59515 39504
" />
<path d="M59609 39092
L59703 39373
L59459 39373
" />
<path d="M59346 39111
L59103 39111
L59234 39261
L59178 39261
L59140 39279
L59121 39298
L59103 39336
L59103 39429
L59121 39467
L59140 39486
L59178 39504
L59290 39504
L59328 39486
L59346 39467
" />
<path d="M61253 33978
L61384 33790
" />
<path d="M61478 33978
L61478 33584
L61328 33584
L61290 33603
L61271 33621
L61253 33659
L61253 33715
L61271 33753
L61290 33771
L61328 33790
L61478 33790
" />
<path d="M60915 33715
L60915 33978
" />
<path d="M61009 33565
L61103 33846
L60859 33846
" />
<path d="M60540 33715
L60540 33978
" />
<path d="M60634 33565
L60728 33846
L60484 33846
" />
<path d="M61253 35078
L61384 34890
" />
<path d="M61478 35078
L61478 34684
L61328 34684
L61290 34703
L61271 34721
L61253 34759
L61253 34815
L61271 34853
L61290 34871
L61328 34890
L61478 34890
" />
<path d="M60915 34815
L60915 35078
" />
<path d="M61009 34665
L61103 34946
L60859 34946
" />
<path d="M60521 34684
L60709 34684
L60728 34871
L60709 34853
L60671 34834
L60578 34834
L60540 34853
L60521 34871
L60503 34909
L60503 35003
L60521 35040
L60540 35059
L60578 35078
L60671 35078
L60709 35059
L60728 35040
" />
<path d="M61253 35978
L61384 35790
" />
<path d="M61478 35978
L61478 35584
L61328 35584
L61290 35603
L61271 35621
L61253 35659
L61253 35715
L61271 35753
L61290 35771
L61328 35790
L61478 35790
" />
<path d="M60915 35715
L60915 35978
" />
<path d="M61009 35565
L61103 35846
L60859 35846
" />
<path d="M60540 35584
L60615 35584
L60653 35603
L60671 35621
L60709 35678
L60728 35753
L60728 35903
L60709 35940
L60690 35959
L60653 35978
L60578 35978
L60540 35959
L60521 35940
L60503 35903
L60503 35809
L60521 35771
L60540 35753
L60578 35734
L60653 35734
L60690 35753
L60709 35771
L60728 35809
" />
<path d="M61253 36978
L61384 36790
" />
<path d="M61478 36978
L61478 36584
L61328 36584
L61290 36603
L61271 36621
L61253 36659
L61253 36715
L61271 36753
L61290 36771
L61328 36790
L61478 36790
" />
<path d="M60915 36715
L60915 36978
" />
<path d="M61009 36565
L61103 36846
L60859 36846
" />
<path d="M60746 36584
L60484 36584
L60653 36978
" />
<path d="M61253 37978
L61384 37790
" />
<path d="M61478 37978
L61478 37584
L61328 37584
L61290 37603
L61271 37621
L61253 37659
L61253 37715
L61271 37753
L61290 37771
L61328 37790
L61478 37790
" />
<path d="M60915 37715
L60915 37978
" />
<path d="M61009 37565
L61103 37846
L60859 37846
" />
<path d="M60653 37753
L60690 37734
L60709 37715
L60728 37678
L60728 37659
L60709 37621
L60690 37603
L60653 37584
L60578 37584
L60540 37603
L60521 37621
L60503 37659
L60503 37678
L60521 37715
L60540 37734
L60578 37753
L60653 37753
L60690 37771
L60709 37790
L60728 37828
L60728 37903
L60709 37940
L60690 37959
L60653 37978
L60578 37978
L60540 37959
L60521 37940
L60503 37903
L60503 37828
L60521 37790
L60540 37771
L60578 37753
" />
<path d="M61253 38978
L61384 38790
" />
<path d="M61478 38978
L61478 38584
L61328 38584
L61290 38603
L61271 38621
L61253 38659
L61253 38715
L61271 38753
L61290 38771
L61328 38790
L61478 38790
" />
<path d="M60915 38715
L60915 38978
" />
<path d="M61009 38565
L61103 38846
L60859 38846
" />
<path d="M60690 38978
L60615 38978
L60578 38959
L60559 38940
L60521 38884
L60503 38809
L60503 38659
L60521 38621
L60540 38603
L60578 38584
L60653 38584
L60690 38603
L60709 38621
L60728 38659
L60728 38753
L60709 38790
L60690 38809
L60653 38828
L60578 38828
L60540 38809
L60521 38790
L60503 38753
" />
<path d="M61253 39978
L61384 39790
" />
<path d="M61478 39978
L61478 39584
L61328 39584
L61290 39603
L61271 39621
L61253 39659
L61253 39715
L61271 39753
L61290 39771
L61328 39790
L61478 39790
" />
<path d="M60896 39584
L61084 39584
L61103 39771
L61084 39753
L61046 39734
L60953 39734
L60915 39753
L60896 39771
L60878 39809
L60878 39903
L60896 39940
L60915 39959
L60953 39978
L61046 39978
L61084 39959
L61103 39940
" />
<path d="M60634 39584
L60596 39584
L60559 39603
L60540 39621
L60521 39659
L60503 39734
L60503 39828
L60521 39903
L60540 39940
L60559 39959
L60596 39978
L60634 39978
L60671 39959
L60690 39940
L60709 39903
L60728 39828
L60728 39734
L60709 39659
L60690 39621
L60671 39603
L60634 39584
" />
<path d="M41953 32878
L42084 32690
" />
<path d="M42178 32878
L42178 32484
L42028 32484
L41990 32503
L41971 32521
L41953 32559
L41953 32615
L41971 32653
L41990 32671
L42028 32690
L42178 32690
" />
<path d="M41596 32484
L41784 32484
L41803 32671
L41784 32653
L41746 32634
L41653 32634
L41615 32653
L41596 32671
L41578 32709
L41578 32803
L41596 32840
L41615 32859
L41653 32878
L41746 32878
L41784 32859
L41803 32840
" />
<path d="M41203 32878
L41428 32878
" />
<path d="M41315 32878
L41315 32484
L41353 32540
L41390 32578
L41428 32596
" />
<path d="M43453 32878
L43584 32690
" />
<path d="M43678 32878
L43678 32484
L43528 32484
L43490 32503
L43471 32521
L43453 32559
L43453 32615
L43471 32653
L43490 32671
L43528 32690
L43678 32690
" />
<path d="M43096 32484
L43284 32484
L43303 32671
L43284 32653
L43246 32634
L43153 32634
L43115 32653
L43096 32671
L43078 32709
L43078 32803
L43096 32840
L43115 32859
L43153 32878
L43246 32878
L43284 32859
L43303 32840
" />
<path d="M42946 32484
L42703 32484
L42834 32634
L42778 32634
L42740 32653
L42721 32671
L42703 32709
L42703 32803
L42721 32840
L42740 32859
L42778 32878
L42890 32878
L42928 32859
L42946 32840
" />
<path d="M46653 32878
L46784 32690
" />
<path d="M46878 32878
L46878 32484
L46728 32484
L46690 32503
L46671 32521
L46653 32559
L46653 32615
L46671 32653
L46690 32671
L46728 32690
L46878 32690
" />
<path d="M46296 32484
L46484 32484
L46503 32671
L46484 32653
L46446 32634
L46353 32634
L46315 32653
L46296 32671
L46278 32709
L46278 32803
L46296 32840
L46315 32859
L46353 32878
L46446 32878
L46484 32859
L46503 32840
" />
<path d="M45940 32615
L45940 32878
" />
<path d="M46034 32465
L46128 32746
L45884 32746
" />
<path d="M60653 29378
L60784 29190
" />
<path d="M60878 29378
L60878 28984
L60728 28984
L60690 29003
L60671 29021
L60653 29059
L60653 29115
L60671 29153
L60690 29171
L60728 29190
L60878 29190
" />
<path d="M60296 28984
L60484 28984
L60503 29171
L60484 29153
L60446 29134
L60353 29134
L60315 29153
L60296 29171
L60278 29209
L60278 29303
L60296 29340
L60315 29359
L60353 29378
L60446 29378
L60484 29359
L60503 29340
" />
<path d="M59921 28984
L60109 28984
L60128 29171
L60109 29153
L60071 29134
L59978 29134
L59940 29153
L59921 29171
L59903 29209
L59903 29303
L59921 29340
L59940 29359
L59978 29378
L60071 29378
L60109 29359
L60128 29340
" />
<path d="M73653 50578
L73784 50390
" />
<path d="M73878 50578
L73878 50184
L73728 50184
L73690 50203
L73671 50221
L73653 50259
L73653 50315
L73671 50353
L73690 50371
L73728 50390
L73878 50390
" />
<path d="M73296 50184
L73484 50184
L73503 50371
L73484 50353
L73446 50334
L73353 50334
L73315 50353
L73296 50371
L73278 50409
L73278 50503
L73296 50540
L73315 50559
L73353 50578
L73446 50578
L73484 50559
L73503 50540
" />
<path d="M73146 50184
L72884 50184
L73053 50578
" />
<path d="M72553 50878
L72684 50690
" />
<path d="M72778 50878
L72778 50484
L72628 50484
L72590 50503
L72571 50521
L72553 50559
L72553 50615
L72571 50653
L72590 50671
L72628 50690
L72778 50690
" />
<path d="M72196 50484
L72384 50484
L72403 50671
L72384 50653
L72346 50634
L72253 50634
L72215 50653
L72196 50671
L72178 50709
L72178 50803
L72196 50840
L72215 50859
L72253 50878
L72346 50878
L72384 50859
L72403 50840
" />
<path d="M71953 50653
L71990 50634
L72009 50615
L72028 50578
L72028 50559
L72009 50521
L71990 50503
L71953 50484
L71878 50484
L71840 50503
L71821 50521
L71803 50559
L71803 50578
L71821 50615
L71840 50634
L71878 50653
L71953 50653
L71990 50671
L72009 50690
L72028 50728
L72028 50803
L72009 50840
L71990 50859
L71953 50878
L71878 50878
L71840 50859
L71821 50840
L71803 50803
L71803 50728
L71821 50690
L71840 50671
L71878 50653
" />
<path d="M74553 32578
L74684 32390
" />
<path d="M74778 32578
L74778 32184
L74628 32184
L74590 32203
L74571 32221
L74553 32259
L74553 32315
L74571 32353
L74590 32371
L74628 32390
L74778 32390
" />
<path d="M74196 32184
L74384 32184
L74403 32371
L74384 32353
L74346 32334
L74253 32334
L74215 32353
L74196 32371
L74178 32409
L74178 32503
L74196 32540
L74215 32559
L74253 32578
L74346 32578
L74384 32559
L74403 32540
" />
<path d="M73990 32578
L73915 32578
L73878 32559
L73859 32540
L73821 32484
L73803 32409
L73803 32259
L73821 32221
L73840 32203
L73878 32184
L73953 32184
L73990 32203
L74009 32221
L74028 32259
L74028 32353
L74009 32390
L73990 32409
L73953 32428
L73878 32428
L73840 32409
L73821 32390
L73803 32353
" />
<path d="M75053 50878
L75184 50690
" />
<path d="M75278 50878
L75278 50484
L75128 50484
L75090 50503
L75071 50521
L75053 50559
L75053 50615
L75071 50653
L75090 50671
L75128 50690
L75278 50690
" />
<path d="M74715 50484
L74790 50484
L74828 50503
L74846 50521
L74884 50578
L74903 50653
L74903 50803
L74884 50840
L74865 50859
L74828 50878
L74753 50878
L74715 50859
L74696 50840
L74678 50803
L74678 50709
L74696 50671
L74715 50653
L74753 50634
L74828 50634
L74865 50653
L74884 50671
L74903 50709
" />
<path d="M74434 50484
L74396 50484
L74359 50503
L74340 50521
L74321 50559
L74303 50634
L74303 50728
L74321 50803
L74340 50840
L74359 50859
L74396 50878
L74434 50878
L74471 50859
L74490 50840
L74509 50803
L74528 50728
L74528 50634
L74509 50559
L74490 50521
L74471 50503
L74434 50484
" />
</g> 
</svg>
