M48
;DRILL file {kicad (2014-12-08 BZR 5317)-product} date sam. 06 juin 2015 11:44:37 CEST
;FORMAT={-:-/ absolute / metric / decimal}
FMAT,2
METRIC,TZ
T1C0.635
T2C0.800
T3C0.813
T4C0.900
T5C1.001
T6C1.016
T7C2.200
%
G90
G05
M71
T1
X104.521Y-82.55
X104.648Y-125.603
X105.054Y-100.482
X106.299Y-64.77
X108.902Y-145.669
X109.474Y-151.384
X110.338Y-102.21
X110.998Y-82.169
X117.665Y-64.579
X118.212Y-99.466
X119.228Y-100.432
X120.078Y-145.415
X120.904Y-84.201
X120.904Y-151.447
X120.955Y-108.153
X120.98Y-105.981
X122.047Y-83.82
X122.187Y-105.88
X122.326Y-100.686
X124.015Y-78.613
X124.142Y-80.328
X124.308Y-95.504
X124.511Y-96.977
X126.695Y-112.573
X126.848Y-74.27
X126.936Y-78.676
X127.Y-97.231
X127.965Y-102.667
X128.079Y-80.328
X128.321Y-75.184
X129.032Y-72.542
X129.222Y-64.579
X129.35Y-87.249
X129.603Y-150.685
X129.642Y-92.608
X130.048Y-80.772
X132.461Y-147.193
X133.198Y-87.325
X133.604Y-136.398
X133.909Y-146.761
X133.96Y-119.583
X134.772Y-76.098
X135.992Y-76.098
X136.271Y-92.38
X137.16Y-76.098
X137.871Y-87.732
X138.227Y-81.978
X138.379Y-76.098
X138.532Y-80.848
X138.633Y-92.456
X138.684Y-131.699
X139.395Y-119.583
X139.548Y-76.098
X140.462Y-64.643
X140.716Y-75.997
X141.287Y-132.524
X141.859Y-76.073
X143.383Y-76.073
X143.637Y-151.384
X143.701Y-145.606
X143.764Y-135.001
X144.17Y-99.416
X144.374Y-92.304
X145.161Y-76.962
X146.863Y-96.876
X147.218Y-92.151
X147.447Y-83.947
X147.523Y-104.597
X148.082Y-132.334
X148.336Y-83.058
X148.615Y-122.25
X148.717Y-123.622
X149.301Y-92.913
X149.504Y-114.503
X149.555Y-112.776
X149.758Y-111.404
X151.257Y-140.716
X151.308Y-118.567
X151.384Y-96.52
X151.638Y-99.365
X151.638Y-103.886
X151.956Y-64.325
X152.273Y-124.714
X152.654Y-121.539
X152.718Y-139.827
X153.162Y-75.946
X153.365Y-91.897
X153.518Y-93.472
X153.619Y-87.02
X154.178Y-97.231
X154.483Y-87.986
X154.813Y-145.796
X155.13Y-151.384
X155.468Y-74.461
X156.82Y-102.311
X156.858Y-105.219
X157.988Y-83.922
X157.988Y-127.
X158.115Y-139.001
X158.585Y-112.128
X159.195Y-138.049
X160.147Y-121.412
X161.036Y-78.13
X162.75Y-76.517
X163.449Y-64.008
X163.576Y-74.295
X163.576Y-127.
X163.576Y-135.636
X164.033Y-78.334
X165.354Y-77.597
X166.37Y-131.369
X166.56Y-151.32
X166.688Y-145.542
X166.878Y-71.882
X168.148Y-71.374
X172.212Y-131.572
X172.872Y-111.785
X173.672Y-64.516
X173.787Y-77.927
X175.819Y-127.508
X176.022Y-69.342
X176.784Y-132.08
X177.8Y-103.124
X177.8Y-111.785
X177.927Y-145.478
X178.054Y-62.865
X178.054Y-96.012
X178.308Y-104.394
X178.308Y-151.511
X180.086Y-75.184
X180.429Y-123.52
X181.356Y-88.138
X181.356Y-96.012
X181.61Y-75.184
X181.61Y-122.682
X182.728Y-102.972
X182.829Y-110.287
X183.007Y-82.296
X183.147Y-122.949
X183.896Y-105.41
X183.896Y-109.525
X185.039Y-68.834
X185.166Y-64.706
X185.611Y-140.208
X185.992Y-66.865
X186.182Y-77.978
X186.347Y-65.037
X186.754Y-150.939
X187.033Y-128.994
X188.239Y-128.918
X188.989Y-86.627
X189.23Y-101.143
X189.611Y-77.851
X190.627Y-130.175
X190.754Y-118.821
X191.059Y-70.637
X191.059Y-72.034
X192.976Y-78.994
X193.548Y-92.913
X193.827Y-121.717
X194.31Y-76.2
X194.691Y-123.571
X195.021Y-113.69
X195.58Y-92.786
X195.91Y-139.7
X195.961Y-75.184
X196.71Y-146.063
T3
X126.746Y-108.966
X126.746Y-116.586
X129.286Y-108.966
X129.286Y-116.586
X131.826Y-108.966
X131.826Y-116.586
X134.366Y-108.966
X134.366Y-116.586
X136.144Y-129.032
X136.906Y-108.966
X136.906Y-116.586
X138.684Y-129.032
X139.446Y-108.966
X139.446Y-116.586
X141.224Y-129.032
X141.986Y-108.966
X141.986Y-116.586
X143.764Y-129.032
X144.526Y-108.966
X144.526Y-116.586
X146.304Y-129.032
X147.066Y-108.966
X147.066Y-116.586
X148.844Y-129.032
X151.384Y-129.032
X153.924Y-129.032
X156.464Y-129.032
X161.544Y-83.312
X161.544Y-85.852
X161.544Y-88.392
X161.544Y-90.932
X161.544Y-93.472
X161.544Y-96.012
X161.544Y-98.552
X161.544Y-101.092
X161.544Y-103.632
X169.164Y-130.048
X169.926Y-71.882
X169.926Y-79.502
X172.466Y-71.882
X172.466Y-79.502
X174.244Y-130.048
X175.006Y-71.882
X175.006Y-79.502
X177.546Y-71.882
X177.546Y-79.502
X180.086Y-71.882
X180.086Y-79.502
X182.626Y-71.882
X182.626Y-79.502
X185.166Y-71.882
X185.166Y-79.502
X187.706Y-71.882
X187.706Y-79.502
T5
X100.33Y-68.58
X100.711Y-118.11
X100.711Y-120.65
X102.87Y-68.58
X106.68Y-142.748
X106.68Y-145.288
X111.76Y-68.58
X114.3Y-68.58
X117.856Y-142.748
X117.856Y-145.288
X123.19Y-68.58
X125.73Y-68.58
X129.286Y-142.748
X129.286Y-145.288
X134.62Y-68.58
X137.16Y-68.58
X140.716Y-142.748
X140.716Y-145.288
X146.05Y-68.58
X148.59Y-68.58
X152.4Y-142.748
X152.4Y-145.288
X157.48Y-68.58
X160.02Y-68.58
X163.576Y-142.748
X163.576Y-145.288
X168.91Y-68.58
X171.45Y-68.58
X175.006Y-142.748
X175.006Y-145.288
X180.34Y-68.58
X181.221Y-128.057
X181.221Y-130.556
X181.221Y-133.055
X182.88Y-68.58
X186.436Y-142.748
X186.436Y-145.288
X190.5Y-139.7
X192.405Y-69.215
X193.04Y-139.7
X194.945Y-69.215
X195.722Y-128.057
X195.722Y-133.055
T6
X100.33Y-124.968
X100.381Y-130.073
X100.381Y-134.595
X102.235Y-73.279
X102.235Y-75.819
X102.235Y-78.359
X102.235Y-80.899
X106.68Y-89.916
X106.883Y-130.073
X106.883Y-134.595
X107.696Y-126.238
X108.458Y-73.279
X108.458Y-75.819
X108.458Y-78.359
X108.458Y-80.899
X109.22Y-89.916
X110.236Y-126.238
X111.76Y-89.916
X112.776Y-126.238
X114.3Y-89.916
X114.808Y-73.279
X114.808Y-75.819
X114.808Y-78.359
X114.808Y-80.899
X115.316Y-126.238
X115.824Y-138.176
X116.84Y-89.916
X117.856Y-126.238
X118.364Y-138.176
X119.38Y-89.916
X120.396Y-126.238
X120.904Y-138.176
X121.92Y-89.916
X123.444Y-138.176
X124.46Y-89.916
X125.984Y-138.176
X127.Y-89.916
X128.524Y-138.176
X129.54Y-89.916
X131.064Y-138.176
X131.318Y-102.108
X131.318Y-104.648
X133.604Y-89.916
X133.604Y-138.176
X133.858Y-102.108
X133.858Y-104.648
X136.144Y-89.916
X136.398Y-102.108
X136.398Y-104.648
X138.684Y-89.916
X138.684Y-138.176
X138.938Y-102.108
X138.938Y-104.648
X141.224Y-89.916
X141.224Y-138.176
X141.478Y-102.108
X141.478Y-104.648
X143.764Y-89.916
X143.764Y-138.176
X146.304Y-89.916
X146.304Y-138.176
X148.844Y-89.916
X148.844Y-138.176
X151.384Y-89.916
X151.384Y-110.236
X151.384Y-112.776
X151.384Y-115.316
X151.384Y-138.176
X153.924Y-110.236
X153.924Y-112.776
X153.924Y-115.316
X167.64Y-83.058
X167.64Y-85.598
X167.64Y-90.678
X167.64Y-93.218
X167.64Y-98.552
X167.64Y-101.092
X167.64Y-106.172
X167.64Y-108.712
X170.18Y-83.058
X170.18Y-85.598
X170.18Y-90.678
X170.18Y-93.218
X170.18Y-98.552
X170.18Y-101.092
X170.18Y-106.172
X170.18Y-108.712
X171.602Y-115.926
X172.72Y-83.058
X172.72Y-85.598
X172.72Y-90.678
X172.72Y-93.218
X172.72Y-98.552
X172.72Y-101.092
X172.72Y-106.172
X172.72Y-108.712
X174.142Y-115.926
X175.26Y-83.058
X175.26Y-85.598
X175.26Y-90.678
X175.26Y-93.218
X175.26Y-98.552
X175.26Y-101.092
X175.26Y-106.172
X175.26Y-108.712
X177.8Y-83.058
X177.8Y-85.598
X177.8Y-90.678
X177.8Y-93.218
X177.8Y-98.552
X177.8Y-101.092
X177.8Y-106.172
X177.8Y-108.712
X186.182Y-83.312
X186.182Y-85.852
X186.182Y-88.392
X188.722Y-112.141
X191.262Y-112.141
T7
X188.722Y-124.356
X188.722Y-136.756
T2
X101.85Y-62.53G85X101.15Y-62.53
G05
X101.35Y-146.385G85X102.05Y-146.385
G05
X113.28Y-62.53G85X112.58Y-62.53
G05
X112.78Y-146.385G85X113.48Y-146.385
G05
X124.71Y-62.53G85X124.01Y-62.53
G05
X124.21Y-146.385G85X124.91Y-146.385
G05
X136.14Y-62.53G85X135.44Y-62.53
G05
X135.64Y-146.385G85X136.34Y-146.385
G05
X147.57Y-62.53G85X146.87Y-62.53
G05
X147.07Y-146.385G85X147.77Y-146.385
G05
X159.Y-62.53G85X158.3Y-62.53
G05
X158.5Y-146.385G85X159.2Y-146.385
G05
X170.43Y-62.53G85X169.73Y-62.53
G05
X169.93Y-146.385G85X170.63Y-146.385
G05
X181.86Y-62.53G85X181.16Y-62.53
G05
X181.36Y-146.385G85X182.06Y-146.385
G05
X192.655Y-62.53G85X191.955Y-62.53
G05
X192.155Y-146.385G85X192.855Y-146.385
G05
T4
X99.25Y-66.18G85X99.25Y-66.88
G05
X99.25Y-142.735G85X99.25Y-142.035
G05
X99.6Y-56.48G85X99.6Y-57.18
G05
X99.6Y-149.935G85X99.6Y-148.835
G05
X99.85Y-60.13G85X99.85Y-60.73
G05
X101.9Y-56.13G85X101.3Y-56.13
G05
X101.3Y-152.785G85X101.9Y-152.785
G05
X103.35Y-148.785G85X103.35Y-148.185
G05
X103.6Y-58.98G85X103.6Y-60.08
G05
X103.6Y-152.435G85X103.6Y-151.735
G05
X103.95Y-66.18G85X103.95Y-66.88
G05
X103.95Y-142.735G85X103.95Y-142.035
G05
X110.68Y-66.18G85X110.68Y-66.88
G05
X110.68Y-142.735G85X110.68Y-142.035
G05
X111.03Y-56.48G85X111.03Y-57.18
G05
X111.03Y-149.935G85X111.03Y-148.835
G05
X111.28Y-60.13G85X111.28Y-60.73
G05
X113.33Y-56.13G85X112.73Y-56.13
G05
X112.73Y-152.785G85X113.33Y-152.785
G05
X114.78Y-148.785G85X114.78Y-148.185
G05
X115.03Y-58.98G85X115.03Y-60.08
G05
X115.03Y-152.435G85X115.03Y-151.735
G05
X115.38Y-66.18G85X115.38Y-66.88
G05
X115.38Y-142.735G85X115.38Y-142.035
G05
X122.11Y-66.18G85X122.11Y-66.88
G05
X122.11Y-142.735G85X122.11Y-142.035
G05
X122.46Y-56.48G85X122.46Y-57.18
G05
X122.46Y-149.935G85X122.46Y-148.835
G05
X122.71Y-60.13G85X122.71Y-60.73
G05
X124.76Y-56.13G85X124.16Y-56.13
G05
X124.16Y-152.785G85X124.76Y-152.785
G05
X126.21Y-148.785G85X126.21Y-148.185
G05
X126.46Y-58.98G85X126.46Y-60.08
G05
X126.46Y-152.435G85X126.46Y-151.735
G05
X126.81Y-66.18G85X126.81Y-66.88
G05
X126.81Y-142.735G85X126.81Y-142.035
G05
X133.54Y-66.18G85X133.54Y-66.88
G05
X133.54Y-142.735G85X133.54Y-142.035
G05
X133.89Y-56.48G85X133.89Y-57.18
G05
X133.89Y-149.935G85X133.89Y-148.835
G05
X134.14Y-60.13G85X134.14Y-60.73
G05
X136.19Y-56.13G85X135.59Y-56.13
G05
X135.59Y-152.785G85X136.19Y-152.785
G05
X137.64Y-148.785G85X137.64Y-148.185
G05
X137.89Y-58.98G85X137.89Y-60.08
G05
X137.89Y-152.435G85X137.89Y-151.735
G05
X138.24Y-66.18G85X138.24Y-66.88
G05
X138.24Y-142.735G85X138.24Y-142.035
G05
X144.97Y-66.18G85X144.97Y-66.88
G05
X144.97Y-142.735G85X144.97Y-142.035
G05
X145.32Y-56.48G85X145.32Y-57.18
G05
X145.32Y-149.935G85X145.32Y-148.835
G05
X145.57Y-60.13G85X145.57Y-60.73
G05
X147.62Y-56.13G85X147.02Y-56.13
G05
X147.02Y-152.785G85X147.62Y-152.785
G05
X149.07Y-148.785G85X149.07Y-148.185
G05
X149.32Y-58.98G85X149.32Y-60.08
G05
X149.32Y-152.435G85X149.32Y-151.735
G05
X149.67Y-66.18G85X149.67Y-66.88
G05
X149.67Y-142.735G85X149.67Y-142.035
G05
X156.4Y-66.18G85X156.4Y-66.88
G05
X156.4Y-142.735G85X156.4Y-142.035
G05
X156.75Y-56.48G85X156.75Y-57.18
G05
X156.75Y-149.935G85X156.75Y-148.835
G05
X157.Y-60.13G85X157.Y-60.73
G05
X159.05Y-56.13G85X158.45Y-56.13
G05
X158.45Y-152.785G85X159.05Y-152.785
G05
X160.5Y-148.785G85X160.5Y-148.185
G05
X160.75Y-58.98G85X160.75Y-60.08
G05
X160.75Y-152.435G85X160.75Y-151.735
G05
X161.1Y-66.18G85X161.1Y-66.88
G05
X161.1Y-142.735G85X161.1Y-142.035
G05
X167.83Y-66.18G85X167.83Y-66.88
G05
X167.83Y-142.735G85X167.83Y-142.035
G05
X168.18Y-56.48G85X168.18Y-57.18
G05
X168.18Y-149.935G85X168.18Y-148.835
G05
X168.43Y-60.13G85X168.43Y-60.73
G05
X170.48Y-56.13G85X169.88Y-56.13
G05
X169.88Y-152.785G85X170.48Y-152.785
G05
X171.93Y-148.785G85X171.93Y-148.185
G05
X172.18Y-58.98G85X172.18Y-60.08
G05
X172.18Y-152.435G85X172.18Y-151.735
G05
X172.53Y-66.18G85X172.53Y-66.88
G05
X172.53Y-142.735G85X172.53Y-142.035
G05
X179.26Y-66.18G85X179.26Y-66.88
G05
X179.26Y-142.735G85X179.26Y-142.035
G05
X179.61Y-56.48G85X179.61Y-57.18
G05
X179.61Y-149.935G85X179.61Y-148.835
G05
X179.86Y-60.13G85X179.86Y-60.73
G05
X181.91Y-56.13G85X181.31Y-56.13
G05
X181.31Y-152.785G85X181.91Y-152.785
G05
X183.36Y-148.785G85X183.36Y-148.185
G05
X183.61Y-58.98G85X183.61Y-60.08
G05
X183.61Y-152.435G85X183.61Y-151.735
G05
X183.96Y-66.18G85X183.96Y-66.88
G05
X183.96Y-142.735G85X183.96Y-142.035
G05
X190.055Y-66.18G85X190.055Y-66.88
G05
X190.055Y-142.735G85X190.055Y-142.035
G05
X190.405Y-56.48G85X190.405Y-57.18
G05
X190.405Y-149.935G85X190.405Y-148.835
G05
X190.655Y-60.13G85X190.655Y-60.73
G05
X192.705Y-56.13G85X192.105Y-56.13
G05
X192.105Y-152.785G85X192.705Y-152.785
G05
X194.155Y-148.785G85X194.155Y-148.185
G05
X194.405Y-58.98G85X194.405Y-60.08
G05
X194.405Y-152.435G85X194.405Y-151.735
G05
X194.755Y-66.18G85X194.755Y-66.88
G05
X194.755Y-142.735G85X194.755Y-142.035
G05
T0
M30
